<svg width="100%" height="100%" viewBox="0 0 293 134" version="1.1" xmlns="http://www.w3.org/2000/svg" xmlns:xlink="http://www.w3.org/1999/xlink" xml:space="preserve" style="fill-rule:evenodd;clip-rule:evenodd;stroke-linejoin:round;stroke-miterlimit:2;">
    <g transform="matrix(6.6,0,0,6.6,-25.4,-12.2)">
        <path d="M19,7L16,7L16,6C16,3.806 14.194,2 12,2C9.806,2 8,3.806 8,6L8,7L5,7C4.451,7 4,7.451 4,8L4,19C4,20.646 5.354,22 7,22L17,22C18.646,22 20,20.646 20,19L20,8C20,7.451 19.549,7 19,7ZM10,6C10,4.903 10.903,4 12,4C13.097,4 14,4.903 14,6L14,7L10,7L10,6ZM18,19C18,19.549 17.549,20 17,20L7,20C6.451,20 6,19.549 6,19L6,9L8,9L8,10C8,10.549 8.451,11 9,11C9.549,11 10,10.549 10,10L10,9L14,9L14,10C14,10.549 14.451,11 15,11C15.549,11 16,10.549 16,10L16,9L18,9L18,19Z" style="fill:rgb(1,0,97);fill-rule:nonzero;"/>
    </g>
    <g>
        <g transform="matrix(34.2354,0,0,34.2354,123.11,76.3305)">
            <path d="M0.567,-0.199C0.567,-0.162 0.558,-0.127 0.539,-0.096C0.52,-0.065 0.492,-0.04 0.455,-0.021C0.418,-0.002 0.373,0.007 0.32,0.007C0.241,0.007 0.175,-0.012 0.124,-0.051C0.073,-0.09 0.045,-0.144 0.04,-0.213L0.222,-0.213C0.225,-0.186 0.234,-0.165 0.251,-0.15C0.267,-0.135 0.288,-0.127 0.313,-0.127C0.335,-0.127 0.352,-0.133 0.365,-0.145C0.378,-0.157 0.384,-0.173 0.384,-0.193C0.384,-0.211 0.378,-0.226 0.367,-0.238C0.355,-0.25 0.34,-0.26 0.323,-0.268C0.306,-0.275 0.282,-0.284 0.251,-0.295C0.206,-0.31 0.17,-0.325 0.141,-0.34C0.113,-0.354 0.089,-0.375 0.069,-0.404C0.048,-0.432 0.038,-0.469 0.038,-0.514C0.038,-0.556 0.049,-0.592 0.07,-0.623C0.091,-0.654 0.121,-0.677 0.159,-0.694C0.196,-0.71 0.239,-0.718 0.288,-0.718C0.367,-0.718 0.429,-0.699 0.475,-0.662C0.522,-0.625 0.548,-0.573 0.554,-0.508L0.369,-0.508C0.366,-0.531 0.357,-0.55 0.344,-0.564C0.33,-0.577 0.311,-0.584 0.288,-0.584C0.268,-0.584 0.252,-0.579 0.239,-0.568C0.227,-0.557 0.221,-0.542 0.221,-0.521C0.221,-0.504 0.227,-0.49 0.237,-0.478C0.249,-0.467 0.262,-0.457 0.279,-0.45C0.296,-0.443 0.32,-0.433 0.351,-0.422C0.396,-0.407 0.433,-0.392 0.462,-0.377C0.491,-0.362 0.515,-0.34 0.536,-0.311C0.557,-0.282 0.567,-0.245 0.567,-0.199Z" style="fill:rgb(1,0,97);fill-rule:nonzero;"/>
        </g>
        <g transform="matrix(34.2354,0,0,34.2354,143.754,76.3305)">
            <path d="M0.413,-0.564C0.477,-0.564 0.528,-0.543 0.566,-0.5C0.603,-0.457 0.622,-0.399 0.622,-0.324L0.622,-0L0.451,-0L0.451,-0.304C0.451,-0.341 0.441,-0.371 0.422,-0.392C0.402,-0.412 0.376,-0.423 0.343,-0.423C0.308,-0.423 0.281,-0.412 0.261,-0.39C0.24,-0.368 0.23,-0.337 0.23,-0.296L0.23,-0L0.059,-0L0.059,-0.74L0.23,-0.74L0.23,-0.456C0.246,-0.489 0.27,-0.516 0.302,-0.535C0.333,-0.554 0.37,-0.564 0.413,-0.564Z" style="fill:rgb(1,0,97);fill-rule:nonzero;"/>
        </g>
        <g transform="matrix(34.2354,0,0,34.2354,166.897,76.3305)">
            <path d="M0.32,-0.565C0.375,-0.565 0.425,-0.554 0.469,-0.531C0.512,-0.507 0.547,-0.474 0.572,-0.431C0.597,-0.388 0.609,-0.337 0.609,-0.279C0.609,-0.221 0.597,-0.17 0.572,-0.127C0.547,-0.084 0.512,-0.051 0.469,-0.028C0.425,-0.005 0.375,0.007 0.32,0.007C0.265,0.007 0.215,-0.005 0.171,-0.028C0.127,-0.051 0.093,-0.084 0.068,-0.127C0.043,-0.17 0.03,-0.221 0.03,-0.279C0.03,-0.337 0.043,-0.388 0.068,-0.431C0.093,-0.474 0.127,-0.507 0.171,-0.531C0.215,-0.554 0.265,-0.565 0.32,-0.565ZM0.32,-0.417C0.287,-0.417 0.26,-0.405 0.237,-0.382C0.215,-0.358 0.204,-0.324 0.204,-0.279C0.204,-0.234 0.215,-0.2 0.237,-0.177C0.26,-0.154 0.287,-0.142 0.32,-0.142C0.353,-0.142 0.38,-0.154 0.402,-0.177C0.424,-0.2 0.435,-0.234 0.435,-0.279C0.435,-0.324 0.424,-0.358 0.402,-0.382C0.38,-0.405 0.353,-0.417 0.32,-0.417Z" style="fill:rgb(1,0,97);fill-rule:nonzero;"/>
        </g>
        <g transform="matrix(34.2354,0,0,34.2354,188.774,76.3305)">
            <path d="M0.407,-0.565C0.453,-0.565 0.494,-0.554 0.531,-0.531C0.567,-0.507 0.596,-0.474 0.617,-0.432C0.637,-0.389 0.648,-0.338 0.648,-0.279C0.648,-0.221 0.637,-0.17 0.617,-0.127C0.596,-0.084 0.567,-0.051 0.531,-0.028C0.494,-0.005 0.453,0.007 0.407,0.007C0.364,0.007 0.328,-0.003 0.297,-0.022C0.266,-0.041 0.244,-0.068 0.23,-0.101L0.23,0.266L0.059,0.266L0.059,-0.558L0.23,-0.558L0.23,-0.457C0.244,-0.49 0.266,-0.517 0.297,-0.536C0.328,-0.555 0.364,-0.565 0.407,-0.565ZM0.352,-0.415C0.316,-0.415 0.286,-0.403 0.264,-0.379C0.241,-0.354 0.229,-0.321 0.229,-0.279C0.229,-0.238 0.241,-0.205 0.264,-0.18C0.286,-0.155 0.316,-0.143 0.352,-0.143C0.389,-0.143 0.418,-0.155 0.441,-0.179C0.463,-0.203 0.474,-0.236 0.474,-0.279C0.474,-0.322 0.463,-0.355 0.441,-0.379C0.418,-0.403 0.389,-0.415 0.352,-0.415Z" style="fill:rgb(1,0,97);fill-rule:nonzero;"/>
        </g>
        <g transform="matrix(34.2354,0,0,34.2354,211.985,76.3305)">
            <path d="M0.043,-0.715C0.043,-0.741 0.052,-0.762 0.071,-0.78C0.09,-0.797 0.114,-0.805 0.145,-0.805C0.176,-0.805 0.2,-0.797 0.219,-0.78C0.238,-0.762 0.247,-0.741 0.247,-0.715C0.247,-0.69 0.238,-0.669 0.219,-0.652C0.2,-0.634 0.176,-0.626 0.145,-0.626C0.114,-0.626 0.09,-0.634 0.071,-0.652C0.052,-0.669 0.043,-0.69 0.043,-0.715ZM0.23,-0.558L0.23,-0L0.059,-0L0.059,-0.558L0.23,-0.558Z" style="fill:rgb(1,0,97);fill-rule:nonzero;"/>
        </g>
        <g transform="matrix(34.2354,0,0,34.2354,221.879,76.3305)">
            <path d="M0.333,-0.634C0.305,-0.634 0.285,-0.628 0.272,-0.616C0.259,-0.604 0.252,-0.585 0.251,-0.558L0.352,-0.558L0.352,-0.414L0.251,-0.414L0.251,-0L0.08,-0L0.08,-0.414L0.013,-0.414L0.013,-0.558L0.08,-0.558L0.08,-0.564C0.08,-0.633 0.1,-0.687 0.141,-0.725C0.181,-0.762 0.239,-0.781 0.316,-0.781C0.332,-0.781 0.344,-0.781 0.352,-0.78L0.352,-0.633L0.333,-0.634Z" style="fill:rgb(1,0,97);fill-rule:nonzero;"/>
        </g>
        <g transform="matrix(34.2354,0,0,34.2354,234.478,76.3305)">
            <path d="M0.188,-0.558L0.322,-0.216L0.447,-0.558L0.636,-0.558L0.288,0.266L0.1,0.266L0.231,-0.021L-0.003,-0.558L0.188,-0.558Z" style="fill:rgb(1,0,97);fill-rule:nonzero;"/>
        </g>
        <g transform="matrix(34.2354,0,0,34.2354,123.11,113.989)">
            <path d="M0.567,-0.199C0.567,-0.162 0.558,-0.127 0.539,-0.096C0.52,-0.065 0.492,-0.04 0.455,-0.021C0.418,-0.002 0.373,0.007 0.32,0.007C0.241,0.007 0.175,-0.012 0.124,-0.051C0.073,-0.09 0.045,-0.144 0.04,-0.213L0.222,-0.213C0.225,-0.186 0.234,-0.165 0.251,-0.15C0.267,-0.135 0.288,-0.127 0.313,-0.127C0.335,-0.127 0.352,-0.133 0.365,-0.145C0.378,-0.157 0.384,-0.173 0.384,-0.193C0.384,-0.211 0.378,-0.226 0.367,-0.238C0.355,-0.25 0.34,-0.26 0.323,-0.268C0.306,-0.275 0.282,-0.284 0.251,-0.295C0.206,-0.31 0.17,-0.325 0.141,-0.34C0.113,-0.354 0.089,-0.375 0.069,-0.404C0.048,-0.432 0.038,-0.469 0.038,-0.514C0.038,-0.556 0.049,-0.592 0.07,-0.623C0.091,-0.654 0.121,-0.677 0.159,-0.694C0.196,-0.71 0.239,-0.718 0.288,-0.718C0.367,-0.718 0.429,-0.699 0.475,-0.662C0.522,-0.625 0.548,-0.573 0.554,-0.508L0.369,-0.508C0.366,-0.531 0.357,-0.55 0.344,-0.564C0.33,-0.577 0.311,-0.584 0.288,-0.584C0.268,-0.584 0.252,-0.579 0.239,-0.568C0.227,-0.557 0.221,-0.542 0.221,-0.521C0.221,-0.504 0.227,-0.49 0.237,-0.478C0.249,-0.467 0.262,-0.457 0.279,-0.45C0.296,-0.443 0.32,-0.433 0.351,-0.422C0.396,-0.407 0.433,-0.392 0.462,-0.377C0.491,-0.362 0.515,-0.34 0.536,-0.311C0.557,-0.282 0.567,-0.245 0.567,-0.199Z" style="fill:rgb(1,0,97);fill-rule:nonzero;"/>
        </g>
        <g transform="matrix(34.2354,0,0,34.2354,143.754,113.989)">
            <path d="M0.375,-0.147L0.375,-0L0.298,-0C0.233,-0 0.182,-0.016 0.146,-0.049C0.109,-0.081 0.091,-0.134 0.091,-0.209L0.091,-0.414L0.016,-0.414L0.016,-0.558L0.091,-0.558L0.091,-0.695L0.262,-0.695L0.262,-0.558L0.374,-0.558L0.374,-0.414L0.262,-0.414L0.262,-0.206C0.262,-0.184 0.267,-0.169 0.276,-0.16C0.284,-0.151 0.3,-0.147 0.321,-0.147L0.375,-0.147Z" style="fill:rgb(1,0,97);fill-rule:nonzero;"/>
        </g>
        <g transform="matrix(34.2354,0,0,34.2354,157.859,113.989)">
            <path d="M0.271,-0.565C0.314,-0.565 0.35,-0.555 0.381,-0.536C0.412,-0.517 0.434,-0.49 0.449,-0.457L0.449,-0.558L0.619,-0.558L0.619,-0L0.449,-0L0.449,-0.101C0.434,-0.068 0.412,-0.041 0.381,-0.022C0.35,-0.003 0.314,0.007 0.271,0.007C0.225,0.007 0.184,-0.005 0.148,-0.028C0.111,-0.051 0.083,-0.084 0.062,-0.127C0.041,-0.17 0.03,-0.221 0.03,-0.279C0.03,-0.338 0.041,-0.389 0.062,-0.432C0.083,-0.474 0.111,-0.507 0.148,-0.531C0.184,-0.554 0.225,-0.565 0.271,-0.565ZM0.326,-0.415C0.289,-0.415 0.26,-0.403 0.237,-0.379C0.215,-0.355 0.204,-0.322 0.204,-0.279C0.204,-0.236 0.215,-0.203 0.237,-0.179C0.26,-0.155 0.289,-0.143 0.326,-0.143C0.362,-0.143 0.392,-0.155 0.414,-0.18C0.438,-0.205 0.449,-0.238 0.449,-0.279C0.449,-0.321 0.438,-0.354 0.414,-0.379C0.392,-0.403 0.362,-0.415 0.326,-0.415Z" style="fill:rgb(1,0,97);fill-rule:nonzero;"/>
        </g>
        <g transform="matrix(34.2354,0,0,34.2354,181.071,113.989)">
            <path d="M0.23,-0.453C0.251,-0.487 0.279,-0.514 0.313,-0.534C0.346,-0.554 0.383,-0.564 0.422,-0.564L0.422,-0.381L0.373,-0.381C0.328,-0.381 0.293,-0.371 0.268,-0.352C0.243,-0.333 0.23,-0.3 0.23,-0.254L0.23,-0L0.059,-0L0.059,-0.558L0.23,-0.558L0.23,-0.453Z" style="fill:rgb(1,0,97);fill-rule:nonzero;"/>
        </g>
        <g transform="matrix(34.2354,0,0,34.2354,197.963,113.989)">
            <path d="M0.375,-0.147L0.375,-0L0.298,-0C0.233,-0 0.182,-0.016 0.146,-0.049C0.109,-0.081 0.091,-0.134 0.091,-0.209L0.091,-0.414L0.016,-0.414L0.016,-0.558L0.091,-0.558L0.091,-0.695L0.262,-0.695L0.262,-0.558L0.374,-0.558L0.374,-0.414L0.262,-0.414L0.262,-0.206C0.262,-0.184 0.267,-0.169 0.276,-0.16C0.284,-0.151 0.3,-0.147 0.321,-0.147L0.375,-0.147Z" style="fill:rgb(1,0,97);fill-rule:nonzero;"/>
        </g>
        <g transform="matrix(34.2354,0,0,34.2354,212.068,113.989)">
            <path d="M0.589,-0.294C0.589,-0.28 0.587,-0.265 0.584,-0.248L0.197,-0.248C0.199,-0.206 0.21,-0.176 0.229,-0.158C0.248,-0.139 0.273,-0.13 0.303,-0.13C0.328,-0.13 0.349,-0.136 0.366,-0.149C0.383,-0.162 0.394,-0.178 0.399,-0.198L0.58,-0.198C0.573,-0.159 0.557,-0.124 0.532,-0.093C0.507,-0.062 0.476,-0.037 0.438,-0.02C0.4,-0.002 0.358,0.007 0.311,0.007C0.256,0.007 0.208,-0.005 0.166,-0.028C0.123,-0.051 0.09,-0.084 0.066,-0.127C0.042,-0.17 0.03,-0.221 0.03,-0.279C0.03,-0.338 0.042,-0.389 0.066,-0.432C0.089,-0.474 0.122,-0.507 0.165,-0.531C0.208,-0.554 0.256,-0.565 0.311,-0.565C0.366,-0.565 0.415,-0.554 0.457,-0.531C0.499,-0.508 0.532,-0.476 0.555,-0.436C0.578,-0.395 0.589,-0.347 0.589,-0.294ZM0.416,-0.32C0.417,-0.357 0.407,-0.384 0.387,-0.403C0.366,-0.421 0.341,-0.43 0.311,-0.43C0.28,-0.43 0.254,-0.421 0.233,-0.402C0.212,-0.383 0.201,-0.356 0.198,-0.32L0.416,-0.32Z" style="fill:rgb(1,0,97);fill-rule:nonzero;"/>
        </g>
        <g transform="matrix(34.2354,0,0,34.2354,233.26,113.989)">
            <path d="M0.23,-0.453C0.251,-0.487 0.279,-0.514 0.313,-0.534C0.346,-0.554 0.383,-0.564 0.422,-0.564L0.422,-0.381L0.373,-0.381C0.328,-0.381 0.293,-0.371 0.268,-0.352C0.243,-0.333 0.23,-0.3 0.23,-0.254L0.23,-0L0.059,-0L0.059,-0.558L0.23,-0.558L0.23,-0.453Z" style="fill:rgb(1,0,97);fill-rule:nonzero;"/>
        </g>
        <g transform="matrix(34.2354,0,0,34.2354,248.152,113.989)">
            <path d="M0.397,-0L0.23,-0.237L0.23,-0L0.059,-0L0.059,-0.74L0.23,-0.74L0.23,-0.334L0.397,-0.558L0.598,-0.558L0.373,-0.279L0.603,-0L0.397,-0Z" style="fill:rgb(1,0,97);fill-rule:nonzero;"/>
        </g>
        <g transform="matrix(34.2354,0,0,34.2354,268.899,113.989)">
            <path d="M0.043,-0.715C0.043,-0.741 0.052,-0.762 0.071,-0.78C0.09,-0.797 0.114,-0.805 0.145,-0.805C0.176,-0.805 0.2,-0.797 0.219,-0.78C0.238,-0.762 0.247,-0.741 0.247,-0.715C0.247,-0.69 0.238,-0.669 0.219,-0.652C0.2,-0.634 0.176,-0.626 0.145,-0.626C0.114,-0.626 0.09,-0.634 0.071,-0.652C0.052,-0.669 0.043,-0.69 0.043,-0.715ZM0.23,-0.558L0.23,-0L0.059,-0L0.059,-0.558L0.23,-0.558Z" style="fill:rgb(1,0,97);fill-rule:nonzero;"/>
        </g>
        <g transform="matrix(34.2354,0,0,34.2354,278.793,113.989)">
            <path d="M0.375,-0.147L0.375,-0L0.298,-0C0.233,-0 0.182,-0.016 0.146,-0.049C0.109,-0.081 0.091,-0.134 0.091,-0.209L0.091,-0.414L0.016,-0.414L0.016,-0.558L0.091,-0.558L0.091,-0.695L0.262,-0.695L0.262,-0.558L0.374,-0.558L0.374,-0.414L0.262,-0.414L0.262,-0.206C0.262,-0.184 0.267,-0.169 0.276,-0.16C0.284,-0.151 0.3,-0.147 0.321,-0.147L0.375,-0.147Z" style="fill:rgb(1,0,97);fill-rule:nonzero;"/>
        </g>
    </g>
    <g transform="matrix(57.9872,0,0,57.9872,35.2589,104.799)">
        <path d="M0.567,-0.199C0.567,-0.162 0.558,-0.127 0.539,-0.096C0.52,-0.065 0.492,-0.04 0.455,-0.021C0.418,-0.002 0.373,0.007 0.32,0.007C0.241,0.007 0.175,-0.012 0.124,-0.051C0.073,-0.09 0.045,-0.144 0.04,-0.213L0.222,-0.213C0.225,-0.186 0.234,-0.165 0.251,-0.15C0.267,-0.135 0.288,-0.127 0.313,-0.127C0.335,-0.127 0.352,-0.133 0.365,-0.145C0.378,-0.157 0.384,-0.173 0.384,-0.193C0.384,-0.211 0.378,-0.226 0.367,-0.238C0.355,-0.25 0.34,-0.26 0.323,-0.268C0.306,-0.275 0.282,-0.284 0.251,-0.295C0.206,-0.31 0.17,-0.325 0.141,-0.34C0.113,-0.354 0.089,-0.375 0.069,-0.404C0.048,-0.432 0.038,-0.469 0.038,-0.514C0.038,-0.556 0.049,-0.592 0.07,-0.623C0.091,-0.654 0.121,-0.677 0.159,-0.694C0.196,-0.71 0.239,-0.718 0.288,-0.718C0.367,-0.718 0.429,-0.699 0.475,-0.662C0.522,-0.625 0.548,-0.573 0.554,-0.508L0.369,-0.508C0.366,-0.531 0.357,-0.55 0.344,-0.564C0.33,-0.577 0.311,-0.584 0.288,-0.584C0.268,-0.584 0.252,-0.579 0.239,-0.568C0.227,-0.557 0.221,-0.542 0.221,-0.521C0.221,-0.504 0.227,-0.49 0.237,-0.478C0.249,-0.467 0.262,-0.457 0.279,-0.45C0.296,-0.443 0.32,-0.433 0.351,-0.422C0.396,-0.407 0.433,-0.392 0.462,-0.377C0.491,-0.362 0.515,-0.34 0.536,-0.311C0.557,-0.282 0.567,-0.245 0.567,-0.199Z" style="fill:rgb(1,0,97);fill-rule:nonzero;"/>
    </g>
</svg>
