<svg width="715" height="301" viewBox="0 0 715 301" fill="none" xmlns="http://www.w3.org/2000/svg">
<g filter="url(#filter0_d)">
<rect x="65.4007" y="43.6057" width="170.03" height="170.126" rx="16" fill="white"/>
<path d="M178.706 100.259C178.677 100.065 178.583 99.8874 178.44 99.7536C178.296 99.6199 178.112 99.5382 177.917 99.5219C177.59 99.4957 171.168 99.3954 171.168 99.3954C171.168 99.3954 165.797 94.1606 165.27 93.6459C164.985 93.4505 164.657 93.3256 164.315 93.2817C163.972 93.2377 163.624 93.2758 163.299 93.3928L160.6 94.2304C160.261 93.1344 159.824 92.0714 159.292 91.0546C158.62 89.4488 157.502 88.0696 156.07 87.0807C154.638 86.0917 152.953 85.5346 151.214 85.4752V85.4752C150.965 85.4752 150.734 85.5014 150.499 85.5014C150.412 85.4011 150.298 85.2833 150.194 85.1655C149.483 84.3918 148.609 83.7857 147.636 83.3912C146.662 82.9966 145.614 82.8234 144.565 82.884C141.954 83.2562 139.474 84.2612 137.339 85.8114C135.205 87.3616 133.481 89.4101 132.319 91.7788C129.867 95.6648 128.199 99.9937 127.41 104.521L118.808 107.186C116.275 107.98 116.192 108.059 115.865 110.45C115.621 112.256 108.994 163.521 108.994 163.521L164.52 173.119L188.586 167.133C188.586 167.133 178.75 100.717 178.706 100.259ZM157.823 95.0985L153.516 96.4334C153.533 93.7275 153.091 91.0384 152.208 88.4809C155.499 89.109 157.134 92.8606 157.823 95.0985ZM150.608 97.332L141.339 100.207C142.162 96.8505 143.765 93.7358 146.017 91.1157C146.893 90.1376 147.966 89.3557 149.165 88.8211C150.235 91.5276 150.726 94.4283 150.608 97.3364V97.332ZM144.652 85.798C145.575 85.751 146.489 85.9919 147.268 86.4873C145.993 87.1678 144.845 88.062 143.872 89.1309C140.92 92.573 138.941 96.7416 138.139 101.206L130.522 103.566C132.026 96.5293 137.908 85.9943 144.652 85.798Z" fill="#95BF47"/>
<path d="M177.917 99.5263C177.59 99.5001 171.181 99.4041 171.181 99.4041C171.181 99.4041 165.81 94.1693 165.283 93.6546C165.078 93.4626 164.816 93.3418 164.537 93.31V173.14L188.599 167.155C188.599 167.155 178.772 100.717 178.711 100.242C178.676 100.051 178.58 99.8777 178.436 99.7482C178.293 99.6187 178.11 99.5406 177.917 99.5263Z" fill="#5E8E3E"/>
<path d="M151.183 111.911L148.389 122.38C146.232 121.489 143.905 121.084 141.574 121.194C136.155 121.539 136.099 124.954 136.151 125.814C136.447 130.494 148.751 131.515 149.439 142.478C149.725 144.258 149.637 146.079 149.179 147.824C148.721 149.568 147.904 151.198 146.78 152.608C145.656 154.018 144.251 155.178 142.653 156.013C141.055 156.848 139.301 157.34 137.502 157.458C135.017 157.681 132.513 157.382 130.151 156.579C127.789 155.776 125.621 154.487 123.787 152.795L125.661 144.82C128.215 146.786 131.276 147.982 134.485 148.271C134.955 148.258 135.416 148.15 135.843 147.954C136.27 147.758 136.653 147.478 136.968 147.131C137.284 146.783 137.527 146.376 137.682 145.932C137.836 145.489 137.9 145.018 137.869 144.55C137.485 138.443 127.466 138.805 126.834 128.776C126.302 120.335 131.843 111.763 144.064 111.012C146.475 110.732 148.917 111.04 151.183 111.911V111.911Z" fill="white"/>
</g>
<g filter="url(#filter1_d)">
<rect x="274.669" y="43.6057" width="170.031" height="170.126" rx="16" fill="white"/>
<path d="M367.427 95.971L358.202 111.955L348.981 95.971H318.267L358.206 165.192L398.146 95.971H367.427Z" fill="#41B883"/>
<path d="M367.427 95.971L358.202 111.955L348.977 95.971H334.236L358.215 137.5L382.168 95.971H367.427Z" fill="#34495E"/>
</g>
<g filter="url(#filter2_d)">
<rect x="479.578" y="43.6057" width="170.03" height="170.126" rx="16" fill="white"/>
<path fill-rule="evenodd" clip-rule="evenodd" d="M563.616 100.333C550.505 100.333 542.312 106.893 539.036 120.012C543.951 113.451 549.687 110.99 556.244 112.631C559.927 113.932 563.174 116.238 565.617 119.288C568.33 122.652 571.774 125.352 575.688 127.182C579.602 129.013 583.881 129.925 588.201 129.849C601.312 129.849 609.507 123.289 612.786 110.17C607.868 116.728 602.132 119.189 595.578 117.551C591.894 116.25 588.647 113.944 586.204 110.895C583.491 107.53 580.046 104.829 576.131 102.999C572.217 101.169 567.936 100.257 563.616 100.333V100.333ZM539.036 129.849C525.925 129.849 517.73 136.408 514.451 149.527C519.369 142.969 525.105 140.51 531.659 142.151C535.346 143.449 538.598 145.754 541.046 148.803C543.758 152.167 547.203 154.867 551.116 156.698C555.03 158.528 559.31 159.44 563.629 159.364C576.741 159.364 584.935 152.805 588.214 139.686C583.296 146.244 577.56 148.704 571.006 147.067C567.323 145.765 564.076 143.46 561.633 140.41C558.919 137.044 555.472 134.343 551.556 132.512C547.64 130.682 543.357 129.771 539.036 129.849V129.849Z" fill="#06B6D4"/>
</g>
<defs>
<filter id="filter0_d" x="20.4007" y="18.6057" width="260.03" height="260.126" filterUnits="userSpaceOnUse" color-interpolation-filters="sRGB">
<feFlood flood-opacity="0" result="BackgroundImageFix"/>
<feColorMatrix in="SourceAlpha" type="matrix" values="0 0 0 0 0 0 0 0 0 0 0 0 0 0 0 0 0 0 127 0"/>
<feOffset dy="20"/>
<feGaussianBlur stdDeviation="22.5"/>
<feColorMatrix type="matrix" values="0 0 0 0 0 0 0 0 0 0 0 0 0 0 0 0 0 0 0.08 0"/>
<feBlend mode="normal" in2="BackgroundImageFix" result="effect1_dropShadow"/>
<feBlend mode="normal" in="SourceGraphic" in2="effect1_dropShadow" result="shape"/>
</filter>
<filter id="filter1_d" x="229.669" y="18.6057" width="260.031" height="260.126" filterUnits="userSpaceOnUse" color-interpolation-filters="sRGB">
<feFlood flood-opacity="0" result="BackgroundImageFix"/>
<feColorMatrix in="SourceAlpha" type="matrix" values="0 0 0 0 0 0 0 0 0 0 0 0 0 0 0 0 0 0 127 0"/>
<feOffset dy="20"/>
<feGaussianBlur stdDeviation="22.5"/>
<feColorMatrix type="matrix" values="0 0 0 0 0 0 0 0 0 0 0 0 0 0 0 0 0 0 0.08 0"/>
<feBlend mode="normal" in2="BackgroundImageFix" result="effect1_dropShadow"/>
<feBlend mode="normal" in="SourceGraphic" in2="effect1_dropShadow" result="shape"/>
</filter>
<filter id="filter2_d" x="434.578" y="18.6057" width="260.03" height="260.126" filterUnits="userSpaceOnUse" color-interpolation-filters="sRGB">
<feFlood flood-opacity="0" result="BackgroundImageFix"/>
<feColorMatrix in="SourceAlpha" type="matrix" values="0 0 0 0 0 0 0 0 0 0 0 0 0 0 0 0 0 0 127 0"/>
<feOffset dy="20"/>
<feGaussianBlur stdDeviation="22.5"/>
<feColorMatrix type="matrix" values="0 0 0 0 0 0 0 0 0 0 0 0 0 0 0 0 0 0 0.08 0"/>
<feBlend mode="normal" in2="BackgroundImageFix" result="effect1_dropShadow"/>
<feBlend mode="normal" in="SourceGraphic" in2="effect1_dropShadow" result="shape"/>
</filter>
</defs>
</svg>
