<svg xmlns="http://www.w3.org/2000/svg" xmlns:xlink="http://www.w3.org/1999/xlink" width="164" height="69" viewBox="0 0 164 69"><defs><filter id="a" x="0" y="0" width="69" height="69" filterUnits="userSpaceOnUse"><feOffset dy="5" input="SourceAlpha"/><feGaussianBlur stdDeviation="5" result="b"/><feFlood flood-opacity="0.078"/><feComposite operator="in" in2="b"/><feComposite in="SourceGraphic"/></filter><filter id="c" x="48" y="0" width="69" height="69" filterUnits="userSpaceOnUse"><feOffset dy="5" input="SourceAlpha"/><feGaussianBlur stdDeviation="5" result="d"/><feFlood flood-opacity="0.078"/><feComposite operator="in" in2="d"/><feComposite in="SourceGraphic"/></filter><filter id="e" x="95" y="0" width="69" height="69" filterUnits="userSpaceOnUse"><feOffset dy="5" input="SourceAlpha"/><feGaussianBlur stdDeviation="5" result="f"/><feFlood flood-opacity="0.078"/><feComposite operator="in" in2="f"/><feComposite in="SourceGraphic"/></filter><clipPath id="g"><path d="M0,0H22.554V13.533H0Z" fill="#fff"/></clipPath></defs><g transform="translate(-45 -116)"><g transform="translate(60 126)"><g transform="matrix(1, 0, 0, 1, -15, -10)" filter="url(#a)"><path d="M81.6,303.863a3.257,3.257,0,0,0-3.257-3.257H45.858a3.257,3.257,0,0,0-3.257,3.257v32.485a3.257,3.257,0,0,0,3.257,3.257H78.344a3.257,3.257,0,0,0,3.257-3.257Z" transform="translate(-27.6 -290.61)" fill="#fff" fill-rule="evenodd"/></g></g><g transform="translate(70 135)"><path d="M15.99,3.983a.2.2,0,0,0-.181-.169c-.075-.006-1.548-.029-1.548-.029s-1.232-1.2-1.353-1.318a.5.5,0,0,0-.452-.058l-.619.192a4.346,4.346,0,0,0-.3-.728A2.086,2.086,0,0,0,9.684.594h0C9.627.594,9.574.6,9.52.6,9.5.577,9.474.55,9.45.523A1.626,1.626,0,0,0,8.159,0,3.713,3.713,0,0,0,5.35,2.039,8.069,8.069,0,0,0,4.224,4.96l-1.973.611c-.581.182-.6.2-.675.748C1.52,6.733,0,18.485,0,18.485l12.736,2.2,5.52-1.372S16,4.088,15.99,3.983ZM11.2,2.8l-.988.306a5.474,5.474,0,0,0-.3-1.823C10.667,1.427,11.042,2.287,11.2,2.8Zm-1.655.512-2.126.659A5.037,5.037,0,0,1,8.492,1.887a2.138,2.138,0,0,1,.722-.526A4.778,4.778,0,0,1,9.545,3.313ZM8.179.668a1.022,1.022,0,0,1,.6.158A2.9,2.9,0,0,0,8,1.432,5.836,5.836,0,0,0,6.685,4.2l-1.747.541C5.283,3.128,6.632.713,8.179.668Z" transform="translate(0 0)" fill="#95bf47"/><path d="M24.445,5.436C24.37,5.43,22.9,5.408,22.9,5.408s-1.232-1.2-1.353-1.318a.3.3,0,0,0-.171-.079v18.3l5.519-1.372S24.641,5.709,24.627,5.6A.2.2,0,0,0,24.445,5.436Z" transform="translate(-8.636 -1.621)" fill="#5e8e3e"/><path d="M11.978,11.018l-.641,2.4a3.642,3.642,0,0,0-1.563-.272c-1.243.079-1.256.862-1.244,1.059.068,1.073,2.89,1.307,3.048,3.82A2.969,2.969,0,0,1,8.84,21.459,4.1,4.1,0,0,1,5.694,20.39l.43-1.828a3.891,3.891,0,0,0,2.024.791.8.8,0,0,0,.776-.853c-.088-1.4-2.386-1.317-2.531-3.616-.122-1.935,1.149-3.9,3.952-4.072A3.446,3.446,0,0,1,11.978,11.018Z" transform="translate(-2.301 -4.364)" fill="#fff"/></g><g transform="translate(108 126)"><g transform="matrix(1, 0, 0, 1, -63, -10)" filter="url(#c)"><path d="M81.6,303.863a3.257,3.257,0,0,0-3.257-3.257H45.858a3.257,3.257,0,0,0-3.257,3.257v32.485a3.257,3.257,0,0,0,3.257,3.257H78.344a3.257,3.257,0,0,0,3.257-3.257Z" transform="translate(20.4 -290.61)" fill="#fff" fill-rule="evenodd"/></g></g><g transform="translate(118 138)"><g transform="translate(0 0)"><path d="M-7.646,0-9.762,3.664-11.877,0h-7.045l9.161,15.868L-.6,0Z" transform="translate(18.923)" fill="#41b883"/></g><g transform="translate(3.664 0)"><path d="M-5.161,0-7.277,3.664-9.393,0h-3.381l5.5,9.52L-1.78,0Z" transform="translate(12.774)" fill="#34495e"/></g></g><g transform="translate(155 126)"><g transform="matrix(1, 0, 0, 1, -110, -10)" filter="url(#e)"><path d="M81.6,303.863a3.257,3.257,0,0,0-3.257-3.257H45.858a3.257,3.257,0,0,0-3.257,3.257v32.485a3.257,3.257,0,0,0,3.257,3.257H78.344a3.257,3.257,0,0,0,3.257-3.257Z" transform="translate(67.4 -290.61)" fill="#fff" fill-rule="evenodd"/></g></g><g transform="translate(163 139)" clip-path="url(#g)"><path d="M11.277,0Q6.766,0,5.639,4.511,7.33,2.255,9.586,2.819a4.807,4.807,0,0,1,2.15,1.526,6.509,6.509,0,0,0,5.18,2.421q4.511,0,5.639-4.511-1.692,2.255-3.947,1.692a4.807,4.807,0,0,1-2.15-1.526A6.509,6.509,0,0,0,11.277,0ZM5.639,6.766Q1.128,6.766,0,11.277,1.692,9.022,3.947,9.586A4.811,4.811,0,0,1,6.1,11.111a6.509,6.509,0,0,0,5.18,2.421q4.511,0,5.639-4.511-1.692,2.255-3.947,1.692a4.807,4.807,0,0,1-2.15-1.526A6.509,6.509,0,0,0,5.639,6.766Z" fill="#06b6d4" fill-rule="evenodd"/></g></g></svg>