<svg xmlns="http://www.w3.org/2000/svg" xmlns:xlink="http://www.w3.org/1999/xlink" width="714" height="150" viewBox="0 0 714 150"><defs><filter id="a" x="-16.976" y="-4" width="203.457" height="168.523" filterUnits="userSpaceOnUse"><feOffset dy="15" input="SourceAlpha"/><feGaussianBlur stdDeviation="15" result="b"/><feFlood flood-color="red" flood-opacity="0.349"/><feComposite operator="in" in2="b"/><feComposite in="SourceGraphic"/></filter><clipPath id="d"><rect width="714" height="150"/></clipPath></defs><g id="c" clip-path="url(#d)"><rect width="612" height="130" rx="16" transform="translate(102)" fill="#6e78ff"/><g transform="translate(28.024 26)"><g transform="matrix(1, 0, 0, 1, -28.02, -26)" filter="url(#a)"><path d="M111.3,12.745A14.1,14.1,0,0,0,101.288,2.8C92.428.5,56.988.5,56.988.5S22.2.355,13.336,2.66c-4.9,1.3-9.58,5.258-10.877,10.085C.082,21.533.3,39.757.3,39.757S.082,57.982,2.459,66.77c1.3,4.826,6.051,8.788,10.877,10.085,8.86,2.377,43.652,2.161,43.652,2.161s34.792.144,43.652-2.161c4.9-1.3,9.436-5.258,10.733-10.085,2.377-8.716,2.377-27.012,2.377-27.012S113.678,21.533,111.3,12.745Z" transform="translate(27.73 25.5)" fill="red"/></g><path d="M63.9,65.664,92.209,48.232,63.9,30.8Z" transform="translate(-18.082 -8.972)" fill="#fff"/></g><path d="M21.348,4.644,17.388-.108a13.056,13.056,0,0,1-3.168.36A12.792,12.792,0,0,1,7.758-1.4,11.979,11.979,0,0,1,3.186-6.048,13.534,13.534,0,0,1,1.512-12.78a13.434,13.434,0,0,1,1.674-6.714A12.013,12.013,0,0,1,7.758-24.12a12.792,12.792,0,0,1,6.462-1.656,12.792,12.792,0,0,1,6.462,1.656,12.013,12.013,0,0,1,4.572,4.626,13.434,13.434,0,0,1,1.674,6.714,13.713,13.713,0,0,1-1.44,6.318,11.937,11.937,0,0,1-4,4.554L27.5,4.644ZM6.7-12.78A9.666,9.666,0,0,0,7.65-8.37a6.9,6.9,0,0,0,2.646,2.9A7.52,7.52,0,0,0,14.22-4.464a7.52,7.52,0,0,0,3.924-1.008,6.9,6.9,0,0,0,2.646-2.9,9.666,9.666,0,0,0,.954-4.41,9.666,9.666,0,0,0-.954-4.41,6.9,6.9,0,0,0-2.646-2.9A7.52,7.52,0,0,0,14.22-21.1,7.52,7.52,0,0,0,10.3-20.088a6.9,6.9,0,0,0-2.646,2.9A9.666,9.666,0,0,0,6.7-12.78ZM39.24-25.416v14.9A6.619,6.619,0,0,0,40.554-6.03a4.789,4.789,0,0,0,3.8,1.494A4.744,4.744,0,0,0,48.114-6.03a6.619,6.619,0,0,0,1.314-4.482v-14.9h5.04v14.9a12.388,12.388,0,0,1-1.314,5.958A8.463,8.463,0,0,1,49.518-.936,11.414,11.414,0,0,1,44.244.252a9.877,9.877,0,0,1-7.308-2.736Q34.2-5.22,34.2-10.512v-14.9Zm28.368,0V0H62.532V-25.416ZM87.3-25.668a12.415,12.415,0,0,1,7.884,2.448,11.577,11.577,0,0,1,4.14,6.66H94a6.971,6.971,0,0,0-2.574-3.24,7.276,7.276,0,0,0-4.194-1.188,6.742,6.742,0,0,0-3.636,1.008,6.727,6.727,0,0,0-2.52,2.88,10.035,10.035,0,0,0-.9,4.392,9.946,9.946,0,0,0,.9,4.356,6.727,6.727,0,0,0,2.52,2.88,6.742,6.742,0,0,0,3.636,1.008,7.276,7.276,0,0,0,4.194-1.188A6.971,6.971,0,0,0,94-8.892h5.328a11.577,11.577,0,0,1-4.14,6.66A12.415,12.415,0,0,1,87.3.216a12.454,12.454,0,0,1-6.426-1.638,11.153,11.153,0,0,1-4.32-4.59,14.337,14.337,0,0,1-1.53-6.7,14.417,14.417,0,0,1,1.53-6.732,11.189,11.189,0,0,1,4.3-4.59A12.429,12.429,0,0,1,87.3-25.668Zm29.3,12.744L127.368,0h-6.156l-9.4-11.628V0H106.74V-25.416h5.076V-14l9.432-11.412h6.12Zm46.08,5.976a6.892,6.892,0,0,1-.972,3.582,6.981,6.981,0,0,1-2.88,2.628,9.985,9.985,0,0,1-4.644.99,12.051,12.051,0,0,1-4.824-.918,8.157,8.157,0,0,1-3.4-2.646A7.633,7.633,0,0,1,144.5-7.344h5.4a4.126,4.126,0,0,0,1.242,2.574,3.9,3.9,0,0,0,2.826,1.026,3.289,3.289,0,0,0,2.43-.846,2.948,2.948,0,0,0,.846-2.178,2.853,2.853,0,0,0-.684-1.962,4.991,4.991,0,0,0-1.728-1.242q-1.044-.468-2.88-1.08a28.47,28.47,0,0,1-3.888-1.566,7.187,7.187,0,0,1-2.574-2.25,6.446,6.446,0,0,1-1.062-3.852,6.263,6.263,0,0,1,2.358-5.166,9.692,9.692,0,0,1,6.246-1.89,9.892,9.892,0,0,1,6.426,1.944,7.338,7.338,0,0,1,2.718,5.184h-5.472a3.811,3.811,0,0,0-1.152-2.25A3.577,3.577,0,0,0,153-21.78a3.371,3.371,0,0,0-2.268.738,2.661,2.661,0,0,0-.864,2.142,2.663,2.663,0,0,0,.666,1.854,5.082,5.082,0,0,0,1.692,1.206,27.771,27.771,0,0,0,2.79,1.044,37.094,37.094,0,0,1,3.978,1.62,7.009,7.009,0,0,1,2.61,2.268A6.665,6.665,0,0,1,162.684-6.948Zm24.624-18.468v4.032h-7.02V0h-5.076V-21.384h-6.984v-4.032ZM209.2-5.112H199.008L197.208,0h-5.364l9.36-25.128H207L216.324,0H210.96Zm-1.368-3.852-3.744-10.728L200.34-8.964ZM235.908,0l-5.94-9.9h-2.232V0H222.66V-25.416h9.684q4.428,0,6.75,2.16a7.4,7.4,0,0,1,2.322,5.688,7.334,7.334,0,0,1-1.6,4.824,7.905,7.905,0,0,1-4.626,2.592L241.524,0Zm-8.172-13.392h4.176q4.356,0,4.356-3.852a3.794,3.794,0,0,0-1.062-2.862,4.592,4.592,0,0,0-3.294-1.026h-4.176Zm37.98-12.024v4.032H258.7V0H253.62V-21.384h-6.984v-4.032Zm35.136,0v4.032h-7.02V0h-5.076V-21.384h-6.984v-4.032Zm11.3,0v14.9A6.619,6.619,0,0,0,313.47-6.03a4.789,4.789,0,0,0,3.8,1.494A4.744,4.744,0,0,0,321.03-6.03a6.619,6.619,0,0,0,1.314-4.482v-14.9h5.04v14.9a12.388,12.388,0,0,1-1.314,5.958,8.463,8.463,0,0,1-3.636,3.618A11.414,11.414,0,0,1,317.16.252a9.877,9.877,0,0,1-7.308-2.736q-2.736-2.736-2.736-8.028v-14.9Zm40.572,0v4.032h-7.02V0h-5.076V-21.384h-6.984v-4.032Zm18.324-.36a12.792,12.792,0,0,1,6.462,1.656,12.013,12.013,0,0,1,4.572,4.626,13.434,13.434,0,0,1,1.674,6.714,13.534,13.534,0,0,1-1.674,6.732A11.979,11.979,0,0,1,377.514-1.4,12.792,12.792,0,0,1,371.052.252,12.792,12.792,0,0,1,364.59-1.4a11.979,11.979,0,0,1-4.572-4.644,13.534,13.534,0,0,1-1.674-6.732,13.434,13.434,0,0,1,1.674-6.714,12.012,12.012,0,0,1,4.572-4.626A12.792,12.792,0,0,1,371.052-25.776Zm0,4.68a7.52,7.52,0,0,0-3.924,1.008,6.9,6.9,0,0,0-2.646,2.9,9.666,9.666,0,0,0-.954,4.41,9.666,9.666,0,0,0,.954,4.41,6.9,6.9,0,0,0,2.646,2.9,7.52,7.52,0,0,0,3.924,1.008,7.52,7.52,0,0,0,3.924-1.008,6.9,6.9,0,0,0,2.646-2.9,9.666,9.666,0,0,0,.954-4.41,9.666,9.666,0,0,0-.954-4.41,6.9,6.9,0,0,0-2.646-2.9A7.52,7.52,0,0,0,371.052-21.1ZM404.424,0l-5.94-9.9h-2.232V0h-5.076V-25.416h9.684q4.428,0,6.75,2.16a7.4,7.4,0,0,1,2.322,5.688,7.334,7.334,0,0,1-1.6,4.824,7.905,7.905,0,0,1-4.626,2.592L410.04,0Zm-8.172-13.392h4.176q4.356,0,4.356-3.852a3.794,3.794,0,0,0-1.062-2.862,4.592,4.592,0,0,0-3.294-1.026h-4.176Zm25.776-12.024V0h-5.076V-25.416Zm23.688,20.3H435.528L433.728,0h-5.364l9.36-25.128h5.8L452.844,0H447.48Zm-1.368-3.852L440.6-19.692,436.86-8.964Zm19.908,5.076h8.532V0H459.18V-25.416h5.076Z" transform="translate(171 76.776)" fill="#fff"/></g></svg>