<svg xmlns="http://www.w3.org/2000/svg" xmlns:xlink="http://www.w3.org/1999/xlink" width="570" height="150" viewBox="0 0 570 150"><defs><filter id="a" x="-16.976" y="-4" width="203.457" height="168.523" filterUnits="userSpaceOnUse"><feOffset dy="15" input="SourceAlpha"/><feGaussianBlur stdDeviation="15" result="b"/><feFlood flood-color="red" flood-opacity="0.349"/><feComposite operator="in" in2="b"/><feComposite in="SourceGraphic"/></filter><clipPath id="d"><rect width="570" height="150"/></clipPath></defs><g id="c" clip-path="url(#d)"><rect width="468" height="130" rx="16" transform="translate(102)" fill="#6e78ff"/><g transform="translate(28.024 26)"><g transform="matrix(1, 0, 0, 1, -28.02, -26)" filter="url(#a)"><path d="M111.3,12.745A14.1,14.1,0,0,0,101.288,2.8C92.428.5,56.988.5,56.988.5S22.2.355,13.336,2.66c-4.9,1.3-9.58,5.258-10.877,10.085C.082,21.533.3,39.757.3,39.757S.082,57.982,2.459,66.77c1.3,4.826,6.051,8.788,10.877,10.085,8.86,2.377,43.652,2.161,43.652,2.161s34.792.144,43.652-2.161c4.9-1.3,9.436-5.258,10.733-10.085,2.377-8.716,2.377-27.012,2.377-27.012S113.678,21.533,111.3,12.745Z" transform="translate(27.73 25.5)" fill="red"/></g><path d="M63.9,65.664,92.209,48.232,63.9,30.8Z" transform="translate(-18.082 -8.972)" fill="#fff"/></g><path d="M19.764-6.948a6.892,6.892,0,0,1-.972,3.582,6.981,6.981,0,0,1-2.88,2.628,9.985,9.985,0,0,1-4.644.99A12.051,12.051,0,0,1,6.444-.666a8.157,8.157,0,0,1-3.4-2.646A7.633,7.633,0,0,1,1.584-7.344h5.4A4.126,4.126,0,0,0,8.226-4.77a3.9,3.9,0,0,0,2.826,1.026,3.289,3.289,0,0,0,2.43-.846,2.948,2.948,0,0,0,.846-2.178,2.854,2.854,0,0,0-.684-1.962,4.991,4.991,0,0,0-1.728-1.242q-1.044-.468-2.88-1.08a28.47,28.47,0,0,1-3.888-1.566,7.187,7.187,0,0,1-2.574-2.25A6.446,6.446,0,0,1,1.512-18.72,6.263,6.263,0,0,1,3.87-23.886a9.692,9.692,0,0,1,6.246-1.89,9.892,9.892,0,0,1,6.426,1.944,7.338,7.338,0,0,1,2.718,5.184H13.788a3.811,3.811,0,0,0-1.152-2.25,3.577,3.577,0,0,0-2.556-.882,3.371,3.371,0,0,0-2.268.738A2.661,2.661,0,0,0,6.948-18.9a2.663,2.663,0,0,0,.666,1.854A5.082,5.082,0,0,0,9.306-15.84,27.771,27.771,0,0,0,12.1-14.8a37.094,37.094,0,0,1,3.978,1.62,7.009,7.009,0,0,1,2.61,2.268A6.665,6.665,0,0,1,19.764-6.948Zm12.42-14.436V-14.8h9v3.888h-9v6.84h10.08V0H27.108V-25.416H42.264v4.032Zm34.7-4.032v4.032h-7.02V0H54.792V-21.384H47.808v-4.032Zm11.3,0v14.9A6.619,6.619,0,0,0,79.506-6.03a4.789,4.789,0,0,0,3.8,1.494A4.744,4.744,0,0,0,87.066-6.03a6.619,6.619,0,0,0,1.314-4.482v-14.9h5.04v14.9a12.388,12.388,0,0,1-1.314,5.958A8.463,8.463,0,0,1,88.47-.936,11.414,11.414,0,0,1,83.2.252a9.877,9.877,0,0,1-7.308-2.736q-2.736-2.736-2.736-8.028v-14.9ZM106.56-9.432V0h-5.076V-25.416h9.252q4.5,0,6.786,2.16a7.687,7.687,0,0,1,2.286,5.868,7.477,7.477,0,0,1-2.358,5.8q-2.358,2.16-6.714,2.16ZM110.2-13.5q4.464,0,4.464-3.888a3.868,3.868,0,0,0-1.044-2.916,4.814,4.814,0,0,0-3.42-1.008H106.56V-13.5Zm45.252-11.916v4.032h-7.02V0h-5.076V-21.384h-6.984v-4.032Zm11.3,0v14.9a6.619,6.619,0,0,0,1.314,4.482,4.789,4.789,0,0,0,3.8,1.494,4.744,4.744,0,0,0,3.762-1.494,6.619,6.619,0,0,0,1.314-4.482v-14.9h5.04v14.9a12.388,12.388,0,0,1-1.314,5.958A8.463,8.463,0,0,1,177.03-.936,11.414,11.414,0,0,1,171.756.252a9.877,9.877,0,0,1-7.308-2.736q-2.736-2.736-2.736-8.028v-14.9Zm40.572,0v4.032H200.3V0h-5.076V-21.384h-6.984v-4.032Zm18.324-.36a12.792,12.792,0,0,1,6.462,1.656,12.013,12.013,0,0,1,4.572,4.626,13.434,13.434,0,0,1,1.674,6.714,13.534,13.534,0,0,1-1.674,6.732A11.979,11.979,0,0,1,232.11-1.4,12.792,12.792,0,0,1,225.648.252,12.792,12.792,0,0,1,219.186-1.4a11.979,11.979,0,0,1-4.572-4.644,13.534,13.534,0,0,1-1.674-6.732,13.434,13.434,0,0,1,1.674-6.714,12.013,12.013,0,0,1,4.572-4.626A12.792,12.792,0,0,1,225.648-25.776Zm0,4.68a7.52,7.52,0,0,0-3.924,1.008,6.9,6.9,0,0,0-2.646,2.9,9.666,9.666,0,0,0-.954,4.41,9.666,9.666,0,0,0,.954,4.41,6.9,6.9,0,0,0,2.646,2.9,7.52,7.52,0,0,0,3.924,1.008,7.52,7.52,0,0,0,3.924-1.008,6.9,6.9,0,0,0,2.646-2.9,9.666,9.666,0,0,0,.954-4.41,9.666,9.666,0,0,0-.954-4.41,6.9,6.9,0,0,0-2.646-2.9A7.52,7.52,0,0,0,225.648-21.1ZM259.02,0l-5.94-9.9h-2.232V0h-5.076V-25.416h9.684q4.428,0,6.75,2.16a7.4,7.4,0,0,1,2.322,5.688,7.334,7.334,0,0,1-1.6,4.824,7.905,7.905,0,0,1-4.626,2.592L264.636,0Zm-8.172-13.392h4.176q4.356,0,4.356-3.852a3.794,3.794,0,0,0-1.062-2.862,4.592,4.592,0,0,0-3.294-1.026h-4.176Zm25.776-12.024V0h-5.076V-25.416Zm23.688,20.3H290.124L288.324,0H282.96l9.36-25.128h5.8L307.44,0h-5.364Zm-1.368-3.852L295.2-19.692,291.456-8.964Zm19.908,5.076h8.532V0H313.776V-25.416h5.076Z" transform="translate(172 80.776)" fill="#fff"/></g></svg>