<svg width="715" height="150" viewBox="0 0 715 150" fill="none" xmlns="http://www.w3.org/2000/svg">
<g clip-path="url(#clip0)">
<rect x="102" width="613" height="130" rx="16" fill="#6E78FF"/>
<path d="M191.232 82.32L187.992 77.964C187.032 78.156 186.096 78.252 185.184 78.252C182.808 78.252 180.624 77.7 178.632 76.596C176.664 75.492 175.092 73.956 173.916 71.988C172.764 69.996 172.188 67.764 172.188 65.292C172.188 62.82 172.764 60.6 173.916 58.632C175.092 56.664 176.664 55.128 178.632 54.024C180.624 52.92 182.808 52.368 185.184 52.368C187.56 52.368 189.732 52.92 191.7 54.024C193.692 55.128 195.252 56.664 196.38 58.632C197.532 60.6 198.108 62.82 198.108 65.292C198.108 67.452 197.664 69.432 196.776 71.232C195.912 73.008 194.7 74.484 193.14 75.66L198.684 82.32H191.232ZM178.488 65.292C178.488 67.524 179.088 69.312 180.288 70.656C181.512 71.976 183.144 72.636 185.184 72.636C187.2 72.636 188.808 71.964 190.008 70.62C191.232 69.276 191.844 67.5 191.844 65.292C191.844 63.06 191.232 61.284 190.008 59.964C188.808 58.62 187.2 57.948 185.184 57.948C183.144 57.948 181.512 58.608 180.288 59.928C179.088 61.248 178.488 63.036 178.488 65.292ZM210.531 52.728V67.848C210.531 69.36 210.903 70.524 211.647 71.34C212.391 72.156 213.483 72.564 214.923 72.564C216.363 72.564 217.467 72.156 218.235 71.34C219.003 70.524 219.387 69.36 219.387 67.848V52.728H225.543V67.812C225.543 70.068 225.063 71.976 224.103 73.536C223.143 75.096 221.847 76.272 220.215 77.064C218.607 77.856 216.807 78.252 214.815 78.252C212.823 78.252 211.035 77.868 209.451 77.1C207.891 76.308 206.655 75.132 205.743 73.572C204.831 71.988 204.375 70.068 204.375 67.812V52.728H210.531ZM238.902 52.728V78H232.746V52.728H238.902ZM245.199 65.328C245.199 62.832 245.739 60.612 246.819 58.668C247.899 56.7 249.399 55.176 251.319 54.096C253.263 52.992 255.459 52.44 257.907 52.44C260.907 52.44 263.475 53.232 265.611 54.816C267.747 56.4 269.175 58.56 269.895 61.296H263.127C262.623 60.24 261.903 59.436 260.967 58.884C260.055 58.332 259.011 58.056 257.835 58.056C255.939 58.056 254.403 58.716 253.227 60.036C252.051 61.356 251.463 63.12 251.463 65.328C251.463 67.536 252.051 69.3 253.227 70.62C254.403 71.94 255.939 72.6 257.835 72.6C259.011 72.6 260.055 72.324 260.967 71.772C261.903 71.22 262.623 70.416 263.127 69.36H269.895C269.175 72.096 267.747 74.256 265.611 75.84C263.475 77.4 260.907 78.18 257.907 78.18C255.459 78.18 253.263 77.64 251.319 76.56C249.399 75.456 247.899 73.932 246.819 71.988C245.739 70.044 245.199 67.824 245.199 65.328ZM291.197 78L282.701 66.84V78H276.545V52.728H282.701V63.816L291.125 52.728H298.361L288.569 65.112L298.721 78H291.197ZM324.179 78.252C322.331 78.252 320.675 77.952 319.211 77.352C317.747 76.752 316.571 75.864 315.683 74.688C314.819 73.512 314.363 72.096 314.315 70.44H320.867C320.963 71.376 321.287 72.096 321.839 72.6C322.391 73.08 323.111 73.32 323.999 73.32C324.911 73.32 325.631 73.116 326.159 72.708C326.687 72.276 326.951 71.688 326.951 70.944C326.951 70.32 326.735 69.804 326.303 69.396C325.895 68.988 325.379 68.652 324.755 68.388C324.155 68.124 323.291 67.824 322.163 67.488C320.531 66.984 319.199 66.48 318.167 65.976C317.135 65.472 316.247 64.728 315.503 63.744C314.759 62.76 314.387 61.476 314.387 59.892C314.387 57.54 315.239 55.704 316.943 54.384C318.647 53.04 320.867 52.368 323.603 52.368C326.387 52.368 328.631 53.04 330.335 54.384C332.039 55.704 332.951 57.552 333.071 59.928H326.411C326.363 59.112 326.063 58.476 325.511 58.02C324.959 57.54 324.251 57.3 323.387 57.3C322.643 57.3 322.043 57.504 321.587 57.912C321.131 58.296 320.903 58.86 320.903 59.604C320.903 60.42 321.287 61.056 322.055 61.512C322.823 61.968 324.023 62.46 325.655 62.988C327.287 63.54 328.607 64.068 329.615 64.572C330.647 65.076 331.535 65.808 332.279 66.768C333.023 67.728 333.395 68.964 333.395 70.476C333.395 71.916 333.023 73.224 332.279 74.4C331.559 75.576 330.503 76.512 329.111 77.208C327.719 77.904 326.075 78.252 324.179 78.252ZM358.244 52.728V57.66H351.548V78H345.392V57.66H338.696V52.728H358.244ZM379.945 73.536H370.513L369.001 78H362.557L371.701 52.728H378.829L387.973 78H381.457L379.945 73.536ZM378.361 68.784L375.229 59.532L372.133 68.784H378.361ZM406.524 78L401.268 68.46H399.792V78H393.636V52.728H403.968C405.96 52.728 407.652 53.076 409.044 53.772C410.46 54.468 411.516 55.428 412.212 56.652C412.908 57.852 413.256 59.196 413.256 60.684C413.256 62.364 412.776 63.864 411.816 65.184C410.88 66.504 409.488 67.44 407.64 67.992L413.472 78H406.524ZM399.792 64.104H403.608C404.736 64.104 405.576 63.828 406.128 63.276C406.704 62.724 406.992 61.944 406.992 60.936C406.992 59.976 406.704 59.22 406.128 58.668C405.576 58.116 404.736 57.84 403.608 57.84H399.792V64.104ZM438.181 52.728V57.66H431.485V78H425.329V57.66H418.633V52.728H438.181ZM472.839 52.728V57.66H466.143V78H459.987V57.66H453.291V52.728H472.839ZM484.857 52.728V67.848C484.857 69.36 485.229 70.524 485.973 71.34C486.717 72.156 487.809 72.564 489.249 72.564C490.689 72.564 491.793 72.156 492.561 71.34C493.329 70.524 493.713 69.36 493.713 67.848V52.728H499.869V67.812C499.869 70.068 499.389 71.976 498.429 73.536C497.469 75.096 496.173 76.272 494.541 77.064C492.933 77.856 491.133 78.252 489.141 78.252C487.149 78.252 485.361 77.868 483.777 77.1C482.217 76.308 480.981 75.132 480.069 73.572C479.157 71.988 478.701 70.068 478.701 67.812V52.728H484.857ZM525.252 52.728V57.66H518.556V78H512.4V57.66H505.704V52.728H525.252ZM543.173 78.252C540.797 78.252 538.613 77.7 536.621 76.596C534.653 75.492 533.081 73.956 531.905 71.988C530.753 69.996 530.177 67.764 530.177 65.292C530.177 62.82 530.753 60.6 531.905 58.632C533.081 56.664 534.653 55.128 536.621 54.024C538.613 52.92 540.797 52.368 543.173 52.368C545.549 52.368 547.721 52.92 549.689 54.024C551.681 55.128 553.241 56.664 554.369 58.632C555.521 60.6 556.097 62.82 556.097 65.292C556.097 67.764 555.521 69.996 554.369 71.988C553.217 73.956 551.657 75.492 549.689 76.596C547.721 77.7 545.549 78.252 543.173 78.252ZM543.173 72.636C545.189 72.636 546.797 71.964 547.997 70.62C549.221 69.276 549.833 67.5 549.833 65.292C549.833 63.06 549.221 61.284 547.997 59.964C546.797 58.62 545.189 57.948 543.173 57.948C541.133 57.948 539.501 58.608 538.277 59.928C537.077 61.248 536.477 63.036 536.477 65.292C536.477 67.524 537.077 69.312 538.277 70.656C539.501 71.976 541.133 72.636 543.173 72.636ZM575.29 78L570.034 68.46H568.558V78H562.402V52.728H572.734C574.726 52.728 576.418 53.076 577.81 53.772C579.226 54.468 580.282 55.428 580.978 56.652C581.674 57.852 582.022 59.196 582.022 60.684C582.022 62.364 581.542 63.864 580.582 65.184C579.646 66.504 578.254 67.44 576.406 67.992L582.238 78H575.29ZM568.558 64.104H572.374C573.502 64.104 574.342 63.828 574.894 63.276C575.47 62.724 575.758 61.944 575.758 60.936C575.758 59.976 575.47 59.22 574.894 58.668C574.342 58.116 573.502 57.84 572.374 57.84H568.558V64.104ZM594.922 52.728V78H588.766V52.728H594.922ZM617.995 73.536H608.563L607.051 78H600.607L609.751 52.728H616.879L626.023 78H619.507L617.995 73.536ZM616.411 68.784L613.279 59.532L610.183 68.784H616.411ZM637.842 73.248H645.906V78H631.686V52.728H637.842V73.248Z" fill="white"/>
<g filter="url(#filter0_d)">
<path d="M140.005 38.2468C139.357 35.8557 138.091 33.6775 136.333 31.9317C134.575 30.1858 132.389 28.9338 129.993 28.3018C121.133 26.0018 85.6932 26.0018 85.6932 26.0018C85.6932 26.0018 50.9052 25.8568 42.0412 28.1618C37.1412 29.4618 32.4612 33.4198 31.1642 38.2468C28.7872 47.0348 29.0052 65.2588 29.0052 65.2588C29.0052 65.2588 28.7872 83.4838 31.1642 92.2718C32.4642 97.0978 37.2152 101.06 42.0412 102.357C50.9012 104.734 85.6932 104.518 85.6932 104.518C85.6932 104.518 120.485 104.662 129.345 102.357C134.245 101.057 138.781 97.0988 140.078 92.2718C142.455 83.5558 142.455 65.2598 142.455 65.2598C142.455 65.2598 142.383 47.0348 140.005 38.2468Z" fill="#FF0000"/>
</g>
<path d="M74.8132 82.6938L103.122 65.2618L74.8132 47.8298V82.6938Z" fill="white"/>
</g>
<defs>
<filter id="filter0_d" x="-1" y="11" width="173.455" height="138.523" filterUnits="userSpaceOnUse" color-interpolation-filters="sRGB">
<feFlood flood-opacity="0" result="BackgroundImageFix"/>
<feColorMatrix in="SourceAlpha" type="matrix" values="0 0 0 0 0 0 0 0 0 0 0 0 0 0 0 0 0 0 127 0"/>
<feOffset dy="15"/>
<feGaussianBlur stdDeviation="15"/>
<feColorMatrix type="matrix" values="0 0 0 0 1 0 0 0 0 0 0 0 0 0 0 0 0 0 0.349 0"/>
<feBlend mode="normal" in2="BackgroundImageFix" result="effect1_dropShadow"/>
<feBlend mode="normal" in="SourceGraphic" in2="effect1_dropShadow" result="shape"/>
</filter>
<clipPath id="clip0">
<rect width="715" height="150" fill="white"/>
</clipPath>
</defs>
</svg>
