<svg width="838" height="514" viewBox="0 0 838 514" fill="none" xmlns="http://www.w3.org/2000/svg">
<g clip-path="url(#clip0)">
<g filter="url(#filter0_d)">
<path d="M640 45H744C752.837 45 760 52.1634 760 61V238C760 246.837 752.837 254 744 254H640V45Z" fill="white"/>
</g>
<path d="M678.45 211H677.288V202.038H674.123V201.006H681.615V202.038H678.45V211ZM688.082 211V206.153C688.082 205.543 687.943 205.087 687.665 204.786C687.387 204.485 686.952 204.335 686.359 204.335C685.571 204.335 684.994 204.549 684.63 204.978C684.27 205.406 684.09 206.108 684.09 207.083V211H682.955V200.363H684.09V203.583C684.09 203.97 684.072 204.292 684.035 204.547H684.104C684.327 204.187 684.644 203.904 685.054 203.699C685.468 203.49 685.94 203.385 686.469 203.385C687.385 203.385 688.071 203.604 688.526 204.041C688.987 204.474 689.217 205.164 689.217 206.112V211H688.082ZM694.72 211.137C693.612 211.137 692.737 210.799 692.095 210.125C691.457 209.451 691.138 208.514 691.138 207.315C691.138 206.108 691.434 205.148 692.026 204.438C692.623 203.727 693.423 203.371 694.426 203.371C695.365 203.371 696.107 203.681 696.654 204.301C697.201 204.916 697.475 205.729 697.475 206.741V207.459H692.313C692.336 208.339 692.557 209.006 692.977 209.462C693.4 209.918 693.995 210.146 694.761 210.146C695.567 210.146 696.365 209.977 697.153 209.64V210.651C696.752 210.825 696.372 210.948 696.012 211.021C695.656 211.098 695.226 211.137 694.72 211.137ZM694.412 204.321C693.811 204.321 693.33 204.517 692.97 204.909C692.614 205.301 692.405 205.843 692.341 206.536H696.258C696.258 205.821 696.098 205.274 695.779 204.896C695.46 204.513 695.005 204.321 694.412 204.321ZM708.966 211V206.126C708.966 205.529 708.838 205.082 708.583 204.786C708.328 204.485 707.931 204.335 707.394 204.335C706.687 204.335 706.165 204.538 705.828 204.943C705.491 205.349 705.322 205.973 705.322 206.816V211H704.188V206.126C704.188 205.529 704.06 205.082 703.805 204.786C703.549 204.485 703.151 204.335 702.608 204.335C701.897 204.335 701.376 204.549 701.043 204.978C700.715 205.401 700.551 206.099 700.551 207.069V211H699.416V203.508H700.339L700.523 204.533H700.578C700.792 204.169 701.093 203.884 701.48 203.679C701.872 203.474 702.31 203.371 702.793 203.371C703.964 203.371 704.73 203.795 705.09 204.643H705.145C705.368 204.251 705.691 203.941 706.115 203.713C706.539 203.485 707.022 203.371 707.564 203.371C708.412 203.371 709.046 203.59 709.465 204.027C709.889 204.46 710.101 205.155 710.101 206.112V211H708.966ZM715.61 211.137C714.503 211.137 713.628 210.799 712.985 210.125C712.347 209.451 712.028 208.514 712.028 207.315C712.028 206.108 712.325 205.148 712.917 204.438C713.514 203.727 714.314 203.371 715.316 203.371C716.255 203.371 716.998 203.681 717.545 204.301C718.092 204.916 718.365 205.729 718.365 206.741V207.459H713.204C713.227 208.339 713.448 209.006 713.867 209.462C714.291 209.918 714.886 210.146 715.651 210.146C716.458 210.146 717.256 209.977 718.044 209.64V210.651C717.643 210.825 717.262 210.948 716.902 211.021C716.547 211.098 716.116 211.137 715.61 211.137ZM715.303 204.321C714.701 204.321 714.22 204.517 713.86 204.909C713.505 205.301 713.295 205.843 713.231 206.536H717.148C717.148 205.821 716.989 205.274 716.67 204.896C716.351 204.513 715.895 204.321 715.303 204.321ZM725.14 208.956C725.14 209.653 724.88 210.191 724.36 210.569C723.841 210.948 723.112 211.137 722.173 211.137C721.179 211.137 720.405 210.979 719.849 210.665V209.612C720.209 209.795 720.594 209.938 721.004 210.043C721.419 210.148 721.817 210.2 722.2 210.2C722.793 210.2 723.248 210.107 723.567 209.92C723.886 209.729 724.046 209.439 724.046 209.052C724.046 208.76 723.918 208.512 723.663 208.307C723.412 208.097 722.92 207.851 722.187 207.568C721.489 207.309 720.993 207.083 720.696 206.892C720.405 206.696 720.186 206.475 720.04 206.229C719.899 205.982 719.828 205.688 719.828 205.347C719.828 204.736 720.076 204.255 720.573 203.904C721.07 203.549 721.751 203.371 722.617 203.371C723.424 203.371 724.212 203.535 724.982 203.863L724.579 204.786C723.827 204.476 723.146 204.321 722.535 204.321C721.997 204.321 721.592 204.406 721.318 204.574C721.045 204.743 720.908 204.975 720.908 205.271C720.908 205.472 720.958 205.643 721.059 205.784C721.163 205.925 721.33 206.06 721.558 206.188C721.785 206.315 722.223 206.5 722.87 206.741C723.759 207.065 724.358 207.391 724.668 207.719C724.982 208.047 725.14 208.459 725.14 208.956Z" fill="#3C3C3C"/>
<path d="M728.438 126.976L715.206 119.397C714.758 119.137 714.25 119 713.732 119C713.215 119 712.707 119.137 712.259 119.397L700.471 126.147L688.682 119.397C688.234 119.137 687.726 119 687.209 119C686.691 119 686.183 119.137 685.735 119.397L672.503 126.976C672.048 127.233 671.669 127.607 671.405 128.06C671.141 128.512 671.001 129.027 671 129.552V144.71C671.001 145.235 671.141 145.75 671.405 146.203C671.669 146.655 672.048 147.029 672.503 147.286L684.291 154.007V167.448C684.292 167.973 684.432 168.488 684.696 168.94C684.96 169.393 685.339 169.767 685.794 170.024L699.056 177.603C699.504 177.863 700.012 178 700.529 178C701.047 178 701.555 177.863 702.003 177.603L715.206 170.024C715.661 169.767 716.04 169.393 716.304 168.94C716.568 168.488 716.708 167.973 716.709 167.448V154.007L728.497 147.286C728.952 147.029 729.331 146.655 729.595 146.203C729.859 145.75 729.999 145.235 730 144.71V129.552C729.993 129.021 729.845 128.502 729.57 128.049C729.295 127.596 728.904 127.225 728.438 126.976ZM676.894 142.993V131.15L687.209 125.229L697.523 131.15V142.993L687.209 148.914L676.894 142.993ZM710.785 165.731L700.471 171.652L690.156 165.731V153.888L700.471 147.967L710.785 153.888V165.731ZM724.047 142.993L713.732 148.914L703.418 142.993V131.15L713.732 125.229L724.047 131.15V142.993Z" fill="#6E78FF"/>
<g filter="url(#filter1_d)">
<rect x="79" y="100" width="120" height="130" rx="16" fill="white"/>
</g>
<path d="M134.653 201.901C133.555 201.901 132.687 202.268 132.049 203.002C131.415 203.731 131.099 204.731 131.099 206.003C131.099 207.311 131.404 208.323 132.015 209.038C132.63 209.749 133.505 210.104 134.64 210.104C135.337 210.104 136.132 209.979 137.025 209.729V210.747C136.333 211.007 135.478 211.137 134.462 211.137C132.99 211.137 131.853 210.69 131.051 209.797C130.253 208.904 129.854 207.634 129.854 205.989C129.854 204.959 130.046 204.057 130.429 203.282C130.816 202.507 131.372 201.91 132.097 201.491C132.826 201.072 133.683 200.862 134.667 200.862C135.715 200.862 136.631 201.054 137.415 201.437L136.923 202.435C136.166 202.079 135.41 201.901 134.653 201.901ZM139.206 211V201.006H140.368V209.947H144.777V211H139.206ZM146.479 211V201.006H147.642V211H146.479Z" fill="#3C3C3C"/>
<g filter="url(#filter2_d)">
<path d="M110.893 170.181C110.893 167.785 112.81 165.842 115.175 165.842H161.049C163.413 165.842 165.33 167.785 165.33 170.181C165.33 172.578 163.413 174.52 161.049 174.52H115.175C112.81 174.52 110.893 172.578 110.893 170.181Z" fill="#6E78FF"/>
</g>
<path d="M106 131.749C106 127.469 109.423 124 113.646 124H161.354C165.577 124 169 127.469 169 131.749V169.251C169 173.531 165.577 177 161.354 177H113.646C109.423 177 106 173.531 106 169.251V131.749Z" fill="#6E78FF"/>
<path fill-rule="evenodd" clip-rule="evenodd" d="M161.354 127.099H113.646C111.112 127.099 109.058 129.181 109.058 131.749V169.251C109.058 171.819 111.112 173.901 113.646 173.901H161.354C163.888 173.901 165.942 171.819 165.942 169.251V131.749C165.942 129.181 163.888 127.099 161.354 127.099ZM113.646 124C109.423 124 106 127.469 106 131.749V169.251C106 173.531 109.423 177 113.646 177H161.354C165.577 177 169 173.531 169 169.251V131.749C169 127.469 165.577 124 161.354 124H113.646Z" fill="#6E78FF"/>
<path d="M119.525 145.835C118.52 145.835 117.62 145.669 116.824 145.339C116.028 145.008 115.388 144.519 114.906 143.871C114.436 143.223 114.188 142.443 114.162 141.53H117.724C117.776 142.046 117.952 142.443 118.253 142.72C118.553 142.985 118.944 143.117 119.427 143.117C119.923 143.117 120.314 143.005 120.601 142.78C120.888 142.542 121.032 142.218 121.032 141.808C121.032 141.464 120.914 141.18 120.68 140.955C120.458 140.73 120.177 140.545 119.838 140.4C119.512 140.254 119.042 140.089 118.429 139.904C117.541 139.626 116.817 139.348 116.256 139.071C115.695 138.793 115.212 138.383 114.808 137.841C114.403 137.299 114.201 136.591 114.201 135.718C114.201 134.422 114.664 133.411 115.591 132.683C116.517 131.943 117.724 131.573 119.212 131.573C120.725 131.573 121.945 131.943 122.872 132.683C123.798 133.411 124.294 134.429 124.359 135.738H120.738C120.712 135.289 120.549 134.938 120.249 134.687C119.949 134.422 119.564 134.29 119.094 134.29C118.69 134.29 118.363 134.402 118.116 134.627C117.868 134.839 117.744 135.15 117.744 135.56C117.744 136.009 117.952 136.36 118.37 136.611C118.788 136.862 119.44 137.133 120.327 137.424C121.215 137.728 121.932 138.019 122.48 138.297C123.041 138.575 123.524 138.978 123.929 139.507C124.333 140.036 124.535 140.717 124.535 141.55C124.535 142.344 124.333 143.064 123.929 143.712C123.537 144.36 122.963 144.876 122.206 145.26C121.449 145.643 120.556 145.835 119.525 145.835Z" fill="white"/>
<path fill-rule="evenodd" clip-rule="evenodd" d="M137.5 145.696H127.714V143.836H137.5V145.696Z" fill="white"/>
<g filter="url(#filter3_d)">
<rect x="306" y="100" width="120" height="130" rx="16" fill="white"/>
</g>
<path d="M333.45 211H332.288V202.038H329.123V201.006H336.615V202.038H333.45V211ZM343.082 211V206.153C343.082 205.543 342.943 205.087 342.665 204.786C342.387 204.485 341.952 204.335 341.359 204.335C340.571 204.335 339.994 204.549 339.63 204.978C339.27 205.406 339.09 206.108 339.09 207.083V211H337.955V200.363H339.09V203.583C339.09 203.97 339.072 204.292 339.035 204.547H339.104C339.327 204.187 339.644 203.904 340.054 203.699C340.468 203.49 340.94 203.385 341.469 203.385C342.385 203.385 343.071 203.604 343.526 204.041C343.987 204.474 344.217 205.164 344.217 206.112V211H343.082ZM349.72 211.137C348.612 211.137 347.737 210.799 347.095 210.125C346.457 209.451 346.138 208.514 346.138 207.315C346.138 206.108 346.434 205.148 347.026 204.438C347.623 203.727 348.423 203.371 349.426 203.371C350.365 203.371 351.107 203.681 351.654 204.301C352.201 204.916 352.475 205.729 352.475 206.741V207.459H347.313C347.336 208.339 347.557 209.006 347.977 209.462C348.4 209.918 348.995 210.146 349.761 210.146C350.567 210.146 351.365 209.977 352.153 209.64V210.651C351.752 210.825 351.372 210.948 351.012 211.021C350.656 211.098 350.226 211.137 349.72 211.137ZM349.412 204.321C348.811 204.321 348.33 204.517 347.97 204.909C347.614 205.301 347.405 205.843 347.341 206.536H351.258C351.258 205.821 351.098 205.274 350.779 204.896C350.46 204.513 350.005 204.321 349.412 204.321ZM363.966 211V206.126C363.966 205.529 363.838 205.082 363.583 204.786C363.328 204.485 362.931 204.335 362.394 204.335C361.687 204.335 361.165 204.538 360.828 204.943C360.491 205.349 360.322 205.973 360.322 206.816V211H359.188V206.126C359.188 205.529 359.06 205.082 358.805 204.786C358.549 204.485 358.151 204.335 357.608 204.335C356.897 204.335 356.376 204.549 356.043 204.978C355.715 205.401 355.551 206.099 355.551 207.069V211H354.416V203.508H355.339L355.523 204.533H355.578C355.792 204.169 356.093 203.884 356.48 203.679C356.872 203.474 357.31 203.371 357.793 203.371C358.964 203.371 359.73 203.795 360.09 204.643H360.145C360.368 204.251 360.691 203.941 361.115 203.713C361.539 203.485 362.022 203.371 362.564 203.371C363.412 203.371 364.046 203.59 364.465 204.027C364.889 204.46 365.101 205.155 365.101 206.112V211H363.966ZM370.61 211.137C369.503 211.137 368.628 210.799 367.985 210.125C367.347 209.451 367.028 208.514 367.028 207.315C367.028 206.108 367.325 205.148 367.917 204.438C368.514 203.727 369.314 203.371 370.316 203.371C371.255 203.371 371.998 203.681 372.545 204.301C373.092 204.916 373.365 205.729 373.365 206.741V207.459H368.204C368.227 208.339 368.448 209.006 368.867 209.462C369.291 209.918 369.886 210.146 370.651 210.146C371.458 210.146 372.256 209.977 373.044 209.64V210.651C372.643 210.825 372.262 210.948 371.902 211.021C371.547 211.098 371.116 211.137 370.61 211.137ZM370.303 204.321C369.701 204.321 369.22 204.517 368.86 204.909C368.505 205.301 368.295 205.843 368.231 206.536H372.148C372.148 205.821 371.989 205.274 371.67 204.896C371.351 204.513 370.895 204.321 370.303 204.321ZM379.114 211V201.006H380.276V209.947H384.686V211H379.114ZM390.824 211L390.599 209.934H390.544C390.17 210.403 389.797 210.722 389.423 210.891C389.054 211.055 388.591 211.137 388.035 211.137C387.292 211.137 386.709 210.945 386.285 210.562C385.866 210.18 385.656 209.635 385.656 208.929C385.656 207.416 386.866 206.623 389.286 206.55L390.558 206.509V206.044C390.558 205.456 390.43 205.023 390.175 204.745C389.924 204.463 389.521 204.321 388.965 204.321C388.34 204.321 387.634 204.513 386.846 204.896L386.497 204.027C386.866 203.827 387.27 203.67 387.707 203.556C388.149 203.442 388.591 203.385 389.033 203.385C389.926 203.385 390.587 203.583 391.016 203.979C391.449 204.376 391.665 205.012 391.665 205.887V211H390.824ZM388.261 210.2C388.967 210.2 389.521 210.007 389.922 209.619C390.327 209.232 390.53 208.689 390.53 207.992V207.315L389.396 207.363C388.493 207.395 387.841 207.536 387.44 207.787C387.044 208.033 386.846 208.418 386.846 208.942C386.846 209.353 386.969 209.665 387.215 209.879C387.465 210.093 387.814 210.2 388.261 210.2ZM397.496 203.385C398.48 203.385 399.244 203.722 399.786 204.396C400.333 205.066 400.606 206.017 400.606 207.247C400.606 208.478 400.331 209.435 399.779 210.118C399.232 210.797 398.471 211.137 397.496 211.137C397.008 211.137 396.562 211.048 396.156 210.87C395.755 210.688 395.418 210.41 395.145 210.036H395.062L394.823 211H394.01V200.363H395.145V202.947C395.145 203.526 395.126 204.046 395.09 204.506H395.145C395.673 203.758 396.457 203.385 397.496 203.385ZM397.332 204.335C396.557 204.335 395.999 204.558 395.657 205.005C395.315 205.447 395.145 206.194 395.145 207.247C395.145 208.3 395.32 209.054 395.671 209.51C396.022 209.961 396.585 210.187 397.359 210.187C398.057 210.187 398.576 209.934 398.918 209.428C399.26 208.917 399.431 208.186 399.431 207.233C399.431 206.258 399.26 205.531 398.918 205.053C398.576 204.574 398.048 204.335 397.332 204.335Z" fill="#3C3C3C"/>
<g filter="url(#filter4_d)">
<rect x="339.45" y="171.239" width="52.8038" height="8.54867" rx="4.27433" fill="#6E78FF"/>
</g>
<path d="M338.924 182.071C338.216 182.071 337.522 181.879 336.909 181.516C336.297 181.153 335.788 180.631 335.434 180.002C335.079 179.374 334.892 178.66 334.891 177.934C334.89 177.208 335.074 176.494 335.426 175.864L356.356 138.376V128.37H354.215C353.858 128.37 353.516 128.225 353.264 127.966C353.011 127.707 352.87 127.355 352.87 126.989V124.382C352.87 124.015 353.011 123.664 353.264 123.405C353.516 123.146 353.858 123 354.215 123H377.667C378.024 123 378.366 123.146 378.618 123.405C378.871 123.664 379.012 124.015 379.012 124.382V126.989C379.012 127.355 378.871 127.707 378.618 127.966C378.366 128.225 378.024 128.37 377.667 128.37H375.527V138.376L396.468 175.865C396.82 176.495 397.004 177.209 397.003 177.935C397.002 178.662 396.815 179.375 396.46 180.004C396.106 180.633 395.597 181.155 394.985 181.518C394.372 181.881 393.678 182.072 392.97 182.073L338.924 182.071Z" fill="#6E78FF"/>
<path d="M359.284 173.558C357.989 173.558 356.83 173.341 355.804 172.909C354.779 172.476 353.955 171.836 353.333 170.989C352.728 170.141 352.408 169.12 352.375 167.926H356.964C357.031 168.601 357.258 169.12 357.645 169.483C358.032 169.829 358.536 170.002 359.158 170.002C359.797 170.002 360.301 169.855 360.671 169.561C361.041 169.25 361.225 168.826 361.225 168.29C361.225 167.84 361.074 167.468 360.772 167.174C360.486 166.88 360.124 166.637 359.687 166.447C359.267 166.257 358.662 166.041 357.872 165.798C356.729 165.435 355.796 165.072 355.073 164.708C354.35 164.345 353.728 163.809 353.207 163.099C352.686 162.39 352.425 161.464 352.425 160.323C352.425 158.627 353.022 157.304 354.216 156.352C355.409 155.383 356.964 154.899 358.88 154.899C360.83 154.899 362.402 155.383 363.596 156.352C364.789 157.304 365.428 158.636 365.512 160.349H360.847C360.814 159.76 360.603 159.302 360.217 158.973C359.83 158.627 359.334 158.454 358.729 158.454C358.208 158.454 357.788 158.601 357.468 158.895C357.149 159.172 356.989 159.579 356.989 160.115C356.989 160.703 357.258 161.162 357.796 161.49C358.334 161.819 359.175 162.174 360.318 162.554C361.461 162.952 362.385 163.333 363.091 163.696C363.814 164.06 364.436 164.587 364.957 165.279C365.478 165.971 365.739 166.862 365.739 167.952C365.739 168.99 365.478 169.933 364.957 170.781C364.453 171.629 363.713 172.303 362.738 172.805C361.763 173.307 360.612 173.558 359.284 173.558Z" fill="white"/>
<ellipse cx="375.344" cy="170.018" rx="3.55981" ry="3.66372" fill="white"/>
<ellipse cx="377.569" cy="160.706" rx="2.52153" ry="2.59513" fill="white"/>
<ellipse cx="371.34" cy="158.569" rx="1.63158" ry="1.6792" fill="white"/>
<ellipse cx="371.933" cy="150.936" rx="1.92823" ry="1.98451" fill="white"/>
<g filter="url(#filter5_d)">
<rect x="491" y="100" width="120" height="130" rx="16" fill="white"/>
</g>
<path d="M512.653 201.901C511.555 201.901 510.687 202.268 510.049 203.002C509.415 203.731 509.099 204.731 509.099 206.003C509.099 207.311 509.404 208.323 510.015 209.038C510.63 209.749 511.505 210.104 512.64 210.104C513.337 210.104 514.132 209.979 515.025 209.729V210.747C514.333 211.007 513.478 211.137 512.462 211.137C510.99 211.137 509.853 210.69 509.051 209.797C508.253 208.904 507.854 207.634 507.854 205.989C507.854 204.959 508.046 204.057 508.429 203.282C508.816 202.507 509.372 201.91 510.097 201.491C510.826 201.072 511.683 200.862 512.667 200.862C513.715 200.862 514.631 201.054 515.415 201.437L514.923 202.435C514.166 202.079 513.41 201.901 512.653 201.901ZM518.102 203.508V208.368C518.102 208.979 518.241 209.435 518.519 209.735C518.797 210.036 519.232 210.187 519.824 210.187C520.608 210.187 521.18 209.972 521.54 209.544C521.905 209.116 522.087 208.416 522.087 207.445V203.508H523.222V211H522.285L522.121 209.995H522.06C521.827 210.364 521.504 210.647 521.089 210.843C520.679 211.039 520.209 211.137 519.681 211.137C518.769 211.137 518.086 210.92 517.63 210.487C517.179 210.054 516.953 209.362 516.953 208.409V203.508H518.102ZM530.468 208.956C530.468 209.653 530.208 210.191 529.688 210.569C529.169 210.948 528.44 211.137 527.501 211.137C526.507 211.137 525.733 210.979 525.177 210.665V209.612C525.537 209.795 525.922 209.938 526.332 210.043C526.747 210.148 527.146 210.2 527.528 210.2C528.121 210.2 528.576 210.107 528.896 209.92C529.215 209.729 529.374 209.439 529.374 209.052C529.374 208.76 529.246 208.512 528.991 208.307C528.741 208.097 528.248 207.851 527.515 207.568C526.817 207.309 526.321 207.083 526.024 206.892C525.733 206.696 525.514 206.475 525.368 206.229C525.227 205.982 525.156 205.688 525.156 205.347C525.156 204.736 525.405 204.255 525.901 203.904C526.398 203.549 527.079 203.371 527.945 203.371C528.752 203.371 529.54 203.535 530.311 203.863L529.907 204.786C529.155 204.476 528.474 204.321 527.863 204.321C527.326 204.321 526.92 204.406 526.646 204.574C526.373 204.743 526.236 204.975 526.236 205.271C526.236 205.472 526.286 205.643 526.387 205.784C526.492 205.925 526.658 206.06 526.886 206.188C527.114 206.315 527.551 206.5 528.198 206.741C529.087 207.065 529.686 207.391 529.996 207.719C530.311 208.047 530.468 208.459 530.468 208.956ZM534.74 210.2C534.941 210.2 535.134 210.187 535.321 210.159C535.508 210.127 535.656 210.095 535.766 210.063V210.932C535.643 210.991 535.46 211.039 535.219 211.075C534.982 211.116 534.768 211.137 534.576 211.137C533.127 211.137 532.402 210.373 532.402 208.847V204.39H531.329V203.843L532.402 203.371L532.881 201.771H533.537V203.508H535.711V204.39H533.537V208.799C533.537 209.25 533.644 209.596 533.858 209.838C534.073 210.079 534.367 210.2 534.74 210.2ZM543.736 207.247C543.736 208.468 543.429 209.423 542.813 210.111C542.198 210.795 541.348 211.137 540.264 211.137C539.594 211.137 538.999 210.979 538.479 210.665C537.96 210.351 537.559 209.899 537.276 209.312C536.994 208.724 536.853 208.035 536.853 207.247C536.853 206.026 537.158 205.076 537.769 204.396C538.379 203.713 539.227 203.371 540.312 203.371C541.36 203.371 542.191 203.72 542.807 204.417C543.426 205.114 543.736 206.058 543.736 207.247ZM538.028 207.247C538.028 208.204 538.22 208.933 538.603 209.435C538.985 209.936 539.548 210.187 540.291 210.187C541.034 210.187 541.597 209.938 541.979 209.441C542.367 208.94 542.561 208.209 542.561 207.247C542.561 206.295 542.367 205.572 541.979 205.08C541.597 204.583 541.029 204.335 540.277 204.335C539.535 204.335 538.974 204.579 538.596 205.066C538.217 205.554 538.028 206.281 538.028 207.247ZM555.282 211V206.126C555.282 205.529 555.155 205.082 554.899 204.786C554.644 204.485 554.248 204.335 553.71 204.335C553.004 204.335 552.482 204.538 552.145 204.943C551.807 205.349 551.639 205.973 551.639 206.816V211H550.504V206.126C550.504 205.529 550.376 205.082 550.121 204.786C549.866 204.485 549.467 204.335 548.925 204.335C548.214 204.335 547.692 204.549 547.359 204.978C547.031 205.401 546.867 206.099 546.867 207.069V211H545.732V203.508H546.655L546.84 204.533H546.895C547.109 204.169 547.41 203.884 547.797 203.679C548.189 203.474 548.626 203.371 549.109 203.371C550.281 203.371 551.046 203.795 551.406 204.643H551.461C551.684 204.251 552.008 203.941 552.432 203.713C552.855 203.485 553.339 203.371 553.881 203.371C554.729 203.371 555.362 203.59 555.781 204.027C556.205 204.46 556.417 205.155 556.417 206.112V211H555.282ZM567.231 208.956C567.231 209.653 566.972 210.191 566.452 210.569C565.933 210.948 565.203 211.137 564.265 211.137C563.271 211.137 562.496 210.979 561.94 210.665V209.612C562.3 209.795 562.686 209.938 563.096 210.043C563.51 210.148 563.909 210.2 564.292 210.2C564.884 210.2 565.34 210.107 565.659 209.92C565.978 209.729 566.138 209.439 566.138 209.052C566.138 208.76 566.01 208.512 565.755 208.307C565.504 208.097 565.012 207.851 564.278 207.568C563.581 207.309 563.084 207.083 562.788 206.892C562.496 206.696 562.278 206.475 562.132 206.229C561.991 205.982 561.92 205.688 561.92 205.347C561.92 204.736 562.168 204.255 562.665 203.904C563.162 203.549 563.843 203.371 564.709 203.371C565.516 203.371 566.304 203.535 567.074 203.863L566.671 204.786C565.919 204.476 565.238 204.321 564.627 204.321C564.089 204.321 563.684 204.406 563.41 204.574C563.137 204.743 563 204.975 563 205.271C563 205.472 563.05 205.643 563.15 205.784C563.255 205.925 563.422 206.06 563.649 206.188C563.877 206.315 564.315 206.5 564.962 206.741C565.851 207.065 566.45 207.391 566.76 207.719C567.074 208.047 567.231 208.459 567.231 208.956ZM571.504 210.2C571.704 210.2 571.898 210.187 572.085 210.159C572.272 210.127 572.42 210.095 572.529 210.063V210.932C572.406 210.991 572.224 211.039 571.982 211.075C571.745 211.116 571.531 211.137 571.34 211.137C569.891 211.137 569.166 210.373 569.166 208.847V204.39H568.093V203.843L569.166 203.371L569.645 201.771H570.301V203.508H572.475V204.39H570.301V208.799C570.301 209.25 570.408 209.596 570.622 209.838C570.836 210.079 571.13 210.2 571.504 210.2ZM578.641 211L578.415 209.934H578.36C577.987 210.403 577.613 210.722 577.239 210.891C576.87 211.055 576.408 211.137 575.852 211.137C575.109 211.137 574.525 210.945 574.102 210.562C573.682 210.18 573.473 209.635 573.473 208.929C573.473 207.416 574.683 206.623 577.103 206.55L578.374 206.509V206.044C578.374 205.456 578.246 205.023 577.991 204.745C577.741 204.463 577.337 204.321 576.781 204.321C576.157 204.321 575.451 204.513 574.662 204.896L574.313 204.027C574.683 203.827 575.086 203.67 575.523 203.556C575.965 203.442 576.408 203.385 576.85 203.385C577.743 203.385 578.404 203.583 578.832 203.979C579.265 204.376 579.481 205.012 579.481 205.887V211H578.641ZM576.077 210.2C576.784 210.2 577.337 210.007 577.738 209.619C578.144 209.232 578.347 208.689 578.347 207.992V207.315L577.212 207.363C576.31 207.395 575.658 207.536 575.257 207.787C574.86 208.033 574.662 208.418 574.662 208.942C574.662 209.353 574.785 209.665 575.031 209.879C575.282 210.093 575.631 210.2 576.077 210.2ZM584.82 211.137C583.736 211.137 582.895 210.804 582.298 210.139C581.705 209.469 581.409 208.523 581.409 207.302C581.409 206.049 581.71 205.08 582.312 204.396C582.918 203.713 583.779 203.371 584.896 203.371C585.256 203.371 585.616 203.41 585.976 203.487C586.336 203.565 586.618 203.656 586.823 203.761L586.475 204.725C586.224 204.624 585.951 204.542 585.654 204.479C585.358 204.41 585.096 204.376 584.868 204.376C583.346 204.376 582.585 205.347 582.585 207.288C582.585 208.209 582.77 208.915 583.139 209.407C583.512 209.899 584.064 210.146 584.793 210.146C585.417 210.146 586.058 210.011 586.714 209.742V210.747C586.213 211.007 585.581 211.137 584.82 211.137ZM589.619 207.165C589.815 206.887 590.114 206.522 590.515 206.071L592.935 203.508H594.281L591.246 206.7L594.493 211H593.119L590.474 207.459L589.619 208.197V211H588.498V200.363H589.619V206.003C589.619 206.254 589.601 206.641 589.564 207.165H589.619Z" fill="#3C3C3C"/>
<rect x="279" y="46" width="480" height="207" rx="15" stroke="#EEEEEE" stroke-width="2"/>
<path d="M386.352 72.9072C386.352 74.557 385.903 75.8193 385.005 76.6943C384.112 77.5648 382.824 78 381.143 78H378.374V68.0059H381.437C382.991 68.0059 384.198 68.4365 385.06 69.2979C385.921 70.1592 386.352 71.3623 386.352 72.9072ZM385.121 72.9482C385.121 71.6449 384.793 70.6628 384.137 70.002C383.485 69.3411 382.514 69.0107 381.225 69.0107H379.536V76.9951H380.951C382.337 76.9951 383.378 76.6556 384.075 75.9766C384.772 75.293 385.121 74.2835 385.121 72.9482ZM391.581 78.1367C390.474 78.1367 389.599 77.7995 388.956 77.125C388.318 76.4505 387.999 75.514 387.999 74.3154C387.999 73.1077 388.295 72.1484 388.888 71.4375C389.485 70.7266 390.285 70.3711 391.287 70.3711C392.226 70.3711 392.969 70.681 393.516 71.3008C394.062 71.916 394.336 72.7295 394.336 73.7412V74.459H389.175C389.198 75.3385 389.419 76.0062 389.838 76.4619C390.262 76.9176 390.856 77.1455 391.622 77.1455C392.429 77.1455 393.226 76.9769 394.015 76.6396V77.6514C393.614 77.8245 393.233 77.9476 392.873 78.0205C392.518 78.098 392.087 78.1367 391.581 78.1367ZM391.273 71.3213C390.672 71.3213 390.191 71.5173 389.831 71.9092C389.476 72.3011 389.266 72.8434 389.202 73.5361H393.119C393.119 72.8206 392.96 72.2738 392.641 71.8955C392.322 71.5127 391.866 71.3213 391.273 71.3213ZM397.918 78L395.074 70.5078H396.291L397.904 74.9512C398.269 75.9902 398.483 76.6647 398.547 76.9746H398.602C398.652 76.7331 398.809 76.234 399.073 75.4775C399.342 74.7165 399.941 73.0599 400.871 70.5078H402.088L399.244 78H397.918ZM406.456 78.1367C405.349 78.1367 404.474 77.7995 403.831 77.125C403.193 76.4505 402.874 75.514 402.874 74.3154C402.874 73.1077 403.17 72.1484 403.763 71.4375C404.36 70.7266 405.16 70.3711 406.162 70.3711C407.101 70.3711 407.844 70.681 408.391 71.3008C408.938 71.916 409.211 72.7295 409.211 73.7412V74.459H404.05C404.073 75.3385 404.294 76.0062 404.713 76.4619C405.137 76.9176 405.731 77.1455 406.497 77.1455C407.304 77.1455 408.101 76.9769 408.89 76.6396V77.6514C408.489 77.8245 408.108 77.9476 407.748 78.0205C407.393 78.098 406.962 78.1367 406.456 78.1367ZM406.148 71.3213C405.547 71.3213 405.066 71.5173 404.706 71.9092C404.351 72.3011 404.141 72.8434 404.077 73.5361H407.994C407.994 72.8206 407.835 72.2738 407.516 71.8955C407.197 71.5127 406.741 71.3213 406.148 71.3213ZM412.287 78H411.152V67.3633H412.287V78ZM421.16 74.2471C421.16 75.4684 420.853 76.4232 420.237 77.1113C419.622 77.7949 418.772 78.1367 417.688 78.1367C417.018 78.1367 416.423 77.9795 415.903 77.665C415.384 77.3506 414.983 76.8994 414.7 76.3115C414.418 75.7236 414.276 75.0355 414.276 74.2471C414.276 73.0257 414.582 72.0755 415.192 71.3965C415.803 70.7129 416.651 70.3711 417.735 70.3711C418.784 70.3711 419.615 70.7197 420.23 71.417C420.85 72.1143 421.16 73.0576 421.16 74.2471ZM415.452 74.2471C415.452 75.2041 415.644 75.9333 416.026 76.4346C416.409 76.9359 416.972 77.1865 417.715 77.1865C418.458 77.1865 419.021 76.9382 419.403 76.4414C419.791 75.9401 419.984 75.2087 419.984 74.2471C419.984 73.2946 419.791 72.5723 419.403 72.0801C419.021 71.5833 418.453 71.335 417.701 71.335C416.958 71.335 416.398 71.5788 416.02 72.0664C415.641 72.554 415.452 73.2809 415.452 74.2471ZM426.643 78.1367C426.155 78.1367 425.708 78.0479 425.303 77.8701C424.902 77.6878 424.564 77.4098 424.291 77.0361H424.209C424.264 77.4736 424.291 77.8883 424.291 78.2803V81.3633H423.156V70.5078H424.079L424.236 71.5332H424.291C424.583 71.123 424.922 70.8268 425.31 70.6445C425.697 70.4622 426.141 70.3711 426.643 70.3711C427.636 70.3711 428.402 70.7106 428.939 71.3896C429.482 72.0687 429.753 73.0212 429.753 74.2471C429.753 75.4775 429.477 76.4346 428.926 77.1182C428.379 77.7972 427.618 78.1367 426.643 78.1367ZM426.479 71.335C425.713 71.335 425.159 71.5469 424.817 71.9707C424.476 72.3945 424.3 73.069 424.291 73.9941V74.2471C424.291 75.2998 424.466 76.054 424.817 76.5098C425.168 76.9609 425.731 77.1865 426.506 77.1865C427.153 77.1865 427.659 76.9245 428.023 76.4004C428.393 75.8763 428.577 75.154 428.577 74.2334C428.577 73.2992 428.393 72.5837 428.023 72.0869C427.659 71.5856 427.144 71.335 426.479 71.335ZM441.292 78V73.126C441.292 72.529 441.164 72.0824 440.909 71.7861C440.654 71.4854 440.257 71.335 439.72 71.335C439.013 71.335 438.492 71.5378 438.154 71.9434C437.817 72.349 437.648 72.9733 437.648 73.8164V78H436.514V73.126C436.514 72.529 436.386 72.0824 436.131 71.7861C435.876 71.4854 435.477 71.335 434.935 71.335C434.224 71.335 433.702 71.5492 433.369 71.9775C433.041 72.4014 432.877 73.0986 432.877 74.0693V78H431.742V70.5078H432.665L432.85 71.5332H432.904C433.118 71.1686 433.419 70.8838 433.807 70.6787C434.199 70.4736 434.636 70.3711 435.119 70.3711C436.29 70.3711 437.056 70.7949 437.416 71.6426H437.471C437.694 71.2507 438.018 70.9408 438.441 70.7129C438.865 70.485 439.348 70.3711 439.891 70.3711C440.738 70.3711 441.372 70.5898 441.791 71.0273C442.215 71.4603 442.427 72.1553 442.427 73.1123V78H441.292ZM447.937 78.1367C446.829 78.1367 445.954 77.7995 445.312 77.125C444.674 76.4505 444.354 75.514 444.354 74.3154C444.354 73.1077 444.651 72.1484 445.243 71.4375C445.84 70.7266 446.64 70.3711 447.643 70.3711C448.581 70.3711 449.324 70.681 449.871 71.3008C450.418 71.916 450.691 72.7295 450.691 73.7412V74.459H445.53C445.553 75.3385 445.774 76.0062 446.193 76.4619C446.617 76.9176 447.212 77.1455 447.978 77.1455C448.784 77.1455 449.582 76.9769 450.37 76.6396V77.6514C449.969 77.8245 449.589 77.9476 449.229 78.0205C448.873 78.098 448.442 78.1367 447.937 78.1367ZM447.629 71.3213C447.027 71.3213 446.547 71.5173 446.187 71.9092C445.831 72.3011 445.621 72.8434 445.558 73.5361H449.475C449.475 72.8206 449.315 72.2738 448.996 71.8955C448.677 71.5127 448.221 71.3213 447.629 71.3213ZM457.76 78V73.1533C457.76 72.5426 457.621 72.0869 457.343 71.7861C457.065 71.4854 456.63 71.335 456.037 71.335C455.253 71.335 454.679 71.5469 454.314 71.9707C453.95 72.3945 453.768 73.0941 453.768 74.0693V78H452.633V70.5078H453.556L453.74 71.5332H453.795C454.027 71.1641 454.353 70.8792 454.772 70.6787C455.192 70.4736 455.659 70.3711 456.174 70.3711C457.076 70.3711 457.755 70.5898 458.211 71.0273C458.667 71.4603 458.895 72.1553 458.895 73.1123V78H457.76ZM463.652 77.2002C463.853 77.2002 464.047 77.1865 464.233 77.1592C464.42 77.1273 464.568 77.0954 464.678 77.0635V77.9316C464.555 77.9909 464.372 78.0387 464.131 78.0752C463.894 78.1162 463.68 78.1367 463.488 78.1367C462.039 78.1367 461.314 77.3734 461.314 75.8467V71.3896H460.241V70.8428L461.314 70.3711L461.793 68.7715H462.449V70.5078H464.623V71.3896H462.449V75.7988C462.449 76.25 462.556 76.5964 462.771 76.8379C462.985 77.0794 463.279 77.2002 463.652 77.2002ZM472.983 78.1367C471.876 78.1367 471.001 77.7995 470.358 77.125C469.72 76.4505 469.401 75.514 469.401 74.3154C469.401 73.1077 469.698 72.1484 470.29 71.4375C470.887 70.7266 471.687 70.3711 472.689 70.3711C473.628 70.3711 474.371 70.681 474.918 71.3008C475.465 71.916 475.738 72.7295 475.738 73.7412V74.459H470.577C470.6 75.3385 470.821 76.0062 471.24 76.4619C471.664 76.9176 472.259 77.1455 473.024 77.1455C473.831 77.1455 474.629 76.9769 475.417 76.6396V77.6514C475.016 77.8245 474.635 77.9476 474.275 78.0205C473.92 78.098 473.489 78.1367 472.983 78.1367ZM472.676 71.3213C472.074 71.3213 471.593 71.5173 471.233 71.9092C470.878 72.3011 470.668 72.8434 470.604 73.5361H474.521C474.521 72.8206 474.362 72.2738 474.043 71.8955C473.724 71.5127 473.268 71.3213 472.676 71.3213ZM482.807 78V73.1533C482.807 72.5426 482.668 72.0869 482.39 71.7861C482.112 71.4854 481.676 71.335 481.084 71.335C480.3 71.335 479.726 71.5469 479.361 71.9707C478.997 72.3945 478.814 73.0941 478.814 74.0693V78H477.68V70.5078H478.603L478.787 71.5332H478.842C479.074 71.1641 479.4 70.8792 479.819 70.6787C480.239 70.4736 480.706 70.3711 481.221 70.3711C482.123 70.3711 482.802 70.5898 483.258 71.0273C483.714 71.4603 483.941 72.1553 483.941 73.1123V78H482.807ZM487.92 78L485.076 70.5078H486.293L487.906 74.9512C488.271 75.9902 488.485 76.6647 488.549 76.9746H488.604C488.654 76.7331 488.811 76.234 489.075 75.4775C489.344 74.7165 489.943 73.0599 490.873 70.5078H492.09L489.246 78H487.92ZM494.428 78H493.293V70.5078H494.428V78ZM493.197 68.4775C493.197 68.2178 493.261 68.0286 493.389 67.9102C493.516 67.7871 493.676 67.7256 493.867 67.7256C494.049 67.7256 494.207 67.7871 494.339 67.9102C494.471 68.0332 494.537 68.2223 494.537 68.4775C494.537 68.7327 494.471 68.9242 494.339 69.0518C494.207 69.1748 494.049 69.2363 493.867 69.2363C493.676 69.2363 493.516 69.1748 493.389 69.0518C493.261 68.9242 493.197 68.7327 493.197 68.4775ZM500.252 70.3711C500.585 70.3711 500.883 70.3984 501.147 70.4531L500.99 71.5059C500.68 71.4375 500.407 71.4033 500.17 71.4033C499.564 71.4033 499.044 71.6494 498.611 72.1416C498.183 72.6338 497.969 73.2467 497.969 73.9805V78H496.834V70.5078H497.771L497.9 71.8955H497.955C498.233 71.4079 498.568 71.0319 498.96 70.7676C499.352 70.5033 499.783 70.3711 500.252 70.3711ZM509.016 74.2471C509.016 75.4684 508.708 76.4232 508.093 77.1113C507.478 77.7949 506.628 78.1367 505.543 78.1367C504.873 78.1367 504.278 77.9795 503.759 77.665C503.239 77.3506 502.838 76.8994 502.556 76.3115C502.273 75.7236 502.132 75.0355 502.132 74.2471C502.132 73.0257 502.437 72.0755 503.048 71.3965C503.659 70.7129 504.506 70.3711 505.591 70.3711C506.639 70.3711 507.471 70.7197 508.086 71.417C508.706 72.1143 509.016 73.0576 509.016 74.2471ZM503.308 74.2471C503.308 75.2041 503.499 75.9333 503.882 76.4346C504.265 76.9359 504.827 77.1865 505.57 77.1865C506.313 77.1865 506.876 76.9382 507.259 76.4414C507.646 75.9401 507.84 75.2087 507.84 74.2471C507.84 73.2946 507.646 72.5723 507.259 72.0801C506.876 71.5833 506.309 71.335 505.557 71.335C504.814 71.335 504.253 71.5788 503.875 72.0664C503.497 72.554 503.308 73.2809 503.308 74.2471ZM516.139 78V73.1533C516.139 72.5426 516 72.0869 515.722 71.7861C515.444 71.4854 515.008 71.335 514.416 71.335C513.632 71.335 513.058 71.5469 512.693 71.9707C512.329 72.3945 512.146 73.0941 512.146 74.0693V78H511.012V70.5078H511.935L512.119 71.5332H512.174C512.406 71.1641 512.732 70.8792 513.151 70.6787C513.571 70.4736 514.038 70.3711 514.553 70.3711C515.455 70.3711 516.134 70.5898 516.59 71.0273C517.046 71.4603 517.273 72.1553 517.273 73.1123V78H516.139ZM529.161 78V73.126C529.161 72.529 529.034 72.0824 528.778 71.7861C528.523 71.4854 528.127 71.335 527.589 71.335C526.882 71.335 526.361 71.5378 526.023 71.9434C525.686 72.349 525.518 72.9733 525.518 73.8164V78H524.383V73.126C524.383 72.529 524.255 72.0824 524 71.7861C523.745 71.4854 523.346 71.335 522.804 71.335C522.093 71.335 521.571 71.5492 521.238 71.9775C520.91 72.4014 520.746 73.0986 520.746 74.0693V78H519.611V70.5078H520.534L520.719 71.5332H520.773C520.988 71.1686 521.288 70.8838 521.676 70.6787C522.068 70.4736 522.505 70.3711 522.988 70.3711C524.16 70.3711 524.925 70.7949 525.285 71.6426H525.34C525.563 71.2507 525.887 70.9408 526.311 70.7129C526.734 70.485 527.217 70.3711 527.76 70.3711C528.607 70.3711 529.241 70.5898 529.66 71.0273C530.084 71.4603 530.296 72.1553 530.296 73.1123V78H529.161ZM535.806 78.1367C534.698 78.1367 533.823 77.7995 533.181 77.125C532.543 76.4505 532.224 75.514 532.224 74.3154C532.224 73.1077 532.52 72.1484 533.112 71.4375C533.709 70.7266 534.509 70.3711 535.512 70.3711C536.451 70.3711 537.193 70.681 537.74 71.3008C538.287 71.916 538.561 72.7295 538.561 73.7412V74.459H533.399C533.422 75.3385 533.643 76.0062 534.062 76.4619C534.486 76.9176 535.081 77.1455 535.847 77.1455C536.653 77.1455 537.451 76.9769 538.239 76.6396V77.6514C537.838 77.8245 537.458 77.9476 537.098 78.0205C536.742 78.098 536.312 78.1367 535.806 78.1367ZM535.498 71.3213C534.896 71.3213 534.416 71.5173 534.056 71.9092C533.7 72.3011 533.491 72.8434 533.427 73.5361H537.344C537.344 72.8206 537.184 72.2738 536.865 71.8955C536.546 71.5127 536.09 71.3213 535.498 71.3213ZM545.629 78V73.1533C545.629 72.5426 545.49 72.0869 545.212 71.7861C544.934 71.4854 544.499 71.335 543.906 71.335C543.122 71.335 542.548 71.5469 542.184 71.9707C541.819 72.3945 541.637 73.0941 541.637 74.0693V78H540.502V70.5078H541.425L541.609 71.5332H541.664C541.896 71.1641 542.222 70.8792 542.642 70.6787C543.061 70.4736 543.528 70.3711 544.043 70.3711C544.945 70.3711 545.624 70.5898 546.08 71.0273C546.536 71.4603 546.764 72.1553 546.764 73.1123V78H545.629ZM551.521 77.2002C551.722 77.2002 551.916 77.1865 552.103 77.1592C552.289 77.1273 552.438 77.0954 552.547 77.0635V77.9316C552.424 77.9909 552.242 78.0387 552 78.0752C551.763 78.1162 551.549 78.1367 551.357 78.1367C549.908 78.1367 549.184 77.3734 549.184 75.8467V71.3896H548.11V70.8428L549.184 70.3711L549.662 68.7715H550.318V70.5078H552.492V71.3896H550.318V75.7988C550.318 76.25 550.425 76.5964 550.64 76.8379C550.854 77.0794 551.148 77.2002 551.521 77.2002Z" fill="#9B9B9B"/>
<path d="M468.5 164.5H459.5V155.5C459.5 155.102 459.342 154.721 459.061 154.439C458.779 154.158 458.398 154 458 154C457.602 154 457.221 154.158 456.939 154.439C456.658 154.721 456.5 155.102 456.5 155.5V164.5H447.5C447.102 164.5 446.721 164.658 446.439 164.939C446.158 165.221 446 165.602 446 166C446 166.398 446.158 166.779 446.439 167.061C446.721 167.342 447.102 167.5 447.5 167.5H456.5V176.5C456.5 176.898 456.658 177.279 456.939 177.561C457.221 177.842 457.602 178 458 178C458.398 178 458.779 177.842 459.061 177.561C459.342 177.279 459.5 176.898 459.5 176.5V167.5H468.5C468.898 167.5 469.279 167.342 469.561 167.061C469.842 166.779 470 166.398 470 166C470 165.602 469.842 165.221 469.561 164.939C469.279 164.658 468.898 164.5 468.5 164.5Z" fill="#DCDCDC"/>
<path d="M526.624 119.683L523.317 125.413L520.011 119.683H509L523.318 144.499L537.637 119.683H526.624Z" fill="#41B883"/>
<path d="M526.624 119.683L523.317 125.413L520.01 119.683H514.725L523.322 134.571L531.909 119.683H526.624Z" fill="#34495E"/>
<path fill-rule="evenodd" clip-rule="evenodd" d="M577.999 121.001C573.733 121.001 571.066 123.112 570 127.334C571.6 125.223 573.466 124.431 575.6 124.959C576.799 125.378 577.855 126.12 578.65 127.101C579.533 128.184 580.654 129.053 581.928 129.642C583.201 130.231 584.594 130.524 586 130.5C590.266 130.5 592.933 128.389 594 124.167C592.4 126.278 590.533 127.069 588.4 126.543C587.201 126.124 586.145 125.382 585.35 124.4C584.467 123.317 583.346 122.448 582.072 121.859C580.798 121.27 579.405 120.977 577.999 121.001ZM570 130.5C565.734 130.5 563.067 132.611 562 136.833C563.6 134.722 565.467 133.931 567.6 134.459C568.8 134.877 569.858 135.618 570.654 136.6C571.537 137.683 572.658 138.551 573.932 139.14C575.205 139.729 576.598 140.023 578.004 139.999C582.27 139.999 584.937 137.888 586.004 133.666C584.404 135.776 582.537 136.568 580.404 136.041C579.205 135.622 578.149 134.88 577.354 133.899C576.471 132.816 575.349 131.946 574.075 131.357C572.8 130.768 571.407 130.475 570 130.5Z" fill="#06B6D4"/>
<path d="M566 175.937L567.818 163.25L575.091 156L584.182 165.063L578.727 170.5L586 177.75L575.091 185L566 175.937Z" fill="#00D1B2"/>
<line x1="550.5" y1="117" x2="550.5" y2="186" stroke="#EBEBEB"/>
<path d="M535.637 159H509.692V184.945H535.637V159Z" fill="#F7DF1E"/>
<path d="M527.12 179.27C527.643 180.123 528.323 180.75 529.525 180.75C530.536 180.75 531.181 180.245 531.181 179.548C531.181 178.712 530.518 178.416 529.406 177.929L528.797 177.668C527.037 176.918 525.868 175.979 525.868 173.994C525.868 172.166 527.262 170.774 529.439 170.774C530.989 170.774 532.103 171.313 532.907 172.726L531.008 173.945C530.59 173.195 530.139 172.9 529.439 172.9C528.725 172.9 528.272 173.353 528.272 173.945C528.272 174.676 528.725 174.972 529.771 175.425L530.381 175.687C532.452 176.575 533.622 177.48 533.622 179.517C533.622 181.712 531.898 182.914 529.582 182.914C527.318 182.914 525.855 181.835 525.139 180.421L527.12 179.27ZM518.508 179.481C518.891 180.161 519.239 180.735 520.077 180.735C520.878 180.735 521.383 180.422 521.383 179.203V170.913H523.821V179.236C523.821 181.761 522.341 182.91 520.181 182.91C518.229 182.91 517.098 181.899 516.523 180.683L518.508 179.481Z" fill="black"/>
<path d="M252.061 167.061C252.646 166.475 252.646 165.525 252.061 164.939L242.515 155.393C241.929 154.808 240.979 154.808 240.393 155.393C239.808 155.979 239.808 156.929 240.393 157.515L248.879 166L240.393 174.485C239.808 175.071 239.808 176.021 240.393 176.607C240.979 177.192 241.929 177.192 242.515 176.607L252.061 167.061ZM225 167.5H251V164.5H225V167.5Z" fill="#DCDCDC"/>
<g filter="url(#filter6_d)">
<rect x="398" y="344" width="120" height="130" rx="16" fill="white"/>
</g>
<path d="M398 437L412.5 437C412.5 437 427.996 437 502 437C508.248 437 518 437 518 437V457.373C518 466.154 510.837 473.77 502 473.77H414C405.163 473.77 398 466.154 398 457.373V437Z" fill="#3C3C3C"/>
<line x1="458.5" y1="437" x2="458.5" y2="473.77" stroke="#707070"/>
<path d="M422.303 458.945H422.241C421.717 459.707 420.933 460.087 419.89 460.087C418.91 460.087 418.146 459.752 417.6 459.082C417.057 458.412 416.786 457.46 416.786 456.225C416.786 454.99 417.06 454.03 417.606 453.347C418.153 452.663 418.914 452.321 419.89 452.321C420.906 452.321 421.685 452.691 422.228 453.429H422.316L422.269 452.889L422.241 452.362V449.314H423.376V459.95H422.453L422.303 458.945ZM420.033 459.137C420.808 459.137 421.368 458.927 421.715 458.508C422.066 458.084 422.241 457.403 422.241 456.464V456.225C422.241 455.163 422.063 454.406 421.708 453.955C421.357 453.499 420.794 453.272 420.02 453.272C419.354 453.272 418.844 453.531 418.488 454.051C418.137 454.566 417.962 455.295 417.962 456.238C417.962 457.195 418.137 457.918 418.488 458.405C418.839 458.893 419.354 459.137 420.033 459.137ZM428.954 460.087C427.847 460.087 426.972 459.75 426.329 459.075C425.691 458.401 425.372 457.464 425.372 456.266C425.372 455.058 425.668 454.099 426.261 453.388C426.858 452.677 427.658 452.321 428.66 452.321C429.599 452.321 430.342 452.631 430.889 453.251C431.436 453.866 431.709 454.68 431.709 455.692V456.409H426.548C426.571 457.289 426.792 457.957 427.211 458.412C427.635 458.868 428.229 459.096 428.995 459.096C429.802 459.096 430.599 458.927 431.388 458.59V459.602C430.987 459.775 430.606 459.898 430.246 459.971C429.891 460.048 429.46 460.087 428.954 460.087ZM428.646 453.272C428.045 453.272 427.564 453.468 427.204 453.859C426.849 454.251 426.639 454.794 426.575 455.486H430.492C430.492 454.771 430.333 454.224 430.014 453.846C429.695 453.463 429.239 453.272 428.646 453.272ZM435.291 459.95L432.447 452.458H433.664L435.277 456.901C435.642 457.941 435.856 458.615 435.92 458.925H435.975C436.025 458.683 436.182 458.184 436.446 457.428C436.715 456.667 437.314 455.01 438.244 452.458H439.461L436.617 459.95H435.291Z" fill="white"/>
<path d="M422.303 458.945H422.241C421.717 459.707 420.933 460.087 419.89 460.087C418.91 460.087 418.146 459.752 417.6 459.082C417.057 458.412 416.786 457.46 416.786 456.225C416.786 454.99 417.06 454.03 417.606 453.347C418.153 452.663 418.914 452.321 419.89 452.321C420.906 452.321 421.685 452.691 422.228 453.429H422.316L422.269 452.889L422.241 452.362V449.314H423.376V459.95H422.453L422.303 458.945ZM420.033 459.137C420.808 459.137 421.368 458.927 421.715 458.508C422.066 458.084 422.241 457.403 422.241 456.464V456.225C422.241 455.163 422.063 454.406 421.708 453.955C421.357 453.499 420.794 453.272 420.02 453.272C419.354 453.272 418.844 453.531 418.488 454.051C418.137 454.566 417.962 455.295 417.962 456.238C417.962 457.195 418.137 457.918 418.488 458.405C418.839 458.893 419.354 459.137 420.033 459.137ZM428.954 460.087C427.847 460.087 426.972 459.75 426.329 459.075C425.691 458.401 425.372 457.464 425.372 456.266C425.372 455.058 425.668 454.099 426.261 453.388C426.858 452.677 427.658 452.321 428.66 452.321C429.599 452.321 430.342 452.631 430.889 453.251C431.436 453.866 431.709 454.68 431.709 455.692V456.409H426.548C426.571 457.289 426.792 457.957 427.211 458.412C427.635 458.868 428.229 459.096 428.995 459.096C429.802 459.096 430.599 458.927 431.388 458.59V459.602C430.987 459.775 430.606 459.898 430.246 459.971C429.891 460.048 429.46 460.087 428.954 460.087ZM428.646 453.272C428.045 453.272 427.564 453.468 427.204 453.859C426.849 454.251 426.639 454.794 426.575 455.486H430.492C430.492 454.771 430.333 454.224 430.014 453.846C429.695 453.463 429.239 453.272 428.646 453.272ZM435.291 459.95L432.447 452.458H433.664L435.277 456.901C435.642 457.941 435.856 458.615 435.92 458.925H435.975C436.025 458.683 436.182 458.184 436.446 457.428C436.715 456.667 437.314 455.01 438.244 452.458H439.461L436.617 459.95H435.291Z" fill="white"/>
<path d="M479.338 459.95H478.203V449.314H479.338V459.95ZM482.879 459.95H481.744V452.458H482.879V459.95ZM481.648 450.428C481.648 450.168 481.712 449.979 481.84 449.86C481.967 449.737 482.127 449.676 482.318 449.676C482.501 449.676 482.658 449.737 482.79 449.86C482.922 449.984 482.988 450.173 482.988 450.428C482.988 450.683 482.922 450.874 482.79 451.002C482.658 451.125 482.501 451.187 482.318 451.187C482.127 451.187 481.967 451.125 481.84 451.002C481.712 450.874 481.648 450.683 481.648 450.428ZM486.926 459.95L484.082 452.458H485.299L486.912 456.901C487.277 457.941 487.491 458.615 487.555 458.925H487.609C487.66 458.683 487.817 458.184 488.081 457.428C488.35 456.667 488.949 455.01 489.879 452.458H491.096L488.252 459.95H486.926ZM495.464 460.087C494.356 460.087 493.481 459.75 492.839 459.075C492.201 458.401 491.882 457.464 491.882 456.266C491.882 455.058 492.178 454.099 492.771 453.388C493.368 452.677 494.167 452.321 495.17 452.321C496.109 452.321 496.852 452.631 497.398 453.251C497.945 453.866 498.219 454.68 498.219 455.692V456.409H493.058C493.08 457.289 493.301 457.957 493.721 458.412C494.145 458.868 494.739 459.096 495.505 459.096C496.312 459.096 497.109 458.927 497.897 458.59V459.602C497.496 459.775 497.116 459.898 496.756 459.971C496.4 460.048 495.97 460.087 495.464 460.087ZM495.156 453.272C494.555 453.272 494.074 453.468 493.714 453.859C493.358 454.251 493.149 454.794 493.085 455.486H497.002C497.002 454.771 496.842 454.224 496.523 453.846C496.204 453.463 495.749 453.272 495.156 453.272Z" fill="white"/>
<path d="M479.338 459.95H478.203V449.314H479.338V459.95ZM482.879 459.95H481.744V452.458H482.879V459.95ZM481.648 450.428C481.648 450.168 481.712 449.979 481.84 449.86C481.967 449.737 482.127 449.676 482.318 449.676C482.501 449.676 482.658 449.737 482.79 449.86C482.922 449.984 482.988 450.173 482.988 450.428C482.988 450.683 482.922 450.874 482.79 451.002C482.658 451.125 482.501 451.187 482.318 451.187C482.127 451.187 481.967 451.125 481.84 451.002C481.712 450.874 481.648 450.683 481.648 450.428ZM486.926 459.95L484.082 452.458H485.299L486.912 456.901C487.277 457.941 487.491 458.615 487.555 458.925H487.609C487.66 458.683 487.817 458.184 488.081 457.428C488.35 456.667 488.949 455.01 489.879 452.458H491.096L488.252 459.95H486.926ZM495.464 460.087C494.356 460.087 493.481 459.75 492.839 459.075C492.201 458.401 491.882 457.464 491.882 456.266C491.882 455.058 492.178 454.099 492.771 453.388C493.368 452.677 494.167 452.321 495.17 452.321C496.109 452.321 496.852 452.631 497.398 453.251C497.945 453.866 498.219 454.68 498.219 455.692V456.409H493.058C493.08 457.289 493.301 457.957 493.721 458.412C494.145 458.868 494.739 459.096 495.505 459.096C496.312 459.096 497.109 458.927 497.897 458.59V459.602C497.496 459.775 497.116 459.898 496.756 459.971C496.4 460.048 495.97 460.087 495.464 460.087ZM495.156 453.272C494.555 453.272 494.074 453.468 493.714 453.859C493.358 454.251 493.149 454.794 493.085 455.486H497.002C497.002 454.771 496.842 454.224 496.523 453.846C496.204 453.463 495.749 453.272 495.156 453.272Z" fill="white"/>
<path d="M475.284 372.985C475.267 372.873 475.212 372.771 475.13 372.694C475.047 372.618 474.941 372.571 474.828 372.561C474.639 372.546 470.928 372.489 470.928 372.489C470.928 372.489 467.824 369.483 467.519 369.187C467.355 369.075 467.165 369.003 466.967 368.978C466.77 368.953 466.568 368.974 466.381 369.042L464.821 369.523C464.625 368.893 464.372 368.283 464.065 367.699C463.677 366.777 463.031 365.985 462.203 365.417C461.376 364.849 460.402 364.529 459.397 364.495C459.253 364.495 459.12 364.51 458.984 364.51C458.933 364.452 458.868 364.385 458.807 364.317C458.397 363.873 457.892 363.525 457.329 363.298C456.767 363.071 456.161 362.972 455.555 363.007C454.046 363.221 452.613 363.798 451.379 364.688C450.146 365.578 449.15 366.755 448.478 368.115C447.061 370.346 446.098 372.832 445.642 375.432L440.671 376.963C439.207 377.419 439.159 377.464 438.97 378.837C438.829 379.874 435 409.314 435 409.314L467.086 414.825L480.993 411.388C480.993 411.388 475.309 373.248 475.284 372.985ZM463.216 370.021L460.727 370.788C460.737 369.234 460.482 367.69 459.971 366.221C461.873 366.582 462.818 368.736 463.216 370.021ZM459.047 371.304L453.691 372.955C454.166 371.027 455.093 369.239 456.394 367.734C456.9 367.172 457.52 366.723 458.213 366.416C458.831 367.971 459.115 369.636 459.047 371.306V371.304ZM455.605 364.68C456.138 364.653 456.667 364.792 457.117 365.076C456.38 365.467 455.717 365.98 455.154 366.594C453.449 368.571 452.305 370.965 451.842 373.528L447.44 374.884C448.31 370.843 451.708 364.793 455.605 364.68Z" fill="#95BF47"/>
<path d="M474.828 372.564C474.639 372.549 470.935 372.494 470.935 372.494C470.935 372.494 467.832 369.488 467.527 369.192C467.408 369.082 467.257 369.012 467.096 368.994V414.838L481 411.401C481 411.401 475.322 373.248 475.286 372.975C475.267 372.865 475.211 372.766 475.128 372.691C475.045 372.617 474.939 372.572 474.828 372.564Z" fill="#5E8E3E"/>
<path d="M459.379 379.676L457.764 385.688C456.518 385.176 455.174 384.944 453.827 385.007C450.695 385.205 450.662 387.166 450.693 387.66C450.864 390.348 457.974 390.934 458.372 397.229C458.537 398.252 458.486 399.298 458.221 400.299C457.956 401.301 457.484 402.237 456.835 403.047C456.186 403.857 455.373 404.523 454.45 405.002C453.527 405.482 452.513 405.765 451.474 405.832C450.038 405.96 448.591 405.788 447.226 405.327C445.861 404.866 444.608 404.126 443.548 403.154L444.631 398.575C446.107 399.703 447.876 400.391 449.73 400.556C450.002 400.549 450.268 400.487 450.515 400.374C450.761 400.262 450.983 400.101 451.165 399.902C451.348 399.702 451.488 399.468 451.577 399.213C451.667 398.958 451.703 398.688 451.685 398.419C451.464 394.912 445.674 395.12 445.309 389.361C445.002 384.513 448.204 379.591 455.265 379.16C456.658 378.999 458.07 379.176 459.379 379.676Z" fill="white"/>
<path d="M314.623 289.2C314.824 289.2 315.017 289.187 315.204 289.159C315.391 289.127 315.539 289.095 315.648 289.063V289.932C315.525 289.991 315.343 290.039 315.102 290.075C314.865 290.116 314.65 290.137 314.459 290.137C313.01 290.137 312.285 289.373 312.285 287.847V283.39H311.212V282.843L312.285 282.371L312.764 280.771H313.42V282.508H315.594V283.39H313.42V287.799C313.42 288.25 313.527 288.596 313.741 288.838C313.955 289.079 314.249 289.2 314.623 289.2ZM322.279 290V285.153C322.279 284.543 322.14 284.087 321.862 283.786C321.584 283.485 321.149 283.335 320.557 283.335C319.768 283.335 319.192 283.549 318.827 283.978C318.467 284.406 318.287 285.108 318.287 286.083V290H317.152V279.363H318.287V282.583C318.287 282.97 318.269 283.292 318.232 283.547H318.301C318.524 283.187 318.841 282.904 319.251 282.699C319.666 282.49 320.137 282.385 320.666 282.385C321.582 282.385 322.268 282.604 322.724 283.041C323.184 283.474 323.414 284.164 323.414 285.112V290H322.279ZM328.917 290.137C327.81 290.137 326.935 289.799 326.292 289.125C325.654 288.451 325.335 287.514 325.335 286.315C325.335 285.108 325.631 284.148 326.224 283.438C326.821 282.727 327.62 282.371 328.623 282.371C329.562 282.371 330.305 282.681 330.852 283.301C331.398 283.916 331.672 284.729 331.672 285.741V286.459H326.511C326.534 287.339 326.755 288.006 327.174 288.462C327.598 288.918 328.192 289.146 328.958 289.146C329.765 289.146 330.562 288.977 331.351 288.64V289.651C330.95 289.825 330.569 289.948 330.209 290.021C329.854 290.098 329.423 290.137 328.917 290.137ZM328.609 283.321C328.008 283.321 327.527 283.517 327.167 283.909C326.812 284.301 326.602 284.843 326.538 285.536H330.455C330.455 284.821 330.296 284.274 329.977 283.896C329.658 283.513 329.202 283.321 328.609 283.321ZM343.163 290V285.126C343.163 284.529 343.035 284.082 342.78 283.786C342.525 283.485 342.129 283.335 341.591 283.335C340.884 283.335 340.363 283.538 340.025 283.943C339.688 284.349 339.52 284.973 339.52 285.816V290H338.385V285.126C338.385 284.529 338.257 284.082 338.002 283.786C337.747 283.485 337.348 283.335 336.806 283.335C336.095 283.335 335.573 283.549 335.24 283.978C334.912 284.401 334.748 285.099 334.748 286.069V290H333.613V282.508H334.536L334.721 283.533H334.775C334.99 283.169 335.29 282.884 335.678 282.679C336.07 282.474 336.507 282.371 336.99 282.371C338.161 282.371 338.927 282.795 339.287 283.643H339.342C339.565 283.251 339.889 282.941 340.312 282.713C340.736 282.485 341.219 282.371 341.762 282.371C342.609 282.371 343.243 282.59 343.662 283.027C344.086 283.46 344.298 284.155 344.298 285.112V290H343.163ZM349.808 290.137C348.7 290.137 347.825 289.799 347.183 289.125C346.545 288.451 346.226 287.514 346.226 286.315C346.226 285.108 346.522 284.148 347.114 283.438C347.711 282.727 348.511 282.371 349.514 282.371C350.452 282.371 351.195 282.681 351.742 283.301C352.289 283.916 352.562 284.729 352.562 285.741V286.459H347.401C347.424 287.339 347.645 288.006 348.064 288.462C348.488 288.918 349.083 289.146 349.849 289.146C350.655 289.146 351.453 288.977 352.241 288.64V289.651C351.84 289.825 351.46 289.948 351.1 290.021C350.744 290.098 350.313 290.137 349.808 290.137ZM349.5 283.321C348.898 283.321 348.418 283.517 348.058 283.909C347.702 284.301 347.493 284.843 347.429 285.536H351.346C351.346 284.821 351.186 284.274 350.867 283.896C350.548 283.513 350.092 283.321 349.5 283.321ZM361.518 283.39H359.61V290H358.476V283.39H357.136V282.877L358.476 282.467V282.05C358.476 280.209 359.28 279.288 360.889 279.288C361.285 279.288 361.75 279.368 362.283 279.527L361.989 280.437C361.552 280.295 361.178 280.225 360.868 280.225C360.44 280.225 360.123 280.368 359.918 280.655C359.713 280.938 359.61 281.394 359.61 282.022V282.508H361.518V283.39ZM364.02 290H362.885V282.508H364.02V290ZM362.789 280.478C362.789 280.218 362.853 280.029 362.98 279.91C363.108 279.787 363.268 279.726 363.459 279.726C363.641 279.726 363.799 279.787 363.931 279.91C364.063 280.033 364.129 280.222 364.129 280.478C364.129 280.733 364.063 280.924 363.931 281.052C363.799 281.175 363.641 281.236 363.459 281.236C363.268 281.236 363.108 281.175 362.98 281.052C362.853 280.924 362.789 280.733 362.789 280.478ZM367.561 290H366.426V279.363H367.561V290ZM373.132 290.137C372.024 290.137 371.149 289.799 370.507 289.125C369.869 288.451 369.55 287.514 369.55 286.315C369.55 285.108 369.846 284.148 370.438 283.438C371.035 282.727 371.835 282.371 372.838 282.371C373.777 282.371 374.52 282.681 375.066 283.301C375.613 283.916 375.887 284.729 375.887 285.741V286.459H370.726C370.748 287.339 370.969 288.006 371.389 288.462C371.812 288.918 372.407 289.146 373.173 289.146C373.979 289.146 374.777 288.977 375.565 288.64V289.651C375.164 289.825 374.784 289.948 374.424 290.021C374.068 290.098 373.638 290.137 373.132 290.137ZM372.824 283.321C372.223 283.321 371.742 283.517 371.382 283.909C371.026 284.301 370.817 284.843 370.753 285.536H374.67C374.67 284.821 374.51 284.274 374.191 283.896C373.872 283.513 373.417 283.321 372.824 283.321ZM382.661 287.956C382.661 288.653 382.401 289.191 381.882 289.569C381.362 289.948 380.633 290.137 379.694 290.137C378.701 290.137 377.926 289.979 377.37 289.665V288.612C377.73 288.795 378.115 288.938 378.525 289.043C378.94 289.148 379.339 289.2 379.722 289.2C380.314 289.2 380.77 289.107 381.089 288.92C381.408 288.729 381.567 288.439 381.567 288.052C381.567 287.76 381.44 287.512 381.185 287.307C380.934 287.097 380.442 286.851 379.708 286.568C379.011 286.309 378.514 286.083 378.218 285.892C377.926 285.696 377.707 285.475 377.562 285.229C377.42 284.982 377.35 284.688 377.35 284.347C377.35 283.736 377.598 283.255 378.095 282.904C378.591 282.549 379.273 282.371 380.139 282.371C380.945 282.371 381.734 282.535 382.504 282.863L382.101 283.786C381.349 283.476 380.667 283.321 380.057 283.321C379.519 283.321 379.113 283.406 378.84 283.574C378.566 283.743 378.43 283.975 378.43 284.271C378.43 284.472 378.48 284.643 378.58 284.784C378.685 284.925 378.851 285.06 379.079 285.188C379.307 285.315 379.744 285.5 380.392 285.741C381.28 286.065 381.88 286.391 382.189 286.719C382.504 287.047 382.661 287.459 382.661 287.956ZM392.758 290L392.532 288.934H392.478C392.104 289.403 391.73 289.722 391.356 289.891C390.987 290.055 390.525 290.137 389.969 290.137C389.226 290.137 388.643 289.945 388.219 289.562C387.799 289.18 387.59 288.635 387.59 287.929C387.59 286.416 388.8 285.623 391.22 285.55L392.491 285.509V285.044C392.491 284.456 392.364 284.023 392.108 283.745C391.858 283.463 391.454 283.321 390.898 283.321C390.274 283.321 389.568 283.513 388.779 283.896L388.431 283.027C388.8 282.827 389.203 282.67 389.641 282.556C390.083 282.442 390.525 282.385 390.967 282.385C391.86 282.385 392.521 282.583 392.949 282.979C393.382 283.376 393.599 284.012 393.599 284.887V290H392.758ZM390.194 289.2C390.901 289.2 391.454 289.007 391.855 288.619C392.261 288.232 392.464 287.689 392.464 286.992V286.315L391.329 286.363C390.427 286.395 389.775 286.536 389.374 286.787C388.978 287.033 388.779 287.418 388.779 287.942C388.779 288.353 388.902 288.665 389.148 288.879C389.399 289.093 389.748 289.2 390.194 289.2ZM401.07 290V285.153C401.07 284.543 400.931 284.087 400.653 283.786C400.375 283.485 399.94 283.335 399.348 283.335C398.564 283.335 397.99 283.547 397.625 283.971C397.26 284.395 397.078 285.094 397.078 286.069V290H395.943V282.508H396.866L397.051 283.533H397.105C397.338 283.164 397.664 282.879 398.083 282.679C398.502 282.474 398.969 282.371 399.484 282.371C400.387 282.371 401.066 282.59 401.521 283.027C401.977 283.46 402.205 284.155 402.205 285.112V290H401.07ZM409.643 288.995H409.581C409.057 289.756 408.273 290.137 407.229 290.137C406.25 290.137 405.486 289.802 404.939 289.132C404.397 288.462 404.126 287.509 404.126 286.274C404.126 285.039 404.399 284.08 404.946 283.396C405.493 282.713 406.254 282.371 407.229 282.371C408.246 282.371 409.025 282.74 409.567 283.479H409.656L409.608 282.938L409.581 282.412V279.363H410.716V290H409.793L409.643 288.995ZM407.373 289.187C408.148 289.187 408.708 288.977 409.055 288.558C409.406 288.134 409.581 287.452 409.581 286.514V286.274C409.581 285.213 409.403 284.456 409.048 284.005C408.697 283.549 408.134 283.321 407.359 283.321C406.694 283.321 406.184 283.581 405.828 284.101C405.477 284.616 405.302 285.345 405.302 286.288C405.302 287.245 405.477 287.967 405.828 288.455C406.179 288.943 406.694 289.187 407.373 289.187ZM315.689 303.385C316.674 303.385 317.437 303.722 317.979 304.396C318.526 305.066 318.8 306.017 318.8 307.247C318.8 308.478 318.524 309.435 317.973 310.118C317.426 310.797 316.665 311.137 315.689 311.137C315.202 311.137 314.755 311.048 314.35 310.87C313.949 310.688 313.611 310.41 313.338 310.036H313.256L313.017 311H312.203V300.363H313.338V302.947C313.338 303.526 313.32 304.046 313.283 304.506H313.338C313.867 303.758 314.65 303.385 315.689 303.385ZM315.525 304.335C314.751 304.335 314.192 304.558 313.851 305.005C313.509 305.447 313.338 306.194 313.338 307.247C313.338 308.3 313.513 309.054 313.864 309.51C314.215 309.961 314.778 310.187 315.553 310.187C316.25 310.187 316.77 309.934 317.111 309.428C317.453 308.917 317.624 308.186 317.624 307.233C317.624 306.258 317.453 305.531 317.111 305.053C316.77 304.574 316.241 304.335 315.525 304.335ZM321.855 303.508V308.368C321.855 308.979 321.994 309.435 322.272 309.735C322.55 310.036 322.986 310.187 323.578 310.187C324.362 310.187 324.934 309.972 325.294 309.544C325.659 309.116 325.841 308.416 325.841 307.445V303.508H326.976V311H326.039L325.875 309.995H325.813C325.581 310.364 325.257 310.647 324.843 310.843C324.433 311.039 323.963 311.137 323.435 311.137C322.523 311.137 321.84 310.92 321.384 310.487C320.933 310.054 320.707 309.362 320.707 308.409V303.508H321.855ZM334.516 311V306.153C334.516 305.543 334.377 305.087 334.099 304.786C333.821 304.485 333.385 304.335 332.793 304.335C332.009 304.335 331.435 304.547 331.07 304.971C330.706 305.395 330.523 306.094 330.523 307.069V311H329.389V303.508H330.312L330.496 304.533H330.551C330.783 304.164 331.109 303.879 331.528 303.679C331.948 303.474 332.415 303.371 332.93 303.371C333.832 303.371 334.511 303.59 334.967 304.027C335.423 304.46 335.65 305.155 335.65 306.112V311H334.516ZM343.088 309.995H343.026C342.502 310.756 341.718 311.137 340.675 311.137C339.695 311.137 338.932 310.802 338.385 310.132C337.842 309.462 337.571 308.509 337.571 307.274C337.571 306.039 337.845 305.08 338.392 304.396C338.938 303.713 339.7 303.371 340.675 303.371C341.691 303.371 342.47 303.74 343.013 304.479H343.102L343.054 303.938L343.026 303.412V300.363H344.161V311H343.238L343.088 309.995ZM340.818 310.187C341.593 310.187 342.154 309.977 342.5 309.558C342.851 309.134 343.026 308.452 343.026 307.514V307.274C343.026 306.213 342.849 305.456 342.493 305.005C342.142 304.549 341.579 304.321 340.805 304.321C340.139 304.321 339.629 304.581 339.273 305.101C338.923 305.616 338.747 306.345 338.747 307.288C338.747 308.245 338.923 308.967 339.273 309.455C339.624 309.943 340.139 310.187 340.818 310.187ZM347.709 311H346.574V300.363H347.709V311ZM353.28 311.137C352.173 311.137 351.298 310.799 350.655 310.125C350.017 309.451 349.698 308.514 349.698 307.315C349.698 306.108 349.994 305.148 350.587 304.438C351.184 303.727 351.984 303.371 352.986 303.371C353.925 303.371 354.668 303.681 355.215 304.301C355.762 304.916 356.035 305.729 356.035 306.741V307.459H350.874C350.897 308.339 351.118 309.006 351.537 309.462C351.961 309.918 352.556 310.146 353.321 310.146C354.128 310.146 354.925 309.977 355.714 309.64V310.651C355.313 310.825 354.932 310.948 354.572 311.021C354.217 311.098 353.786 311.137 353.28 311.137ZM352.973 304.321C352.371 304.321 351.89 304.517 351.53 304.909C351.175 305.301 350.965 305.843 350.901 306.536H354.818C354.818 305.821 354.659 305.274 354.34 304.896C354.021 304.513 353.565 304.321 352.973 304.321ZM363.076 309.995H363.015C362.491 310.756 361.707 311.137 360.663 311.137C359.683 311.137 358.92 310.802 358.373 310.132C357.831 309.462 357.56 308.509 357.56 307.274C357.56 306.039 357.833 305.08 358.38 304.396C358.927 303.713 359.688 303.371 360.663 303.371C361.679 303.371 362.459 303.74 363.001 304.479H363.09L363.042 303.938L363.015 303.412V300.363H364.149V311H363.227L363.076 309.995ZM360.807 310.187C361.581 310.187 362.142 309.977 362.488 309.558C362.839 309.134 363.015 308.452 363.015 307.514V307.274C363.015 306.213 362.837 305.456 362.481 305.005C362.131 304.549 361.568 304.321 360.793 304.321C360.128 304.321 359.617 304.581 359.262 305.101C358.911 305.616 358.735 306.345 358.735 307.288C358.735 308.245 358.911 308.967 359.262 309.455C359.613 309.943 360.128 310.187 360.807 310.187ZM374.807 311L374.581 309.934H374.526C374.153 310.403 373.779 310.722 373.405 310.891C373.036 311.055 372.574 311.137 372.018 311.137C371.275 311.137 370.691 310.945 370.268 310.562C369.848 310.18 369.639 309.635 369.639 308.929C369.639 307.416 370.849 306.623 373.269 306.55L374.54 306.509V306.044C374.54 305.456 374.412 305.023 374.157 304.745C373.907 304.463 373.503 304.321 372.947 304.321C372.323 304.321 371.617 304.513 370.828 304.896L370.479 304.027C370.849 303.827 371.252 303.67 371.689 303.556C372.132 303.442 372.574 303.385 373.016 303.385C373.909 303.385 374.57 303.583 374.998 303.979C375.431 304.376 375.647 305.012 375.647 305.887V311H374.807ZM372.243 310.2C372.95 310.2 373.503 310.007 373.904 309.619C374.31 309.232 374.513 308.689 374.513 307.992V307.315L373.378 307.363C372.476 307.395 371.824 307.536 371.423 307.787C371.026 308.033 370.828 308.418 370.828 308.942C370.828 309.353 370.951 309.665 371.197 309.879C371.448 310.093 371.797 310.2 372.243 310.2ZM382.825 308.956C382.825 309.653 382.565 310.191 382.046 310.569C381.526 310.948 380.797 311.137 379.858 311.137C378.865 311.137 378.09 310.979 377.534 310.665V309.612C377.894 309.795 378.279 309.938 378.689 310.043C379.104 310.148 379.503 310.2 379.886 310.2C380.478 310.2 380.934 310.107 381.253 309.92C381.572 309.729 381.731 309.439 381.731 309.052C381.731 308.76 381.604 308.512 381.349 308.307C381.098 308.097 380.606 307.851 379.872 307.568C379.175 307.309 378.678 307.083 378.382 306.892C378.09 306.696 377.871 306.475 377.726 306.229C377.584 305.982 377.514 305.688 377.514 305.347C377.514 304.736 377.762 304.255 378.259 303.904C378.756 303.549 379.437 303.371 380.303 303.371C381.109 303.371 381.898 303.535 382.668 303.863L382.265 304.786C381.513 304.476 380.831 304.321 380.221 304.321C379.683 304.321 379.277 304.406 379.004 304.574C378.73 304.743 378.594 304.975 378.594 305.271C378.594 305.472 378.644 305.643 378.744 305.784C378.849 305.925 379.015 306.06 379.243 306.188C379.471 306.315 379.909 306.5 380.556 306.741C381.444 307.065 382.044 307.391 382.354 307.719C382.668 308.047 382.825 308.459 382.825 308.956ZM389.511 308.956C389.511 309.653 389.251 310.191 388.731 310.569C388.212 310.948 387.483 311.137 386.544 311.137C385.55 311.137 384.776 310.979 384.22 310.665V309.612C384.58 309.795 384.965 309.938 385.375 310.043C385.79 310.148 386.188 310.2 386.571 310.2C387.164 310.2 387.619 310.107 387.938 309.92C388.257 309.729 388.417 309.439 388.417 309.052C388.417 308.76 388.289 308.512 388.034 308.307C387.784 308.097 387.291 307.851 386.558 307.568C385.86 307.309 385.364 307.083 385.067 306.892C384.776 306.696 384.557 306.475 384.411 306.229C384.27 305.982 384.199 305.688 384.199 305.347C384.199 304.736 384.448 304.255 384.944 303.904C385.441 303.549 386.122 303.371 386.988 303.371C387.795 303.371 388.583 303.535 389.354 303.863L388.95 304.786C388.198 304.476 387.517 304.321 386.906 304.321C386.368 304.321 385.963 304.406 385.689 304.574C385.416 304.743 385.279 304.975 385.279 305.271C385.279 305.472 385.329 305.643 385.43 305.784C385.535 305.925 385.701 306.06 385.929 306.188C386.157 306.315 386.594 306.5 387.241 306.741C388.13 307.065 388.729 307.391 389.039 307.719C389.354 308.047 389.511 308.459 389.511 308.956ZM394.528 311.137C393.421 311.137 392.546 310.799 391.903 310.125C391.265 309.451 390.946 308.514 390.946 307.315C390.946 306.108 391.243 305.148 391.835 304.438C392.432 303.727 393.232 303.371 394.234 303.371C395.173 303.371 395.916 303.681 396.463 304.301C397.01 304.916 397.283 305.729 397.283 306.741V307.459H392.122C392.145 308.339 392.366 309.006 392.785 309.462C393.209 309.918 393.804 310.146 394.569 310.146C395.376 310.146 396.174 309.977 396.962 309.64V310.651C396.561 310.825 396.18 310.948 395.82 311.021C395.465 311.098 395.034 311.137 394.528 311.137ZM394.221 304.321C393.619 304.321 393.138 304.517 392.778 304.909C392.423 305.301 392.213 305.843 392.149 306.536H396.066C396.066 305.821 395.907 305.274 395.588 304.896C395.269 304.513 394.813 304.321 394.221 304.321ZM401.645 310.2C401.845 310.2 402.039 310.187 402.226 310.159C402.412 310.127 402.561 310.095 402.67 310.063V310.932C402.547 310.991 402.365 311.039 402.123 311.075C401.886 311.116 401.672 311.137 401.48 311.137C400.031 311.137 399.307 310.373 399.307 308.847V304.39H398.233V303.843L399.307 303.371L399.785 301.771H400.441V303.508H402.615V304.39H400.441V308.799C400.441 309.25 400.549 309.596 400.763 309.838C400.977 310.079 401.271 310.2 401.645 310.2ZM409.007 308.956C409.007 309.653 408.747 310.191 408.228 310.569C407.708 310.948 406.979 311.137 406.04 311.137C405.047 311.137 404.272 310.979 403.716 310.665V309.612C404.076 309.795 404.461 309.938 404.871 310.043C405.286 310.148 405.685 310.2 406.067 310.2C406.66 310.2 407.116 310.107 407.435 309.92C407.754 309.729 407.913 309.439 407.913 309.052C407.913 308.76 407.785 308.512 407.53 308.307C407.28 308.097 406.787 307.851 406.054 307.568C405.356 307.309 404.86 307.083 404.563 306.892C404.272 306.696 404.053 306.475 403.907 306.229C403.766 305.982 403.695 305.688 403.695 305.347C403.695 304.736 403.944 304.255 404.44 303.904C404.937 303.549 405.618 303.371 406.484 303.371C407.291 303.371 408.079 303.535 408.85 303.863L408.446 304.786C407.694 304.476 407.013 304.321 406.402 304.321C405.865 304.321 405.459 304.406 405.186 304.574C404.912 304.743 404.775 304.975 404.775 305.271C404.775 305.472 404.826 305.643 404.926 305.784C405.031 305.925 405.197 306.06 405.425 306.188C405.653 306.315 406.09 306.5 406.737 306.741C407.626 307.065 408.225 307.391 408.535 307.719C408.85 308.047 409.007 308.459 409.007 308.956Z" fill="#9B9B9B"/>
<path d="M511.036 299.956C511.036 300.653 510.776 301.191 510.257 301.569C509.737 301.948 509.008 302.137 508.069 302.137C507.076 302.137 506.301 301.979 505.745 301.665V300.612C506.105 300.795 506.49 300.938 506.9 301.043C507.315 301.148 507.714 301.2 508.097 301.2C508.689 301.2 509.145 301.107 509.464 300.92C509.783 300.729 509.942 300.439 509.942 300.052C509.942 299.76 509.815 299.512 509.56 299.307C509.309 299.097 508.817 298.851 508.083 298.568C507.386 298.309 506.889 298.083 506.593 297.892C506.301 297.696 506.082 297.475 505.937 297.229C505.795 296.982 505.725 296.688 505.725 296.347C505.725 295.736 505.973 295.255 506.47 294.904C506.966 294.549 507.648 294.371 508.514 294.371C509.32 294.371 510.109 294.535 510.879 294.863L510.476 295.786C509.724 295.476 509.042 295.321 508.432 295.321C507.894 295.321 507.488 295.406 507.215 295.574C506.941 295.743 506.805 295.975 506.805 296.271C506.805 296.472 506.855 296.643 506.955 296.784C507.06 296.925 507.226 297.06 507.454 297.188C507.682 297.315 508.119 297.5 508.767 297.741C509.655 298.065 510.255 298.391 510.564 298.719C510.879 299.047 511.036 299.459 511.036 299.956ZM516.054 302.137C514.946 302.137 514.071 301.799 513.429 301.125C512.791 300.451 512.472 299.514 512.472 298.315C512.472 297.108 512.768 296.148 513.36 295.438C513.957 294.727 514.757 294.371 515.76 294.371C516.699 294.371 517.441 294.681 517.988 295.301C518.535 295.916 518.809 296.729 518.809 297.741V298.459H513.647C513.67 299.339 513.891 300.006 514.311 300.462C514.734 300.918 515.329 301.146 516.095 301.146C516.901 301.146 517.699 300.977 518.487 300.64V301.651C518.086 301.825 517.706 301.948 517.346 302.021C516.99 302.098 516.56 302.137 516.054 302.137ZM515.746 295.321C515.145 295.321 514.664 295.517 514.304 295.909C513.948 296.301 513.739 296.843 513.675 297.536H517.592C517.592 296.821 517.432 296.274 517.113 295.896C516.794 295.513 516.339 295.321 515.746 295.321ZM523.17 301.2C523.37 301.2 523.564 301.187 523.751 301.159C523.938 301.127 524.086 301.095 524.195 301.063V301.932C524.072 301.991 523.89 302.039 523.648 302.075C523.411 302.116 523.197 302.137 523.006 302.137C521.557 302.137 520.832 301.373 520.832 299.847V295.39H519.759V294.843L520.832 294.371L521.311 292.771H521.967V294.508H524.141V295.39H521.967V299.799C521.967 300.25 522.074 300.596 522.288 300.838C522.502 301.079 522.796 301.2 523.17 301.2ZM528.119 301.2C528.32 301.2 528.513 301.187 528.7 301.159C528.887 301.127 529.035 301.095 529.145 301.063V301.932C529.021 301.991 528.839 302.039 528.598 302.075C528.361 302.116 528.146 302.137 527.955 302.137C526.506 302.137 525.781 301.373 525.781 299.847V295.39H524.708V294.843L525.781 294.371L526.26 292.771H526.916V294.508H529.09V295.39H526.916V299.799C526.916 300.25 527.023 300.596 527.237 300.838C527.451 301.079 527.745 301.2 528.119 301.2ZM531.783 302H530.648V294.508H531.783V302ZM530.553 292.478C530.553 292.218 530.617 292.029 530.744 291.91C530.872 291.787 531.031 291.726 531.223 291.726C531.405 291.726 531.562 291.787 531.694 291.91C531.826 292.033 531.893 292.222 531.893 292.478C531.893 292.733 531.826 292.924 531.694 293.052C531.562 293.175 531.405 293.236 531.223 293.236C531.031 293.236 530.872 293.175 530.744 293.052C530.617 292.924 530.553 292.733 530.553 292.478ZM539.316 302V297.153C539.316 296.543 539.177 296.087 538.899 295.786C538.621 295.485 538.186 295.335 537.594 295.335C536.81 295.335 536.236 295.547 535.871 295.971C535.507 296.395 535.324 297.094 535.324 298.069V302H534.189V294.508H535.112L535.297 295.533H535.352C535.584 295.164 535.91 294.879 536.329 294.679C536.748 294.474 537.215 294.371 537.73 294.371C538.633 294.371 539.312 294.59 539.768 295.027C540.223 295.46 540.451 296.155 540.451 297.112V302H539.316ZM548.921 294.508V295.226L547.533 295.39C547.661 295.549 547.775 295.759 547.875 296.019C547.975 296.274 548.025 296.563 548.025 296.887C548.025 297.62 547.775 298.206 547.273 298.644C546.772 299.081 546.084 299.3 545.209 299.3C544.986 299.3 544.776 299.282 544.58 299.245C544.097 299.5 543.855 299.822 543.855 300.209C543.855 300.414 543.94 300.567 544.108 300.667C544.277 300.763 544.566 300.811 544.977 300.811H546.303C547.114 300.811 547.736 300.981 548.169 301.323C548.606 301.665 548.825 302.162 548.825 302.813C548.825 303.643 548.493 304.274 547.827 304.707C547.162 305.145 546.191 305.363 544.915 305.363C543.935 305.363 543.179 305.181 542.646 304.816C542.117 304.452 541.853 303.937 541.853 303.271C541.853 302.816 541.998 302.422 542.29 302.089C542.582 301.756 542.992 301.531 543.521 301.412C543.329 301.326 543.167 301.191 543.035 301.009C542.908 300.826 542.844 300.615 542.844 300.373C542.844 300.1 542.917 299.86 543.062 299.655C543.208 299.45 543.438 299.252 543.753 299.061C543.366 298.901 543.049 298.63 542.803 298.247C542.561 297.864 542.44 297.427 542.44 296.935C542.44 296.114 542.687 295.483 543.179 295.041C543.671 294.594 544.368 294.371 545.271 294.371C545.662 294.371 546.016 294.417 546.33 294.508H548.921ZM542.946 303.258C542.946 303.663 543.117 303.971 543.459 304.181C543.801 304.39 544.291 304.495 544.929 304.495C545.881 304.495 546.585 304.352 547.041 304.064C547.501 303.782 547.731 303.397 547.731 302.909C547.731 302.504 547.606 302.221 547.355 302.062C547.105 301.907 546.633 301.829 545.94 301.829H544.58C544.065 301.829 543.664 301.952 543.377 302.198C543.09 302.444 542.946 302.798 542.946 303.258ZM543.562 296.907C543.562 297.431 543.71 297.828 544.006 298.097C544.302 298.366 544.715 298.5 545.243 298.5C546.351 298.5 546.904 297.962 546.904 296.887C546.904 295.761 546.344 295.198 545.223 295.198C544.689 295.198 544.279 295.342 543.992 295.629C543.705 295.916 543.562 296.342 543.562 296.907ZM555.292 299.956C555.292 300.653 555.032 301.191 554.513 301.569C553.993 301.948 553.264 302.137 552.325 302.137C551.332 302.137 550.557 301.979 550.001 301.665V300.612C550.361 300.795 550.746 300.938 551.156 301.043C551.571 301.148 551.97 301.2 552.353 301.2C552.945 301.2 553.401 301.107 553.72 300.92C554.039 300.729 554.198 300.439 554.198 300.052C554.198 299.76 554.071 299.512 553.815 299.307C553.565 299.097 553.073 298.851 552.339 298.568C551.642 298.309 551.145 298.083 550.849 297.892C550.557 297.696 550.338 297.475 550.192 297.229C550.051 296.982 549.98 296.688 549.98 296.347C549.98 295.736 550.229 295.255 550.726 294.904C551.222 294.549 551.904 294.371 552.77 294.371C553.576 294.371 554.365 294.535 555.135 294.863L554.731 295.786C553.979 295.476 553.298 295.321 552.688 295.321C552.15 295.321 551.744 295.406 551.471 295.574C551.197 295.743 551.061 295.975 551.061 296.271C551.061 296.472 551.111 296.643 551.211 296.784C551.316 296.925 551.482 297.06 551.71 297.188C551.938 297.315 552.375 297.5 553.022 297.741C553.911 298.065 554.51 298.391 554.82 298.719C555.135 299.047 555.292 299.459 555.292 299.956ZM562.244 304.153H555.914V303.258H562.244V304.153ZM568.52 300.995H568.458C567.934 301.756 567.15 302.137 566.106 302.137C565.127 302.137 564.363 301.802 563.816 301.132C563.274 300.462 563.003 299.509 563.003 298.274C563.003 297.039 563.276 296.08 563.823 295.396C564.37 294.713 565.131 294.371 566.106 294.371C567.123 294.371 567.902 294.74 568.444 295.479H568.533L568.485 294.938L568.458 294.412V291.363H569.593V302H568.67L568.52 300.995ZM566.25 301.187C567.025 301.187 567.585 300.977 567.932 300.558C568.283 300.134 568.458 299.452 568.458 298.514V298.274C568.458 297.213 568.28 296.456 567.925 296.005C567.574 295.549 567.011 295.321 566.236 295.321C565.571 295.321 565.061 295.581 564.705 296.101C564.354 296.616 564.179 297.345 564.179 298.288C564.179 299.245 564.354 299.967 564.705 300.455C565.056 300.943 565.571 301.187 566.25 301.187ZM576.613 302L576.388 300.934H576.333C575.959 301.403 575.586 301.722 575.212 301.891C574.843 302.055 574.38 302.137 573.824 302.137C573.081 302.137 572.498 301.945 572.074 301.562C571.655 301.18 571.445 300.635 571.445 299.929C571.445 298.416 572.655 297.623 575.075 297.55L576.347 297.509V297.044C576.347 296.456 576.219 296.023 575.964 295.745C575.713 295.463 575.31 295.321 574.754 295.321C574.13 295.321 573.423 295.513 572.635 295.896L572.286 295.027C572.655 294.827 573.059 294.67 573.496 294.556C573.938 294.442 574.38 294.385 574.822 294.385C575.715 294.385 576.376 294.583 576.805 294.979C577.238 295.376 577.454 296.012 577.454 296.887V302H576.613ZM574.05 301.2C574.756 301.2 575.31 301.007 575.711 300.619C576.117 300.232 576.319 299.689 576.319 298.992V298.315L575.185 298.363C574.282 298.395 573.631 298.536 573.229 298.787C572.833 299.033 572.635 299.418 572.635 299.942C572.635 300.353 572.758 300.665 573.004 300.879C573.255 301.093 573.603 301.2 574.05 301.2ZM582.219 301.2C582.419 301.2 582.613 301.187 582.8 301.159C582.987 301.127 583.135 301.095 583.244 301.063V301.932C583.121 301.991 582.939 302.039 582.697 302.075C582.46 302.116 582.246 302.137 582.055 302.137C580.605 302.137 579.881 301.373 579.881 299.847V295.39H578.808V294.843L579.881 294.371L580.359 292.771H581.016V294.508H583.189V295.39H581.016V299.799C581.016 300.25 581.123 300.596 581.337 300.838C581.551 301.079 581.845 301.2 582.219 301.2ZM589.355 302L589.13 300.934H589.075C588.701 301.403 588.328 301.722 587.954 301.891C587.585 302.055 587.122 302.137 586.566 302.137C585.824 302.137 585.24 301.945 584.816 301.562C584.397 301.18 584.188 300.635 584.188 299.929C584.188 298.416 585.397 297.623 587.817 297.55L589.089 297.509V297.044C589.089 296.456 588.961 296.023 588.706 295.745C588.455 295.463 588.052 295.321 587.496 295.321C586.872 295.321 586.165 295.513 585.377 295.896L585.028 295.027C585.397 294.827 585.801 294.67 586.238 294.556C586.68 294.442 587.122 294.385 587.564 294.385C588.458 294.385 589.118 294.583 589.547 294.979C589.98 295.376 590.196 296.012 590.196 296.887V302H589.355ZM586.792 301.2C587.498 301.2 588.052 301.007 588.453 300.619C588.859 300.232 589.062 299.689 589.062 298.992V298.315L587.927 298.363C587.024 298.395 586.373 298.536 585.972 298.787C585.575 299.033 585.377 299.418 585.377 299.942C585.377 300.353 585.5 300.665 585.746 300.879C585.997 301.093 586.345 301.2 586.792 301.2ZM592.377 301.275C592.377 300.97 592.445 300.74 592.582 300.585C592.723 300.425 592.924 300.346 593.184 300.346C593.448 300.346 593.653 300.425 593.799 300.585C593.949 300.74 594.024 300.97 594.024 301.275C594.024 301.572 593.949 301.799 593.799 301.959C593.648 302.118 593.443 302.198 593.184 302.198C592.951 302.198 592.757 302.128 592.603 301.986C592.452 301.84 592.377 301.604 592.377 301.275ZM595.364 305.363C594.931 305.363 594.58 305.306 594.312 305.192V304.27C594.626 304.361 594.936 304.406 595.241 304.406C595.597 304.406 595.856 304.308 596.021 304.112C596.189 303.921 596.273 303.627 596.273 303.23V294.508H597.408V303.148C597.408 304.625 596.727 305.363 595.364 305.363ZM596.178 292.478C596.178 292.218 596.242 292.029 596.369 291.91C596.497 291.787 596.656 291.726 596.848 291.726C597.03 291.726 597.187 291.787 597.319 291.91C597.451 292.033 597.518 292.222 597.518 292.478C597.518 292.733 597.451 292.924 597.319 293.052C597.187 293.175 597.03 293.236 596.848 293.236C596.656 293.236 596.497 293.175 596.369 293.052C596.242 292.924 596.178 292.733 596.178 292.478ZM604.647 299.956C604.647 300.653 604.388 301.191 603.868 301.569C603.349 301.948 602.619 302.137 601.681 302.137C600.687 302.137 599.912 301.979 599.356 301.665V300.612C599.716 300.795 600.102 300.938 600.512 301.043C600.926 301.148 601.325 301.2 601.708 301.2C602.3 301.2 602.756 301.107 603.075 300.92C603.394 300.729 603.554 300.439 603.554 300.052C603.554 299.76 603.426 299.512 603.171 299.307C602.92 299.097 602.428 298.851 601.694 298.568C600.997 298.309 600.5 298.083 600.204 297.892C599.912 297.696 599.694 297.475 599.548 297.229C599.407 296.982 599.336 296.688 599.336 296.347C599.336 295.736 599.584 295.255 600.081 294.904C600.578 294.549 601.259 294.371 602.125 294.371C602.932 294.371 603.72 294.535 604.49 294.863L604.087 295.786C603.335 295.476 602.654 295.321 602.043 295.321C601.505 295.321 601.1 295.406 600.826 295.574C600.553 295.743 600.416 295.975 600.416 296.271C600.416 296.472 600.466 296.643 600.566 296.784C600.671 296.925 600.838 297.06 601.065 297.188C601.293 297.315 601.731 297.5 602.378 297.741C603.267 298.065 603.866 298.391 604.176 298.719C604.49 299.047 604.647 299.459 604.647 299.956ZM612.967 298.247C612.967 299.468 612.659 300.423 612.044 301.111C611.429 301.795 610.579 302.137 609.494 302.137C608.824 302.137 608.229 301.979 607.71 301.665C607.19 301.351 606.789 300.899 606.507 300.312C606.224 299.724 606.083 299.035 606.083 298.247C606.083 297.026 606.388 296.076 606.999 295.396C607.61 294.713 608.457 294.371 609.542 294.371C610.59 294.371 611.422 294.72 612.037 295.417C612.657 296.114 612.967 297.058 612.967 298.247ZM607.259 298.247C607.259 299.204 607.45 299.933 607.833 300.435C608.216 300.936 608.779 301.187 609.521 301.187C610.264 301.187 610.827 300.938 611.21 300.441C611.597 299.94 611.791 299.209 611.791 298.247C611.791 297.295 611.597 296.572 611.21 296.08C610.827 295.583 610.26 295.335 609.508 295.335C608.765 295.335 608.204 295.579 607.826 296.066C607.448 296.554 607.259 297.281 607.259 298.247ZM620.09 302V297.153C620.09 296.543 619.951 296.087 619.673 295.786C619.395 295.485 618.96 295.335 618.367 295.335C617.583 295.335 617.009 295.547 616.645 295.971C616.28 296.395 616.098 297.094 616.098 298.069V302H614.963V294.508H615.886L616.07 295.533H616.125C616.357 295.164 616.683 294.879 617.103 294.679C617.522 294.474 617.989 294.371 618.504 294.371C619.406 294.371 620.085 294.59 620.541 295.027C620.997 295.46 621.225 296.155 621.225 297.112V302H620.09Z" fill="#9B9B9B"/>
<path d="M437.939 322.061C438.525 322.646 439.475 322.646 440.061 322.061L449.607 312.515C450.192 311.929 450.192 310.979 449.607 310.393C449.021 309.808 448.071 309.808 447.485 310.393L439 318.879L430.515 310.393C429.929 309.808 428.979 309.808 428.393 310.393C427.808 310.979 427.808 311.929 428.393 312.515L437.939 322.061ZM437.5 277L437.5 321L440.5 321L440.5 277L437.5 277Z" fill="#DCDCDC"/>
<path d="M478.061 275.939C477.475 275.354 476.525 275.354 475.939 275.939L466.393 285.485C465.808 286.071 465.808 287.021 466.393 287.607C466.979 288.192 467.929 288.192 468.515 287.607L477 279.121L485.485 287.607C486.071 288.192 487.021 288.192 487.607 287.607C488.192 287.021 488.192 286.071 487.607 285.485L478.061 275.939ZM478.5 321L478.5 277L475.5 277L475.5 321L478.5 321Z" fill="#DCDCDC"/>
<path d="M475.939 322.061C476.525 322.646 477.475 322.646 478.061 322.061L487.607 312.515C488.192 311.929 488.192 310.979 487.607 310.393C487.021 309.808 486.071 309.808 485.485 310.393L477 318.879L468.515 310.393C467.929 309.808 466.979 309.808 466.393 310.393C465.808 310.979 465.808 311.929 466.393 312.515L475.939 322.061ZM475.5 277L475.5 321L478.5 321L478.5 277L475.5 277Z" fill="#DCDCDC"/>
<line x1="639" y1="252" x2="639" y2="45" stroke="#EEEEEE" stroke-width="2"/>
</g>
<defs>
<filter id="filter0_d" x="605" y="25" width="190" height="279" filterUnits="userSpaceOnUse" color-interpolation-filters="sRGB">
<feFlood flood-opacity="0" result="BackgroundImageFix"/>
<feColorMatrix in="SourceAlpha" type="matrix" values="0 0 0 0 0 0 0 0 0 0 0 0 0 0 0 0 0 0 127 0"/>
<feOffset dy="15"/>
<feGaussianBlur stdDeviation="17.5"/>
<feColorMatrix type="matrix" values="0 0 0 0 0 0 0 0 0 0 0 0 0 0 0 0 0 0 0.06 0"/>
<feBlend mode="normal" in2="BackgroundImageFix" result="effect1_dropShadow"/>
<feBlend mode="normal" in="SourceGraphic" in2="effect1_dropShadow" result="shape"/>
</filter>
<filter id="filter1_d" x="44" y="80" width="190" height="200" filterUnits="userSpaceOnUse" color-interpolation-filters="sRGB">
<feFlood flood-opacity="0" result="BackgroundImageFix"/>
<feColorMatrix in="SourceAlpha" type="matrix" values="0 0 0 0 0 0 0 0 0 0 0 0 0 0 0 0 0 0 127 0"/>
<feOffset dy="15"/>
<feGaussianBlur stdDeviation="17.5"/>
<feColorMatrix type="matrix" values="0 0 0 0 0 0 0 0 0 0 0 0 0 0 0 0 0 0 0.06 0"/>
<feBlend mode="normal" in2="BackgroundImageFix" result="effect1_dropShadow"/>
<feBlend mode="normal" in="SourceGraphic" in2="effect1_dropShadow" result="shape"/>
</filter>
<filter id="filter2_d" x="95.8932" y="153.842" width="84.4369" height="38.6784" filterUnits="userSpaceOnUse" color-interpolation-filters="sRGB">
<feFlood flood-opacity="0" result="BackgroundImageFix"/>
<feColorMatrix in="SourceAlpha" type="matrix" values="0 0 0 0 0 0 0 0 0 0 0 0 0 0 0 0 0 0 127 0"/>
<feOffset dy="3"/>
<feGaussianBlur stdDeviation="7.5"/>
<feColorMatrix type="matrix" values="0 0 0 0 0 0 0 0 0 0.0839841 0 0 0 0 1 0 0 0 0.4 0"/>
<feBlend mode="normal" in2="BackgroundImageFix" result="effect1_dropShadow"/>
<feBlend mode="normal" in="SourceGraphic" in2="effect1_dropShadow" result="shape"/>
</filter>
<filter id="filter3_d" x="271" y="80" width="190" height="200" filterUnits="userSpaceOnUse" color-interpolation-filters="sRGB">
<feFlood flood-opacity="0" result="BackgroundImageFix"/>
<feColorMatrix in="SourceAlpha" type="matrix" values="0 0 0 0 0 0 0 0 0 0 0 0 0 0 0 0 0 0 127 0"/>
<feOffset dy="15"/>
<feGaussianBlur stdDeviation="17.5"/>
<feColorMatrix type="matrix" values="0 0 0 0 0 0 0 0 0 0 0 0 0 0 0 0 0 0 0.06 0"/>
<feBlend mode="normal" in2="BackgroundImageFix" result="effect1_dropShadow"/>
<feBlend mode="normal" in="SourceGraphic" in2="effect1_dropShadow" result="shape"/>
</filter>
<filter id="filter4_d" x="324.45" y="159.239" width="82.8038" height="38.5487" filterUnits="userSpaceOnUse" color-interpolation-filters="sRGB">
<feFlood flood-opacity="0" result="BackgroundImageFix"/>
<feColorMatrix in="SourceAlpha" type="matrix" values="0 0 0 0 0 0 0 0 0 0 0 0 0 0 0 0 0 0 127 0"/>
<feOffset dy="3"/>
<feGaussianBlur stdDeviation="7.5"/>
<feColorMatrix type="matrix" values="0 0 0 0 0 0 0 0 0 0.0839841 0 0 0 0 1 0 0 0 0.4 0"/>
<feBlend mode="normal" in2="BackgroundImageFix" result="effect1_dropShadow"/>
<feBlend mode="normal" in="SourceGraphic" in2="effect1_dropShadow" result="shape"/>
</filter>
<filter id="filter5_d" x="456" y="80" width="190" height="200" filterUnits="userSpaceOnUse" color-interpolation-filters="sRGB">
<feFlood flood-opacity="0" result="BackgroundImageFix"/>
<feColorMatrix in="SourceAlpha" type="matrix" values="0 0 0 0 0 0 0 0 0 0 0 0 0 0 0 0 0 0 127 0"/>
<feOffset dy="15"/>
<feGaussianBlur stdDeviation="17.5"/>
<feColorMatrix type="matrix" values="0 0 0 0 0 0 0 0 0 0 0 0 0 0 0 0 0 0 0.06 0"/>
<feBlend mode="normal" in2="BackgroundImageFix" result="effect1_dropShadow"/>
<feBlend mode="normal" in="SourceGraphic" in2="effect1_dropShadow" result="shape"/>
</filter>
<filter id="filter6_d" x="363" y="324" width="190" height="200" filterUnits="userSpaceOnUse" color-interpolation-filters="sRGB">
<feFlood flood-opacity="0" result="BackgroundImageFix"/>
<feColorMatrix in="SourceAlpha" type="matrix" values="0 0 0 0 0 0 0 0 0 0 0 0 0 0 0 0 0 0 127 0"/>
<feOffset dy="15"/>
<feGaussianBlur stdDeviation="17.5"/>
<feColorMatrix type="matrix" values="0 0 0 0 0 0 0 0 0 0 0 0 0 0 0 0 0 0 0.06 0"/>
<feBlend mode="normal" in2="BackgroundImageFix" result="effect1_dropShadow"/>
<feBlend mode="normal" in="SourceGraphic" in2="effect1_dropShadow" result="shape"/>
</filter>
<clipPath id="clip0">
<rect width="838" height="514" fill="white"/>
</clipPath>
</defs>
</svg>
