<svg width="838" height="514" viewBox="0 0 838 514" fill="none" xmlns="http://www.w3.org/2000/svg">
<g clip-path="url(#clip0)">
<g filter="url(#filter0_d)">
<rect x="40" y="100" width="120" height="130" rx="16" fill="white"/>
</g>
<path d="M95.6533 201.901C94.555 201.901 93.6868 202.268 93.0488 203.002C92.4154 203.731 92.0986 204.731 92.0986 206.003C92.0986 207.311 92.404 208.323 93.0146 209.038C93.6299 209.749 94.5049 210.104 95.6396 210.104C96.3369 210.104 97.1322 209.979 98.0254 209.729V210.747C97.3327 211.007 96.4782 211.137 95.4619 211.137C93.9899 211.137 92.8529 210.69 92.0508 209.797C91.2533 208.904 90.8545 207.634 90.8545 205.989C90.8545 204.959 91.0459 204.057 91.4287 203.282C91.8161 202.507 92.3721 201.91 93.0967 201.491C93.8258 201.072 94.6826 200.862 95.667 200.862C96.7152 200.862 97.6312 201.054 98.415 201.437L97.9229 202.435C97.1663 202.079 96.4098 201.901 95.6533 201.901ZM100.206 211V201.006H101.368V209.947H105.777V211H100.206ZM107.479 211V201.006H108.642V211H107.479Z" fill="#3C3C3C"/>
<g filter="url(#filter1_d)">
<path d="M71.8931 170.181C71.8931 167.785 73.81 165.842 76.1746 165.842H122.048C124.413 165.842 126.33 167.785 126.33 170.181V170.181C126.33 172.578 124.413 174.52 122.048 174.52H76.1746C73.81 174.52 71.8931 172.578 71.8931 170.181V170.181Z" fill="#6E78FF"/>
</g>
<path d="M67 131.749C67 127.469 70.4231 124 74.6456 124H122.354C126.577 124 130 127.469 130 131.749V169.251C130 173.531 126.577 177 122.354 177H74.6456C70.4231 177 67 173.531 67 169.251V131.749Z" fill="#6E78FF"/>
<path fill-rule="evenodd" clip-rule="evenodd" d="M122.354 127.099H74.6456C72.1121 127.099 70.0583 129.181 70.0583 131.749V169.251C70.0583 171.819 72.1121 173.901 74.6456 173.901H122.354C124.888 173.901 126.942 171.819 126.942 169.251V131.749C126.942 129.181 124.888 127.099 122.354 127.099ZM74.6456 124C70.4231 124 67 127.469 67 131.749V169.251C67 173.531 70.4231 177 74.6456 177H122.354C126.577 177 130 173.531 130 169.251V131.749C130 127.469 126.577 124 122.354 124H74.6456Z" fill="#6E78FF"/>
<path d="M80.5251 145.835C79.5203 145.835 78.62 145.669 77.824 145.339C77.0281 145.008 76.3887 144.519 75.9059 143.871C75.4361 143.223 75.1882 142.443 75.1621 141.53H78.7244C78.7766 142.046 78.9527 142.443 79.2528 142.72C79.5529 142.985 79.9444 143.117 80.4272 143.117C80.923 143.117 81.3145 143.005 81.6016 142.78C81.8886 142.542 82.0322 142.218 82.0322 141.808C82.0322 141.464 81.9147 141.18 81.6799 140.955C81.458 140.73 81.1775 140.545 80.8382 140.4C80.512 140.254 80.0423 140.089 79.429 139.904C78.5417 139.626 77.8175 139.348 77.2564 139.071C76.6953 138.793 76.2125 138.383 75.808 137.841C75.4035 137.299 75.2013 136.591 75.2013 135.718C75.2013 134.422 75.6645 133.411 76.5909 132.683C77.5174 131.943 78.7244 131.573 80.2119 131.573C81.7255 131.573 82.9456 131.943 83.872 132.683C84.7985 133.411 85.2943 134.429 85.3595 135.738H81.7386C81.7125 135.289 81.5494 134.938 81.2493 134.687C80.9491 134.422 80.5642 134.29 80.0945 134.29C79.69 134.29 79.3637 134.402 79.1158 134.627C78.8679 134.839 78.7439 135.15 78.7439 135.56C78.7439 136.009 78.9527 136.36 79.3703 136.611C79.7878 136.862 80.4402 137.133 81.3275 137.424C82.2148 137.728 82.9325 138.019 83.4806 138.297C84.0416 138.575 84.5244 138.978 84.9289 139.507C85.3335 140.036 85.5357 140.717 85.5357 141.55C85.5357 142.344 85.3335 143.064 84.9289 143.712C84.5375 144.36 83.9634 144.876 83.2065 145.26C82.4497 145.643 81.5559 145.835 80.5251 145.835Z" fill="white"/>
<path fill-rule="evenodd" clip-rule="evenodd" d="M98.4998 145.696H88.7134V143.836H98.4998V145.696Z" fill="white"/>
<g filter="url(#filter2_d)">
<rect x="678" y="100" width="120" height="130" rx="16" fill="white"/>
</g>
<path d="M716.45 211H715.288V202.038H712.123V201.006H719.615V202.038H716.45V211ZM726.082 211V206.153C726.082 205.543 725.943 205.087 725.665 204.786C725.387 204.485 724.952 204.335 724.359 204.335C723.571 204.335 722.994 204.549 722.63 204.978C722.27 205.406 722.09 206.108 722.09 207.083V211H720.955V200.363H722.09V203.583C722.09 203.97 722.072 204.292 722.035 204.547H722.104C722.327 204.187 722.644 203.904 723.054 203.699C723.468 203.49 723.94 203.385 724.469 203.385C725.385 203.385 726.071 203.604 726.526 204.041C726.987 204.474 727.217 205.164 727.217 206.112V211H726.082ZM732.72 211.137C731.612 211.137 730.737 210.799 730.095 210.125C729.457 209.451 729.138 208.514 729.138 207.315C729.138 206.108 729.434 205.148 730.026 204.438C730.623 203.727 731.423 203.371 732.426 203.371C733.365 203.371 734.107 203.681 734.654 204.301C735.201 204.916 735.475 205.729 735.475 206.741V207.459H730.313C730.336 208.339 730.557 209.006 730.977 209.462C731.4 209.918 731.995 210.146 732.761 210.146C733.567 210.146 734.365 209.977 735.153 209.64V210.651C734.752 210.825 734.372 210.948 734.012 211.021C733.656 211.098 733.226 211.137 732.72 211.137ZM732.412 204.321C731.811 204.321 731.33 204.517 730.97 204.909C730.614 205.301 730.405 205.843 730.341 206.536H734.258C734.258 205.821 734.098 205.274 733.779 204.896C733.46 204.513 733.005 204.321 732.412 204.321ZM746.966 211V206.126C746.966 205.529 746.838 205.082 746.583 204.786C746.328 204.485 745.931 204.335 745.394 204.335C744.687 204.335 744.165 204.538 743.828 204.943C743.491 205.349 743.322 205.973 743.322 206.816V211H742.188V206.126C742.188 205.529 742.06 205.082 741.805 204.786C741.549 204.485 741.151 204.335 740.608 204.335C739.897 204.335 739.376 204.549 739.043 204.978C738.715 205.401 738.551 206.099 738.551 207.069V211H737.416V203.508H738.339L738.523 204.533H738.578C738.792 204.169 739.093 203.884 739.48 203.679C739.872 203.474 740.31 203.371 740.793 203.371C741.964 203.371 742.73 203.795 743.09 204.643H743.145C743.368 204.251 743.691 203.941 744.115 203.713C744.539 203.485 745.022 203.371 745.564 203.371C746.412 203.371 747.046 203.59 747.465 204.027C747.889 204.46 748.101 205.155 748.101 206.112V211H746.966ZM753.61 211.137C752.503 211.137 751.628 210.799 750.985 210.125C750.347 209.451 750.028 208.514 750.028 207.315C750.028 206.108 750.325 205.148 750.917 204.438C751.514 203.727 752.314 203.371 753.316 203.371C754.255 203.371 754.998 203.681 755.545 204.301C756.092 204.916 756.365 205.729 756.365 206.741V207.459H751.204C751.227 208.339 751.448 209.006 751.867 209.462C752.291 209.918 752.886 210.146 753.651 210.146C754.458 210.146 755.256 209.977 756.044 209.64V210.651C755.643 210.825 755.262 210.948 754.902 211.021C754.547 211.098 754.116 211.137 753.61 211.137ZM753.303 204.321C752.701 204.321 752.22 204.517 751.86 204.909C751.505 205.301 751.295 205.843 751.231 206.536H755.148C755.148 205.821 754.989 205.274 754.67 204.896C754.351 204.513 753.895 204.321 753.303 204.321ZM763.14 208.956C763.14 209.653 762.88 210.191 762.36 210.569C761.841 210.948 761.112 211.137 760.173 211.137C759.179 211.137 758.405 210.979 757.849 210.665V209.612C758.209 209.795 758.594 209.938 759.004 210.043C759.419 210.148 759.817 210.2 760.2 210.2C760.793 210.2 761.248 210.107 761.567 209.92C761.886 209.729 762.046 209.439 762.046 209.052C762.046 208.76 761.918 208.512 761.663 208.307C761.412 208.097 760.92 207.851 760.187 207.568C759.489 207.309 758.993 207.083 758.696 206.892C758.405 206.696 758.186 206.475 758.04 206.229C757.899 205.982 757.828 205.688 757.828 205.347C757.828 204.736 758.076 204.255 758.573 203.904C759.07 203.549 759.751 203.371 760.617 203.371C761.424 203.371 762.212 203.535 762.982 203.863L762.579 204.786C761.827 204.476 761.146 204.321 760.535 204.321C759.997 204.321 759.592 204.406 759.318 204.574C759.045 204.743 758.908 204.975 758.908 205.271C758.908 205.472 758.958 205.643 759.059 205.784C759.163 205.925 759.33 206.06 759.558 206.188C759.785 206.315 760.223 206.5 760.87 206.741C761.759 207.065 762.358 207.391 762.668 207.719C762.982 208.047 763.14 208.459 763.14 208.956Z" fill="#3C3C3C"/>
<path d="M766.438 130.976L753.206 123.397C752.758 123.137 752.25 123 751.732 123C751.215 123 750.707 123.137 750.259 123.397L738.471 130.147L726.682 123.397C726.234 123.137 725.726 123 725.209 123C724.691 123 724.183 123.137 723.735 123.397L710.503 130.976C710.048 131.233 709.669 131.607 709.405 132.06C709.141 132.512 709.001 133.027 709 133.552V148.71C709.001 149.235 709.141 149.75 709.405 150.203C709.669 150.655 710.048 151.029 710.503 151.286L722.291 158.007V171.448C722.292 171.973 722.432 172.488 722.696 172.94C722.96 173.393 723.339 173.767 723.794 174.024L737.056 181.603C737.504 181.863 738.012 182 738.529 182C739.047 182 739.555 181.863 740.003 181.603L753.206 174.024C753.661 173.767 754.04 173.393 754.304 172.94C754.568 172.488 754.708 171.973 754.709 171.448V158.007L766.497 151.286C766.952 151.029 767.331 150.655 767.595 150.203C767.859 149.75 767.999 149.235 768 148.71V133.552C767.993 133.021 767.845 132.502 767.57 132.049C767.295 131.596 766.904 131.225 766.438 130.976ZM714.894 146.993V135.15L725.209 129.229L735.523 135.15V146.993L725.209 152.914L714.894 146.993ZM748.785 169.731L738.471 175.652L728.156 169.731V157.888L738.471 151.967L748.785 157.888V169.731ZM762.047 146.993L751.732 152.914L741.418 146.993V135.15L751.732 129.229L762.047 135.15V146.993Z" fill="#6E78FF"/>
<g filter="url(#filter3_d)">
<rect x="267" y="100" width="120" height="130" rx="16" fill="white"/>
</g>
<path d="M294.45 211H293.288V202.038H290.123V201.006H297.615V202.038H294.45V211ZM304.082 211V206.153C304.082 205.543 303.943 205.087 303.665 204.786C303.387 204.485 302.952 204.335 302.359 204.335C301.571 204.335 300.994 204.549 300.63 204.978C300.27 205.406 300.09 206.108 300.09 207.083V211H298.955V200.363H300.09V203.583C300.09 203.97 300.072 204.292 300.035 204.547H300.104C300.327 204.187 300.644 203.904 301.054 203.699C301.468 203.49 301.94 203.385 302.469 203.385C303.385 203.385 304.071 203.604 304.526 204.041C304.987 204.474 305.217 205.164 305.217 206.112V211H304.082ZM310.72 211.137C309.612 211.137 308.737 210.799 308.095 210.125C307.457 209.451 307.138 208.514 307.138 207.315C307.138 206.108 307.434 205.148 308.026 204.438C308.623 203.727 309.423 203.371 310.426 203.371C311.365 203.371 312.107 203.681 312.654 204.301C313.201 204.916 313.475 205.729 313.475 206.741V207.459H308.313C308.336 208.339 308.557 209.006 308.977 209.462C309.4 209.918 309.995 210.146 310.761 210.146C311.567 210.146 312.365 209.977 313.153 209.64V210.651C312.752 210.825 312.372 210.948 312.012 211.021C311.656 211.098 311.226 211.137 310.72 211.137ZM310.412 204.321C309.811 204.321 309.33 204.517 308.97 204.909C308.614 205.301 308.405 205.843 308.341 206.536H312.258C312.258 205.821 312.098 205.274 311.779 204.896C311.46 204.513 311.005 204.321 310.412 204.321ZM324.966 211V206.126C324.966 205.529 324.838 205.082 324.583 204.786C324.328 204.485 323.931 204.335 323.394 204.335C322.687 204.335 322.165 204.538 321.828 204.943C321.491 205.349 321.322 205.973 321.322 206.816V211H320.188V206.126C320.188 205.529 320.06 205.082 319.805 204.786C319.549 204.485 319.151 204.335 318.608 204.335C317.897 204.335 317.376 204.549 317.043 204.978C316.715 205.401 316.551 206.099 316.551 207.069V211H315.416V203.508H316.339L316.523 204.533H316.578C316.792 204.169 317.093 203.884 317.48 203.679C317.872 203.474 318.31 203.371 318.793 203.371C319.964 203.371 320.73 203.795 321.09 204.643H321.145C321.368 204.251 321.691 203.941 322.115 203.713C322.539 203.485 323.022 203.371 323.564 203.371C324.412 203.371 325.046 203.59 325.465 204.027C325.889 204.46 326.101 205.155 326.101 206.112V211H324.966ZM331.61 211.137C330.503 211.137 329.628 210.799 328.985 210.125C328.347 209.451 328.028 208.514 328.028 207.315C328.028 206.108 328.325 205.148 328.917 204.438C329.514 203.727 330.314 203.371 331.316 203.371C332.255 203.371 332.998 203.681 333.545 204.301C334.092 204.916 334.365 205.729 334.365 206.741V207.459H329.204C329.227 208.339 329.448 209.006 329.867 209.462C330.291 209.918 330.886 210.146 331.651 210.146C332.458 210.146 333.256 209.977 334.044 209.64V210.651C333.643 210.825 333.262 210.948 332.902 211.021C332.547 211.098 332.116 211.137 331.61 211.137ZM331.303 204.321C330.701 204.321 330.22 204.517 329.86 204.909C329.505 205.301 329.295 205.843 329.231 206.536H333.148C333.148 205.821 332.989 205.274 332.67 204.896C332.351 204.513 331.895 204.321 331.303 204.321ZM340.114 211V201.006H341.276V209.947H345.686V211H340.114ZM351.824 211L351.599 209.934H351.544C351.17 210.403 350.797 210.722 350.423 210.891C350.054 211.055 349.591 211.137 349.035 211.137C348.292 211.137 347.709 210.945 347.285 210.562C346.866 210.18 346.656 209.635 346.656 208.929C346.656 207.416 347.866 206.623 350.286 206.55L351.558 206.509V206.044C351.558 205.456 351.43 205.023 351.175 204.745C350.924 204.463 350.521 204.321 349.965 204.321C349.34 204.321 348.634 204.513 347.846 204.896L347.497 204.027C347.866 203.827 348.27 203.67 348.707 203.556C349.149 203.442 349.591 203.385 350.033 203.385C350.926 203.385 351.587 203.583 352.016 203.979C352.449 204.376 352.665 205.012 352.665 205.887V211H351.824ZM349.261 210.2C349.967 210.2 350.521 210.007 350.922 209.619C351.327 209.232 351.53 208.689 351.53 207.992V207.315L350.396 207.363C349.493 207.395 348.841 207.536 348.44 207.787C348.044 208.033 347.846 208.418 347.846 208.942C347.846 209.353 347.969 209.665 348.215 209.879C348.465 210.093 348.814 210.2 349.261 210.2ZM358.496 203.385C359.48 203.385 360.244 203.722 360.786 204.396C361.333 205.066 361.606 206.017 361.606 207.247C361.606 208.478 361.331 209.435 360.779 210.118C360.232 210.797 359.471 211.137 358.496 211.137C358.008 211.137 357.562 211.048 357.156 210.87C356.755 210.688 356.418 210.41 356.145 210.036H356.062L355.823 211H355.01V200.363H356.145V202.947C356.145 203.526 356.126 204.046 356.09 204.506H356.145C356.673 203.758 357.457 203.385 358.496 203.385ZM358.332 204.335C357.557 204.335 356.999 204.558 356.657 205.005C356.315 205.447 356.145 206.194 356.145 207.247C356.145 208.3 356.32 209.054 356.671 209.51C357.022 209.961 357.585 210.187 358.359 210.187C359.057 210.187 359.576 209.934 359.918 209.428C360.26 208.917 360.431 208.186 360.431 207.233C360.431 206.258 360.26 205.531 359.918 205.053C359.576 204.574 359.048 204.335 358.332 204.335Z" fill="#3C3C3C"/>
<g filter="url(#filter4_d)">
<rect x="300.45" y="171.239" width="52.8038" height="8.54867" rx="4.27433" fill="#6E78FF"/>
</g>
<path d="M299.924 182.071C299.217 182.071 298.522 181.879 297.909 181.516C297.297 181.153 296.788 180.631 296.434 180.002C296.08 179.374 295.892 178.66 295.891 177.934C295.89 177.208 296.074 176.494 296.426 175.864L317.357 138.376V128.37H315.215C314.858 128.37 314.516 128.225 314.264 127.966C314.011 127.707 313.87 127.355 313.87 126.989V124.382C313.87 124.015 314.011 123.664 314.264 123.405C314.516 123.146 314.858 123 315.215 123H338.667C339.024 123 339.366 123.146 339.619 123.405C339.871 123.664 340.013 124.015 340.013 124.382V126.989C340.013 127.355 339.871 127.707 339.619 127.966C339.366 128.225 339.024 128.37 338.667 128.37H336.527V138.376L357.468 175.865C357.82 176.495 358.005 177.209 358.003 177.935C358.002 178.662 357.815 179.375 357.461 180.004C357.106 180.633 356.598 181.155 355.985 181.518C355.373 181.881 354.678 182.072 353.971 182.073L299.924 182.071Z" fill="#6E78FF"/>
<path d="M320.284 173.558C318.99 173.558 317.83 173.341 316.804 172.909C315.779 172.476 314.955 171.836 314.333 170.989C313.728 170.141 313.409 169.12 313.375 167.926H317.964C318.031 168.601 318.258 169.12 318.645 169.483C319.032 169.829 319.536 170.002 320.158 170.002C320.797 170.002 321.301 169.855 321.671 169.561C322.041 169.25 322.226 168.826 322.226 168.29C322.226 167.84 322.074 167.468 321.772 167.174C321.486 166.88 321.125 166.637 320.687 166.447C320.267 166.257 319.662 166.041 318.872 165.798C317.729 165.435 316.796 165.072 316.073 164.708C315.35 164.345 314.728 163.809 314.207 163.099C313.686 162.39 313.425 161.464 313.425 160.323C313.425 158.627 314.022 157.304 315.216 156.352C316.409 155.383 317.964 154.899 319.881 154.899C321.831 154.899 323.402 155.383 324.596 156.352C325.789 157.304 326.428 158.636 326.512 160.349H321.847C321.814 159.76 321.604 159.302 321.217 158.973C320.83 158.627 320.334 158.454 319.729 158.454C319.208 158.454 318.788 158.601 318.468 158.895C318.149 159.172 317.989 159.579 317.989 160.115C317.989 160.703 318.258 161.162 318.796 161.49C319.334 161.819 320.175 162.174 321.318 162.554C322.461 162.952 323.385 163.333 324.092 163.696C324.814 164.06 325.436 164.587 325.957 165.279C326.479 165.971 326.739 166.862 326.739 167.952C326.739 168.99 326.479 169.933 325.957 170.781C325.453 171.629 324.713 172.303 323.738 172.805C322.763 173.307 321.612 173.558 320.284 173.558Z" fill="white"/>
<ellipse cx="336.344" cy="170.018" rx="3.55981" ry="3.66372" fill="white"/>
<ellipse cx="338.569" cy="160.706" rx="2.52153" ry="2.59513" fill="white"/>
<ellipse cx="332.34" cy="158.569" rx="1.63158" ry="1.6792" fill="white"/>
<ellipse cx="332.933" cy="150.936" rx="1.92823" ry="1.98451" fill="white"/>
<g filter="url(#filter5_d)">
<rect x="452" y="100" width="120" height="130" rx="16" fill="white"/>
</g>
<path d="M473.653 201.901C472.555 201.901 471.687 202.268 471.049 203.002C470.415 203.731 470.099 204.731 470.099 206.003C470.099 207.311 470.404 208.323 471.015 209.038C471.63 209.749 472.505 210.104 473.64 210.104C474.337 210.104 475.132 209.979 476.025 209.729V210.747C475.333 211.007 474.478 211.137 473.462 211.137C471.99 211.137 470.853 210.69 470.051 209.797C469.253 208.904 468.854 207.634 468.854 205.989C468.854 204.959 469.046 204.057 469.429 203.282C469.816 202.507 470.372 201.91 471.097 201.491C471.826 201.072 472.683 200.862 473.667 200.862C474.715 200.862 475.631 201.054 476.415 201.437L475.923 202.435C475.166 202.079 474.41 201.901 473.653 201.901ZM479.102 203.508V208.368C479.102 208.979 479.241 209.435 479.519 209.735C479.797 210.036 480.232 210.187 480.824 210.187C481.608 210.187 482.18 209.972 482.54 209.544C482.905 209.116 483.087 208.416 483.087 207.445V203.508H484.222V211H483.285L483.121 209.995H483.06C482.827 210.364 482.504 210.647 482.089 210.843C481.679 211.039 481.209 211.137 480.681 211.137C479.769 211.137 479.086 210.92 478.63 210.487C478.179 210.054 477.953 209.362 477.953 208.409V203.508H479.102ZM491.468 208.956C491.468 209.653 491.208 210.191 490.688 210.569C490.169 210.948 489.44 211.137 488.501 211.137C487.507 211.137 486.733 210.979 486.177 210.665V209.612C486.537 209.795 486.922 209.938 487.332 210.043C487.747 210.148 488.146 210.2 488.528 210.2C489.121 210.2 489.576 210.107 489.896 209.92C490.215 209.729 490.374 209.439 490.374 209.052C490.374 208.76 490.246 208.512 489.991 208.307C489.741 208.097 489.248 207.851 488.515 207.568C487.817 207.309 487.321 207.083 487.024 206.892C486.733 206.696 486.514 206.475 486.368 206.229C486.227 205.982 486.156 205.688 486.156 205.347C486.156 204.736 486.405 204.255 486.901 203.904C487.398 203.549 488.079 203.371 488.945 203.371C489.752 203.371 490.54 203.535 491.311 203.863L490.907 204.786C490.155 204.476 489.474 204.321 488.863 204.321C488.326 204.321 487.92 204.406 487.646 204.574C487.373 204.743 487.236 204.975 487.236 205.271C487.236 205.472 487.286 205.643 487.387 205.784C487.492 205.925 487.658 206.06 487.886 206.188C488.114 206.315 488.551 206.5 489.198 206.741C490.087 207.065 490.686 207.391 490.996 207.719C491.311 208.047 491.468 208.459 491.468 208.956ZM495.74 210.2C495.941 210.2 496.134 210.187 496.321 210.159C496.508 210.127 496.656 210.095 496.766 210.063V210.932C496.643 210.991 496.46 211.039 496.219 211.075C495.982 211.116 495.768 211.137 495.576 211.137C494.127 211.137 493.402 210.373 493.402 208.847V204.39H492.329V203.843L493.402 203.371L493.881 201.771H494.537V203.508H496.711V204.39H494.537V208.799C494.537 209.25 494.644 209.596 494.858 209.838C495.073 210.079 495.367 210.2 495.74 210.2ZM504.736 207.247C504.736 208.468 504.429 209.423 503.813 210.111C503.198 210.795 502.348 211.137 501.264 211.137C500.594 211.137 499.999 210.979 499.479 210.665C498.96 210.351 498.559 209.899 498.276 209.312C497.994 208.724 497.853 208.035 497.853 207.247C497.853 206.026 498.158 205.076 498.769 204.396C499.379 203.713 500.227 203.371 501.312 203.371C502.36 203.371 503.191 203.72 503.807 204.417C504.426 205.114 504.736 206.058 504.736 207.247ZM499.028 207.247C499.028 208.204 499.22 208.933 499.603 209.435C499.985 209.936 500.548 210.187 501.291 210.187C502.034 210.187 502.597 209.938 502.979 209.441C503.367 208.94 503.561 208.209 503.561 207.247C503.561 206.295 503.367 205.572 502.979 205.08C502.597 204.583 502.029 204.335 501.277 204.335C500.535 204.335 499.974 204.579 499.596 205.066C499.217 205.554 499.028 206.281 499.028 207.247ZM516.282 211V206.126C516.282 205.529 516.155 205.082 515.899 204.786C515.644 204.485 515.248 204.335 514.71 204.335C514.004 204.335 513.482 204.538 513.145 204.943C512.807 205.349 512.639 205.973 512.639 206.816V211H511.504V206.126C511.504 205.529 511.376 205.082 511.121 204.786C510.866 204.485 510.467 204.335 509.925 204.335C509.214 204.335 508.692 204.549 508.359 204.978C508.031 205.401 507.867 206.099 507.867 207.069V211H506.732V203.508H507.655L507.84 204.533H507.895C508.109 204.169 508.41 203.884 508.797 203.679C509.189 203.474 509.626 203.371 510.109 203.371C511.281 203.371 512.046 203.795 512.406 204.643H512.461C512.684 204.251 513.008 203.941 513.432 203.713C513.855 203.485 514.339 203.371 514.881 203.371C515.729 203.371 516.362 203.59 516.781 204.027C517.205 204.46 517.417 205.155 517.417 206.112V211H516.282ZM528.231 208.956C528.231 209.653 527.972 210.191 527.452 210.569C526.933 210.948 526.203 211.137 525.265 211.137C524.271 211.137 523.496 210.979 522.94 210.665V209.612C523.3 209.795 523.686 209.938 524.096 210.043C524.51 210.148 524.909 210.2 525.292 210.2C525.884 210.2 526.34 210.107 526.659 209.92C526.978 209.729 527.138 209.439 527.138 209.052C527.138 208.76 527.01 208.512 526.755 208.307C526.504 208.097 526.012 207.851 525.278 207.568C524.581 207.309 524.084 207.083 523.788 206.892C523.496 206.696 523.278 206.475 523.132 206.229C522.991 205.982 522.92 205.688 522.92 205.347C522.92 204.736 523.168 204.255 523.665 203.904C524.162 203.549 524.843 203.371 525.709 203.371C526.516 203.371 527.304 203.535 528.074 203.863L527.671 204.786C526.919 204.476 526.238 204.321 525.627 204.321C525.089 204.321 524.684 204.406 524.41 204.574C524.137 204.743 524 204.975 524 205.271C524 205.472 524.05 205.643 524.15 205.784C524.255 205.925 524.422 206.06 524.649 206.188C524.877 206.315 525.315 206.5 525.962 206.741C526.851 207.065 527.45 207.391 527.76 207.719C528.074 208.047 528.231 208.459 528.231 208.956ZM532.504 210.2C532.704 210.2 532.898 210.187 533.085 210.159C533.272 210.127 533.42 210.095 533.529 210.063V210.932C533.406 210.991 533.224 211.039 532.982 211.075C532.745 211.116 532.531 211.137 532.34 211.137C530.891 211.137 530.166 210.373 530.166 208.847V204.39H529.093V203.843L530.166 203.371L530.645 201.771H531.301V203.508H533.475V204.39H531.301V208.799C531.301 209.25 531.408 209.596 531.622 209.838C531.836 210.079 532.13 210.2 532.504 210.2ZM539.641 211L539.415 209.934H539.36C538.987 210.403 538.613 210.722 538.239 210.891C537.87 211.055 537.408 211.137 536.852 211.137C536.109 211.137 535.525 210.945 535.102 210.562C534.682 210.18 534.473 209.635 534.473 208.929C534.473 207.416 535.683 206.623 538.103 206.55L539.374 206.509V206.044C539.374 205.456 539.246 205.023 538.991 204.745C538.741 204.463 538.337 204.321 537.781 204.321C537.157 204.321 536.451 204.513 535.662 204.896L535.313 204.027C535.683 203.827 536.086 203.67 536.523 203.556C536.965 203.442 537.408 203.385 537.85 203.385C538.743 203.385 539.404 203.583 539.832 203.979C540.265 204.376 540.481 205.012 540.481 205.887V211H539.641ZM537.077 210.2C537.784 210.2 538.337 210.007 538.738 209.619C539.144 209.232 539.347 208.689 539.347 207.992V207.315L538.212 207.363C537.31 207.395 536.658 207.536 536.257 207.787C535.86 208.033 535.662 208.418 535.662 208.942C535.662 209.353 535.785 209.665 536.031 209.879C536.282 210.093 536.631 210.2 537.077 210.2ZM545.82 211.137C544.736 211.137 543.895 210.804 543.298 210.139C542.705 209.469 542.409 208.523 542.409 207.302C542.409 206.049 542.71 205.08 543.312 204.396C543.918 203.713 544.779 203.371 545.896 203.371C546.256 203.371 546.616 203.41 546.976 203.487C547.336 203.565 547.618 203.656 547.823 203.761L547.475 204.725C547.224 204.624 546.951 204.542 546.654 204.479C546.358 204.41 546.096 204.376 545.868 204.376C544.346 204.376 543.585 205.347 543.585 207.288C543.585 208.209 543.77 208.915 544.139 209.407C544.512 209.899 545.064 210.146 545.793 210.146C546.417 210.146 547.058 210.011 547.714 209.742V210.747C547.213 211.007 546.581 211.137 545.82 211.137ZM550.619 207.165C550.815 206.887 551.114 206.522 551.515 206.071L553.935 203.508H555.281L552.246 206.7L555.493 211H554.119L551.474 207.459L550.619 208.197V211H549.498V200.363H550.619V206.003C550.619 206.254 550.601 206.641 550.564 207.165H550.619Z" fill="#3C3C3C"/>
<rect x="240" y="46" width="358" height="207" rx="15" stroke="#EEEEEE" stroke-width="2"/>
<path d="M347.352 72.9072C347.352 74.557 346.903 75.8193 346.005 76.6943C345.112 77.5648 343.824 78 342.143 78H339.374V68.0059H342.437C343.991 68.0059 345.198 68.4365 346.06 69.2979C346.921 70.1592 347.352 71.3623 347.352 72.9072ZM346.121 72.9482C346.121 71.6449 345.793 70.6628 345.137 70.002C344.485 69.3411 343.514 69.0107 342.225 69.0107H340.536V76.9951H341.951C343.337 76.9951 344.378 76.6556 345.075 75.9766C345.772 75.293 346.121 74.2835 346.121 72.9482ZM352.581 78.1367C351.474 78.1367 350.599 77.7995 349.956 77.125C349.318 76.4505 348.999 75.514 348.999 74.3154C348.999 73.1077 349.295 72.1484 349.888 71.4375C350.485 70.7266 351.285 70.3711 352.287 70.3711C353.226 70.3711 353.969 70.681 354.516 71.3008C355.062 71.916 355.336 72.7295 355.336 73.7412V74.459H350.175C350.198 75.3385 350.419 76.0062 350.838 76.4619C351.262 76.9176 351.856 77.1455 352.622 77.1455C353.429 77.1455 354.226 76.9769 355.015 76.6396V77.6514C354.614 77.8245 354.233 77.9476 353.873 78.0205C353.518 78.098 353.087 78.1367 352.581 78.1367ZM352.273 71.3213C351.672 71.3213 351.191 71.5173 350.831 71.9092C350.476 72.3011 350.266 72.8434 350.202 73.5361H354.119C354.119 72.8206 353.96 72.2738 353.641 71.8955C353.322 71.5127 352.866 71.3213 352.273 71.3213ZM358.918 78L356.074 70.5078H357.291L358.904 74.9512C359.269 75.9902 359.483 76.6647 359.547 76.9746H359.602C359.652 76.7331 359.809 76.234 360.073 75.4775C360.342 74.7165 360.941 73.0599 361.871 70.5078H363.088L360.244 78H358.918ZM367.456 78.1367C366.349 78.1367 365.474 77.7995 364.831 77.125C364.193 76.4505 363.874 75.514 363.874 74.3154C363.874 73.1077 364.17 72.1484 364.763 71.4375C365.36 70.7266 366.16 70.3711 367.162 70.3711C368.101 70.3711 368.844 70.681 369.391 71.3008C369.938 71.916 370.211 72.7295 370.211 73.7412V74.459H365.05C365.073 75.3385 365.294 76.0062 365.713 76.4619C366.137 76.9176 366.731 77.1455 367.497 77.1455C368.304 77.1455 369.101 76.9769 369.89 76.6396V77.6514C369.489 77.8245 369.108 77.9476 368.748 78.0205C368.393 78.098 367.962 78.1367 367.456 78.1367ZM367.148 71.3213C366.547 71.3213 366.066 71.5173 365.706 71.9092C365.351 72.3011 365.141 72.8434 365.077 73.5361H368.994C368.994 72.8206 368.835 72.2738 368.516 71.8955C368.197 71.5127 367.741 71.3213 367.148 71.3213ZM373.287 78H372.152V67.3633H373.287V78ZM382.16 74.2471C382.16 75.4684 381.853 76.4232 381.237 77.1113C380.622 77.7949 379.772 78.1367 378.688 78.1367C378.018 78.1367 377.423 77.9795 376.903 77.665C376.384 77.3506 375.983 76.8994 375.7 76.3115C375.418 75.7236 375.276 75.0355 375.276 74.2471C375.276 73.0257 375.582 72.0755 376.192 71.3965C376.803 70.7129 377.651 70.3711 378.735 70.3711C379.784 70.3711 380.615 70.7197 381.23 71.417C381.85 72.1143 382.16 73.0576 382.16 74.2471ZM376.452 74.2471C376.452 75.2041 376.644 75.9333 377.026 76.4346C377.409 76.9359 377.972 77.1865 378.715 77.1865C379.458 77.1865 380.021 76.9382 380.403 76.4414C380.791 75.9401 380.984 75.2087 380.984 74.2471C380.984 73.2946 380.791 72.5723 380.403 72.0801C380.021 71.5833 379.453 71.335 378.701 71.335C377.958 71.335 377.398 71.5788 377.02 72.0664C376.641 72.554 376.452 73.2809 376.452 74.2471ZM387.643 78.1367C387.155 78.1367 386.708 78.0479 386.303 77.8701C385.902 77.6878 385.564 77.4098 385.291 77.0361H385.209C385.264 77.4736 385.291 77.8883 385.291 78.2803V81.3633H384.156V70.5078H385.079L385.236 71.5332H385.291C385.583 71.123 385.922 70.8268 386.31 70.6445C386.697 70.4622 387.141 70.3711 387.643 70.3711C388.636 70.3711 389.402 70.7106 389.939 71.3896C390.482 72.0687 390.753 73.0212 390.753 74.2471C390.753 75.4775 390.477 76.4346 389.926 77.1182C389.379 77.7972 388.618 78.1367 387.643 78.1367ZM387.479 71.335C386.713 71.335 386.159 71.5469 385.817 71.9707C385.476 72.3945 385.3 73.069 385.291 73.9941V74.2471C385.291 75.2998 385.466 76.054 385.817 76.5098C386.168 76.9609 386.731 77.1865 387.506 77.1865C388.153 77.1865 388.659 76.9245 389.023 76.4004C389.393 75.8763 389.577 75.154 389.577 74.2334C389.577 73.2992 389.393 72.5837 389.023 72.0869C388.659 71.5856 388.144 71.335 387.479 71.335ZM402.292 78V73.126C402.292 72.529 402.164 72.0824 401.909 71.7861C401.654 71.4854 401.257 71.335 400.72 71.335C400.013 71.335 399.492 71.5378 399.154 71.9434C398.817 72.349 398.648 72.9733 398.648 73.8164V78H397.514V73.126C397.514 72.529 397.386 72.0824 397.131 71.7861C396.876 71.4854 396.477 71.335 395.935 71.335C395.224 71.335 394.702 71.5492 394.369 71.9775C394.041 72.4014 393.877 73.0986 393.877 74.0693V78H392.742V70.5078H393.665L393.85 71.5332H393.904C394.118 71.1686 394.419 70.8838 394.807 70.6787C395.199 70.4736 395.636 70.3711 396.119 70.3711C397.29 70.3711 398.056 70.7949 398.416 71.6426H398.471C398.694 71.2507 399.018 70.9408 399.441 70.7129C399.865 70.485 400.348 70.3711 400.891 70.3711C401.738 70.3711 402.372 70.5898 402.791 71.0273C403.215 71.4603 403.427 72.1553 403.427 73.1123V78H402.292ZM408.937 78.1367C407.829 78.1367 406.954 77.7995 406.312 77.125C405.674 76.4505 405.354 75.514 405.354 74.3154C405.354 73.1077 405.651 72.1484 406.243 71.4375C406.84 70.7266 407.64 70.3711 408.643 70.3711C409.581 70.3711 410.324 70.681 410.871 71.3008C411.418 71.916 411.691 72.7295 411.691 73.7412V74.459H406.53C406.553 75.3385 406.774 76.0062 407.193 76.4619C407.617 76.9176 408.212 77.1455 408.978 77.1455C409.784 77.1455 410.582 76.9769 411.37 76.6396V77.6514C410.969 77.8245 410.589 77.9476 410.229 78.0205C409.873 78.098 409.442 78.1367 408.937 78.1367ZM408.629 71.3213C408.027 71.3213 407.547 71.5173 407.187 71.9092C406.831 72.3011 406.621 72.8434 406.558 73.5361H410.475C410.475 72.8206 410.315 72.2738 409.996 71.8955C409.677 71.5127 409.221 71.3213 408.629 71.3213ZM418.76 78V73.1533C418.76 72.5426 418.621 72.0869 418.343 71.7861C418.065 71.4854 417.63 71.335 417.037 71.335C416.253 71.335 415.679 71.5469 415.314 71.9707C414.95 72.3945 414.768 73.0941 414.768 74.0693V78H413.633V70.5078H414.556L414.74 71.5332H414.795C415.027 71.1641 415.353 70.8792 415.772 70.6787C416.192 70.4736 416.659 70.3711 417.174 70.3711C418.076 70.3711 418.755 70.5898 419.211 71.0273C419.667 71.4603 419.895 72.1553 419.895 73.1123V78H418.76ZM424.652 77.2002C424.853 77.2002 425.047 77.1865 425.233 77.1592C425.42 77.1273 425.568 77.0954 425.678 77.0635V77.9316C425.555 77.9909 425.372 78.0387 425.131 78.0752C424.894 78.1162 424.68 78.1367 424.488 78.1367C423.039 78.1367 422.314 77.3734 422.314 75.8467V71.3896H421.241V70.8428L422.314 70.3711L422.793 68.7715H423.449V70.5078H425.623V71.3896H423.449V75.7988C423.449 76.25 423.556 76.5964 423.771 76.8379C423.985 77.0794 424.279 77.2002 424.652 77.2002ZM433.983 78.1367C432.876 78.1367 432.001 77.7995 431.358 77.125C430.72 76.4505 430.401 75.514 430.401 74.3154C430.401 73.1077 430.698 72.1484 431.29 71.4375C431.887 70.7266 432.687 70.3711 433.689 70.3711C434.628 70.3711 435.371 70.681 435.918 71.3008C436.465 71.916 436.738 72.7295 436.738 73.7412V74.459H431.577C431.6 75.3385 431.821 76.0062 432.24 76.4619C432.664 76.9176 433.259 77.1455 434.024 77.1455C434.831 77.1455 435.629 76.9769 436.417 76.6396V77.6514C436.016 77.8245 435.635 77.9476 435.275 78.0205C434.92 78.098 434.489 78.1367 433.983 78.1367ZM433.676 71.3213C433.074 71.3213 432.593 71.5173 432.233 71.9092C431.878 72.3011 431.668 72.8434 431.604 73.5361H435.521C435.521 72.8206 435.362 72.2738 435.043 71.8955C434.724 71.5127 434.268 71.3213 433.676 71.3213ZM443.807 78V73.1533C443.807 72.5426 443.668 72.0869 443.39 71.7861C443.112 71.4854 442.676 71.335 442.084 71.335C441.3 71.335 440.726 71.5469 440.361 71.9707C439.997 72.3945 439.814 73.0941 439.814 74.0693V78H438.68V70.5078H439.603L439.787 71.5332H439.842C440.074 71.1641 440.4 70.8792 440.819 70.6787C441.239 70.4736 441.706 70.3711 442.221 70.3711C443.123 70.3711 443.802 70.5898 444.258 71.0273C444.714 71.4603 444.941 72.1553 444.941 73.1123V78H443.807ZM448.92 78L446.076 70.5078H447.293L448.906 74.9512C449.271 75.9902 449.485 76.6647 449.549 76.9746H449.604C449.654 76.7331 449.811 76.234 450.075 75.4775C450.344 74.7165 450.943 73.0599 451.873 70.5078H453.09L450.246 78H448.92ZM455.428 78H454.293V70.5078H455.428V78ZM454.197 68.4775C454.197 68.2178 454.261 68.0286 454.389 67.9102C454.516 67.7871 454.676 67.7256 454.867 67.7256C455.049 67.7256 455.207 67.7871 455.339 67.9102C455.471 68.0332 455.537 68.2223 455.537 68.4775C455.537 68.7327 455.471 68.9242 455.339 69.0518C455.207 69.1748 455.049 69.2363 454.867 69.2363C454.676 69.2363 454.516 69.1748 454.389 69.0518C454.261 68.9242 454.197 68.7327 454.197 68.4775ZM461.252 70.3711C461.585 70.3711 461.883 70.3984 462.147 70.4531L461.99 71.5059C461.68 71.4375 461.407 71.4033 461.17 71.4033C460.564 71.4033 460.044 71.6494 459.611 72.1416C459.183 72.6338 458.969 73.2467 458.969 73.9805V78H457.834V70.5078H458.771L458.9 71.8955H458.955C459.233 71.4079 459.568 71.0319 459.96 70.7676C460.352 70.5033 460.783 70.3711 461.252 70.3711ZM470.016 74.2471C470.016 75.4684 469.708 76.4232 469.093 77.1113C468.478 77.7949 467.628 78.1367 466.543 78.1367C465.873 78.1367 465.278 77.9795 464.759 77.665C464.239 77.3506 463.838 76.8994 463.556 76.3115C463.273 75.7236 463.132 75.0355 463.132 74.2471C463.132 73.0257 463.437 72.0755 464.048 71.3965C464.659 70.7129 465.506 70.3711 466.591 70.3711C467.639 70.3711 468.471 70.7197 469.086 71.417C469.706 72.1143 470.016 73.0576 470.016 74.2471ZM464.308 74.2471C464.308 75.2041 464.499 75.9333 464.882 76.4346C465.265 76.9359 465.827 77.1865 466.57 77.1865C467.313 77.1865 467.876 76.9382 468.259 76.4414C468.646 75.9401 468.84 75.2087 468.84 74.2471C468.84 73.2946 468.646 72.5723 468.259 72.0801C467.876 71.5833 467.309 71.335 466.557 71.335C465.814 71.335 465.253 71.5788 464.875 72.0664C464.497 72.554 464.308 73.2809 464.308 74.2471ZM477.139 78V73.1533C477.139 72.5426 477 72.0869 476.722 71.7861C476.444 71.4854 476.008 71.335 475.416 71.335C474.632 71.335 474.058 71.5469 473.693 71.9707C473.329 72.3945 473.146 73.0941 473.146 74.0693V78H472.012V70.5078H472.935L473.119 71.5332H473.174C473.406 71.1641 473.732 70.8792 474.151 70.6787C474.571 70.4736 475.038 70.3711 475.553 70.3711C476.455 70.3711 477.134 70.5898 477.59 71.0273C478.046 71.4603 478.273 72.1553 478.273 73.1123V78H477.139ZM490.161 78V73.126C490.161 72.529 490.034 72.0824 489.778 71.7861C489.523 71.4854 489.127 71.335 488.589 71.335C487.882 71.335 487.361 71.5378 487.023 71.9434C486.686 72.349 486.518 72.9733 486.518 73.8164V78H485.383V73.126C485.383 72.529 485.255 72.0824 485 71.7861C484.745 71.4854 484.346 71.335 483.804 71.335C483.093 71.335 482.571 71.5492 482.238 71.9775C481.91 72.4014 481.746 73.0986 481.746 74.0693V78H480.611V70.5078H481.534L481.719 71.5332H481.773C481.988 71.1686 482.288 70.8838 482.676 70.6787C483.068 70.4736 483.505 70.3711 483.988 70.3711C485.16 70.3711 485.925 70.7949 486.285 71.6426H486.34C486.563 71.2507 486.887 70.9408 487.311 70.7129C487.734 70.485 488.217 70.3711 488.76 70.3711C489.607 70.3711 490.241 70.5898 490.66 71.0273C491.084 71.4603 491.296 72.1553 491.296 73.1123V78H490.161ZM496.806 78.1367C495.698 78.1367 494.823 77.7995 494.181 77.125C493.543 76.4505 493.224 75.514 493.224 74.3154C493.224 73.1077 493.52 72.1484 494.112 71.4375C494.709 70.7266 495.509 70.3711 496.512 70.3711C497.451 70.3711 498.193 70.681 498.74 71.3008C499.287 71.916 499.561 72.7295 499.561 73.7412V74.459H494.399C494.422 75.3385 494.643 76.0062 495.062 76.4619C495.486 76.9176 496.081 77.1455 496.847 77.1455C497.653 77.1455 498.451 76.9769 499.239 76.6396V77.6514C498.838 77.8245 498.458 77.9476 498.098 78.0205C497.742 78.098 497.312 78.1367 496.806 78.1367ZM496.498 71.3213C495.896 71.3213 495.416 71.5173 495.056 71.9092C494.7 72.3011 494.491 72.8434 494.427 73.5361H498.344C498.344 72.8206 498.184 72.2738 497.865 71.8955C497.546 71.5127 497.09 71.3213 496.498 71.3213ZM506.629 78V73.1533C506.629 72.5426 506.49 72.0869 506.212 71.7861C505.934 71.4854 505.499 71.335 504.906 71.335C504.122 71.335 503.548 71.5469 503.184 71.9707C502.819 72.3945 502.637 73.0941 502.637 74.0693V78H501.502V70.5078H502.425L502.609 71.5332H502.664C502.896 71.1641 503.222 70.8792 503.642 70.6787C504.061 70.4736 504.528 70.3711 505.043 70.3711C505.945 70.3711 506.624 70.5898 507.08 71.0273C507.536 71.4603 507.764 72.1553 507.764 73.1123V78H506.629ZM512.521 77.2002C512.722 77.2002 512.916 77.1865 513.103 77.1592C513.289 77.1273 513.438 77.0954 513.547 77.0635V77.9316C513.424 77.9909 513.242 78.0387 513 78.0752C512.763 78.1162 512.549 78.1367 512.357 78.1367C510.908 78.1367 510.184 77.3734 510.184 75.8467V71.3896H509.11V70.8428L510.184 70.3711L510.662 68.7715H511.318V70.5078H513.492V71.3896H511.318V75.7988C511.318 76.25 511.425 76.5964 511.64 76.8379C511.854 77.0794 512.148 77.2002 512.521 77.2002Z" fill="#9B9B9B"/>
<path d="M429.5 164.5H420.5V155.5C420.5 155.102 420.342 154.721 420.061 154.439C419.779 154.158 419.398 154 419 154C418.602 154 418.221 154.158 417.939 154.439C417.658 154.721 417.5 155.102 417.5 155.5V164.5H408.5C408.102 164.5 407.721 164.658 407.439 164.939C407.158 165.221 407 165.602 407 166C407 166.398 407.158 166.779 407.439 167.061C407.721 167.342 408.102 167.5 408.5 167.5H417.5V176.5C417.5 176.898 417.658 177.279 417.939 177.561C418.221 177.842 418.602 178 419 178C419.398 178 419.779 177.842 420.061 177.561C420.342 177.279 420.5 176.898 420.5 176.5V167.5H429.5C429.898 167.5 430.279 167.342 430.561 167.061C430.842 166.779 431 166.398 431 166C431 165.602 430.842 165.221 430.561 164.939C430.279 164.658 429.898 164.5 429.5 164.5Z" fill="#DCDCDC"/>
<path d="M487.624 119.683L484.317 125.413L481.011 119.683H470L484.318 144.499L498.637 119.683H487.624Z" fill="#41B883"/>
<path d="M487.624 119.683L484.317 125.413L481.01 119.683H475.725L484.322 134.571L492.909 119.683H487.624Z" fill="#34495E"/>
<path fill-rule="evenodd" clip-rule="evenodd" d="M538.999 121.001C534.733 121.001 532.066 123.112 531 127.334C532.6 125.223 534.466 124.431 536.6 124.959C537.799 125.378 538.855 126.12 539.65 127.101C540.533 128.184 541.654 129.053 542.928 129.642C544.201 130.231 545.594 130.524 547 130.5C551.266 130.5 553.933 128.389 555 124.167C553.4 126.278 551.533 127.069 549.4 126.543C548.201 126.124 547.145 125.382 546.35 124.4C545.467 123.317 544.346 122.448 543.072 121.859C541.798 121.27 540.405 120.977 538.999 121.001V121.001ZM531 130.5C526.734 130.5 524.067 132.611 523 136.833C524.6 134.722 526.467 133.931 528.6 134.459C529.8 134.877 530.858 135.618 531.654 136.6C532.537 137.683 533.658 138.551 534.932 139.14C536.205 139.729 537.598 140.023 539.004 139.999C543.27 139.999 545.937 137.888 547.004 133.666C545.404 135.776 543.537 136.568 541.404 136.041C540.205 135.622 539.149 134.88 538.354 133.899C537.471 132.816 536.349 131.946 535.075 131.357C533.8 130.768 532.407 130.475 531 130.5V130.5Z" fill="#06B6D4"/>
<path d="M527 175.937L528.818 163.25L536.091 156L545.182 165.063L539.727 170.5L547 177.75L536.091 185L527 175.937Z" fill="#00D1B2"/>
<line x1="511.5" y1="117" x2="511.5" y2="186" stroke="#EBEBEB"/>
<path d="M496.637 159H470.692V184.945H496.637V159Z" fill="#F7DF1E"/>
<path d="M488.12 179.27C488.643 180.123 489.323 180.75 490.525 180.75C491.535 180.75 492.181 180.245 492.181 179.548C492.181 178.712 491.518 178.416 490.406 177.929L489.796 177.668C488.037 176.918 486.868 175.979 486.868 173.994C486.868 172.166 488.261 170.774 490.439 170.774C491.989 170.774 493.103 171.313 493.906 172.726L492.008 173.945C491.59 173.195 491.139 172.9 490.439 172.9C489.725 172.9 489.272 173.353 489.272 173.945C489.272 174.676 489.725 174.972 490.771 175.425L491.381 175.687C493.452 176.575 494.622 177.48 494.622 179.517C494.622 181.712 492.897 182.914 490.582 182.914C488.317 182.914 486.855 181.835 486.139 180.421L488.12 179.27ZM479.508 179.481C479.891 180.161 480.239 180.735 481.077 180.735C481.878 180.735 482.383 180.422 482.383 179.203V170.913H484.821V179.236C484.821 181.761 483.341 182.91 481.18 182.91C479.228 182.91 478.098 181.899 477.523 180.683L479.508 179.481Z" fill="black"/>
<path d="M652.061 191.061C652.646 190.475 652.646 189.525 652.061 188.939L642.515 179.393C641.929 178.808 640.979 178.808 640.393 179.393C639.808 179.979 639.808 180.929 640.393 181.515L648.879 190L640.393 198.485C639.808 199.071 639.808 200.021 640.393 200.607C640.979 201.192 641.929 201.192 642.515 200.607L652.061 191.061ZM625 191.5H651V188.5H625V191.5Z" fill="#DCDCDC"/>
<path d="M623.939 150.939C623.354 151.525 623.354 152.475 623.939 153.061L633.485 162.607C634.071 163.192 635.021 163.192 635.607 162.607C636.192 162.021 636.192 161.071 635.607 160.485L627.121 152L635.607 143.515C636.192 142.929 636.192 141.979 635.607 141.393C635.021 140.808 634.071 140.808 633.485 141.393L623.939 150.939ZM651 150.5L625 150.5L625 153.5L651 153.5L651 150.5Z" fill="#DCDCDC"/>
<path d="M213.061 167.061C213.646 166.475 213.646 165.525 213.061 164.939L203.515 155.393C202.929 154.808 201.979 154.808 201.393 155.393C200.808 155.979 200.808 156.929 201.393 157.515L209.879 166L201.393 174.485C200.808 175.071 200.808 176.021 201.393 176.607C201.979 177.192 202.929 177.192 203.515 176.607L213.061 167.061ZM186 167.5H212V164.5H186V167.5Z" fill="#DCDCDC"/>
<g filter="url(#filter6_d)">
<rect x="359" y="344" width="120" height="130" rx="16" fill="white"/>
</g>
<path d="M359 437L373.5 437C373.5 437 388.996 437 463 437C469.248 437 479 437 479 437V457.373C479 466.154 471.837 473.77 463 473.77H375C366.163 473.77 359 466.154 359 457.373V437Z" fill="#3C3C3C"/>
<line x1="419.5" y1="437" x2="419.5" y2="473.77" stroke="#707070"/>
<path d="M383.303 458.945H383.241C382.717 459.707 381.933 460.087 380.89 460.087C379.91 460.087 379.146 459.752 378.6 459.082C378.057 458.412 377.786 457.46 377.786 456.225C377.786 454.99 378.06 454.03 378.606 453.347C379.153 452.663 379.914 452.321 380.89 452.321C381.906 452.321 382.685 452.691 383.228 453.429H383.316L383.269 452.889L383.241 452.362V449.314H384.376V459.95H383.453L383.303 458.945ZM381.033 459.137C381.808 459.137 382.368 458.927 382.715 458.508C383.066 458.084 383.241 457.403 383.241 456.464V456.225C383.241 455.163 383.063 454.406 382.708 453.955C382.357 453.499 381.794 453.272 381.02 453.272C380.354 453.272 379.844 453.531 379.488 454.051C379.137 454.566 378.962 455.295 378.962 456.238C378.962 457.195 379.137 457.918 379.488 458.405C379.839 458.893 380.354 459.137 381.033 459.137ZM389.954 460.087C388.847 460.087 387.972 459.75 387.329 459.075C386.691 458.401 386.372 457.464 386.372 456.266C386.372 455.058 386.668 454.099 387.261 453.388C387.858 452.677 388.658 452.321 389.66 452.321C390.599 452.321 391.342 452.631 391.889 453.251C392.436 453.866 392.709 454.68 392.709 455.692V456.409H387.548C387.571 457.289 387.792 457.957 388.211 458.412C388.635 458.868 389.229 459.096 389.995 459.096C390.802 459.096 391.599 458.927 392.388 458.59V459.602C391.987 459.775 391.606 459.898 391.246 459.971C390.891 460.048 390.46 460.087 389.954 460.087ZM389.646 453.272C389.045 453.272 388.564 453.468 388.204 453.859C387.849 454.251 387.639 454.794 387.575 455.486H391.492C391.492 454.771 391.333 454.224 391.014 453.846C390.695 453.463 390.239 453.272 389.646 453.272ZM396.291 459.95L393.447 452.458H394.664L396.277 456.901C396.642 457.941 396.856 458.615 396.92 458.925H396.975C397.025 458.683 397.182 458.184 397.446 457.428C397.715 456.667 398.314 455.01 399.244 452.458H400.461L397.617 459.95H396.291Z" fill="white"/>
<path d="M383.303 458.945H383.241C382.717 459.707 381.933 460.087 380.89 460.087C379.91 460.087 379.146 459.752 378.6 459.082C378.057 458.412 377.786 457.46 377.786 456.225C377.786 454.99 378.06 454.03 378.606 453.347C379.153 452.663 379.914 452.321 380.89 452.321C381.906 452.321 382.685 452.691 383.228 453.429H383.316L383.269 452.889L383.241 452.362V449.314H384.376V459.95H383.453L383.303 458.945ZM381.033 459.137C381.808 459.137 382.368 458.927 382.715 458.508C383.066 458.084 383.241 457.403 383.241 456.464V456.225C383.241 455.163 383.063 454.406 382.708 453.955C382.357 453.499 381.794 453.272 381.02 453.272C380.354 453.272 379.844 453.531 379.488 454.051C379.137 454.566 378.962 455.295 378.962 456.238C378.962 457.195 379.137 457.918 379.488 458.405C379.839 458.893 380.354 459.137 381.033 459.137ZM389.954 460.087C388.847 460.087 387.972 459.75 387.329 459.075C386.691 458.401 386.372 457.464 386.372 456.266C386.372 455.058 386.668 454.099 387.261 453.388C387.858 452.677 388.658 452.321 389.66 452.321C390.599 452.321 391.342 452.631 391.889 453.251C392.436 453.866 392.709 454.68 392.709 455.692V456.409H387.548C387.571 457.289 387.792 457.957 388.211 458.412C388.635 458.868 389.229 459.096 389.995 459.096C390.802 459.096 391.599 458.927 392.388 458.59V459.602C391.987 459.775 391.606 459.898 391.246 459.971C390.891 460.048 390.46 460.087 389.954 460.087ZM389.646 453.272C389.045 453.272 388.564 453.468 388.204 453.859C387.849 454.251 387.639 454.794 387.575 455.486H391.492C391.492 454.771 391.333 454.224 391.014 453.846C390.695 453.463 390.239 453.272 389.646 453.272ZM396.291 459.95L393.447 452.458H394.664L396.277 456.901C396.642 457.941 396.856 458.615 396.92 458.925H396.975C397.025 458.683 397.182 458.184 397.446 457.428C397.715 456.667 398.314 455.01 399.244 452.458H400.461L397.617 459.95H396.291Z" fill="white"/>
<path d="M440.338 459.95H439.203V449.314H440.338V459.95ZM443.879 459.95H442.744V452.458H443.879V459.95ZM442.648 450.428C442.648 450.168 442.712 449.979 442.84 449.86C442.967 449.737 443.127 449.676 443.318 449.676C443.501 449.676 443.658 449.737 443.79 449.86C443.922 449.984 443.988 450.173 443.988 450.428C443.988 450.683 443.922 450.874 443.79 451.002C443.658 451.125 443.501 451.187 443.318 451.187C443.127 451.187 442.967 451.125 442.84 451.002C442.712 450.874 442.648 450.683 442.648 450.428ZM447.926 459.95L445.082 452.458H446.299L447.912 456.901C448.277 457.941 448.491 458.615 448.555 458.925H448.609C448.66 458.683 448.817 458.184 449.081 457.428C449.35 456.667 449.949 455.01 450.879 452.458H452.096L449.252 459.95H447.926ZM456.464 460.087C455.356 460.087 454.481 459.75 453.839 459.075C453.201 458.401 452.882 457.464 452.882 456.266C452.882 455.058 453.178 454.099 453.771 453.388C454.368 452.677 455.167 452.321 456.17 452.321C457.109 452.321 457.852 452.631 458.398 453.251C458.945 453.866 459.219 454.68 459.219 455.692V456.409H454.058C454.08 457.289 454.301 457.957 454.721 458.412C455.145 458.868 455.739 459.096 456.505 459.096C457.312 459.096 458.109 458.927 458.897 458.59V459.602C458.496 459.775 458.116 459.898 457.756 459.971C457.4 460.048 456.97 460.087 456.464 460.087ZM456.156 453.272C455.555 453.272 455.074 453.468 454.714 453.859C454.358 454.251 454.149 454.794 454.085 455.486H458.002C458.002 454.771 457.842 454.224 457.523 453.846C457.204 453.463 456.749 453.272 456.156 453.272Z" fill="white"/>
<path d="M440.338 459.95H439.203V449.314H440.338V459.95ZM443.879 459.95H442.744V452.458H443.879V459.95ZM442.648 450.428C442.648 450.168 442.712 449.979 442.84 449.86C442.967 449.737 443.127 449.676 443.318 449.676C443.501 449.676 443.658 449.737 443.79 449.86C443.922 449.984 443.988 450.173 443.988 450.428C443.988 450.683 443.922 450.874 443.79 451.002C443.658 451.125 443.501 451.187 443.318 451.187C443.127 451.187 442.967 451.125 442.84 451.002C442.712 450.874 442.648 450.683 442.648 450.428ZM447.926 459.95L445.082 452.458H446.299L447.912 456.901C448.277 457.941 448.491 458.615 448.555 458.925H448.609C448.66 458.683 448.817 458.184 449.081 457.428C449.35 456.667 449.949 455.01 450.879 452.458H452.096L449.252 459.95H447.926ZM456.464 460.087C455.356 460.087 454.481 459.75 453.839 459.075C453.201 458.401 452.882 457.464 452.882 456.266C452.882 455.058 453.178 454.099 453.771 453.388C454.368 452.677 455.167 452.321 456.17 452.321C457.109 452.321 457.852 452.631 458.398 453.251C458.945 453.866 459.219 454.68 459.219 455.692V456.409H454.058C454.08 457.289 454.301 457.957 454.721 458.412C455.145 458.868 455.739 459.096 456.505 459.096C457.312 459.096 458.109 458.927 458.897 458.59V459.602C458.496 459.775 458.116 459.898 457.756 459.971C457.4 460.048 456.97 460.087 456.464 460.087ZM456.156 453.272C455.555 453.272 455.074 453.468 454.714 453.859C454.358 454.251 454.149 454.794 454.085 455.486H458.002C458.002 454.771 457.842 454.224 457.523 453.846C457.204 453.463 456.749 453.272 456.156 453.272Z" fill="white"/>
<path d="M436.284 372.985C436.267 372.873 436.212 372.771 436.13 372.694C436.047 372.618 435.941 372.571 435.828 372.561C435.639 372.546 431.928 372.489 431.928 372.489C431.928 372.489 428.824 369.483 428.519 369.187C428.355 369.075 428.165 369.003 427.967 368.978C427.77 368.953 427.568 368.974 427.381 369.042L425.821 369.523C425.625 368.893 425.372 368.283 425.065 367.699C424.677 366.777 424.031 365.985 423.203 365.417C422.376 364.849 421.402 364.529 420.397 364.495V364.495C420.253 364.495 420.12 364.51 419.984 364.51C419.933 364.452 419.868 364.385 419.807 364.317C419.397 363.873 418.892 363.525 418.329 363.298C417.767 363.071 417.161 362.972 416.555 363.007C415.046 363.221 413.613 363.798 412.379 364.688C411.146 365.578 410.15 366.755 409.478 368.115C408.061 370.346 407.098 372.832 406.642 375.432L401.671 376.963C400.207 377.419 400.159 377.464 399.97 378.837C399.829 379.874 396 409.314 396 409.314L428.086 414.825L441.992 411.388C441.992 411.388 436.309 373.248 436.284 372.985ZM424.216 370.021L421.727 370.788C421.737 369.234 421.482 367.69 420.971 366.221C422.873 366.582 423.818 368.736 424.216 370.021ZM420.047 371.304L414.691 372.955C415.166 371.027 416.093 369.239 417.394 367.734C417.9 367.172 418.52 366.723 419.213 366.416C419.831 367.971 420.115 369.636 420.047 371.306V371.304ZM416.605 364.68C417.138 364.653 417.667 364.792 418.117 365.076C417.38 365.467 416.717 365.98 416.154 366.594C414.449 368.571 413.305 370.965 412.842 373.528L408.44 374.884C409.31 370.843 412.708 364.793 416.605 364.68Z" fill="#95BF47"/>
<path d="M435.828 372.564C435.639 372.549 431.936 372.494 431.936 372.494C431.936 372.494 428.832 369.488 428.527 369.192C428.408 369.082 428.257 369.012 428.096 368.994V414.838L442 411.401C442 411.401 436.322 373.248 436.286 372.975C436.267 372.865 436.211 372.766 436.128 372.691C436.045 372.617 435.939 372.572 435.828 372.564Z" fill="#5E8E3E"/>
<path d="M420.379 379.676L418.764 385.688C417.518 385.176 416.174 384.944 414.827 385.007C411.695 385.205 411.662 387.166 411.693 387.66C411.864 390.348 418.973 390.934 419.371 397.229C419.537 398.252 419.486 399.298 419.221 400.299C418.956 401.301 418.484 402.237 417.835 403.047C417.186 403.857 416.373 404.523 415.45 405.002C414.527 405.482 413.513 405.765 412.474 405.832C411.038 405.96 409.591 405.788 408.226 405.327C406.861 404.866 405.608 404.126 404.548 403.154L405.631 398.575C407.107 399.703 408.876 400.391 410.73 400.556C411.001 400.549 411.268 400.487 411.515 400.374C411.761 400.262 411.983 400.101 412.165 399.902C412.348 399.702 412.488 399.468 412.577 399.213C412.667 398.958 412.703 398.688 412.685 398.419C412.464 394.912 406.674 395.12 406.309 389.361C406.001 384.513 409.204 379.591 416.265 379.16C417.658 378.999 419.07 379.176 420.379 379.676V379.676Z" fill="white"/>
<path d="M275.623 289.2C275.824 289.2 276.017 289.187 276.204 289.159C276.391 289.127 276.539 289.095 276.648 289.063V289.932C276.525 289.991 276.343 290.039 276.102 290.075C275.865 290.116 275.65 290.137 275.459 290.137C274.01 290.137 273.285 289.373 273.285 287.847V283.39H272.212V282.843L273.285 282.371L273.764 280.771H274.42V282.508H276.594V283.39H274.42V287.799C274.42 288.25 274.527 288.596 274.741 288.838C274.955 289.079 275.249 289.2 275.623 289.2ZM283.279 290V285.153C283.279 284.543 283.14 284.087 282.862 283.786C282.584 283.485 282.149 283.335 281.557 283.335C280.768 283.335 280.192 283.549 279.827 283.978C279.467 284.406 279.287 285.108 279.287 286.083V290H278.152V279.363H279.287V282.583C279.287 282.97 279.269 283.292 279.232 283.547H279.301C279.524 283.187 279.841 282.904 280.251 282.699C280.666 282.49 281.137 282.385 281.666 282.385C282.582 282.385 283.268 282.604 283.724 283.041C284.184 283.474 284.414 284.164 284.414 285.112V290H283.279ZM289.917 290.137C288.81 290.137 287.935 289.799 287.292 289.125C286.654 288.451 286.335 287.514 286.335 286.315C286.335 285.108 286.631 284.148 287.224 283.438C287.821 282.727 288.62 282.371 289.623 282.371C290.562 282.371 291.305 282.681 291.852 283.301C292.398 283.916 292.672 284.729 292.672 285.741V286.459H287.511C287.534 287.339 287.755 288.006 288.174 288.462C288.598 288.918 289.192 289.146 289.958 289.146C290.765 289.146 291.562 288.977 292.351 288.64V289.651C291.95 289.825 291.569 289.948 291.209 290.021C290.854 290.098 290.423 290.137 289.917 290.137ZM289.609 283.321C289.008 283.321 288.527 283.517 288.167 283.909C287.812 284.301 287.602 284.843 287.538 285.536H291.455C291.455 284.821 291.296 284.274 290.977 283.896C290.658 283.513 290.202 283.321 289.609 283.321ZM304.163 290V285.126C304.163 284.529 304.035 284.082 303.78 283.786C303.525 283.485 303.129 283.335 302.591 283.335C301.884 283.335 301.363 283.538 301.025 283.943C300.688 284.349 300.52 284.973 300.52 285.816V290H299.385V285.126C299.385 284.529 299.257 284.082 299.002 283.786C298.747 283.485 298.348 283.335 297.806 283.335C297.095 283.335 296.573 283.549 296.24 283.978C295.912 284.401 295.748 285.099 295.748 286.069V290H294.613V282.508H295.536L295.721 283.533H295.775C295.99 283.169 296.29 282.884 296.678 282.679C297.07 282.474 297.507 282.371 297.99 282.371C299.161 282.371 299.927 282.795 300.287 283.643H300.342C300.565 283.251 300.889 282.941 301.312 282.713C301.736 282.485 302.219 282.371 302.762 282.371C303.609 282.371 304.243 282.59 304.662 283.027C305.086 283.46 305.298 284.155 305.298 285.112V290H304.163ZM310.808 290.137C309.7 290.137 308.825 289.799 308.183 289.125C307.545 288.451 307.226 287.514 307.226 286.315C307.226 285.108 307.522 284.148 308.114 283.438C308.711 282.727 309.511 282.371 310.514 282.371C311.452 282.371 312.195 282.681 312.742 283.301C313.289 283.916 313.562 284.729 313.562 285.741V286.459H308.401C308.424 287.339 308.645 288.006 309.064 288.462C309.488 288.918 310.083 289.146 310.849 289.146C311.655 289.146 312.453 288.977 313.241 288.64V289.651C312.84 289.825 312.46 289.948 312.1 290.021C311.744 290.098 311.313 290.137 310.808 290.137ZM310.5 283.321C309.898 283.321 309.418 283.517 309.058 283.909C308.702 284.301 308.493 284.843 308.429 285.536H312.346C312.346 284.821 312.186 284.274 311.867 283.896C311.548 283.513 311.092 283.321 310.5 283.321ZM322.518 283.39H320.61V290H319.476V283.39H318.136V282.877L319.476 282.467V282.05C319.476 280.209 320.28 279.288 321.889 279.288C322.285 279.288 322.75 279.368 323.283 279.527L322.989 280.437C322.552 280.295 322.178 280.225 321.868 280.225C321.44 280.225 321.123 280.368 320.918 280.655C320.713 280.938 320.61 281.394 320.61 282.022V282.508H322.518V283.39ZM325.02 290H323.885V282.508H325.02V290ZM323.789 280.478C323.789 280.218 323.853 280.029 323.98 279.91C324.108 279.787 324.268 279.726 324.459 279.726C324.641 279.726 324.799 279.787 324.931 279.91C325.063 280.033 325.129 280.222 325.129 280.478C325.129 280.733 325.063 280.924 324.931 281.052C324.799 281.175 324.641 281.236 324.459 281.236C324.268 281.236 324.108 281.175 323.98 281.052C323.853 280.924 323.789 280.733 323.789 280.478ZM328.561 290H327.426V279.363H328.561V290ZM334.132 290.137C333.024 290.137 332.149 289.799 331.507 289.125C330.869 288.451 330.55 287.514 330.55 286.315C330.55 285.108 330.846 284.148 331.438 283.438C332.035 282.727 332.835 282.371 333.838 282.371C334.777 282.371 335.52 282.681 336.066 283.301C336.613 283.916 336.887 284.729 336.887 285.741V286.459H331.726C331.748 287.339 331.969 288.006 332.389 288.462C332.812 288.918 333.407 289.146 334.173 289.146C334.979 289.146 335.777 288.977 336.565 288.64V289.651C336.164 289.825 335.784 289.948 335.424 290.021C335.068 290.098 334.638 290.137 334.132 290.137ZM333.824 283.321C333.223 283.321 332.742 283.517 332.382 283.909C332.026 284.301 331.817 284.843 331.753 285.536H335.67C335.67 284.821 335.51 284.274 335.191 283.896C334.872 283.513 334.417 283.321 333.824 283.321ZM343.661 287.956C343.661 288.653 343.401 289.191 342.882 289.569C342.362 289.948 341.633 290.137 340.694 290.137C339.701 290.137 338.926 289.979 338.37 289.665V288.612C338.73 288.795 339.115 288.938 339.525 289.043C339.94 289.148 340.339 289.2 340.722 289.2C341.314 289.2 341.77 289.107 342.089 288.92C342.408 288.729 342.567 288.439 342.567 288.052C342.567 287.76 342.44 287.512 342.185 287.307C341.934 287.097 341.442 286.851 340.708 286.568C340.011 286.309 339.514 286.083 339.218 285.892C338.926 285.696 338.707 285.475 338.562 285.229C338.42 284.982 338.35 284.688 338.35 284.347C338.35 283.736 338.598 283.255 339.095 282.904C339.591 282.549 340.273 282.371 341.139 282.371C341.945 282.371 342.734 282.535 343.504 282.863L343.101 283.786C342.349 283.476 341.667 283.321 341.057 283.321C340.519 283.321 340.113 283.406 339.84 283.574C339.566 283.743 339.43 283.975 339.43 284.271C339.43 284.472 339.48 284.643 339.58 284.784C339.685 284.925 339.851 285.06 340.079 285.188C340.307 285.315 340.744 285.5 341.392 285.741C342.28 286.065 342.88 286.391 343.189 286.719C343.504 287.047 343.661 287.459 343.661 287.956ZM353.758 290L353.532 288.934H353.478C353.104 289.403 352.73 289.722 352.356 289.891C351.987 290.055 351.525 290.137 350.969 290.137C350.226 290.137 349.643 289.945 349.219 289.562C348.799 289.18 348.59 288.635 348.59 287.929C348.59 286.416 349.8 285.623 352.22 285.55L353.491 285.509V285.044C353.491 284.456 353.364 284.023 353.108 283.745C352.858 283.463 352.454 283.321 351.898 283.321C351.274 283.321 350.568 283.513 349.779 283.896L349.431 283.027C349.8 282.827 350.203 282.67 350.641 282.556C351.083 282.442 351.525 282.385 351.967 282.385C352.86 282.385 353.521 282.583 353.949 282.979C354.382 283.376 354.599 284.012 354.599 284.887V290H353.758ZM351.194 289.2C351.901 289.2 352.454 289.007 352.855 288.619C353.261 288.232 353.464 287.689 353.464 286.992V286.315L352.329 286.363C351.427 286.395 350.775 286.536 350.374 286.787C349.978 287.033 349.779 287.418 349.779 287.942C349.779 288.353 349.902 288.665 350.148 288.879C350.399 289.093 350.748 289.2 351.194 289.2ZM362.07 290V285.153C362.07 284.543 361.931 284.087 361.653 283.786C361.375 283.485 360.94 283.335 360.348 283.335C359.564 283.335 358.99 283.547 358.625 283.971C358.26 284.395 358.078 285.094 358.078 286.069V290H356.943V282.508H357.866L358.051 283.533H358.105C358.338 283.164 358.664 282.879 359.083 282.679C359.502 282.474 359.969 282.371 360.484 282.371C361.387 282.371 362.066 282.59 362.521 283.027C362.977 283.46 363.205 284.155 363.205 285.112V290H362.07ZM370.643 288.995H370.581C370.057 289.756 369.273 290.137 368.229 290.137C367.25 290.137 366.486 289.802 365.939 289.132C365.397 288.462 365.126 287.509 365.126 286.274C365.126 285.039 365.399 284.08 365.946 283.396C366.493 282.713 367.254 282.371 368.229 282.371C369.246 282.371 370.025 282.74 370.567 283.479H370.656L370.608 282.938L370.581 282.412V279.363H371.716V290H370.793L370.643 288.995ZM368.373 289.187C369.148 289.187 369.708 288.977 370.055 288.558C370.406 288.134 370.581 287.452 370.581 286.514V286.274C370.581 285.213 370.403 284.456 370.048 284.005C369.697 283.549 369.134 283.321 368.359 283.321C367.694 283.321 367.184 283.581 366.828 284.101C366.477 284.616 366.302 285.345 366.302 286.288C366.302 287.245 366.477 287.967 366.828 288.455C367.179 288.943 367.694 289.187 368.373 289.187ZM276.689 303.385C277.674 303.385 278.437 303.722 278.979 304.396C279.526 305.066 279.8 306.017 279.8 307.247C279.8 308.478 279.524 309.435 278.973 310.118C278.426 310.797 277.665 311.137 276.689 311.137C276.202 311.137 275.755 311.048 275.35 310.87C274.949 310.688 274.611 310.41 274.338 310.036H274.256L274.017 311H273.203V300.363H274.338V302.947C274.338 303.526 274.32 304.046 274.283 304.506H274.338C274.867 303.758 275.65 303.385 276.689 303.385ZM276.525 304.335C275.751 304.335 275.192 304.558 274.851 305.005C274.509 305.447 274.338 306.194 274.338 307.247C274.338 308.3 274.513 309.054 274.864 309.51C275.215 309.961 275.778 310.187 276.553 310.187C277.25 310.187 277.77 309.934 278.111 309.428C278.453 308.917 278.624 308.186 278.624 307.233C278.624 306.258 278.453 305.531 278.111 305.053C277.77 304.574 277.241 304.335 276.525 304.335ZM282.855 303.508V308.368C282.855 308.979 282.994 309.435 283.272 309.735C283.55 310.036 283.986 310.187 284.578 310.187C285.362 310.187 285.934 309.972 286.294 309.544C286.659 309.116 286.841 308.416 286.841 307.445V303.508H287.976V311H287.039L286.875 309.995H286.813C286.581 310.364 286.257 310.647 285.843 310.843C285.433 311.039 284.963 311.137 284.435 311.137C283.523 311.137 282.84 310.92 282.384 310.487C281.933 310.054 281.707 309.362 281.707 308.409V303.508H282.855ZM295.516 311V306.153C295.516 305.543 295.377 305.087 295.099 304.786C294.821 304.485 294.385 304.335 293.793 304.335C293.009 304.335 292.435 304.547 292.07 304.971C291.706 305.395 291.523 306.094 291.523 307.069V311H290.389V303.508H291.312L291.496 304.533H291.551C291.783 304.164 292.109 303.879 292.528 303.679C292.948 303.474 293.415 303.371 293.93 303.371C294.832 303.371 295.511 303.59 295.967 304.027C296.423 304.46 296.65 305.155 296.65 306.112V311H295.516ZM304.088 309.995H304.026C303.502 310.756 302.718 311.137 301.675 311.137C300.695 311.137 299.932 310.802 299.385 310.132C298.842 309.462 298.571 308.509 298.571 307.274C298.571 306.039 298.845 305.08 299.392 304.396C299.938 303.713 300.7 303.371 301.675 303.371C302.691 303.371 303.47 303.74 304.013 304.479H304.102L304.054 303.938L304.026 303.412V300.363H305.161V311H304.238L304.088 309.995ZM301.818 310.187C302.593 310.187 303.154 309.977 303.5 309.558C303.851 309.134 304.026 308.452 304.026 307.514V307.274C304.026 306.213 303.849 305.456 303.493 305.005C303.142 304.549 302.579 304.321 301.805 304.321C301.139 304.321 300.629 304.581 300.273 305.101C299.923 305.616 299.747 306.345 299.747 307.288C299.747 308.245 299.923 308.967 300.273 309.455C300.624 309.943 301.139 310.187 301.818 310.187ZM308.709 311H307.574V300.363H308.709V311ZM314.28 311.137C313.173 311.137 312.298 310.799 311.655 310.125C311.017 309.451 310.698 308.514 310.698 307.315C310.698 306.108 310.994 305.148 311.587 304.438C312.184 303.727 312.984 303.371 313.986 303.371C314.925 303.371 315.668 303.681 316.215 304.301C316.762 304.916 317.035 305.729 317.035 306.741V307.459H311.874C311.897 308.339 312.118 309.006 312.537 309.462C312.961 309.918 313.556 310.146 314.321 310.146C315.128 310.146 315.925 309.977 316.714 309.64V310.651C316.313 310.825 315.932 310.948 315.572 311.021C315.217 311.098 314.786 311.137 314.28 311.137ZM313.973 304.321C313.371 304.321 312.89 304.517 312.53 304.909C312.175 305.301 311.965 305.843 311.901 306.536H315.818C315.818 305.821 315.659 305.274 315.34 304.896C315.021 304.513 314.565 304.321 313.973 304.321ZM324.076 309.995H324.015C323.491 310.756 322.707 311.137 321.663 311.137C320.683 311.137 319.92 310.802 319.373 310.132C318.831 309.462 318.56 308.509 318.56 307.274C318.56 306.039 318.833 305.08 319.38 304.396C319.927 303.713 320.688 303.371 321.663 303.371C322.679 303.371 323.459 303.74 324.001 304.479H324.09L324.042 303.938L324.015 303.412V300.363H325.149V311H324.227L324.076 309.995ZM321.807 310.187C322.581 310.187 323.142 309.977 323.488 309.558C323.839 309.134 324.015 308.452 324.015 307.514V307.274C324.015 306.213 323.837 305.456 323.481 305.005C323.131 304.549 322.568 304.321 321.793 304.321C321.128 304.321 320.617 304.581 320.262 305.101C319.911 305.616 319.735 306.345 319.735 307.288C319.735 308.245 319.911 308.967 320.262 309.455C320.613 309.943 321.128 310.187 321.807 310.187ZM335.807 311L335.581 309.934H335.526C335.153 310.403 334.779 310.722 334.405 310.891C334.036 311.055 333.574 311.137 333.018 311.137C332.275 311.137 331.691 310.945 331.268 310.562C330.848 310.18 330.639 309.635 330.639 308.929C330.639 307.416 331.849 306.623 334.269 306.55L335.54 306.509V306.044C335.54 305.456 335.412 305.023 335.157 304.745C334.907 304.463 334.503 304.321 333.947 304.321C333.323 304.321 332.617 304.513 331.828 304.896L331.479 304.027C331.849 303.827 332.252 303.67 332.689 303.556C333.132 303.442 333.574 303.385 334.016 303.385C334.909 303.385 335.57 303.583 335.998 303.979C336.431 304.376 336.647 305.012 336.647 305.887V311H335.807ZM333.243 310.2C333.95 310.2 334.503 310.007 334.904 309.619C335.31 309.232 335.513 308.689 335.513 307.992V307.315L334.378 307.363C333.476 307.395 332.824 307.536 332.423 307.787C332.026 308.033 331.828 308.418 331.828 308.942C331.828 309.353 331.951 309.665 332.197 309.879C332.448 310.093 332.797 310.2 333.243 310.2ZM343.825 308.956C343.825 309.653 343.565 310.191 343.046 310.569C342.526 310.948 341.797 311.137 340.858 311.137C339.865 311.137 339.09 310.979 338.534 310.665V309.612C338.894 309.795 339.279 309.938 339.689 310.043C340.104 310.148 340.503 310.2 340.886 310.2C341.478 310.2 341.934 310.107 342.253 309.92C342.572 309.729 342.731 309.439 342.731 309.052C342.731 308.76 342.604 308.512 342.349 308.307C342.098 308.097 341.606 307.851 340.872 307.568C340.175 307.309 339.678 307.083 339.382 306.892C339.09 306.696 338.871 306.475 338.726 306.229C338.584 305.982 338.514 305.688 338.514 305.347C338.514 304.736 338.762 304.255 339.259 303.904C339.756 303.549 340.437 303.371 341.303 303.371C342.109 303.371 342.898 303.535 343.668 303.863L343.265 304.786C342.513 304.476 341.831 304.321 341.221 304.321C340.683 304.321 340.277 304.406 340.004 304.574C339.73 304.743 339.594 304.975 339.594 305.271C339.594 305.472 339.644 305.643 339.744 305.784C339.849 305.925 340.015 306.06 340.243 306.188C340.471 306.315 340.909 306.5 341.556 306.741C342.444 307.065 343.044 307.391 343.354 307.719C343.668 308.047 343.825 308.459 343.825 308.956ZM350.511 308.956C350.511 309.653 350.251 310.191 349.731 310.569C349.212 310.948 348.483 311.137 347.544 311.137C346.55 311.137 345.776 310.979 345.22 310.665V309.612C345.58 309.795 345.965 309.938 346.375 310.043C346.79 310.148 347.188 310.2 347.571 310.2C348.164 310.2 348.619 310.107 348.938 309.92C349.257 309.729 349.417 309.439 349.417 309.052C349.417 308.76 349.289 308.512 349.034 308.307C348.784 308.097 348.291 307.851 347.558 307.568C346.86 307.309 346.364 307.083 346.067 306.892C345.776 306.696 345.557 306.475 345.411 306.229C345.27 305.982 345.199 305.688 345.199 305.347C345.199 304.736 345.448 304.255 345.944 303.904C346.441 303.549 347.122 303.371 347.988 303.371C348.795 303.371 349.583 303.535 350.354 303.863L349.95 304.786C349.198 304.476 348.517 304.321 347.906 304.321C347.368 304.321 346.963 304.406 346.689 304.574C346.416 304.743 346.279 304.975 346.279 305.271C346.279 305.472 346.329 305.643 346.43 305.784C346.535 305.925 346.701 306.06 346.929 306.188C347.157 306.315 347.594 306.5 348.241 306.741C349.13 307.065 349.729 307.391 350.039 307.719C350.354 308.047 350.511 308.459 350.511 308.956ZM355.528 311.137C354.421 311.137 353.546 310.799 352.903 310.125C352.265 309.451 351.946 308.514 351.946 307.315C351.946 306.108 352.243 305.148 352.835 304.438C353.432 303.727 354.232 303.371 355.234 303.371C356.173 303.371 356.916 303.681 357.463 304.301C358.01 304.916 358.283 305.729 358.283 306.741V307.459H353.122C353.145 308.339 353.366 309.006 353.785 309.462C354.209 309.918 354.804 310.146 355.569 310.146C356.376 310.146 357.174 309.977 357.962 309.64V310.651C357.561 310.825 357.18 310.948 356.82 311.021C356.465 311.098 356.034 311.137 355.528 311.137ZM355.221 304.321C354.619 304.321 354.138 304.517 353.778 304.909C353.423 305.301 353.213 305.843 353.149 306.536H357.066C357.066 305.821 356.907 305.274 356.588 304.896C356.269 304.513 355.813 304.321 355.221 304.321ZM362.645 310.2C362.845 310.2 363.039 310.187 363.226 310.159C363.412 310.127 363.561 310.095 363.67 310.063V310.932C363.547 310.991 363.365 311.039 363.123 311.075C362.886 311.116 362.672 311.137 362.48 311.137C361.031 311.137 360.307 310.373 360.307 308.847V304.39H359.233V303.843L360.307 303.371L360.785 301.771H361.441V303.508H363.615V304.39H361.441V308.799C361.441 309.25 361.549 309.596 361.763 309.838C361.977 310.079 362.271 310.2 362.645 310.2ZM370.007 308.956C370.007 309.653 369.747 310.191 369.228 310.569C368.708 310.948 367.979 311.137 367.04 311.137C366.047 311.137 365.272 310.979 364.716 310.665V309.612C365.076 309.795 365.461 309.938 365.871 310.043C366.286 310.148 366.685 310.2 367.067 310.2C367.66 310.2 368.116 310.107 368.435 309.92C368.754 309.729 368.913 309.439 368.913 309.052C368.913 308.76 368.785 308.512 368.53 308.307C368.28 308.097 367.787 307.851 367.054 307.568C366.356 307.309 365.86 307.083 365.563 306.892C365.272 306.696 365.053 306.475 364.907 306.229C364.766 305.982 364.695 305.688 364.695 305.347C364.695 304.736 364.944 304.255 365.44 303.904C365.937 303.549 366.618 303.371 367.484 303.371C368.291 303.371 369.079 303.535 369.85 303.863L369.446 304.786C368.694 304.476 368.013 304.321 367.402 304.321C366.865 304.321 366.459 304.406 366.186 304.574C365.912 304.743 365.775 304.975 365.775 305.271C365.775 305.472 365.826 305.643 365.926 305.784C366.031 305.925 366.197 306.06 366.425 306.188C366.653 306.315 367.09 306.5 367.737 306.741C368.626 307.065 369.225 307.391 369.535 307.719C369.85 308.047 370.007 308.459 370.007 308.956Z" fill="#9B9B9B"/>
<path d="M472.036 299.956C472.036 300.653 471.776 301.191 471.257 301.569C470.737 301.948 470.008 302.137 469.069 302.137C468.076 302.137 467.301 301.979 466.745 301.665V300.612C467.105 300.795 467.49 300.938 467.9 301.043C468.315 301.148 468.714 301.2 469.097 301.2C469.689 301.2 470.145 301.107 470.464 300.92C470.783 300.729 470.942 300.439 470.942 300.052C470.942 299.76 470.815 299.512 470.56 299.307C470.309 299.097 469.817 298.851 469.083 298.568C468.386 298.309 467.889 298.083 467.593 297.892C467.301 297.696 467.082 297.475 466.937 297.229C466.795 296.982 466.725 296.688 466.725 296.347C466.725 295.736 466.973 295.255 467.47 294.904C467.966 294.549 468.648 294.371 469.514 294.371C470.32 294.371 471.109 294.535 471.879 294.863L471.476 295.786C470.724 295.476 470.042 295.321 469.432 295.321C468.894 295.321 468.488 295.406 468.215 295.574C467.941 295.743 467.805 295.975 467.805 296.271C467.805 296.472 467.855 296.643 467.955 296.784C468.06 296.925 468.226 297.06 468.454 297.188C468.682 297.315 469.119 297.5 469.767 297.741C470.655 298.065 471.255 298.391 471.564 298.719C471.879 299.047 472.036 299.459 472.036 299.956ZM477.054 302.137C475.946 302.137 475.071 301.799 474.429 301.125C473.791 300.451 473.472 299.514 473.472 298.315C473.472 297.108 473.768 296.148 474.36 295.438C474.957 294.727 475.757 294.371 476.76 294.371C477.699 294.371 478.441 294.681 478.988 295.301C479.535 295.916 479.809 296.729 479.809 297.741V298.459H474.647C474.67 299.339 474.891 300.006 475.311 300.462C475.734 300.918 476.329 301.146 477.095 301.146C477.901 301.146 478.699 300.977 479.487 300.64V301.651C479.086 301.825 478.706 301.948 478.346 302.021C477.99 302.098 477.56 302.137 477.054 302.137ZM476.746 295.321C476.145 295.321 475.664 295.517 475.304 295.909C474.948 296.301 474.739 296.843 474.675 297.536H478.592C478.592 296.821 478.432 296.274 478.113 295.896C477.794 295.513 477.339 295.321 476.746 295.321ZM484.17 301.2C484.37 301.2 484.564 301.187 484.751 301.159C484.938 301.127 485.086 301.095 485.195 301.063V301.932C485.072 301.991 484.89 302.039 484.648 302.075C484.411 302.116 484.197 302.137 484.006 302.137C482.557 302.137 481.832 301.373 481.832 299.847V295.39H480.759V294.843L481.832 294.371L482.311 292.771H482.967V294.508H485.141V295.39H482.967V299.799C482.967 300.25 483.074 300.596 483.288 300.838C483.502 301.079 483.796 301.2 484.17 301.2ZM489.119 301.2C489.32 301.2 489.513 301.187 489.7 301.159C489.887 301.127 490.035 301.095 490.145 301.063V301.932C490.021 301.991 489.839 302.039 489.598 302.075C489.361 302.116 489.146 302.137 488.955 302.137C487.506 302.137 486.781 301.373 486.781 299.847V295.39H485.708V294.843L486.781 294.371L487.26 292.771H487.916V294.508H490.09V295.39H487.916V299.799C487.916 300.25 488.023 300.596 488.237 300.838C488.451 301.079 488.745 301.2 489.119 301.2ZM492.783 302H491.648V294.508H492.783V302ZM491.553 292.478C491.553 292.218 491.617 292.029 491.744 291.91C491.872 291.787 492.031 291.726 492.223 291.726C492.405 291.726 492.562 291.787 492.694 291.91C492.826 292.033 492.893 292.222 492.893 292.478C492.893 292.733 492.826 292.924 492.694 293.052C492.562 293.175 492.405 293.236 492.223 293.236C492.031 293.236 491.872 293.175 491.744 293.052C491.617 292.924 491.553 292.733 491.553 292.478ZM500.316 302V297.153C500.316 296.543 500.177 296.087 499.899 295.786C499.621 295.485 499.186 295.335 498.594 295.335C497.81 295.335 497.236 295.547 496.871 295.971C496.507 296.395 496.324 297.094 496.324 298.069V302H495.189V294.508H496.112L496.297 295.533H496.352C496.584 295.164 496.91 294.879 497.329 294.679C497.748 294.474 498.215 294.371 498.73 294.371C499.633 294.371 500.312 294.59 500.768 295.027C501.223 295.46 501.451 296.155 501.451 297.112V302H500.316ZM509.921 294.508V295.226L508.533 295.39C508.661 295.549 508.775 295.759 508.875 296.019C508.975 296.274 509.025 296.563 509.025 296.887C509.025 297.62 508.775 298.206 508.273 298.644C507.772 299.081 507.084 299.3 506.209 299.3C505.986 299.3 505.776 299.282 505.58 299.245C505.097 299.5 504.855 299.822 504.855 300.209C504.855 300.414 504.94 300.567 505.108 300.667C505.277 300.763 505.566 300.811 505.977 300.811H507.303C508.114 300.811 508.736 300.981 509.169 301.323C509.606 301.665 509.825 302.162 509.825 302.813C509.825 303.643 509.493 304.274 508.827 304.707C508.162 305.145 507.191 305.363 505.915 305.363C504.935 305.363 504.179 305.181 503.646 304.816C503.117 304.452 502.853 303.937 502.853 303.271C502.853 302.816 502.998 302.422 503.29 302.089C503.582 301.756 503.992 301.531 504.521 301.412C504.329 301.326 504.167 301.191 504.035 301.009C503.908 300.826 503.844 300.615 503.844 300.373C503.844 300.1 503.917 299.86 504.062 299.655C504.208 299.45 504.438 299.252 504.753 299.061C504.366 298.901 504.049 298.63 503.803 298.247C503.561 297.864 503.44 297.427 503.44 296.935C503.44 296.114 503.687 295.483 504.179 295.041C504.671 294.594 505.368 294.371 506.271 294.371C506.662 294.371 507.016 294.417 507.33 294.508H509.921ZM503.946 303.258C503.946 303.663 504.117 303.971 504.459 304.181C504.801 304.39 505.291 304.495 505.929 304.495C506.881 304.495 507.585 304.352 508.041 304.064C508.501 303.782 508.731 303.397 508.731 302.909C508.731 302.504 508.606 302.221 508.355 302.062C508.105 301.907 507.633 301.829 506.94 301.829H505.58C505.065 301.829 504.664 301.952 504.377 302.198C504.09 302.444 503.946 302.798 503.946 303.258ZM504.562 296.907C504.562 297.431 504.71 297.828 505.006 298.097C505.302 298.366 505.715 298.5 506.243 298.5C507.351 298.5 507.904 297.962 507.904 296.887C507.904 295.761 507.344 295.198 506.223 295.198C505.689 295.198 505.279 295.342 504.992 295.629C504.705 295.916 504.562 296.342 504.562 296.907ZM516.292 299.956C516.292 300.653 516.032 301.191 515.513 301.569C514.993 301.948 514.264 302.137 513.325 302.137C512.332 302.137 511.557 301.979 511.001 301.665V300.612C511.361 300.795 511.746 300.938 512.156 301.043C512.571 301.148 512.97 301.2 513.353 301.2C513.945 301.2 514.401 301.107 514.72 300.92C515.039 300.729 515.198 300.439 515.198 300.052C515.198 299.76 515.071 299.512 514.815 299.307C514.565 299.097 514.073 298.851 513.339 298.568C512.642 298.309 512.145 298.083 511.849 297.892C511.557 297.696 511.338 297.475 511.192 297.229C511.051 296.982 510.98 296.688 510.98 296.347C510.98 295.736 511.229 295.255 511.726 294.904C512.222 294.549 512.904 294.371 513.77 294.371C514.576 294.371 515.365 294.535 516.135 294.863L515.731 295.786C514.979 295.476 514.298 295.321 513.688 295.321C513.15 295.321 512.744 295.406 512.471 295.574C512.197 295.743 512.061 295.975 512.061 296.271C512.061 296.472 512.111 296.643 512.211 296.784C512.316 296.925 512.482 297.06 512.71 297.188C512.938 297.315 513.375 297.5 514.022 297.741C514.911 298.065 515.51 298.391 515.82 298.719C516.135 299.047 516.292 299.459 516.292 299.956ZM523.244 304.153H516.914V303.258H523.244V304.153ZM529.52 300.995H529.458C528.934 301.756 528.15 302.137 527.106 302.137C526.127 302.137 525.363 301.802 524.816 301.132C524.274 300.462 524.003 299.509 524.003 298.274C524.003 297.039 524.276 296.08 524.823 295.396C525.37 294.713 526.131 294.371 527.106 294.371C528.123 294.371 528.902 294.74 529.444 295.479H529.533L529.485 294.938L529.458 294.412V291.363H530.593V302H529.67L529.52 300.995ZM527.25 301.187C528.025 301.187 528.585 300.977 528.932 300.558C529.283 300.134 529.458 299.452 529.458 298.514V298.274C529.458 297.213 529.28 296.456 528.925 296.005C528.574 295.549 528.011 295.321 527.236 295.321C526.571 295.321 526.061 295.581 525.705 296.101C525.354 296.616 525.179 297.345 525.179 298.288C525.179 299.245 525.354 299.967 525.705 300.455C526.056 300.943 526.571 301.187 527.25 301.187ZM537.613 302L537.388 300.934H537.333C536.959 301.403 536.586 301.722 536.212 301.891C535.843 302.055 535.38 302.137 534.824 302.137C534.081 302.137 533.498 301.945 533.074 301.562C532.655 301.18 532.445 300.635 532.445 299.929C532.445 298.416 533.655 297.623 536.075 297.55L537.347 297.509V297.044C537.347 296.456 537.219 296.023 536.964 295.745C536.713 295.463 536.31 295.321 535.754 295.321C535.13 295.321 534.423 295.513 533.635 295.896L533.286 295.027C533.655 294.827 534.059 294.67 534.496 294.556C534.938 294.442 535.38 294.385 535.822 294.385C536.715 294.385 537.376 294.583 537.805 294.979C538.238 295.376 538.454 296.012 538.454 296.887V302H537.613ZM535.05 301.2C535.756 301.2 536.31 301.007 536.711 300.619C537.117 300.232 537.319 299.689 537.319 298.992V298.315L536.185 298.363C535.282 298.395 534.631 298.536 534.229 298.787C533.833 299.033 533.635 299.418 533.635 299.942C533.635 300.353 533.758 300.665 534.004 300.879C534.255 301.093 534.603 301.2 535.05 301.2ZM543.219 301.2C543.419 301.2 543.613 301.187 543.8 301.159C543.987 301.127 544.135 301.095 544.244 301.063V301.932C544.121 301.991 543.939 302.039 543.697 302.075C543.46 302.116 543.246 302.137 543.055 302.137C541.605 302.137 540.881 301.373 540.881 299.847V295.39H539.808V294.843L540.881 294.371L541.359 292.771H542.016V294.508H544.189V295.39H542.016V299.799C542.016 300.25 542.123 300.596 542.337 300.838C542.551 301.079 542.845 301.2 543.219 301.2ZM550.355 302L550.13 300.934H550.075C549.701 301.403 549.328 301.722 548.954 301.891C548.585 302.055 548.122 302.137 547.566 302.137C546.824 302.137 546.24 301.945 545.816 301.562C545.397 301.18 545.188 300.635 545.188 299.929C545.188 298.416 546.397 297.623 548.817 297.55L550.089 297.509V297.044C550.089 296.456 549.961 296.023 549.706 295.745C549.455 295.463 549.052 295.321 548.496 295.321C547.872 295.321 547.165 295.513 546.377 295.896L546.028 295.027C546.397 294.827 546.801 294.67 547.238 294.556C547.68 294.442 548.122 294.385 548.564 294.385C549.458 294.385 550.118 294.583 550.547 294.979C550.98 295.376 551.196 296.012 551.196 296.887V302H550.355ZM547.792 301.2C548.498 301.2 549.052 301.007 549.453 300.619C549.859 300.232 550.062 299.689 550.062 298.992V298.315L548.927 298.363C548.024 298.395 547.373 298.536 546.972 298.787C546.575 299.033 546.377 299.418 546.377 299.942C546.377 300.353 546.5 300.665 546.746 300.879C546.997 301.093 547.345 301.2 547.792 301.2ZM553.377 301.275C553.377 300.97 553.445 300.74 553.582 300.585C553.723 300.425 553.924 300.346 554.184 300.346C554.448 300.346 554.653 300.425 554.799 300.585C554.949 300.74 555.024 300.97 555.024 301.275C555.024 301.572 554.949 301.799 554.799 301.959C554.648 302.118 554.443 302.198 554.184 302.198C553.951 302.198 553.757 302.128 553.603 301.986C553.452 301.84 553.377 301.604 553.377 301.275ZM556.364 305.363C555.931 305.363 555.58 305.306 555.312 305.192V304.27C555.626 304.361 555.936 304.406 556.241 304.406C556.597 304.406 556.856 304.308 557.021 304.112C557.189 303.921 557.273 303.627 557.273 303.23V294.508H558.408V303.148C558.408 304.625 557.727 305.363 556.364 305.363ZM557.178 292.478C557.178 292.218 557.242 292.029 557.369 291.91C557.497 291.787 557.656 291.726 557.848 291.726C558.03 291.726 558.187 291.787 558.319 291.91C558.451 292.033 558.518 292.222 558.518 292.478C558.518 292.733 558.451 292.924 558.319 293.052C558.187 293.175 558.03 293.236 557.848 293.236C557.656 293.236 557.497 293.175 557.369 293.052C557.242 292.924 557.178 292.733 557.178 292.478ZM565.647 299.956C565.647 300.653 565.388 301.191 564.868 301.569C564.349 301.948 563.619 302.137 562.681 302.137C561.687 302.137 560.912 301.979 560.356 301.665V300.612C560.716 300.795 561.102 300.938 561.512 301.043C561.926 301.148 562.325 301.2 562.708 301.2C563.3 301.2 563.756 301.107 564.075 300.92C564.394 300.729 564.554 300.439 564.554 300.052C564.554 299.76 564.426 299.512 564.171 299.307C563.92 299.097 563.428 298.851 562.694 298.568C561.997 298.309 561.5 298.083 561.204 297.892C560.912 297.696 560.694 297.475 560.548 297.229C560.407 296.982 560.336 296.688 560.336 296.347C560.336 295.736 560.584 295.255 561.081 294.904C561.578 294.549 562.259 294.371 563.125 294.371C563.932 294.371 564.72 294.535 565.49 294.863L565.087 295.786C564.335 295.476 563.654 295.321 563.043 295.321C562.505 295.321 562.1 295.406 561.826 295.574C561.553 295.743 561.416 295.975 561.416 296.271C561.416 296.472 561.466 296.643 561.566 296.784C561.671 296.925 561.838 297.06 562.065 297.188C562.293 297.315 562.731 297.5 563.378 297.741C564.267 298.065 564.866 298.391 565.176 298.719C565.49 299.047 565.647 299.459 565.647 299.956ZM573.967 298.247C573.967 299.468 573.659 300.423 573.044 301.111C572.429 301.795 571.579 302.137 570.494 302.137C569.824 302.137 569.229 301.979 568.71 301.665C568.19 301.351 567.789 300.899 567.507 300.312C567.224 299.724 567.083 299.035 567.083 298.247C567.083 297.026 567.388 296.076 567.999 295.396C568.61 294.713 569.457 294.371 570.542 294.371C571.59 294.371 572.422 294.72 573.037 295.417C573.657 296.114 573.967 297.058 573.967 298.247ZM568.259 298.247C568.259 299.204 568.45 299.933 568.833 300.435C569.216 300.936 569.779 301.187 570.521 301.187C571.264 301.187 571.827 300.938 572.21 300.441C572.597 299.94 572.791 299.209 572.791 298.247C572.791 297.295 572.597 296.572 572.21 296.08C571.827 295.583 571.26 295.335 570.508 295.335C569.765 295.335 569.204 295.579 568.826 296.066C568.448 296.554 568.259 297.281 568.259 298.247ZM581.09 302V297.153C581.09 296.543 580.951 296.087 580.673 295.786C580.395 295.485 579.96 295.335 579.367 295.335C578.583 295.335 578.009 295.547 577.645 295.971C577.28 296.395 577.098 297.094 577.098 298.069V302H575.963V294.508H576.886L577.07 295.533H577.125C577.357 295.164 577.683 294.879 578.103 294.679C578.522 294.474 578.989 294.371 579.504 294.371C580.406 294.371 581.085 294.59 581.541 295.027C581.997 295.46 582.225 296.155 582.225 297.112V302H581.09Z" fill="#9B9B9B"/>
<path d="M398.939 322.061C399.525 322.646 400.475 322.646 401.061 322.061L410.607 312.515C411.192 311.929 411.192 310.979 410.607 310.393C410.021 309.808 409.071 309.808 408.485 310.393L400 318.879L391.515 310.393C390.929 309.808 389.979 309.808 389.393 310.393C388.808 310.979 388.808 311.929 389.393 312.515L398.939 322.061ZM398.5 277L398.5 321L401.5 321L401.5 277L398.5 277Z" fill="#DCDCDC"/>
<path d="M439.061 275.939C438.475 275.354 437.525 275.354 436.939 275.939L427.393 285.485C426.808 286.071 426.808 287.021 427.393 287.607C427.979 288.192 428.929 288.192 429.515 287.607L438 279.121L446.485 287.607C447.071 288.192 448.021 288.192 448.607 287.607C449.192 287.021 449.192 286.071 448.607 285.485L439.061 275.939ZM439.5 321L439.5 277L436.5 277L436.5 321L439.5 321Z" fill="#DCDCDC"/>
</g>
<defs>
<filter id="filter0_d" x="-5" y="75" width="210" height="220" filterUnits="userSpaceOnUse" color-interpolation-filters="sRGB">
<feFlood flood-opacity="0" result="BackgroundImageFix"/>
<feColorMatrix in="SourceAlpha" type="matrix" values="0 0 0 0 0 0 0 0 0 0 0 0 0 0 0 0 0 0 127 0"/>
<feOffset dy="20"/>
<feGaussianBlur stdDeviation="22.5"/>
<feColorMatrix type="matrix" values="0 0 0 0 0 0 0 0 0 0 0 0 0 0 0 0 0 0 0.08 0"/>
<feBlend mode="normal" in2="BackgroundImageFix" result="effect1_dropShadow"/>
<feBlend mode="normal" in="SourceGraphic" in2="effect1_dropShadow" result="shape"/>
</filter>
<filter id="filter1_d" x="56.8931" y="153.842" width="84.4369" height="38.6784" filterUnits="userSpaceOnUse" color-interpolation-filters="sRGB">
<feFlood flood-opacity="0" result="BackgroundImageFix"/>
<feColorMatrix in="SourceAlpha" type="matrix" values="0 0 0 0 0 0 0 0 0 0 0 0 0 0 0 0 0 0 127 0"/>
<feOffset dy="3"/>
<feGaussianBlur stdDeviation="7.5"/>
<feColorMatrix type="matrix" values="0 0 0 0 0 0 0 0 0 0.0839841 0 0 0 0 1 0 0 0 0.4 0"/>
<feBlend mode="normal" in2="BackgroundImageFix" result="effect1_dropShadow"/>
<feBlend mode="normal" in="SourceGraphic" in2="effect1_dropShadow" result="shape"/>
</filter>
<filter id="filter2_d" x="633" y="75" width="210" height="220" filterUnits="userSpaceOnUse" color-interpolation-filters="sRGB">
<feFlood flood-opacity="0" result="BackgroundImageFix"/>
<feColorMatrix in="SourceAlpha" type="matrix" values="0 0 0 0 0 0 0 0 0 0 0 0 0 0 0 0 0 0 127 0"/>
<feOffset dy="20"/>
<feGaussianBlur stdDeviation="22.5"/>
<feColorMatrix type="matrix" values="0 0 0 0 0 0 0 0 0 0 0 0 0 0 0 0 0 0 0.08 0"/>
<feBlend mode="normal" in2="BackgroundImageFix" result="effect1_dropShadow"/>
<feBlend mode="normal" in="SourceGraphic" in2="effect1_dropShadow" result="shape"/>
</filter>
<filter id="filter3_d" x="222" y="75" width="210" height="220" filterUnits="userSpaceOnUse" color-interpolation-filters="sRGB">
<feFlood flood-opacity="0" result="BackgroundImageFix"/>
<feColorMatrix in="SourceAlpha" type="matrix" values="0 0 0 0 0 0 0 0 0 0 0 0 0 0 0 0 0 0 127 0"/>
<feOffset dy="20"/>
<feGaussianBlur stdDeviation="22.5"/>
<feColorMatrix type="matrix" values="0 0 0 0 0 0 0 0 0 0 0 0 0 0 0 0 0 0 0.08 0"/>
<feBlend mode="normal" in2="BackgroundImageFix" result="effect1_dropShadow"/>
<feBlend mode="normal" in="SourceGraphic" in2="effect1_dropShadow" result="shape"/>
</filter>
<filter id="filter4_d" x="285.45" y="159.239" width="82.8038" height="38.5487" filterUnits="userSpaceOnUse" color-interpolation-filters="sRGB">
<feFlood flood-opacity="0" result="BackgroundImageFix"/>
<feColorMatrix in="SourceAlpha" type="matrix" values="0 0 0 0 0 0 0 0 0 0 0 0 0 0 0 0 0 0 127 0"/>
<feOffset dy="3"/>
<feGaussianBlur stdDeviation="7.5"/>
<feColorMatrix type="matrix" values="0 0 0 0 0 0 0 0 0 0.0839841 0 0 0 0 1 0 0 0 0.4 0"/>
<feBlend mode="normal" in2="BackgroundImageFix" result="effect1_dropShadow"/>
<feBlend mode="normal" in="SourceGraphic" in2="effect1_dropShadow" result="shape"/>
</filter>
<filter id="filter5_d" x="407" y="75" width="210" height="220" filterUnits="userSpaceOnUse" color-interpolation-filters="sRGB">
<feFlood flood-opacity="0" result="BackgroundImageFix"/>
<feColorMatrix in="SourceAlpha" type="matrix" values="0 0 0 0 0 0 0 0 0 0 0 0 0 0 0 0 0 0 127 0"/>
<feOffset dy="20"/>
<feGaussianBlur stdDeviation="22.5"/>
<feColorMatrix type="matrix" values="0 0 0 0 0 0 0 0 0 0 0 0 0 0 0 0 0 0 0.08 0"/>
<feBlend mode="normal" in2="BackgroundImageFix" result="effect1_dropShadow"/>
<feBlend mode="normal" in="SourceGraphic" in2="effect1_dropShadow" result="shape"/>
</filter>
<filter id="filter6_d" x="314" y="319" width="210" height="220" filterUnits="userSpaceOnUse" color-interpolation-filters="sRGB">
<feFlood flood-opacity="0" result="BackgroundImageFix"/>
<feColorMatrix in="SourceAlpha" type="matrix" values="0 0 0 0 0 0 0 0 0 0 0 0 0 0 0 0 0 0 127 0"/>
<feOffset dy="20"/>
<feGaussianBlur stdDeviation="22.5"/>
<feColorMatrix type="matrix" values="0 0 0 0 0 0 0 0 0 0 0 0 0 0 0 0 0 0 0.08 0"/>
<feBlend mode="normal" in2="BackgroundImageFix" result="effect1_dropShadow"/>
<feBlend mode="normal" in="SourceGraphic" in2="effect1_dropShadow" result="shape"/>
</filter>
<clipPath id="clip0">
<rect width="838" height="514" fill="white"/>
</clipPath>
</defs>
</svg>
