<svg width="1070" height="675" viewBox="0 0 1070 675" fill="none" xmlns="http://www.w3.org/2000/svg">
<g clip-path="url(#clip0)">
<g filter="url(#filter0_d)">
<rect x="55" y="54" width="220" height="210" rx="16" fill="white"/>
</g>
<path d="M102.016 233.961C102.016 234.966 101.651 235.75 100.922 236.312C100.193 236.875 99.2031 237.156 97.9531 237.156C96.599 237.156 95.5573 236.982 94.8281 236.633V235.352C95.2969 235.549 95.8073 235.706 96.3594 235.82C96.9115 235.935 97.4583 235.992 98 235.992C98.8854 235.992 99.5521 235.826 100 235.492C100.448 235.154 100.672 234.685 100.672 234.086C100.672 233.69 100.591 233.367 100.43 233.117C100.273 232.862 100.008 232.628 99.6328 232.414C99.263 232.201 98.6979 231.958 97.9375 231.688C96.875 231.307 96.1146 230.857 95.6562 230.336C95.2031 229.815 94.9766 229.135 94.9766 228.297C94.9766 227.417 95.3073 226.716 95.9688 226.195C96.6302 225.674 97.5052 225.414 98.5938 225.414C99.7292 225.414 100.773 225.622 101.727 226.039L101.312 227.195C100.37 226.799 99.4531 226.602 98.5625 226.602C97.8594 226.602 97.3099 226.753 96.9141 227.055C96.5182 227.357 96.3203 227.776 96.3203 228.312C96.3203 228.708 96.3932 229.034 96.5391 229.289C96.6849 229.539 96.9297 229.771 97.2734 229.984C97.6224 230.193 98.1536 230.424 98.8672 230.68C100.065 231.107 100.888 231.565 101.336 232.055C101.789 232.544 102.016 233.18 102.016 233.961ZM110.016 237V231.461C110.016 230.763 109.857 230.242 109.539 229.898C109.221 229.555 108.724 229.383 108.047 229.383C107.146 229.383 106.487 229.628 106.07 230.117C105.659 230.607 105.453 231.409 105.453 232.523V237H104.156V224.844H105.453V228.523C105.453 228.966 105.432 229.333 105.391 229.625H105.469C105.724 229.214 106.086 228.891 106.555 228.656C107.029 228.417 107.568 228.297 108.172 228.297C109.219 228.297 110.003 228.547 110.523 229.047C111.049 229.542 111.312 230.331 111.312 231.414V237H110.016ZM121.375 232.711C121.375 234.107 121.023 235.198 120.32 235.984C119.617 236.766 118.646 237.156 117.406 237.156C116.641 237.156 115.961 236.977 115.367 236.617C114.773 236.258 114.315 235.742 113.992 235.07C113.669 234.398 113.508 233.612 113.508 232.711C113.508 231.315 113.857 230.229 114.555 229.453C115.253 228.672 116.221 228.281 117.461 228.281C118.659 228.281 119.609 228.68 120.312 229.477C121.021 230.273 121.375 231.352 121.375 232.711ZM114.852 232.711C114.852 233.805 115.07 234.638 115.508 235.211C115.945 235.784 116.589 236.07 117.438 236.07C118.286 236.07 118.93 235.786 119.367 235.219C119.81 234.646 120.031 233.81 120.031 232.711C120.031 231.622 119.81 230.797 119.367 230.234C118.93 229.667 118.281 229.383 117.422 229.383C116.573 229.383 115.932 229.661 115.5 230.219C115.068 230.776 114.852 231.607 114.852 232.711ZM127.641 237.156C127.083 237.156 126.573 237.055 126.109 236.852C125.651 236.643 125.266 236.326 124.953 235.898H124.859C124.922 236.398 124.953 236.872 124.953 237.32V240.844H123.656V228.438H124.711L124.891 229.609H124.953C125.286 229.141 125.674 228.802 126.117 228.594C126.56 228.385 127.068 228.281 127.641 228.281C128.776 228.281 129.651 228.669 130.266 229.445C130.885 230.221 131.195 231.31 131.195 232.711C131.195 234.117 130.88 235.211 130.25 235.992C129.625 236.768 128.755 237.156 127.641 237.156ZM127.453 229.383C126.578 229.383 125.945 229.625 125.555 230.109C125.164 230.594 124.964 231.365 124.953 232.422V232.711C124.953 233.914 125.154 234.776 125.555 235.297C125.956 235.812 126.599 236.07 127.484 236.07C128.224 236.07 128.802 235.771 129.219 235.172C129.641 234.573 129.852 233.747 129.852 232.695C129.852 231.628 129.641 230.81 129.219 230.242C128.802 229.669 128.214 229.383 127.453 229.383ZM134.766 237H133.469V228.438H134.766V237ZM133.359 226.117C133.359 225.82 133.432 225.604 133.578 225.469C133.724 225.328 133.906 225.258 134.125 225.258C134.333 225.258 134.513 225.328 134.664 225.469C134.815 225.609 134.891 225.826 134.891 226.117C134.891 226.409 134.815 226.628 134.664 226.773C134.513 226.914 134.333 226.984 134.125 226.984C133.906 226.984 133.724 226.914 133.578 226.773C133.432 226.628 133.359 226.409 133.359 226.117ZM141.375 229.445H139.195V237H137.898V229.445H136.367V228.859L137.898 228.391V227.914C137.898 225.81 138.818 224.758 140.656 224.758C141.109 224.758 141.641 224.849 142.25 225.031L141.914 226.07C141.414 225.909 140.987 225.828 140.633 225.828C140.143 225.828 139.781 225.992 139.547 226.32C139.312 226.643 139.195 227.164 139.195 227.883V228.438H141.375V229.445ZM141.578 228.438H142.969L144.844 233.32C145.255 234.435 145.51 235.24 145.609 235.734H145.672C145.74 235.469 145.88 235.016 146.094 234.375C146.312 233.729 147.021 231.75 148.219 228.438H149.609L145.93 238.188C145.565 239.151 145.138 239.833 144.648 240.234C144.164 240.641 143.568 240.844 142.859 240.844C142.464 240.844 142.073 240.799 141.688 240.711V239.672C141.974 239.734 142.294 239.766 142.648 239.766C143.539 239.766 144.174 239.266 144.555 238.266L145.031 237.047L141.578 228.438ZM158.867 237H157.539V226.758H153.922V225.578H162.484V226.758H158.867V237ZM169.875 237V231.461C169.875 230.763 169.716 230.242 169.398 229.898C169.081 229.555 168.583 229.383 167.906 229.383C167.005 229.383 166.346 229.628 165.93 230.117C165.518 230.607 165.312 231.409 165.312 232.523V237H164.016V224.844H165.312V228.523C165.312 228.966 165.292 229.333 165.25 229.625H165.328C165.583 229.214 165.945 228.891 166.414 228.656C166.888 228.417 167.427 228.297 168.031 228.297C169.078 228.297 169.862 228.547 170.383 229.047C170.909 229.542 171.172 230.331 171.172 231.414V237H169.875ZM177.461 237.156C176.195 237.156 175.195 236.771 174.461 236C173.732 235.229 173.367 234.159 173.367 232.789C173.367 231.409 173.706 230.312 174.383 229.5C175.065 228.688 175.979 228.281 177.125 228.281C178.198 228.281 179.047 228.635 179.672 229.344C180.297 230.047 180.609 230.977 180.609 232.133V232.953H174.711C174.737 233.958 174.99 234.721 175.469 235.242C175.953 235.763 176.633 236.023 177.508 236.023C178.43 236.023 179.341 235.831 180.242 235.445V236.602C179.784 236.799 179.349 236.94 178.938 237.023C178.531 237.112 178.039 237.156 177.461 237.156ZM177.109 229.367C176.422 229.367 175.872 229.591 175.461 230.039C175.055 230.487 174.815 231.107 174.742 231.898H179.219C179.219 231.081 179.036 230.456 178.672 230.023C178.307 229.586 177.786 229.367 177.109 229.367ZM193.742 237V231.43C193.742 230.747 193.596 230.237 193.305 229.898C193.013 229.555 192.56 229.383 191.945 229.383C191.138 229.383 190.542 229.615 190.156 230.078C189.771 230.542 189.578 231.255 189.578 232.219V237H188.281V231.43C188.281 230.747 188.135 230.237 187.844 229.898C187.552 229.555 187.096 229.383 186.477 229.383C185.664 229.383 185.068 229.628 184.688 230.117C184.312 230.602 184.125 231.398 184.125 232.508V237H182.828V228.438H183.883L184.094 229.609H184.156C184.401 229.193 184.745 228.867 185.188 228.633C185.635 228.398 186.135 228.281 186.688 228.281C188.026 228.281 188.901 228.766 189.312 229.734H189.375C189.63 229.286 190 228.932 190.484 228.672C190.969 228.411 191.521 228.281 192.141 228.281C193.109 228.281 193.833 228.531 194.312 229.031C194.797 229.526 195.039 230.32 195.039 231.414V237H193.742ZM201.336 237.156C200.07 237.156 199.07 236.771 198.336 236C197.607 235.229 197.242 234.159 197.242 232.789C197.242 231.409 197.581 230.312 198.258 229.5C198.94 228.688 199.854 228.281 201 228.281C202.073 228.281 202.922 228.635 203.547 229.344C204.172 230.047 204.484 230.977 204.484 232.133V232.953H198.586C198.612 233.958 198.865 234.721 199.344 235.242C199.828 235.763 200.508 236.023 201.383 236.023C202.305 236.023 203.216 235.831 204.117 235.445V236.602C203.659 236.799 203.224 236.94 202.812 237.023C202.406 237.112 201.914 237.156 201.336 237.156ZM200.984 229.367C200.297 229.367 199.747 229.591 199.336 230.039C198.93 230.487 198.69 231.107 198.617 231.898H203.094C203.094 231.081 202.911 230.456 202.547 230.023C202.182 229.586 201.661 229.367 200.984 229.367ZM211.055 237V225.578H212.383V235.797H217.422V237H211.055ZM224.438 237L224.18 235.781H224.117C223.69 236.318 223.263 236.682 222.836 236.875C222.414 237.062 221.885 237.156 221.25 237.156C220.401 237.156 219.734 236.938 219.25 236.5C218.771 236.062 218.531 235.44 218.531 234.633C218.531 232.904 219.914 231.997 222.68 231.914L224.133 231.867V231.336C224.133 230.664 223.987 230.169 223.695 229.852C223.409 229.529 222.948 229.367 222.312 229.367C221.599 229.367 220.792 229.586 219.891 230.023L219.492 229.031C219.914 228.802 220.375 228.622 220.875 228.492C221.38 228.362 221.885 228.297 222.391 228.297C223.411 228.297 224.167 228.523 224.656 228.977C225.151 229.43 225.398 230.156 225.398 231.156V237H224.438ZM221.508 236.086C222.315 236.086 222.948 235.865 223.406 235.422C223.87 234.979 224.102 234.359 224.102 233.562V232.789L222.805 232.844C221.773 232.88 221.029 233.042 220.57 233.328C220.117 233.609 219.891 234.049 219.891 234.648C219.891 235.117 220.031 235.474 220.312 235.719C220.599 235.964 220.997 236.086 221.508 236.086ZM232.062 228.297C233.188 228.297 234.06 228.682 234.68 229.453C235.305 230.219 235.617 231.305 235.617 232.711C235.617 234.117 235.302 235.211 234.672 235.992C234.047 236.768 233.177 237.156 232.062 237.156C231.505 237.156 230.995 237.055 230.531 236.852C230.073 236.643 229.688 236.326 229.375 235.898H229.281L229.008 237H228.078V224.844H229.375V227.797C229.375 228.458 229.354 229.052 229.312 229.578H229.375C229.979 228.724 230.875 228.297 232.062 228.297ZM231.875 229.383C230.99 229.383 230.352 229.638 229.961 230.148C229.57 230.654 229.375 231.508 229.375 232.711C229.375 233.914 229.576 234.776 229.977 235.297C230.378 235.812 231.021 236.07 231.906 236.07C232.703 236.07 233.297 235.781 233.688 235.203C234.078 234.62 234.273 233.784 234.273 232.695C234.273 231.581 234.078 230.75 233.688 230.203C233.297 229.656 232.693 229.383 231.875 229.383Z" fill="#3C3C3C"/>
<g filter="url(#filter1_d)">
<rect x="795" y="54" width="220" height="210" rx="16" fill="white"/>
</g>
<path d="M880.086 237H878.758V226.758H875.141V225.578H883.703V226.758H880.086V237ZM891.094 237V231.461C891.094 230.763 890.935 230.242 890.617 229.898C890.299 229.555 889.802 229.383 889.125 229.383C888.224 229.383 887.565 229.628 887.148 230.117C886.737 230.607 886.531 231.409 886.531 232.523V237H885.234V224.844H886.531V228.523C886.531 228.966 886.51 229.333 886.469 229.625H886.547C886.802 229.214 887.164 228.891 887.633 228.656C888.107 228.417 888.646 228.297 889.25 228.297C890.297 228.297 891.081 228.547 891.602 229.047C892.128 229.542 892.391 230.331 892.391 231.414V237H891.094ZM898.68 237.156C897.414 237.156 896.414 236.771 895.68 236C894.951 235.229 894.586 234.159 894.586 232.789C894.586 231.409 894.924 230.312 895.602 229.5C896.284 228.688 897.198 228.281 898.344 228.281C899.417 228.281 900.266 228.635 900.891 229.344C901.516 230.047 901.828 230.977 901.828 232.133V232.953H895.93C895.956 233.958 896.208 234.721 896.688 235.242C897.172 235.763 897.852 236.023 898.727 236.023C899.648 236.023 900.56 235.831 901.461 235.445V236.602C901.003 236.799 900.568 236.94 900.156 237.023C899.75 237.112 899.258 237.156 898.68 237.156ZM898.328 229.367C897.641 229.367 897.091 229.591 896.68 230.039C896.273 230.487 896.034 231.107 895.961 231.898H900.438C900.438 231.081 900.255 230.456 899.891 230.023C899.526 229.586 899.005 229.367 898.328 229.367ZM914.961 237V231.43C914.961 230.747 914.815 230.237 914.523 229.898C914.232 229.555 913.779 229.383 913.164 229.383C912.357 229.383 911.76 229.615 911.375 230.078C910.99 230.542 910.797 231.255 910.797 232.219V237H909.5V231.43C909.5 230.747 909.354 230.237 909.062 229.898C908.771 229.555 908.315 229.383 907.695 229.383C906.883 229.383 906.286 229.628 905.906 230.117C905.531 230.602 905.344 231.398 905.344 232.508V237H904.047V228.438H905.102L905.312 229.609H905.375C905.62 229.193 905.964 228.867 906.406 228.633C906.854 228.398 907.354 228.281 907.906 228.281C909.245 228.281 910.12 228.766 910.531 229.734H910.594C910.849 229.286 911.219 228.932 911.703 228.672C912.188 228.411 912.74 228.281 913.359 228.281C914.328 228.281 915.052 228.531 915.531 229.031C916.016 229.526 916.258 230.32 916.258 231.414V237H914.961ZM922.555 237.156C921.289 237.156 920.289 236.771 919.555 236C918.826 235.229 918.461 234.159 918.461 232.789C918.461 231.409 918.799 230.312 919.477 229.5C920.159 228.688 921.073 228.281 922.219 228.281C923.292 228.281 924.141 228.635 924.766 229.344C925.391 230.047 925.703 230.977 925.703 232.133V232.953H919.805C919.831 233.958 920.083 234.721 920.562 235.242C921.047 235.763 921.727 236.023 922.602 236.023C923.523 236.023 924.435 235.831 925.336 235.445V236.602C924.878 236.799 924.443 236.94 924.031 237.023C923.625 237.112 923.133 237.156 922.555 237.156ZM922.203 229.367C921.516 229.367 920.966 229.591 920.555 230.039C920.148 230.487 919.909 231.107 919.836 231.898H924.312C924.312 231.081 924.13 230.456 923.766 230.023C923.401 229.586 922.88 229.367 922.203 229.367ZM933.445 234.664C933.445 235.461 933.148 236.076 932.555 236.508C931.961 236.94 931.128 237.156 930.055 237.156C928.919 237.156 928.034 236.977 927.398 236.617V235.414C927.81 235.622 928.25 235.786 928.719 235.906C929.193 236.026 929.648 236.086 930.086 236.086C930.763 236.086 931.284 235.979 931.648 235.766C932.013 235.547 932.195 235.216 932.195 234.773C932.195 234.44 932.049 234.156 931.758 233.922C931.471 233.682 930.909 233.401 930.07 233.078C929.273 232.781 928.706 232.523 928.367 232.305C928.034 232.081 927.784 231.828 927.617 231.547C927.456 231.266 927.375 230.93 927.375 230.539C927.375 229.841 927.659 229.292 928.227 228.891C928.794 228.484 929.573 228.281 930.562 228.281C931.484 228.281 932.385 228.469 933.266 228.844L932.805 229.898C931.945 229.544 931.167 229.367 930.469 229.367C929.854 229.367 929.391 229.464 929.078 229.656C928.766 229.849 928.609 230.115 928.609 230.453C928.609 230.682 928.667 230.878 928.781 231.039C928.901 231.201 929.091 231.354 929.352 231.5C929.612 231.646 930.112 231.857 930.852 232.133C931.867 232.503 932.552 232.875 932.906 233.25C933.266 233.625 933.445 234.096 933.445 234.664Z" fill="#3C3C3C"/>
<g filter="url(#filter2_d)">
<rect x="246" y="414" width="220" height="210" rx="16" fill="white"/>
</g>
<path d="M315.016 591.961C315.016 592.966 314.651 593.75 313.922 594.312C313.193 594.875 312.203 595.156 310.953 595.156C309.599 595.156 308.557 594.982 307.828 594.633V593.352C308.297 593.549 308.807 593.706 309.359 593.82C309.911 593.935 310.458 593.992 311 593.992C311.885 593.992 312.552 593.826 313 593.492C313.448 593.154 313.672 592.685 313.672 592.086C313.672 591.69 313.591 591.367 313.43 591.117C313.273 590.862 313.008 590.628 312.633 590.414C312.263 590.201 311.698 589.958 310.938 589.688C309.875 589.307 309.115 588.857 308.656 588.336C308.203 587.815 307.977 587.135 307.977 586.297C307.977 585.417 308.307 584.716 308.969 584.195C309.63 583.674 310.505 583.414 311.594 583.414C312.729 583.414 313.773 583.622 314.727 584.039L314.312 585.195C313.37 584.799 312.453 584.602 311.562 584.602C310.859 584.602 310.31 584.753 309.914 585.055C309.518 585.357 309.32 585.776 309.32 586.312C309.32 586.708 309.393 587.034 309.539 587.289C309.685 587.539 309.93 587.771 310.273 587.984C310.622 588.193 311.154 588.424 311.867 588.68C313.065 589.107 313.888 589.565 314.336 590.055C314.789 590.544 315.016 591.18 315.016 591.961ZM323.016 595V589.461C323.016 588.763 322.857 588.242 322.539 587.898C322.221 587.555 321.724 587.383 321.047 587.383C320.146 587.383 319.487 587.628 319.07 588.117C318.659 588.607 318.453 589.409 318.453 590.523V595H317.156V582.844H318.453V586.523C318.453 586.966 318.432 587.333 318.391 587.625H318.469C318.724 587.214 319.086 586.891 319.555 586.656C320.029 586.417 320.568 586.297 321.172 586.297C322.219 586.297 323.003 586.547 323.523 587.047C324.049 587.542 324.312 588.331 324.312 589.414V595H323.016ZM334.375 590.711C334.375 592.107 334.023 593.198 333.32 593.984C332.617 594.766 331.646 595.156 330.406 595.156C329.641 595.156 328.961 594.977 328.367 594.617C327.773 594.258 327.315 593.742 326.992 593.07C326.669 592.398 326.508 591.612 326.508 590.711C326.508 589.315 326.857 588.229 327.555 587.453C328.253 586.672 329.221 586.281 330.461 586.281C331.659 586.281 332.609 586.68 333.312 587.477C334.021 588.273 334.375 589.352 334.375 590.711ZM327.852 590.711C327.852 591.805 328.07 592.638 328.508 593.211C328.945 593.784 329.589 594.07 330.438 594.07C331.286 594.07 331.93 593.786 332.367 593.219C332.81 592.646 333.031 591.81 333.031 590.711C333.031 589.622 332.81 588.797 332.367 588.234C331.93 587.667 331.281 587.383 330.422 587.383C329.573 587.383 328.932 587.661 328.5 588.219C328.068 588.776 327.852 589.607 327.852 590.711ZM340.641 595.156C340.083 595.156 339.573 595.055 339.109 594.852C338.651 594.643 338.266 594.326 337.953 593.898H337.859C337.922 594.398 337.953 594.872 337.953 595.32V598.844H336.656V586.438H337.711L337.891 587.609H337.953C338.286 587.141 338.674 586.802 339.117 586.594C339.56 586.385 340.068 586.281 340.641 586.281C341.776 586.281 342.651 586.669 343.266 587.445C343.885 588.221 344.195 589.31 344.195 590.711C344.195 592.117 343.88 593.211 343.25 593.992C342.625 594.768 341.755 595.156 340.641 595.156ZM340.453 587.383C339.578 587.383 338.945 587.625 338.555 588.109C338.164 588.594 337.964 589.365 337.953 590.422V590.711C337.953 591.914 338.154 592.776 338.555 593.297C338.956 593.812 339.599 594.07 340.484 594.07C341.224 594.07 341.802 593.771 342.219 593.172C342.641 592.573 342.852 591.747 342.852 590.695C342.852 589.628 342.641 588.81 342.219 588.242C341.802 587.669 341.214 587.383 340.453 587.383ZM347.766 595H346.469V586.438H347.766V595ZM346.359 584.117C346.359 583.82 346.432 583.604 346.578 583.469C346.724 583.328 346.906 583.258 347.125 583.258C347.333 583.258 347.513 583.328 347.664 583.469C347.815 583.609 347.891 583.826 347.891 584.117C347.891 584.409 347.815 584.628 347.664 584.773C347.513 584.914 347.333 584.984 347.125 584.984C346.906 584.984 346.724 584.914 346.578 584.773C346.432 584.628 346.359 584.409 346.359 584.117ZM354.375 587.445H352.195V595H350.898V587.445H349.367V586.859L350.898 586.391V585.914C350.898 583.81 351.818 582.758 353.656 582.758C354.109 582.758 354.641 582.849 355.25 583.031L354.914 584.07C354.414 583.909 353.987 583.828 353.633 583.828C353.143 583.828 352.781 583.992 352.547 584.32C352.312 584.643 352.195 585.164 352.195 585.883V586.438H354.375V587.445ZM354.578 586.438H355.969L357.844 591.32C358.255 592.435 358.51 593.24 358.609 593.734H358.672C358.74 593.469 358.88 593.016 359.094 592.375C359.312 591.729 360.021 589.75 361.219 586.438H362.609L358.93 596.188C358.565 597.151 358.138 597.833 357.648 598.234C357.164 598.641 356.568 598.844 355.859 598.844C355.464 598.844 355.073 598.799 354.688 598.711V597.672C354.974 597.734 355.294 597.766 355.648 597.766C356.539 597.766 357.174 597.266 357.555 596.266L358.031 595.047L354.578 586.438ZM373.68 592.664C373.68 593.461 373.383 594.076 372.789 594.508C372.195 594.94 371.362 595.156 370.289 595.156C369.154 595.156 368.268 594.977 367.633 594.617V593.414C368.044 593.622 368.484 593.786 368.953 593.906C369.427 594.026 369.883 594.086 370.32 594.086C370.997 594.086 371.518 593.979 371.883 593.766C372.247 593.547 372.43 593.216 372.43 592.773C372.43 592.44 372.284 592.156 371.992 591.922C371.706 591.682 371.143 591.401 370.305 591.078C369.508 590.781 368.94 590.523 368.602 590.305C368.268 590.081 368.018 589.828 367.852 589.547C367.69 589.266 367.609 588.93 367.609 588.539C367.609 587.841 367.893 587.292 368.461 586.891C369.029 586.484 369.807 586.281 370.797 586.281C371.719 586.281 372.62 586.469 373.5 586.844L373.039 587.898C372.18 587.544 371.401 587.367 370.703 587.367C370.089 587.367 369.625 587.464 369.312 587.656C369 587.849 368.844 588.115 368.844 588.453C368.844 588.682 368.901 588.878 369.016 589.039C369.135 589.201 369.326 589.354 369.586 589.5C369.846 589.646 370.346 589.857 371.086 590.133C372.102 590.503 372.786 590.875 373.141 591.25C373.5 591.625 373.68 592.096 373.68 592.664ZM378.562 594.086C378.792 594.086 379.013 594.07 379.227 594.039C379.44 594.003 379.609 593.966 379.734 593.93V594.922C379.594 594.99 379.385 595.044 379.109 595.086C378.839 595.133 378.594 595.156 378.375 595.156C376.719 595.156 375.891 594.284 375.891 592.539V587.445H374.664V586.82L375.891 586.281L376.438 584.453H377.188V586.438H379.672V587.445H377.188V592.484C377.188 593 377.31 593.396 377.555 593.672C377.799 593.948 378.135 594.086 378.562 594.086ZM388.844 590.711C388.844 592.107 388.492 593.198 387.789 593.984C387.086 594.766 386.115 595.156 384.875 595.156C384.109 595.156 383.43 594.977 382.836 594.617C382.242 594.258 381.784 593.742 381.461 593.07C381.138 592.398 380.977 591.612 380.977 590.711C380.977 589.315 381.326 588.229 382.023 587.453C382.721 586.672 383.69 586.281 384.93 586.281C386.128 586.281 387.078 586.68 387.781 587.477C388.49 588.273 388.844 589.352 388.844 590.711ZM382.32 590.711C382.32 591.805 382.539 592.638 382.977 593.211C383.414 593.784 384.057 594.07 384.906 594.07C385.755 594.07 386.398 593.786 386.836 593.219C387.279 592.646 387.5 591.81 387.5 590.711C387.5 589.622 387.279 588.797 386.836 588.234C386.398 587.667 385.75 587.383 384.891 587.383C384.042 587.383 383.401 587.661 382.969 588.219C382.536 588.776 382.32 589.607 382.32 590.711ZM395.031 586.281C395.411 586.281 395.753 586.312 396.055 586.375L395.875 587.578C395.521 587.5 395.208 587.461 394.938 587.461C394.245 587.461 393.651 587.742 393.156 588.305C392.667 588.867 392.422 589.568 392.422 590.406V595H391.125V586.438H392.195L392.344 588.023H392.406C392.724 587.466 393.107 587.036 393.555 586.734C394.003 586.432 394.495 586.281 395.031 586.281ZM401.273 595.156C400.008 595.156 399.008 594.771 398.273 594C397.544 593.229 397.18 592.159 397.18 590.789C397.18 589.409 397.518 588.312 398.195 587.5C398.878 586.688 399.792 586.281 400.938 586.281C402.01 586.281 402.859 586.635 403.484 587.344C404.109 588.047 404.422 588.977 404.422 590.133V590.953H398.523C398.549 591.958 398.802 592.721 399.281 593.242C399.766 593.763 400.445 594.023 401.32 594.023C402.242 594.023 403.154 593.831 404.055 593.445V594.602C403.596 594.799 403.161 594.94 402.75 595.023C402.344 595.112 401.852 595.156 401.273 595.156ZM400.922 587.367C400.234 587.367 399.685 587.591 399.273 588.039C398.867 588.487 398.628 589.107 398.555 589.898H403.031C403.031 589.081 402.849 588.456 402.484 588.023C402.12 587.586 401.599 587.367 400.922 587.367Z" fill="#3C3C3C"/>
<g filter="url(#filter3_d)">
<rect x="425" y="54" width="220" height="210" rx="16" fill="white"/>
</g>
<path d="M473.906 37.0078C473.417 37.0078 473.031 36.9375 472.75 36.7969V35.6641C473.12 35.7682 473.505 35.8203 473.906 35.8203C474.422 35.8203 474.812 35.6641 475.078 35.3516C475.349 35.0391 475.484 34.5885 475.484 34V22.5781H476.812V33.8906C476.812 34.8802 476.562 35.6458 476.062 36.1875C475.562 36.7344 474.844 37.0078 473.906 37.0078ZM486.297 30.9609C486.297 31.9661 485.932 32.75 485.203 33.3125C484.474 33.875 483.484 34.1562 482.234 34.1562C480.88 34.1562 479.839 33.9818 479.109 33.6328V32.3516C479.578 32.5495 480.089 32.7057 480.641 32.8203C481.193 32.9349 481.74 32.9922 482.281 32.9922C483.167 32.9922 483.833 32.8255 484.281 32.4922C484.729 32.1536 484.953 31.6849 484.953 31.0859C484.953 30.6901 484.872 30.3672 484.711 30.1172C484.555 29.862 484.289 29.6276 483.914 29.4141C483.544 29.2005 482.979 28.9583 482.219 28.6875C481.156 28.3073 480.396 27.8568 479.938 27.3359C479.484 26.8151 479.258 26.1354 479.258 25.2969C479.258 24.4167 479.589 23.7161 480.25 23.1953C480.911 22.6745 481.786 22.4141 482.875 22.4141C484.01 22.4141 485.055 22.6224 486.008 23.0391L485.594 24.1953C484.651 23.7995 483.734 23.6016 482.844 23.6016C482.141 23.6016 481.591 23.7526 481.195 24.0547C480.799 24.3568 480.602 24.776 480.602 25.3125C480.602 25.7083 480.674 26.0339 480.82 26.2891C480.966 26.5391 481.211 26.7708 481.555 26.9844C481.904 27.1927 482.435 27.4245 483.148 27.6797C484.346 28.1068 485.169 28.5651 485.617 29.0547C486.07 29.5443 486.297 30.1797 486.297 30.9609Z" fill="#9B9B9B"/>
<path d="M577.461 23.6016C576.206 23.6016 575.214 24.0208 574.484 24.8594C573.76 25.6927 573.398 26.8359 573.398 28.2891C573.398 29.7839 573.747 30.9401 574.445 31.7578C575.148 32.5703 576.148 32.9766 577.445 32.9766C578.242 32.9766 579.151 32.8333 580.172 32.5469V33.7109C579.38 34.0078 578.404 34.1562 577.242 34.1562C575.56 34.1562 574.26 33.6458 573.344 32.625C572.432 31.6042 571.977 30.1536 571.977 28.2734C571.977 27.0964 572.195 26.0651 572.633 25.1797C573.076 24.2943 573.711 23.612 574.539 23.1328C575.372 22.6536 576.352 22.4141 577.477 22.4141C578.674 22.4141 579.721 22.6328 580.617 23.0703L580.055 24.2109C579.19 23.8047 578.326 23.6016 577.461 23.6016ZM589.109 30.9609C589.109 31.9661 588.745 32.75 588.016 33.3125C587.286 33.875 586.297 34.1562 585.047 34.1562C583.693 34.1562 582.651 33.9818 581.922 33.6328V32.3516C582.391 32.5495 582.901 32.7057 583.453 32.8203C584.005 32.9349 584.552 32.9922 585.094 32.9922C585.979 32.9922 586.646 32.8255 587.094 32.4922C587.542 32.1536 587.766 31.6849 587.766 31.0859C587.766 30.6901 587.685 30.3672 587.523 30.1172C587.367 29.862 587.102 29.6276 586.727 29.4141C586.357 29.2005 585.792 28.9583 585.031 28.6875C583.969 28.3073 583.208 27.8568 582.75 27.3359C582.297 26.8151 582.07 26.1354 582.07 25.2969C582.07 24.4167 582.401 23.7161 583.062 23.1953C583.724 22.6745 584.599 22.4141 585.688 22.4141C586.823 22.4141 587.867 22.6224 588.82 23.0391L588.406 24.1953C587.464 23.7995 586.547 23.6016 585.656 23.6016C584.953 23.6016 584.404 23.7526 584.008 24.0547C583.612 24.3568 583.414 24.776 583.414 25.3125C583.414 25.7083 583.487 26.0339 583.633 26.2891C583.779 26.5391 584.023 26.7708 584.367 26.9844C584.716 27.1927 585.247 27.4245 585.961 27.6797C587.159 28.1068 587.982 28.5651 588.43 29.0547C588.883 29.5443 589.109 30.1797 589.109 30.9609ZM597.891 30.9609C597.891 31.9661 597.526 32.75 596.797 33.3125C596.068 33.875 595.078 34.1562 593.828 34.1562C592.474 34.1562 591.432 33.9818 590.703 33.6328V32.3516C591.172 32.5495 591.682 32.7057 592.234 32.8203C592.786 32.9349 593.333 32.9922 593.875 32.9922C594.76 32.9922 595.427 32.8255 595.875 32.4922C596.323 32.1536 596.547 31.6849 596.547 31.0859C596.547 30.6901 596.466 30.3672 596.305 30.1172C596.148 29.862 595.883 29.6276 595.508 29.4141C595.138 29.2005 594.573 28.9583 593.812 28.6875C592.75 28.3073 591.99 27.8568 591.531 27.3359C591.078 26.8151 590.852 26.1354 590.852 25.2969C590.852 24.4167 591.182 23.7161 591.844 23.1953C592.505 22.6745 593.38 22.4141 594.469 22.4141C595.604 22.4141 596.648 22.6224 597.602 23.0391L597.188 24.1953C596.245 23.7995 595.328 23.6016 594.438 23.6016C593.734 23.6016 593.185 23.7526 592.789 24.0547C592.393 24.3568 592.195 24.776 592.195 25.3125C592.195 25.7083 592.268 26.0339 592.414 26.2891C592.56 26.5391 592.805 26.7708 593.148 26.9844C593.497 27.1927 594.029 27.4245 594.742 27.6797C595.94 28.1068 596.763 28.5651 597.211 29.0547C597.664 29.5443 597.891 30.1797 597.891 30.9609Z" fill="#9B9B9B"/>
<path d="M484.771 94.4663L480.498 101.87L476.227 94.4663H462L480.5 126.529L499 94.4663H484.771Z" fill="#41B883"/>
<path d="M484.771 94.4663L480.498 101.87L476.225 94.4663H469.397L480.504 113.703L491.599 94.4663H484.771Z" fill="#34495E"/>
<path fill-rule="evenodd" clip-rule="evenodd" d="M587.499 96.0019C582.032 96.0019 578.616 98.7794 577.25 104.335C579.3 101.556 581.691 100.515 584.425 101.209C585.961 101.76 587.315 102.737 588.333 104.028C589.464 105.453 590.901 106.596 592.532 107.371C594.164 108.146 595.949 108.532 597.75 108.5C603.216 108.5 606.633 105.722 608 100.167C605.95 102.944 603.558 103.986 600.825 103.293C599.289 102.742 597.936 101.765 596.917 100.474C595.786 99.0491 594.349 97.9056 592.717 97.1306C591.085 96.3556 589.3 95.9695 587.499 96.0019V96.0019ZM577.25 108.5C571.784 108.5 568.367 111.278 567 116.833C569.05 114.056 571.442 113.015 574.175 113.709C575.712 114.259 577.068 115.235 578.088 116.526C579.219 117.951 580.656 119.094 582.287 119.869C583.919 120.644 585.704 121.03 587.505 120.998C592.971 120.998 596.388 118.221 597.755 112.665C595.705 115.442 593.313 116.484 590.58 115.791C589.044 115.24 587.691 114.263 586.672 112.972C585.54 111.547 584.103 110.403 582.471 109.628C580.838 108.853 579.052 108.467 577.25 108.5V108.5Z" fill="#06B6D4"/>
<path d="M572 181.125L574.364 164.5L583.818 155L595.636 166.875L588.545 174L598 183.5L583.818 193L572 181.125Z" fill="#00D1B2"/>
<path d="M473.461 226.602C472.206 226.602 471.214 227.021 470.484 227.859C469.76 228.693 469.398 229.836 469.398 231.289C469.398 232.784 469.747 233.94 470.445 234.758C471.148 235.57 472.148 235.977 473.445 235.977C474.242 235.977 475.151 235.833 476.172 235.547V236.711C475.38 237.008 474.404 237.156 473.242 237.156C471.56 237.156 470.26 236.646 469.344 235.625C468.432 234.604 467.977 233.154 467.977 231.273C467.977 230.096 468.195 229.065 468.633 228.18C469.076 227.294 469.711 226.612 470.539 226.133C471.372 225.654 472.352 225.414 473.477 225.414C474.674 225.414 475.721 225.633 476.617 226.07L476.055 227.211C475.19 226.805 474.326 226.602 473.461 226.602ZM484.328 237V231.461C484.328 230.763 484.169 230.242 483.852 229.898C483.534 229.555 483.036 229.383 482.359 229.383C481.458 229.383 480.799 229.628 480.383 230.117C479.971 230.607 479.766 231.409 479.766 232.523V237H478.469V224.844H479.766V228.523C479.766 228.966 479.745 229.333 479.703 229.625H479.781C480.036 229.214 480.398 228.891 480.867 228.656C481.341 228.417 481.88 228.297 482.484 228.297C483.531 228.297 484.315 228.547 484.836 229.047C485.362 229.542 485.625 230.331 485.625 231.414V237H484.328ZM495.688 232.711C495.688 234.107 495.336 235.198 494.633 235.984C493.93 236.766 492.958 237.156 491.719 237.156C490.953 237.156 490.273 236.977 489.68 236.617C489.086 236.258 488.628 235.742 488.305 235.07C487.982 234.398 487.82 233.612 487.82 232.711C487.82 231.315 488.169 230.229 488.867 229.453C489.565 228.672 490.534 228.281 491.773 228.281C492.971 228.281 493.922 228.68 494.625 229.477C495.333 230.273 495.688 231.352 495.688 232.711ZM489.164 232.711C489.164 233.805 489.383 234.638 489.82 235.211C490.258 235.784 490.901 236.07 491.75 236.07C492.599 236.07 493.242 235.786 493.68 235.219C494.122 234.646 494.344 233.81 494.344 232.711C494.344 231.622 494.122 230.797 493.68 230.234C493.242 229.667 492.594 229.383 491.734 229.383C490.885 229.383 490.245 229.661 489.812 230.219C489.38 230.776 489.164 231.607 489.164 232.711ZM505.359 232.711C505.359 234.107 505.008 235.198 504.305 235.984C503.602 236.766 502.63 237.156 501.391 237.156C500.625 237.156 499.945 236.977 499.352 236.617C498.758 236.258 498.299 235.742 497.977 235.07C497.654 234.398 497.492 233.612 497.492 232.711C497.492 231.315 497.841 230.229 498.539 229.453C499.237 228.672 500.206 228.281 501.445 228.281C502.643 228.281 503.594 228.68 504.297 229.477C505.005 230.273 505.359 231.352 505.359 232.711ZM498.836 232.711C498.836 233.805 499.055 234.638 499.492 235.211C499.93 235.784 500.573 236.07 501.422 236.07C502.271 236.07 502.914 235.786 503.352 235.219C503.794 234.646 504.016 233.81 504.016 232.711C504.016 231.622 503.794 230.797 503.352 230.234C502.914 229.667 502.266 229.383 501.406 229.383C500.557 229.383 499.917 229.661 499.484 230.219C499.052 230.776 498.836 231.607 498.836 232.711ZM513.164 234.664C513.164 235.461 512.867 236.076 512.273 236.508C511.68 236.94 510.846 237.156 509.773 237.156C508.638 237.156 507.753 236.977 507.117 236.617V235.414C507.529 235.622 507.969 235.786 508.438 235.906C508.911 236.026 509.367 236.086 509.805 236.086C510.482 236.086 511.003 235.979 511.367 235.766C511.732 235.547 511.914 235.216 511.914 234.773C511.914 234.44 511.768 234.156 511.477 233.922C511.19 233.682 510.628 233.401 509.789 233.078C508.992 232.781 508.424 232.523 508.086 232.305C507.753 232.081 507.503 231.828 507.336 231.547C507.174 231.266 507.094 230.93 507.094 230.539C507.094 229.841 507.378 229.292 507.945 228.891C508.513 228.484 509.292 228.281 510.281 228.281C511.203 228.281 512.104 228.469 512.984 228.844L512.523 229.898C511.664 229.544 510.885 229.367 510.188 229.367C509.573 229.367 509.109 229.464 508.797 229.656C508.484 229.849 508.328 230.115 508.328 230.453C508.328 230.682 508.385 230.878 508.5 231.039C508.62 231.201 508.81 231.354 509.07 231.5C509.331 231.646 509.831 231.857 510.57 232.133C511.586 232.503 512.271 232.875 512.625 233.25C512.984 233.625 513.164 234.096 513.164 234.664ZM518.898 237.156C517.633 237.156 516.633 236.771 515.898 236C515.169 235.229 514.805 234.159 514.805 232.789C514.805 231.409 515.143 230.312 515.82 229.5C516.503 228.688 517.417 228.281 518.562 228.281C519.635 228.281 520.484 228.635 521.109 229.344C521.734 230.047 522.047 230.977 522.047 232.133V232.953H516.148C516.174 233.958 516.427 234.721 516.906 235.242C517.391 235.763 518.07 236.023 518.945 236.023C519.867 236.023 520.779 235.831 521.68 235.445V236.602C521.221 236.799 520.786 236.94 520.375 237.023C519.969 237.112 519.477 237.156 518.898 237.156ZM518.547 229.367C517.859 229.367 517.31 229.591 516.898 230.039C516.492 230.487 516.253 231.107 516.18 231.898H520.656C520.656 231.081 520.474 230.456 520.109 230.023C519.745 229.586 519.224 229.367 518.547 229.367ZM527.062 228.438H528.453L530.328 233.32C530.74 234.435 530.995 235.24 531.094 235.734H531.156C531.224 235.469 531.365 235.016 531.578 234.375C531.797 233.729 532.505 231.75 533.703 228.438H535.094L531.414 238.188C531.049 239.151 530.622 239.833 530.133 240.234C529.648 240.641 529.052 240.844 528.344 240.844C527.948 240.844 527.557 240.799 527.172 240.711V239.672C527.458 239.734 527.779 239.766 528.133 239.766C529.023 239.766 529.659 239.266 530.039 238.266L530.516 237.047L527.062 228.438ZM543.875 232.711C543.875 234.107 543.523 235.198 542.82 235.984C542.117 236.766 541.146 237.156 539.906 237.156C539.141 237.156 538.461 236.977 537.867 236.617C537.273 236.258 536.815 235.742 536.492 235.07C536.169 234.398 536.008 233.612 536.008 232.711C536.008 231.315 536.357 230.229 537.055 229.453C537.753 228.672 538.721 228.281 539.961 228.281C541.159 228.281 542.109 228.68 542.812 229.477C543.521 230.273 543.875 231.352 543.875 232.711ZM537.352 232.711C537.352 233.805 537.57 234.638 538.008 235.211C538.445 235.784 539.089 236.07 539.938 236.07C540.786 236.07 541.43 235.786 541.867 235.219C542.31 234.646 542.531 233.81 542.531 232.711C542.531 231.622 542.31 230.797 541.867 230.234C541.43 229.667 540.781 229.383 539.922 229.383C539.073 229.383 538.432 229.661 538 230.219C537.568 230.776 537.352 231.607 537.352 232.711ZM547.375 228.438V233.992C547.375 234.69 547.534 235.211 547.852 235.555C548.169 235.898 548.667 236.07 549.344 236.07C550.24 236.07 550.893 235.826 551.305 235.336C551.721 234.846 551.93 234.047 551.93 232.938V228.438H553.227V237H552.156L551.969 235.852H551.898C551.633 236.273 551.263 236.596 550.789 236.82C550.32 237.044 549.784 237.156 549.18 237.156C548.138 237.156 547.357 236.909 546.836 236.414C546.32 235.919 546.062 235.128 546.062 234.039V228.438H547.375ZM559.891 228.281C560.271 228.281 560.612 228.312 560.914 228.375L560.734 229.578C560.38 229.5 560.068 229.461 559.797 229.461C559.104 229.461 558.51 229.742 558.016 230.305C557.526 230.867 557.281 231.568 557.281 232.406V237H555.984V228.438H557.055L557.203 230.023H557.266C557.583 229.466 557.966 229.036 558.414 228.734C558.862 228.432 559.354 228.281 559.891 228.281ZM572.195 234.664C572.195 235.461 571.898 236.076 571.305 236.508C570.711 236.94 569.878 237.156 568.805 237.156C567.669 237.156 566.784 236.977 566.148 236.617V235.414C566.56 235.622 567 235.786 567.469 235.906C567.943 236.026 568.398 236.086 568.836 236.086C569.513 236.086 570.034 235.979 570.398 235.766C570.763 235.547 570.945 235.216 570.945 234.773C570.945 234.44 570.799 234.156 570.508 233.922C570.221 233.682 569.659 233.401 568.82 233.078C568.023 232.781 567.456 232.523 567.117 232.305C566.784 232.081 566.534 231.828 566.367 231.547C566.206 231.266 566.125 230.93 566.125 230.539C566.125 229.841 566.409 229.292 566.977 228.891C567.544 228.484 568.323 228.281 569.312 228.281C570.234 228.281 571.135 228.469 572.016 228.844L571.555 229.898C570.695 229.544 569.917 229.367 569.219 229.367C568.604 229.367 568.141 229.464 567.828 229.656C567.516 229.849 567.359 230.115 567.359 230.453C567.359 230.682 567.417 230.878 567.531 231.039C567.651 231.201 567.841 231.354 568.102 231.5C568.362 231.646 568.862 231.857 569.602 232.133C570.617 232.503 571.302 232.875 571.656 233.25C572.016 233.625 572.195 234.096 572.195 234.664ZM577.078 236.086C577.307 236.086 577.529 236.07 577.742 236.039C577.956 236.003 578.125 235.966 578.25 235.93V236.922C578.109 236.99 577.901 237.044 577.625 237.086C577.354 237.133 577.109 237.156 576.891 237.156C575.234 237.156 574.406 236.284 574.406 234.539V229.445H573.18V228.82L574.406 228.281L574.953 226.453H575.703V228.438H578.188V229.445H575.703V234.484C575.703 235 575.826 235.396 576.07 235.672C576.315 235.948 576.651 236.086 577.078 236.086ZM585.234 237L584.977 235.781H584.914C584.487 236.318 584.06 236.682 583.633 236.875C583.211 237.062 582.682 237.156 582.047 237.156C581.198 237.156 580.531 236.938 580.047 236.5C579.568 236.062 579.328 235.44 579.328 234.633C579.328 232.904 580.711 231.997 583.477 231.914L584.93 231.867V231.336C584.93 230.664 584.784 230.169 584.492 229.852C584.206 229.529 583.745 229.367 583.109 229.367C582.396 229.367 581.589 229.586 580.688 230.023L580.289 229.031C580.711 228.802 581.172 228.622 581.672 228.492C582.177 228.362 582.682 228.297 583.188 228.297C584.208 228.297 584.964 228.523 585.453 228.977C585.948 229.43 586.195 230.156 586.195 231.156V237H585.234ZM582.305 236.086C583.112 236.086 583.745 235.865 584.203 235.422C584.667 234.979 584.898 234.359 584.898 233.562V232.789L583.602 232.844C582.57 232.88 581.826 233.042 581.367 233.328C580.914 233.609 580.688 234.049 580.688 234.648C580.688 235.117 580.828 235.474 581.109 235.719C581.396 235.964 581.794 236.086 582.305 236.086ZM592.297 237.156C591.057 237.156 590.096 236.776 589.414 236.016C588.737 235.25 588.398 234.169 588.398 232.773C588.398 231.341 588.742 230.234 589.43 229.453C590.122 228.672 591.107 228.281 592.383 228.281C592.794 228.281 593.206 228.326 593.617 228.414C594.029 228.503 594.352 228.607 594.586 228.727L594.188 229.828C593.901 229.714 593.589 229.62 593.25 229.547C592.911 229.469 592.612 229.43 592.352 229.43C590.612 229.43 589.742 230.539 589.742 232.758C589.742 233.81 589.953 234.617 590.375 235.18C590.802 235.742 591.432 236.023 592.266 236.023C592.979 236.023 593.711 235.87 594.461 235.562V236.711C593.888 237.008 593.167 237.156 592.297 237.156ZM597.781 232.617C598.005 232.299 598.346 231.883 598.805 231.367L601.57 228.438H603.109L599.641 232.086L603.352 237H601.781L598.758 232.953L597.781 233.797V237H596.5V224.844H597.781V231.289C597.781 231.576 597.76 232.018 597.719 232.617H597.781Z" fill="#3C3C3C"/>
<path d="M380.559 474.972C380.533 474.805 380.452 474.652 380.329 474.537C380.206 474.422 380.047 474.351 379.879 474.337C379.597 474.315 374.067 474.228 374.067 474.228C374.067 474.228 369.442 469.721 368.988 469.277C368.743 469.109 368.461 469.002 368.166 468.964C367.871 468.926 367.571 468.959 367.291 469.06L364.967 469.781C364.675 468.837 364.298 467.922 363.841 467.046C363.262 465.663 362.299 464.476 361.066 463.624C359.833 462.772 358.381 462.293 356.884 462.242V462.242C356.67 462.242 356.471 462.264 356.268 462.264C356.193 462.178 356.096 462.076 356.006 461.975C355.394 461.309 354.641 460.787 353.803 460.447C352.965 460.107 352.062 459.958 351.159 460.01C348.91 460.331 346.774 461.196 344.936 462.531C343.098 463.866 341.614 465.63 340.613 467.67C338.502 471.016 337.065 474.744 336.386 478.642L328.979 480.938C326.797 481.621 326.726 481.689 326.444 483.747C326.234 485.303 320.528 529.449 320.528 529.449L368.342 537.713L389.066 532.559C389.066 532.559 380.596 475.367 380.559 474.972ZM362.576 470.528L358.866 471.678C358.881 469.348 358.501 467.032 357.74 464.83C360.575 465.371 361.982 468.601 362.576 470.528ZM356.362 472.452L348.381 474.927C349.089 472.037 350.47 469.355 352.409 467.099C353.163 466.256 354.087 465.583 355.12 465.123C356.041 467.453 356.464 469.951 356.362 472.455V472.452ZM351.234 462.52C352.028 462.479 352.815 462.686 353.486 463.113C352.389 463.699 351.4 464.469 350.562 465.389C348.02 468.354 346.316 471.943 345.625 475.787L339.066 477.82C340.362 471.76 345.426 462.689 351.234 462.52Z" fill="#95BF47"/>
<path d="M379.879 474.341C379.597 474.319 374.079 474.236 374.079 474.236C374.079 474.236 369.453 469.728 368.999 469.285C368.823 469.12 368.597 469.016 368.357 468.988V537.732L389.077 532.578C389.077 532.578 380.615 475.367 380.562 474.957C380.533 474.793 380.45 474.644 380.326 474.532C380.202 474.421 380.045 474.354 379.879 474.341Z" fill="#5E8E3E"/>
<path d="M356.858 485.006L354.451 494.021C352.594 493.253 350.591 492.905 348.583 493C343.917 493.296 343.868 496.238 343.913 496.978C344.168 501.008 354.763 501.887 355.356 511.327C355.602 512.861 355.526 514.429 355.132 515.931C354.737 517.433 354.034 518.836 353.066 520.051C352.099 521.265 350.888 522.264 349.512 522.983C348.136 523.702 346.626 524.126 345.077 524.227C342.937 524.42 340.781 524.162 338.747 523.47C336.712 522.779 334.845 521.669 333.266 520.212L334.88 513.345C337.08 515.037 339.715 516.068 342.479 516.316C342.883 516.305 343.281 516.212 343.648 516.043C344.015 515.875 344.345 515.634 344.617 515.334C344.889 515.035 345.098 514.684 345.231 514.302C345.364 513.92 345.419 513.515 345.392 513.112C345.062 507.853 336.434 508.165 335.89 499.528C335.432 492.26 340.204 484.878 350.727 484.232C352.803 483.991 354.907 484.256 356.858 485.006V485.006Z" fill="white"/>
<path d="M159.141 332.086C159.37 332.086 159.591 332.07 159.805 332.039C160.018 332.003 160.188 331.966 160.312 331.93V332.922C160.172 332.99 159.964 333.044 159.688 333.086C159.417 333.133 159.172 333.156 158.953 333.156C157.297 333.156 156.469 332.284 156.469 330.539V325.445H155.242V324.82L156.469 324.281L157.016 322.453H157.766V324.438H160.25V325.445H157.766V330.484C157.766 331 157.888 331.396 158.133 331.672C158.378 331.948 158.714 332.086 159.141 332.086ZM167.891 333V327.461C167.891 326.763 167.732 326.242 167.414 325.898C167.096 325.555 166.599 325.383 165.922 325.383C165.021 325.383 164.362 325.628 163.945 326.117C163.534 326.607 163.328 327.409 163.328 328.523V333H162.031V320.844H163.328V324.523C163.328 324.966 163.307 325.333 163.266 325.625H163.344C163.599 325.214 163.961 324.891 164.43 324.656C164.904 324.417 165.443 324.297 166.047 324.297C167.094 324.297 167.878 324.547 168.398 325.047C168.924 325.542 169.188 326.331 169.188 327.414V333H167.891ZM175.477 333.156C174.211 333.156 173.211 332.771 172.477 332C171.747 331.229 171.383 330.159 171.383 328.789C171.383 327.409 171.721 326.312 172.398 325.5C173.081 324.688 173.995 324.281 175.141 324.281C176.214 324.281 177.062 324.635 177.688 325.344C178.312 326.047 178.625 326.977 178.625 328.133V328.953H172.727C172.753 329.958 173.005 330.721 173.484 331.242C173.969 331.763 174.648 332.023 175.523 332.023C176.445 332.023 177.357 331.831 178.258 331.445V332.602C177.799 332.799 177.365 332.94 176.953 333.023C176.547 333.112 176.055 333.156 175.477 333.156ZM175.125 325.367C174.438 325.367 173.888 325.591 173.477 326.039C173.07 326.487 172.831 327.107 172.758 327.898H177.234C177.234 327.081 177.052 326.456 176.688 326.023C176.323 325.586 175.802 325.367 175.125 325.367ZM191.758 333V327.43C191.758 326.747 191.612 326.237 191.32 325.898C191.029 325.555 190.576 325.383 189.961 325.383C189.154 325.383 188.557 325.615 188.172 326.078C187.786 326.542 187.594 327.255 187.594 328.219V333H186.297V327.43C186.297 326.747 186.151 326.237 185.859 325.898C185.568 325.555 185.112 325.383 184.492 325.383C183.68 325.383 183.083 325.628 182.703 326.117C182.328 326.602 182.141 327.398 182.141 328.508V333H180.844V324.438H181.898L182.109 325.609H182.172C182.417 325.193 182.76 324.867 183.203 324.633C183.651 324.398 184.151 324.281 184.703 324.281C186.042 324.281 186.917 324.766 187.328 325.734H187.391C187.646 325.286 188.016 324.932 188.5 324.672C188.984 324.411 189.536 324.281 190.156 324.281C191.125 324.281 191.849 324.531 192.328 325.031C192.812 325.526 193.055 326.32 193.055 327.414V333H191.758ZM199.352 333.156C198.086 333.156 197.086 332.771 196.352 332C195.622 331.229 195.258 330.159 195.258 328.789C195.258 327.409 195.596 326.312 196.273 325.5C196.956 324.688 197.87 324.281 199.016 324.281C200.089 324.281 200.938 324.635 201.562 325.344C202.188 326.047 202.5 326.977 202.5 328.133V328.953H196.602C196.628 329.958 196.88 330.721 197.359 331.242C197.844 331.763 198.523 332.023 199.398 332.023C200.32 332.023 201.232 331.831 202.133 331.445V332.602C201.674 332.799 201.24 332.94 200.828 333.023C200.422 333.112 199.93 333.156 199.352 333.156ZM199 325.367C198.312 325.367 197.763 325.591 197.352 326.039C196.945 326.487 196.706 327.107 196.633 327.898H201.109C201.109 327.081 200.927 326.456 200.562 326.023C200.198 325.586 199.677 325.367 199 325.367ZM212.734 325.445H210.555V333H209.258V325.445H207.727V324.859L209.258 324.391V323.914C209.258 321.81 210.177 320.758 212.016 320.758C212.469 320.758 213 320.849 213.609 321.031L213.273 322.07C212.773 321.909 212.346 321.828 211.992 321.828C211.503 321.828 211.141 321.992 210.906 322.32C210.672 322.643 210.555 323.164 210.555 323.883V324.438H212.734V325.445ZM215.594 333H214.297V324.438H215.594V333ZM214.188 322.117C214.188 321.82 214.26 321.604 214.406 321.469C214.552 321.328 214.734 321.258 214.953 321.258C215.161 321.258 215.341 321.328 215.492 321.469C215.643 321.609 215.719 321.826 215.719 322.117C215.719 322.409 215.643 322.628 215.492 322.773C215.341 322.914 215.161 322.984 214.953 322.984C214.734 322.984 214.552 322.914 214.406 322.773C214.26 322.628 214.188 322.409 214.188 322.117ZM219.641 333H218.344V320.844H219.641V333ZM226.008 333.156C224.742 333.156 223.742 332.771 223.008 332C222.279 331.229 221.914 330.159 221.914 328.789C221.914 327.409 222.253 326.312 222.93 325.5C223.612 324.688 224.526 324.281 225.672 324.281C226.745 324.281 227.594 324.635 228.219 325.344C228.844 326.047 229.156 326.977 229.156 328.133V328.953H223.258C223.284 329.958 223.536 330.721 224.016 331.242C224.5 331.763 225.18 332.023 226.055 332.023C226.977 332.023 227.888 331.831 228.789 331.445V332.602C228.331 332.799 227.896 332.94 227.484 333.023C227.078 333.112 226.586 333.156 226.008 333.156ZM225.656 325.367C224.969 325.367 224.419 325.591 224.008 326.039C223.602 326.487 223.362 327.107 223.289 327.898H227.766C227.766 327.081 227.583 326.456 227.219 326.023C226.854 325.586 226.333 325.367 225.656 325.367ZM236.898 330.664C236.898 331.461 236.602 332.076 236.008 332.508C235.414 332.94 234.581 333.156 233.508 333.156C232.372 333.156 231.487 332.977 230.852 332.617V331.414C231.263 331.622 231.703 331.786 232.172 331.906C232.646 332.026 233.102 332.086 233.539 332.086C234.216 332.086 234.737 331.979 235.102 331.766C235.466 331.547 235.648 331.216 235.648 330.773C235.648 330.44 235.503 330.156 235.211 329.922C234.924 329.682 234.362 329.401 233.523 329.078C232.727 328.781 232.159 328.523 231.82 328.305C231.487 328.081 231.237 327.828 231.07 327.547C230.909 327.266 230.828 326.93 230.828 326.539C230.828 325.841 231.112 325.292 231.68 324.891C232.247 324.484 233.026 324.281 234.016 324.281C234.938 324.281 235.839 324.469 236.719 324.844L236.258 325.898C235.398 325.544 234.62 325.367 233.922 325.367C233.307 325.367 232.844 325.464 232.531 325.656C232.219 325.849 232.062 326.115 232.062 326.453C232.062 326.682 232.12 326.878 232.234 327.039C232.354 327.201 232.544 327.354 232.805 327.5C233.065 327.646 233.565 327.857 234.305 328.133C235.32 328.503 236.005 328.875 236.359 329.25C236.719 329.625 236.898 330.096 236.898 330.664ZM248.438 333L248.18 331.781H248.117C247.69 332.318 247.263 332.682 246.836 332.875C246.414 333.062 245.885 333.156 245.25 333.156C244.401 333.156 243.734 332.938 243.25 332.5C242.771 332.062 242.531 331.44 242.531 330.633C242.531 328.904 243.914 327.997 246.68 327.914L248.133 327.867V327.336C248.133 326.664 247.987 326.169 247.695 325.852C247.409 325.529 246.948 325.367 246.312 325.367C245.599 325.367 244.792 325.586 243.891 326.023L243.492 325.031C243.914 324.802 244.375 324.622 244.875 324.492C245.38 324.362 245.885 324.297 246.391 324.297C247.411 324.297 248.167 324.523 248.656 324.977C249.151 325.43 249.398 326.156 249.398 327.156V333H248.438ZM245.508 332.086C246.315 332.086 246.948 331.865 247.406 331.422C247.87 330.979 248.102 330.359 248.102 329.562V328.789L246.805 328.844C245.773 328.88 245.029 329.042 244.57 329.328C244.117 329.609 243.891 330.049 243.891 330.648C243.891 331.117 244.031 331.474 244.312 331.719C244.599 331.964 244.997 332.086 245.508 332.086ZM257.938 333V327.461C257.938 326.763 257.779 326.242 257.461 325.898C257.143 325.555 256.646 325.383 255.969 325.383C255.073 325.383 254.417 325.625 254 326.109C253.583 326.594 253.375 327.393 253.375 328.508V333H252.078V324.438H253.133L253.344 325.609H253.406C253.672 325.188 254.044 324.862 254.523 324.633C255.003 324.398 255.536 324.281 256.125 324.281C257.156 324.281 257.932 324.531 258.453 325.031C258.974 325.526 259.234 326.32 259.234 327.414V333H257.938ZM267.734 331.852H267.664C267.065 332.721 266.169 333.156 264.977 333.156C263.857 333.156 262.984 332.773 262.359 332.008C261.74 331.242 261.43 330.154 261.43 328.742C261.43 327.331 261.742 326.234 262.367 325.453C262.992 324.672 263.862 324.281 264.977 324.281C266.138 324.281 267.029 324.703 267.648 325.547H267.75L267.695 324.93L267.664 324.328V320.844H268.961V333H267.906L267.734 331.852ZM265.141 332.07C266.026 332.07 266.667 331.831 267.062 331.352C267.464 330.867 267.664 330.089 267.664 329.016V328.742C267.664 327.529 267.461 326.664 267.055 326.148C266.654 325.628 266.01 325.367 265.125 325.367C264.365 325.367 263.781 325.664 263.375 326.258C262.974 326.846 262.773 327.68 262.773 328.758C262.773 329.852 262.974 330.677 263.375 331.234C263.776 331.792 264.365 332.07 265.141 332.07ZM160.359 348.297C161.484 348.297 162.357 348.682 162.977 349.453C163.602 350.219 163.914 351.305 163.914 352.711C163.914 354.117 163.599 355.211 162.969 355.992C162.344 356.768 161.474 357.156 160.359 357.156C159.802 357.156 159.292 357.055 158.828 356.852C158.37 356.643 157.984 356.326 157.672 355.898H157.578L157.305 357H156.375V344.844H157.672V347.797C157.672 348.458 157.651 349.052 157.609 349.578H157.672C158.276 348.724 159.172 348.297 160.359 348.297ZM160.172 349.383C159.286 349.383 158.648 349.638 158.258 350.148C157.867 350.654 157.672 351.508 157.672 352.711C157.672 353.914 157.872 354.776 158.273 355.297C158.674 355.812 159.318 356.07 160.203 356.07C161 356.07 161.594 355.781 161.984 355.203C162.375 354.62 162.57 353.784 162.57 352.695C162.57 351.581 162.375 350.75 161.984 350.203C161.594 349.656 160.99 349.383 160.172 349.383ZM167.406 348.438V353.992C167.406 354.69 167.565 355.211 167.883 355.555C168.201 355.898 168.698 356.07 169.375 356.07C170.271 356.07 170.924 355.826 171.336 355.336C171.753 354.846 171.961 354.047 171.961 352.938V348.438H173.258V357H172.188L172 355.852H171.93C171.664 356.273 171.294 356.596 170.82 356.82C170.352 357.044 169.815 357.156 169.211 357.156C168.169 357.156 167.388 356.909 166.867 356.414C166.352 355.919 166.094 355.128 166.094 354.039V348.438H167.406ZM181.875 357V351.461C181.875 350.763 181.716 350.242 181.398 349.898C181.081 349.555 180.583 349.383 179.906 349.383C179.01 349.383 178.354 349.625 177.938 350.109C177.521 350.594 177.312 351.393 177.312 352.508V357H176.016V348.438H177.07L177.281 349.609H177.344C177.609 349.188 177.982 348.862 178.461 348.633C178.94 348.398 179.474 348.281 180.062 348.281C181.094 348.281 181.87 348.531 182.391 349.031C182.911 349.526 183.172 350.32 183.172 351.414V357H181.875ZM191.672 355.852H191.602C191.003 356.721 190.107 357.156 188.914 357.156C187.794 357.156 186.922 356.773 186.297 356.008C185.677 355.242 185.367 354.154 185.367 352.742C185.367 351.331 185.68 350.234 186.305 349.453C186.93 348.672 187.799 348.281 188.914 348.281C190.076 348.281 190.966 348.703 191.586 349.547H191.688L191.633 348.93L191.602 348.328V344.844H192.898V357H191.844L191.672 355.852ZM189.078 356.07C189.964 356.07 190.604 355.831 191 355.352C191.401 354.867 191.602 354.089 191.602 353.016V352.742C191.602 351.529 191.398 350.664 190.992 350.148C190.591 349.628 189.948 349.367 189.062 349.367C188.302 349.367 187.719 349.664 187.312 350.258C186.911 350.846 186.711 351.68 186.711 352.758C186.711 353.852 186.911 354.677 187.312 355.234C187.714 355.792 188.302 356.07 189.078 356.07ZM196.953 357H195.656V344.844H196.953V357ZM203.32 357.156C202.055 357.156 201.055 356.771 200.32 356C199.591 355.229 199.227 354.159 199.227 352.789C199.227 351.409 199.565 350.312 200.242 349.5C200.924 348.688 201.839 348.281 202.984 348.281C204.057 348.281 204.906 348.635 205.531 349.344C206.156 350.047 206.469 350.977 206.469 352.133V352.953H200.57C200.596 353.958 200.849 354.721 201.328 355.242C201.812 355.763 202.492 356.023 203.367 356.023C204.289 356.023 205.201 355.831 206.102 355.445V356.602C205.643 356.799 205.208 356.94 204.797 357.023C204.391 357.112 203.898 357.156 203.32 357.156ZM202.969 349.367C202.281 349.367 201.732 349.591 201.32 350.039C200.914 350.487 200.674 351.107 200.602 351.898H205.078C205.078 351.081 204.896 350.456 204.531 350.023C204.167 349.586 203.646 349.367 202.969 349.367ZM214.516 355.852H214.445C213.846 356.721 212.951 357.156 211.758 357.156C210.638 357.156 209.766 356.773 209.141 356.008C208.521 355.242 208.211 354.154 208.211 352.742C208.211 351.331 208.523 350.234 209.148 349.453C209.773 348.672 210.643 348.281 211.758 348.281C212.919 348.281 213.81 348.703 214.43 349.547H214.531L214.477 348.93L214.445 348.328V344.844H215.742V357H214.688L214.516 355.852ZM211.922 356.07C212.807 356.07 213.448 355.831 213.844 355.352C214.245 354.867 214.445 354.089 214.445 353.016V352.742C214.445 351.529 214.242 350.664 213.836 350.148C213.435 349.628 212.792 349.367 211.906 349.367C211.146 349.367 210.562 349.664 210.156 350.258C209.755 350.846 209.555 351.68 209.555 352.758C209.555 353.852 209.755 354.677 210.156 355.234C210.557 355.792 211.146 356.07 211.922 356.07ZM227.922 357L227.664 355.781H227.602C227.174 356.318 226.747 356.682 226.32 356.875C225.898 357.062 225.37 357.156 224.734 357.156C223.885 357.156 223.219 356.938 222.734 356.5C222.255 356.062 222.016 355.44 222.016 354.633C222.016 352.904 223.398 351.997 226.164 351.914L227.617 351.867V351.336C227.617 350.664 227.471 350.169 227.18 349.852C226.893 349.529 226.432 349.367 225.797 349.367C225.083 349.367 224.276 349.586 223.375 350.023L222.977 349.031C223.398 348.802 223.859 348.622 224.359 348.492C224.865 348.362 225.37 348.297 225.875 348.297C226.896 348.297 227.651 348.523 228.141 348.977C228.635 349.43 228.883 350.156 228.883 351.156V357H227.922ZM224.992 356.086C225.799 356.086 226.432 355.865 226.891 355.422C227.354 354.979 227.586 354.359 227.586 353.562V352.789L226.289 352.844C225.258 352.88 224.513 353.042 224.055 353.328C223.602 353.609 223.375 354.049 223.375 354.648C223.375 355.117 223.516 355.474 223.797 355.719C224.083 355.964 224.482 356.086 224.992 356.086ZM237.086 354.664C237.086 355.461 236.789 356.076 236.195 356.508C235.602 356.94 234.768 357.156 233.695 357.156C232.56 357.156 231.674 356.977 231.039 356.617V355.414C231.451 355.622 231.891 355.786 232.359 355.906C232.833 356.026 233.289 356.086 233.727 356.086C234.404 356.086 234.924 355.979 235.289 355.766C235.654 355.547 235.836 355.216 235.836 354.773C235.836 354.44 235.69 354.156 235.398 353.922C235.112 353.682 234.549 353.401 233.711 353.078C232.914 352.781 232.346 352.523 232.008 352.305C231.674 352.081 231.424 351.828 231.258 351.547C231.096 351.266 231.016 350.93 231.016 350.539C231.016 349.841 231.299 349.292 231.867 348.891C232.435 348.484 233.214 348.281 234.203 348.281C235.125 348.281 236.026 348.469 236.906 348.844L236.445 349.898C235.586 349.544 234.807 349.367 234.109 349.367C233.495 349.367 233.031 349.464 232.719 349.656C232.406 349.849 232.25 350.115 232.25 350.453C232.25 350.682 232.307 350.878 232.422 351.039C232.542 351.201 232.732 351.354 232.992 351.5C233.253 351.646 233.753 351.857 234.492 352.133C235.508 352.503 236.193 352.875 236.547 353.25C236.906 353.625 237.086 354.096 237.086 354.664ZM244.727 354.664C244.727 355.461 244.43 356.076 243.836 356.508C243.242 356.94 242.409 357.156 241.336 357.156C240.201 357.156 239.315 356.977 238.68 356.617V355.414C239.091 355.622 239.531 355.786 240 355.906C240.474 356.026 240.93 356.086 241.367 356.086C242.044 356.086 242.565 355.979 242.93 355.766C243.294 355.547 243.477 355.216 243.477 354.773C243.477 354.44 243.331 354.156 243.039 353.922C242.753 353.682 242.19 353.401 241.352 353.078C240.555 352.781 239.987 352.523 239.648 352.305C239.315 352.081 239.065 351.828 238.898 351.547C238.737 351.266 238.656 350.93 238.656 350.539C238.656 349.841 238.94 349.292 239.508 348.891C240.076 348.484 240.854 348.281 241.844 348.281C242.766 348.281 243.667 348.469 244.547 348.844L244.086 349.898C243.227 349.544 242.448 349.367 241.75 349.367C241.135 349.367 240.672 349.464 240.359 349.656C240.047 349.849 239.891 350.115 239.891 350.453C239.891 350.682 239.948 350.878 240.062 351.039C240.182 351.201 240.372 351.354 240.633 351.5C240.893 351.646 241.393 351.857 242.133 352.133C243.148 352.503 243.833 352.875 244.188 353.25C244.547 353.625 244.727 354.096 244.727 354.664ZM250.461 357.156C249.195 357.156 248.195 356.771 247.461 356C246.732 355.229 246.367 354.159 246.367 352.789C246.367 351.409 246.706 350.312 247.383 349.5C248.065 348.688 248.979 348.281 250.125 348.281C251.198 348.281 252.047 348.635 252.672 349.344C253.297 350.047 253.609 350.977 253.609 352.133V352.953H247.711C247.737 353.958 247.99 354.721 248.469 355.242C248.953 355.763 249.633 356.023 250.508 356.023C251.43 356.023 252.341 355.831 253.242 355.445V356.602C252.784 356.799 252.349 356.94 251.938 357.023C251.531 357.112 251.039 357.156 250.461 357.156ZM250.109 349.367C249.422 349.367 248.872 349.591 248.461 350.039C248.055 350.487 247.815 351.107 247.742 351.898H252.219C252.219 351.081 252.036 350.456 251.672 350.023C251.307 349.586 250.786 349.367 250.109 349.367ZM258.594 356.086C258.823 356.086 259.044 356.07 259.258 356.039C259.471 356.003 259.641 355.966 259.766 355.93V356.922C259.625 356.99 259.417 357.044 259.141 357.086C258.87 357.133 258.625 357.156 258.406 357.156C256.75 357.156 255.922 356.284 255.922 354.539V349.445H254.695V348.82L255.922 348.281L256.469 346.453H257.219V348.438H259.703V349.445H257.219V354.484C257.219 355 257.341 355.396 257.586 355.672C257.831 355.948 258.167 356.086 258.594 356.086ZM267.008 354.664C267.008 355.461 266.711 356.076 266.117 356.508C265.523 356.94 264.69 357.156 263.617 357.156C262.482 357.156 261.596 356.977 260.961 356.617V355.414C261.372 355.622 261.812 355.786 262.281 355.906C262.755 356.026 263.211 356.086 263.648 356.086C264.326 356.086 264.846 355.979 265.211 355.766C265.576 355.547 265.758 355.216 265.758 354.773C265.758 354.44 265.612 354.156 265.32 353.922C265.034 353.682 264.471 353.401 263.633 353.078C262.836 352.781 262.268 352.523 261.93 352.305C261.596 352.081 261.346 351.828 261.18 351.547C261.018 351.266 260.938 350.93 260.938 350.539C260.938 349.841 261.221 349.292 261.789 348.891C262.357 348.484 263.135 348.281 264.125 348.281C265.047 348.281 265.948 348.469 266.828 348.844L266.367 349.898C265.508 349.544 264.729 349.367 264.031 349.367C263.417 349.367 262.953 349.464 262.641 349.656C262.328 349.849 262.172 350.115 262.172 350.453C262.172 350.682 262.229 350.878 262.344 351.039C262.464 351.201 262.654 351.354 262.914 351.5C263.174 351.646 263.674 351.857 264.414 352.133C265.43 352.503 266.115 352.875 266.469 353.25C266.828 353.625 267.008 354.096 267.008 354.664Z" fill="#9B9B9B"/>
<path d="M431.898 342.664C431.898 343.461 431.602 344.076 431.008 344.508C430.414 344.94 429.581 345.156 428.508 345.156C427.372 345.156 426.487 344.977 425.852 344.617V343.414C426.263 343.622 426.703 343.786 427.172 343.906C427.646 344.026 428.102 344.086 428.539 344.086C429.216 344.086 429.737 343.979 430.102 343.766C430.466 343.547 430.648 343.216 430.648 342.773C430.648 342.44 430.503 342.156 430.211 341.922C429.924 341.682 429.362 341.401 428.523 341.078C427.727 340.781 427.159 340.523 426.82 340.305C426.487 340.081 426.237 339.828 426.07 339.547C425.909 339.266 425.828 338.93 425.828 338.539C425.828 337.841 426.112 337.292 426.68 336.891C427.247 336.484 428.026 336.281 429.016 336.281C429.938 336.281 430.839 336.469 431.719 336.844L431.258 337.898C430.398 337.544 429.62 337.367 428.922 337.367C428.307 337.367 427.844 337.464 427.531 337.656C427.219 337.849 427.062 338.115 427.062 338.453C427.062 338.682 427.12 338.878 427.234 339.039C427.354 339.201 427.544 339.354 427.805 339.5C428.065 339.646 428.565 339.857 429.305 340.133C430.32 340.503 431.005 340.875 431.359 341.25C431.719 341.625 431.898 342.096 431.898 342.664ZM437.633 345.156C436.367 345.156 435.367 344.771 434.633 344C433.904 343.229 433.539 342.159 433.539 340.789C433.539 339.409 433.878 338.312 434.555 337.5C435.237 336.688 436.151 336.281 437.297 336.281C438.37 336.281 439.219 336.635 439.844 337.344C440.469 338.047 440.781 338.977 440.781 340.133V340.953H434.883C434.909 341.958 435.161 342.721 435.641 343.242C436.125 343.763 436.805 344.023 437.68 344.023C438.602 344.023 439.513 343.831 440.414 343.445V344.602C439.956 344.799 439.521 344.94 439.109 345.023C438.703 345.112 438.211 345.156 437.633 345.156ZM437.281 337.367C436.594 337.367 436.044 337.591 435.633 338.039C435.227 338.487 434.987 339.107 434.914 339.898H439.391C439.391 339.081 439.208 338.456 438.844 338.023C438.479 337.586 437.958 337.367 437.281 337.367ZM445.766 344.086C445.995 344.086 446.216 344.07 446.43 344.039C446.643 344.003 446.812 343.966 446.938 343.93V344.922C446.797 344.99 446.589 345.044 446.312 345.086C446.042 345.133 445.797 345.156 445.578 345.156C443.922 345.156 443.094 344.284 443.094 342.539V337.445H441.867V336.82L443.094 336.281L443.641 334.453H444.391V336.438H446.875V337.445H444.391V342.484C444.391 343 444.513 343.396 444.758 343.672C445.003 343.948 445.339 344.086 445.766 344.086ZM451.422 344.086C451.651 344.086 451.872 344.07 452.086 344.039C452.299 344.003 452.469 343.966 452.594 343.93V344.922C452.453 344.99 452.245 345.044 451.969 345.086C451.698 345.133 451.453 345.156 451.234 345.156C449.578 345.156 448.75 344.284 448.75 342.539V337.445H447.523V336.82L448.75 336.281L449.297 334.453H450.047V336.438H452.531V337.445H450.047V342.484C450.047 343 450.169 343.396 450.414 343.672C450.659 343.948 450.995 344.086 451.422 344.086ZM455.609 345H454.312V336.438H455.609V345ZM454.203 334.117C454.203 333.82 454.276 333.604 454.422 333.469C454.568 333.328 454.75 333.258 454.969 333.258C455.177 333.258 455.357 333.328 455.508 333.469C455.659 333.609 455.734 333.826 455.734 334.117C455.734 334.409 455.659 334.628 455.508 334.773C455.357 334.914 455.177 334.984 454.969 334.984C454.75 334.984 454.568 334.914 454.422 334.773C454.276 334.628 454.203 334.409 454.203 334.117ZM464.219 345V339.461C464.219 338.763 464.06 338.242 463.742 337.898C463.424 337.555 462.927 337.383 462.25 337.383C461.354 337.383 460.698 337.625 460.281 338.109C459.865 338.594 459.656 339.393 459.656 340.508V345H458.359V336.438H459.414L459.625 337.609H459.688C459.953 337.188 460.326 336.862 460.805 336.633C461.284 336.398 461.818 336.281 462.406 336.281C463.438 336.281 464.214 336.531 464.734 337.031C465.255 337.526 465.516 338.32 465.516 339.414V345H464.219ZM475.195 336.438V337.258L473.609 337.445C473.755 337.628 473.885 337.867 474 338.164C474.115 338.456 474.172 338.786 474.172 339.156C474.172 339.995 473.885 340.664 473.312 341.164C472.74 341.664 471.953 341.914 470.953 341.914C470.698 341.914 470.458 341.893 470.234 341.852C469.682 342.143 469.406 342.51 469.406 342.953C469.406 343.188 469.503 343.362 469.695 343.477C469.888 343.586 470.219 343.641 470.688 343.641H472.203C473.13 343.641 473.841 343.836 474.336 344.227C474.836 344.617 475.086 345.185 475.086 345.93C475.086 346.878 474.706 347.599 473.945 348.094C473.185 348.594 472.076 348.844 470.617 348.844C469.497 348.844 468.633 348.635 468.023 348.219C467.419 347.802 467.117 347.214 467.117 346.453C467.117 345.932 467.284 345.482 467.617 345.102C467.951 344.721 468.419 344.464 469.023 344.328C468.805 344.229 468.62 344.076 468.469 343.867C468.323 343.659 468.25 343.417 468.25 343.141C468.25 342.828 468.333 342.555 468.5 342.32C468.667 342.086 468.93 341.859 469.289 341.641C468.846 341.458 468.484 341.148 468.203 340.711C467.927 340.273 467.789 339.773 467.789 339.211C467.789 338.273 468.07 337.552 468.633 337.047C469.195 336.536 469.992 336.281 471.023 336.281C471.471 336.281 471.875 336.333 472.234 336.438H475.195ZM468.367 346.438C468.367 346.901 468.562 347.253 468.953 347.492C469.344 347.732 469.904 347.852 470.633 347.852C471.721 347.852 472.526 347.688 473.047 347.359C473.573 347.036 473.836 346.596 473.836 346.039C473.836 345.576 473.693 345.253 473.406 345.07C473.12 344.893 472.581 344.805 471.789 344.805H470.234C469.646 344.805 469.188 344.945 468.859 345.227C468.531 345.508 468.367 345.911 468.367 346.438ZM469.07 339.18C469.07 339.779 469.24 340.232 469.578 340.539C469.917 340.846 470.388 341 470.992 341C472.258 341 472.891 340.385 472.891 339.156C472.891 337.87 472.25 337.227 470.969 337.227C470.359 337.227 469.891 337.391 469.562 337.719C469.234 338.047 469.07 338.534 469.07 339.18ZM482.477 342.664C482.477 343.461 482.18 344.076 481.586 344.508C480.992 344.94 480.159 345.156 479.086 345.156C477.951 345.156 477.065 344.977 476.43 344.617V343.414C476.841 343.622 477.281 343.786 477.75 343.906C478.224 344.026 478.68 344.086 479.117 344.086C479.794 344.086 480.315 343.979 480.68 343.766C481.044 343.547 481.227 343.216 481.227 342.773C481.227 342.44 481.081 342.156 480.789 341.922C480.503 341.682 479.94 341.401 479.102 341.078C478.305 340.781 477.737 340.523 477.398 340.305C477.065 340.081 476.815 339.828 476.648 339.547C476.487 339.266 476.406 338.93 476.406 338.539C476.406 337.841 476.69 337.292 477.258 336.891C477.826 336.484 478.604 336.281 479.594 336.281C480.516 336.281 481.417 336.469 482.297 336.844L481.836 337.898C480.977 337.544 480.198 337.367 479.5 337.367C478.885 337.367 478.422 337.464 478.109 337.656C477.797 337.849 477.641 338.115 477.641 338.453C477.641 338.682 477.698 338.878 477.812 339.039C477.932 339.201 478.122 339.354 478.383 339.5C478.643 339.646 479.143 339.857 479.883 340.133C480.898 340.503 481.583 340.875 481.938 341.25C482.297 341.625 482.477 342.096 482.477 342.664ZM490.422 347.461H483.188V346.438H490.422V347.461ZM497.594 343.852H497.523C496.924 344.721 496.029 345.156 494.836 345.156C493.716 345.156 492.844 344.773 492.219 344.008C491.599 343.242 491.289 342.154 491.289 340.742C491.289 339.331 491.602 338.234 492.227 337.453C492.852 336.672 493.721 336.281 494.836 336.281C495.997 336.281 496.888 336.703 497.508 337.547H497.609L497.555 336.93L497.523 336.328V332.844H498.82V345H497.766L497.594 343.852ZM495 344.07C495.885 344.07 496.526 343.831 496.922 343.352C497.323 342.867 497.523 342.089 497.523 341.016V340.742C497.523 339.529 497.32 338.664 496.914 338.148C496.513 337.628 495.87 337.367 494.984 337.367C494.224 337.367 493.641 337.664 493.234 338.258C492.833 338.846 492.633 339.68 492.633 340.758C492.633 341.852 492.833 342.677 493.234 343.234C493.635 343.792 494.224 344.07 495 344.07ZM506.844 345L506.586 343.781H506.523C506.096 344.318 505.669 344.682 505.242 344.875C504.82 345.062 504.292 345.156 503.656 345.156C502.807 345.156 502.141 344.938 501.656 344.5C501.177 344.062 500.938 343.44 500.938 342.633C500.938 340.904 502.32 339.997 505.086 339.914L506.539 339.867V339.336C506.539 338.664 506.393 338.169 506.102 337.852C505.815 337.529 505.354 337.367 504.719 337.367C504.005 337.367 503.198 337.586 502.297 338.023L501.898 337.031C502.32 336.802 502.781 336.622 503.281 336.492C503.786 336.362 504.292 336.297 504.797 336.297C505.818 336.297 506.573 336.523 507.062 336.977C507.557 337.43 507.805 338.156 507.805 339.156V345H506.844ZM503.914 344.086C504.721 344.086 505.354 343.865 505.812 343.422C506.276 342.979 506.508 342.359 506.508 341.562V340.789L505.211 340.844C504.18 340.88 503.435 341.042 502.977 341.328C502.523 341.609 502.297 342.049 502.297 342.648C502.297 343.117 502.438 343.474 502.719 343.719C503.005 343.964 503.404 344.086 503.914 344.086ZM513.25 344.086C513.479 344.086 513.701 344.07 513.914 344.039C514.128 344.003 514.297 343.966 514.422 343.93V344.922C514.281 344.99 514.073 345.044 513.797 345.086C513.526 345.133 513.281 345.156 513.062 345.156C511.406 345.156 510.578 344.284 510.578 342.539V337.445H509.352V336.82L510.578 336.281L511.125 334.453H511.875V336.438H514.359V337.445H511.875V342.484C511.875 343 511.997 343.396 512.242 343.672C512.487 343.948 512.823 344.086 513.25 344.086ZM521.406 345L521.148 343.781H521.086C520.659 344.318 520.232 344.682 519.805 344.875C519.383 345.062 518.854 345.156 518.219 345.156C517.37 345.156 516.703 344.938 516.219 344.5C515.74 344.062 515.5 343.44 515.5 342.633C515.5 340.904 516.883 339.997 519.648 339.914L521.102 339.867V339.336C521.102 338.664 520.956 338.169 520.664 337.852C520.378 337.529 519.917 337.367 519.281 337.367C518.568 337.367 517.76 337.586 516.859 338.023L516.461 337.031C516.883 336.802 517.344 336.622 517.844 336.492C518.349 336.362 518.854 336.297 519.359 336.297C520.38 336.297 521.135 336.523 521.625 336.977C522.12 337.43 522.367 338.156 522.367 339.156V345H521.406ZM518.477 344.086C519.284 344.086 519.917 343.865 520.375 343.422C520.839 342.979 521.07 342.359 521.07 341.562V340.789L519.773 340.844C518.742 340.88 517.997 341.042 517.539 341.328C517.086 341.609 516.859 342.049 516.859 342.648C516.859 343.117 517 343.474 517.281 343.719C517.568 343.964 517.966 344.086 518.477 344.086ZM524.859 344.172C524.859 343.823 524.938 343.56 525.094 343.383C525.255 343.201 525.484 343.109 525.781 343.109C526.083 343.109 526.318 343.201 526.484 343.383C526.656 343.56 526.742 343.823 526.742 344.172C526.742 344.51 526.656 344.771 526.484 344.953C526.312 345.135 526.078 345.227 525.781 345.227C525.516 345.227 525.294 345.146 525.117 344.984C524.945 344.818 524.859 344.547 524.859 344.172ZM528.273 348.844C527.779 348.844 527.378 348.779 527.07 348.648V347.594C527.43 347.698 527.784 347.75 528.133 347.75C528.539 347.75 528.836 347.638 529.023 347.414C529.216 347.195 529.312 346.859 529.312 346.406V336.438H530.609V346.312C530.609 348 529.831 348.844 528.273 348.844ZM529.203 334.117C529.203 333.82 529.276 333.604 529.422 333.469C529.568 333.328 529.75 333.258 529.969 333.258C530.177 333.258 530.357 333.328 530.508 333.469C530.659 333.609 530.734 333.826 530.734 334.117C530.734 334.409 530.659 334.628 530.508 334.773C530.357 334.914 530.177 334.984 529.969 334.984C529.75 334.984 529.568 334.914 529.422 334.773C529.276 334.628 529.203 334.409 529.203 334.117ZM538.883 342.664C538.883 343.461 538.586 344.076 537.992 344.508C537.398 344.94 536.565 345.156 535.492 345.156C534.357 345.156 533.471 344.977 532.836 344.617V343.414C533.247 343.622 533.688 343.786 534.156 343.906C534.63 344.026 535.086 344.086 535.523 344.086C536.201 344.086 536.721 343.979 537.086 343.766C537.451 343.547 537.633 343.216 537.633 342.773C537.633 342.44 537.487 342.156 537.195 341.922C536.909 341.682 536.346 341.401 535.508 341.078C534.711 340.781 534.143 340.523 533.805 340.305C533.471 340.081 533.221 339.828 533.055 339.547C532.893 339.266 532.812 338.93 532.812 338.539C532.812 337.841 533.096 337.292 533.664 336.891C534.232 336.484 535.01 336.281 536 336.281C536.922 336.281 537.823 336.469 538.703 336.844L538.242 337.898C537.383 337.544 536.604 337.367 535.906 337.367C535.292 337.367 534.828 337.464 534.516 337.656C534.203 337.849 534.047 338.115 534.047 338.453C534.047 338.682 534.104 338.878 534.219 339.039C534.339 339.201 534.529 339.354 534.789 339.5C535.049 339.646 535.549 339.857 536.289 340.133C537.305 340.503 537.99 340.875 538.344 341.25C538.703 341.625 538.883 342.096 538.883 342.664ZM548.391 340.711C548.391 342.107 548.039 343.198 547.336 343.984C546.633 344.766 545.661 345.156 544.422 345.156C543.656 345.156 542.977 344.977 542.383 344.617C541.789 344.258 541.331 343.742 541.008 343.07C540.685 342.398 540.523 341.612 540.523 340.711C540.523 339.315 540.872 338.229 541.57 337.453C542.268 336.672 543.237 336.281 544.477 336.281C545.674 336.281 546.625 336.68 547.328 337.477C548.036 338.273 548.391 339.352 548.391 340.711ZM541.867 340.711C541.867 341.805 542.086 342.638 542.523 343.211C542.961 343.784 543.604 344.07 544.453 344.07C545.302 344.07 545.945 343.786 546.383 343.219C546.826 342.646 547.047 341.81 547.047 340.711C547.047 339.622 546.826 338.797 546.383 338.234C545.945 337.667 545.297 337.383 544.438 337.383C543.589 337.383 542.948 337.661 542.516 338.219C542.083 338.776 541.867 339.607 541.867 340.711ZM556.531 345V339.461C556.531 338.763 556.372 338.242 556.055 337.898C555.737 337.555 555.24 337.383 554.562 337.383C553.667 337.383 553.01 337.625 552.594 338.109C552.177 338.594 551.969 339.393 551.969 340.508V345H550.672V336.438H551.727L551.938 337.609H552C552.266 337.188 552.638 336.862 553.117 336.633C553.596 336.398 554.13 336.281 554.719 336.281C555.75 336.281 556.526 336.531 557.047 337.031C557.568 337.526 557.828 338.32 557.828 339.414V345H556.531Z" fill="#9B9B9B"/>
<path d="M318.586 376.414C319.367 377.195 320.633 377.195 321.414 376.414L334.142 363.686C334.923 362.905 334.923 361.639 334.142 360.858C333.361 360.077 332.095 360.077 331.314 360.858L320 372.172L308.686 360.858C307.905 360.077 306.639 360.077 305.858 360.858C305.077 361.639 305.077 362.905 305.858 363.686L318.586 376.414ZM318 304L318 375L322 375L322 304L318 304Z" fill="#DCDCDC"/>
<path d="M386.414 302.586C385.633 301.805 384.367 301.805 383.586 302.586L370.858 315.314C370.077 316.095 370.077 317.361 370.858 318.142C371.639 318.923 372.905 318.923 373.686 318.142L385 306.828L396.314 318.142C397.095 318.923 398.361 318.923 399.142 318.142C399.923 317.361 399.923 316.095 399.142 315.314L386.414 302.586ZM387 375L387 304L383 304L383 375L387 375Z" fill="#DCDCDC"/>
<path d="M739.414 169.414C740.195 168.633 740.195 167.367 739.414 166.586L726.686 153.858C725.905 153.077 724.639 153.077 723.858 153.858C723.077 154.639 723.077 155.905 723.858 156.686L735.172 168L723.858 179.314C723.077 180.095 723.077 181.361 723.858 182.142C724.639 182.923 725.905 182.923 726.686 182.142L739.414 169.414ZM703 170H738V166H703V170Z" fill="#DCDCDC"/>
<path d="M365.812 166.312H352.688V153.188C352.688 152.607 352.457 152.051 352.047 151.641C351.637 151.23 351.08 151 350.5 151C349.92 151 349.363 151.23 348.953 151.641C348.543 152.051 348.312 152.607 348.312 153.188V166.312H335.188C334.607 166.312 334.051 166.543 333.641 166.953C333.23 167.363 333 167.92 333 168.5C333 169.08 333.23 169.637 333.641 170.047C334.051 170.457 334.607 170.688 335.188 170.688H348.312V183.812C348.312 184.393 348.543 184.949 348.953 185.359C349.363 185.77 349.92 186 350.5 186C351.08 186 351.637 185.77 352.047 185.359C352.457 184.949 352.688 184.393 352.688 183.812V170.688H365.812C366.393 170.688 366.949 170.457 367.359 170.047C367.77 169.637 368 169.08 368 168.5C368 167.92 367.77 167.363 367.359 166.953C366.949 166.543 366.393 166.312 365.812 166.312Z" fill="#DCDCDC"/>
<line x1="535.5" y1="91" x2="535.5" y2="197" stroke="#EBEBEB"/>
<path d="M499 156H462V193H499V156Z" fill="#F7DF1E"/>
<path d="M486.855 184.906C487.6 186.123 488.57 187.018 490.284 187.018C491.725 187.018 492.645 186.298 492.645 185.303C492.645 184.111 491.7 183.688 490.114 182.995L489.245 182.622C486.736 181.553 485.069 180.214 485.069 177.383C485.069 174.775 487.056 172.79 490.161 172.79C492.372 172.79 493.961 173.56 495.106 175.574L492.399 177.313C491.803 176.244 491.16 175.823 490.161 175.823C489.143 175.823 488.497 176.469 488.497 177.313C488.497 178.356 489.143 178.778 490.635 179.424L491.504 179.796C494.458 181.063 496.126 182.355 496.126 185.258C496.126 188.388 493.667 190.103 490.365 190.103C487.136 190.103 485.05 188.565 484.029 186.548L486.855 184.906ZM474.572 185.208C475.119 186.177 475.615 186.996 476.81 186.996C477.952 186.996 478.673 186.549 478.673 184.811V172.989H482.15V184.858C482.15 188.458 480.039 190.097 476.958 190.097C474.174 190.097 472.562 188.656 471.742 186.921L474.572 185.208Z" fill="black"/>
<rect x="882" y="41" width="119" height="26" rx="13" fill="#ABFFE1"/>
<path d="M898.717 50.8223C898.033 50.8223 897.504 51.0801 897.129 51.5957C896.754 52.1074 896.566 52.8223 896.566 53.7402C896.566 55.6504 897.283 56.6055 898.717 56.6055C899.318 56.6055 900.047 56.4551 900.902 56.1543V57.6777C900.199 57.9707 899.414 58.1172 898.547 58.1172C897.301 58.1172 896.348 57.7402 895.688 56.9863C895.027 56.2285 894.697 55.1426 894.697 53.7285C894.697 52.8379 894.859 52.0586 895.184 51.3906C895.508 50.7188 895.973 50.2051 896.578 49.8496C897.188 49.4902 897.9 49.3105 898.717 49.3105C899.549 49.3105 900.385 49.5117 901.225 49.9141L900.639 51.3906C900.318 51.2383 899.996 51.1055 899.672 50.9922C899.348 50.8789 899.029 50.8223 898.717 50.8223ZM911.106 53.7051C911.106 55.123 910.754 56.2129 910.051 56.9746C909.348 57.7363 908.34 58.1172 907.028 58.1172C905.715 58.1172 904.707 57.7363 904.004 56.9746C903.301 56.2129 902.95 55.1191 902.95 53.6934C902.95 52.2676 903.301 51.1797 904.004 50.4297C904.711 49.6758 905.723 49.2988 907.039 49.2988C908.356 49.2988 909.362 49.6777 910.057 50.4355C910.756 51.1934 911.106 52.2832 911.106 53.7051ZM904.854 53.7051C904.854 54.6621 905.036 55.3828 905.399 55.8672C905.762 56.3516 906.305 56.5938 907.028 56.5938C908.477 56.5938 909.202 55.6309 909.202 53.7051C909.202 51.7754 908.481 50.8105 907.039 50.8105C906.317 50.8105 905.772 51.0547 905.405 51.543C905.038 52.0273 904.854 52.748 904.854 53.7051ZM917.108 58L915.046 51.2793H914.993C915.067 52.6465 915.104 53.5586 915.104 54.0156V58H913.481V49.4336H915.954L917.981 55.9844H918.016L920.167 49.4336H922.639V58H920.946V53.9453C920.946 53.7539 920.948 53.5332 920.952 53.2832C920.96 53.0332 920.987 52.3691 921.034 51.291H920.981L918.772 58H917.108ZM925.402 58V49.4336H927.218V58H925.402ZM937.574 58H935.265L931.539 51.5195H931.486C931.56 52.6641 931.597 53.4805 931.597 53.9688V58H929.974V49.4336H932.265L935.986 55.8496H936.027C935.968 54.7363 935.939 53.9492 935.939 53.4883V49.4336H937.574V58ZM943.588 53.1895H946.986V57.6309C946.436 57.8105 945.916 57.9355 945.428 58.0059C944.943 58.0801 944.447 58.1172 943.939 58.1172C942.646 58.1172 941.658 57.7383 940.975 56.9805C940.295 56.2188 939.955 55.127 939.955 53.7051C939.955 52.3223 940.35 51.2441 941.139 50.4707C941.932 49.6973 943.029 49.3105 944.432 49.3105C945.311 49.3105 946.158 49.4863 946.975 49.8379L946.371 51.291C945.746 50.9785 945.096 50.8223 944.42 50.8223C943.635 50.8223 943.006 51.0859 942.533 51.6133C942.061 52.1406 941.824 52.8496 941.824 53.7402C941.824 54.6699 942.014 55.3809 942.393 55.873C942.775 56.3613 943.33 56.6055 944.057 56.6055C944.436 56.6055 944.82 56.5664 945.211 56.4883V54.7012H943.588V53.1895ZM958.405 55.6211C958.405 56.3945 958.126 57.0039 957.567 57.4492C957.013 57.8945 956.239 58.1172 955.247 58.1172C954.333 58.1172 953.524 57.9453 952.821 57.6016V55.9141C953.399 56.1719 953.888 56.3535 954.286 56.459C954.688 56.5645 955.055 56.6172 955.388 56.6172C955.786 56.6172 956.091 56.541 956.302 56.3887C956.516 56.2363 956.624 56.0098 956.624 55.709C956.624 55.541 956.577 55.3926 956.483 55.2637C956.389 55.1309 956.251 55.0039 956.067 54.8828C955.888 54.7617 955.518 54.5684 954.96 54.3027C954.436 54.0566 954.044 53.8203 953.782 53.5938C953.52 53.3672 953.311 53.1035 953.155 52.8027C952.999 52.502 952.921 52.1504 952.921 51.748C952.921 50.9902 953.177 50.3945 953.688 49.9609C954.204 49.5273 954.915 49.3105 955.821 49.3105C956.266 49.3105 956.69 49.3633 957.093 49.4688C957.499 49.5742 957.923 49.7227 958.364 49.9141L957.778 51.3262C957.321 51.1387 956.942 51.0078 956.641 50.9336C956.345 50.8594 956.052 50.8223 955.763 50.8223C955.419 50.8223 955.155 50.9023 954.971 51.0625C954.788 51.2227 954.696 51.4316 954.696 51.6895C954.696 51.8496 954.733 51.9902 954.807 52.1113C954.882 52.2285 954.999 52.3438 955.159 52.457C955.323 52.5664 955.708 52.7656 956.313 53.0547C957.114 53.4375 957.663 53.8223 957.96 54.209C958.257 54.5918 958.405 55.0625 958.405 55.6211ZM968.333 53.7051C968.333 55.123 967.982 56.2129 967.279 56.9746C966.575 57.7363 965.568 58.1172 964.255 58.1172C962.943 58.1172 961.935 57.7363 961.232 56.9746C960.529 56.2129 960.177 55.1191 960.177 53.6934C960.177 52.2676 960.529 51.1797 961.232 50.4297C961.939 49.6758 962.95 49.2988 964.267 49.2988C965.583 49.2988 966.589 49.6777 967.284 50.4355C967.984 51.1934 968.333 52.2832 968.333 53.7051ZM962.081 53.7051C962.081 54.6621 962.263 55.3828 962.626 55.8672C962.989 56.3516 963.532 56.5938 964.255 56.5938C965.704 56.5938 966.429 55.6309 966.429 53.7051C966.429 51.7754 965.708 50.8105 964.267 50.8105C963.544 50.8105 962.999 51.0547 962.632 51.543C962.265 52.0273 962.081 52.748 962.081 53.7051ZM978.484 53.7051C978.484 55.123 978.132 56.2129 977.429 56.9746C976.726 57.7363 975.718 58.1172 974.406 58.1172C973.093 58.1172 972.086 57.7363 971.382 56.9746C970.679 56.2129 970.328 55.1191 970.328 53.6934C970.328 52.2676 970.679 51.1797 971.382 50.4297C972.089 49.6758 973.101 49.2988 974.418 49.2988C975.734 49.2988 976.74 49.6777 977.435 50.4355C978.134 51.1934 978.484 52.2832 978.484 53.7051ZM972.232 53.7051C972.232 54.6621 972.414 55.3828 972.777 55.8672C973.14 56.3516 973.683 56.5938 974.406 56.5938C975.855 56.5938 976.58 55.6309 976.58 53.7051C976.58 51.7754 975.859 50.8105 974.418 50.8105C973.695 50.8105 973.15 51.0547 972.783 51.543C972.416 52.0273 972.232 52.748 972.232 53.7051ZM988.459 58H986.15L982.424 51.5195H982.371C982.445 52.6641 982.482 53.4805 982.482 53.9688V58H980.859V49.4336H983.15L986.871 55.8496H986.912C986.854 54.7363 986.824 53.9492 986.824 53.4883V49.4336H988.459V58Z" fill="#45846D"/>
<path d="M941.935 123.544L924.442 113.524C923.849 113.181 923.177 113 922.494 113C921.81 113 921.138 113.181 920.545 113.524L904.961 122.449L889.377 113.524C888.784 113.181 888.112 113 887.429 113C886.745 113 886.073 113.181 885.481 113.524L867.987 123.544C867.385 123.884 866.884 124.379 866.535 124.977C866.186 125.575 866.001 126.256 866 126.95V146.99C866.001 147.684 866.186 148.364 866.535 148.963C866.884 149.561 867.385 150.055 867.987 150.395L883.571 159.28V177.05C883.573 177.744 883.757 178.425 884.106 179.023C884.456 179.621 884.957 180.116 885.558 180.456L903.091 190.476C903.683 190.819 904.355 191 905.039 191C905.723 191 906.395 190.819 906.987 190.476L924.442 180.456C925.043 180.116 925.544 179.621 925.894 179.023C926.243 178.425 926.427 177.744 926.429 177.05V159.28L942.013 150.395C942.615 150.055 943.116 149.561 943.465 148.963C943.814 148.364 943.999 147.684 944 146.99V126.95C943.991 126.248 943.795 125.562 943.432 124.963C943.068 124.364 942.551 123.874 941.935 123.544ZM873.792 144.72V129.063L887.429 121.235L901.065 129.063V144.72L887.429 152.548L873.792 144.72ZM918.597 174.78L904.961 182.608L891.325 174.78V159.124L904.961 151.295L918.597 159.124V174.78ZM936.13 144.72L922.494 152.548L908.857 144.72V129.063L922.494 121.235L936.13 129.063V144.72Z" fill="#6E78FF"/>
<g filter="url(#filter4_d)">
<rect x="129.885" y="164.92" width="69.8373" height="11.1504" rx="5.57522" fill="#6E78FF"/>
</g>
<path d="M129.189 179.049C128.254 179.049 127.335 178.799 126.525 178.326C125.715 177.852 125.042 177.171 124.573 176.351C124.105 175.531 123.857 174.601 123.856 173.653C123.854 172.706 124.098 171.774 124.564 170.953L152.245 122.056V109.005H149.413C148.941 109.005 148.489 108.815 148.155 108.477C147.821 108.139 147.634 107.681 147.634 107.203V103.802C147.634 103.324 147.821 102.866 148.155 102.528C148.489 102.19 148.941 102 149.413 102H180.431C180.903 102 181.355 102.19 181.689 102.528C182.023 102.866 182.21 103.324 182.21 103.802V107.203C182.21 107.681 182.023 108.139 181.689 108.477C181.355 108.815 180.903 109.005 180.431 109.005H177.6V122.056L205.296 170.954C205.762 171.776 206.006 172.707 206.004 173.655C206.002 174.602 205.755 175.533 205.286 176.353C204.818 177.173 204.145 177.854 203.335 178.327C202.525 178.801 201.606 179.051 200.671 179.051L129.189 179.049Z" fill="#6E78FF"/>
<path d="M156.117 167.945C154.405 167.945 152.871 167.663 151.515 167.099C150.159 166.534 149.07 165.7 148.247 164.594C147.447 163.488 147.024 162.157 146.98 160.6H153.049C153.138 161.48 153.438 162.157 153.95 162.631C154.461 163.082 155.128 163.307 155.951 163.307C156.795 163.307 157.462 163.116 157.952 162.732C158.441 162.326 158.685 161.773 158.685 161.073C158.685 160.487 158.485 160.002 158.085 159.618C157.707 159.234 157.229 158.918 156.651 158.67C156.095 158.422 155.295 158.14 154.25 157.824C152.738 157.35 151.504 156.876 150.548 156.402C149.592 155.928 148.769 155.229 148.08 154.304C147.391 153.378 147.046 152.171 147.046 150.682C147.046 148.47 147.836 146.744 149.414 145.503C150.993 144.239 153.049 143.607 155.584 143.607C158.163 143.607 160.242 144.239 161.82 145.503C163.399 146.744 164.243 148.481 164.355 150.715H158.185C158.141 149.948 157.863 149.35 157.351 148.921C156.84 148.47 156.184 148.244 155.384 148.244C154.694 148.244 154.139 148.436 153.716 148.82C153.294 149.181 153.083 149.711 153.083 150.411C153.083 151.178 153.438 151.776 154.15 152.205C154.861 152.634 155.973 153.096 157.485 153.593C158.996 154.112 160.219 154.608 161.153 155.082C162.109 155.556 162.932 156.244 163.621 157.147C164.31 158.05 164.655 159.212 164.655 160.633C164.655 161.987 164.31 163.217 163.621 164.323C162.954 165.429 161.976 166.309 160.686 166.963C159.397 167.618 157.874 167.945 156.117 167.945Z" fill="white"/>
<ellipse cx="177.359" cy="163.327" rx="4.70813" ry="4.77876" fill="white"/>
<ellipse cx="180.301" cy="151.181" rx="3.33493" ry="3.38496" fill="white"/>
<ellipse cx="172.062" cy="148.394" rx="2.1579" ry="2.19026" fill="white"/>
<ellipse cx="172.847" cy="138.438" rx="2.55024" ry="2.5885" fill="white"/>
</g>
<defs>
<filter id="filter0_d" x="10" y="29" width="310" height="300" filterUnits="userSpaceOnUse" color-interpolation-filters="sRGB">
<feFlood flood-opacity="0" result="BackgroundImageFix"/>
<feColorMatrix in="SourceAlpha" type="matrix" values="0 0 0 0 0 0 0 0 0 0 0 0 0 0 0 0 0 0 127 0"/>
<feOffset dy="20"/>
<feGaussianBlur stdDeviation="22.5"/>
<feColorMatrix type="matrix" values="0 0 0 0 0 0 0 0 0 0 0 0 0 0 0 0 0 0 0.08 0"/>
<feBlend mode="normal" in2="BackgroundImageFix" result="effect1_dropShadow"/>
<feBlend mode="normal" in="SourceGraphic" in2="effect1_dropShadow" result="shape"/>
</filter>
<filter id="filter1_d" x="750" y="29" width="310" height="300" filterUnits="userSpaceOnUse" color-interpolation-filters="sRGB">
<feFlood flood-opacity="0" result="BackgroundImageFix"/>
<feColorMatrix in="SourceAlpha" type="matrix" values="0 0 0 0 0 0 0 0 0 0 0 0 0 0 0 0 0 0 127 0"/>
<feOffset dy="20"/>
<feGaussianBlur stdDeviation="22.5"/>
<feColorMatrix type="matrix" values="0 0 0 0 0 0 0 0 0 0 0 0 0 0 0 0 0 0 0.08 0"/>
<feBlend mode="normal" in2="BackgroundImageFix" result="effect1_dropShadow"/>
<feBlend mode="normal" in="SourceGraphic" in2="effect1_dropShadow" result="shape"/>
</filter>
<filter id="filter2_d" x="201" y="389" width="310" height="300" filterUnits="userSpaceOnUse" color-interpolation-filters="sRGB">
<feFlood flood-opacity="0" result="BackgroundImageFix"/>
<feColorMatrix in="SourceAlpha" type="matrix" values="0 0 0 0 0 0 0 0 0 0 0 0 0 0 0 0 0 0 127 0"/>
<feOffset dy="20"/>
<feGaussianBlur stdDeviation="22.5"/>
<feColorMatrix type="matrix" values="0 0 0 0 0 0 0 0 0 0 0 0 0 0 0 0 0 0 0.08 0"/>
<feBlend mode="normal" in2="BackgroundImageFix" result="effect1_dropShadow"/>
<feBlend mode="normal" in="SourceGraphic" in2="effect1_dropShadow" result="shape"/>
</filter>
<filter id="filter3_d" x="380" y="29" width="310" height="300" filterUnits="userSpaceOnUse" color-interpolation-filters="sRGB">
<feFlood flood-opacity="0" result="BackgroundImageFix"/>
<feColorMatrix in="SourceAlpha" type="matrix" values="0 0 0 0 0 0 0 0 0 0 0 0 0 0 0 0 0 0 127 0"/>
<feOffset dy="20"/>
<feGaussianBlur stdDeviation="22.5"/>
<feColorMatrix type="matrix" values="0 0 0 0 0 0 0 0 0 0 0 0 0 0 0 0 0 0 0.08 0"/>
<feBlend mode="normal" in2="BackgroundImageFix" result="effect1_dropShadow"/>
<feBlend mode="normal" in="SourceGraphic" in2="effect1_dropShadow" result="shape"/>
</filter>
<filter id="filter4_d" x="109.885" y="148.92" width="109.837" height="51.1504" filterUnits="userSpaceOnUse" color-interpolation-filters="sRGB">
<feFlood flood-opacity="0" result="BackgroundImageFix"/>
<feColorMatrix in="SourceAlpha" type="matrix" values="0 0 0 0 0 0 0 0 0 0 0 0 0 0 0 0 0 0 127 0"/>
<feOffset dy="4"/>
<feGaussianBlur stdDeviation="10"/>
<feColorMatrix type="matrix" values="0 0 0 0 0 0 0 0 0 0.0839841 0 0 0 0 1 0 0 0 0.4 0"/>
<feBlend mode="normal" in2="BackgroundImageFix" result="effect1_dropShadow"/>
<feBlend mode="normal" in="SourceGraphic" in2="effect1_dropShadow" result="shape"/>
</filter>
<clipPath id="clip0">
<rect width="1070" height="675" fill="white"/>
</clipPath>
</defs>
</svg>
