<svg xmlns="http://www.w3.org/2000/svg" width="77.04" height="30.529" viewBox="0 0 77.04 30.529"><g transform="translate(-93 -50.105)"><path d="M36.749,14.558H32.169V13.032a6.106,6.106,0,0,0-12.211,0v1.526H15.379a1.533,1.533,0,0,0-1.526,1.526V32.875a4.6,4.6,0,0,0,4.579,4.579H33.7a4.6,4.6,0,0,0,4.579-4.579V16.085A1.533,1.533,0,0,0,36.749,14.558ZM23.011,13.032a3.053,3.053,0,0,1,6.106,0v1.526H23.011ZM35.222,32.875A1.533,1.533,0,0,1,33.7,34.4H18.431A1.533,1.533,0,0,1,16.9,32.875V17.611h3.053v1.526a1.526,1.526,0,0,0,3.053,0V17.611h6.106v1.526a1.526,1.526,0,0,0,3.053,0V17.611h3.053Z" transform="translate(79.148 43.179)" fill="#6e78ff"/><path d="M8.251-14.885A2.608,2.608,0,0,1,7.875-13.5,2.757,2.757,0,0,1,6.749-12.5a3.928,3.928,0,0,1-1.811.376A4.22,4.22,0,0,1,2.31-12.9a2.86,2.86,0,0,1-1.127-2.173H3.624a1.254,1.254,0,0,0,.389.845,1.179,1.179,0,0,0,.831.308.98.98,0,0,0,.7-.241A.829.829,0,0,0,5.8-14.8a.864.864,0,0,0-.228-.6,2.085,2.085,0,0,0-.59-.4q-.342-.141-.966-.362a10.347,10.347,0,0,1-1.475-.6,2.549,2.549,0,0,1-.966-.858,2.4,2.4,0,0,1-.416-1.475,2.538,2.538,0,0,1,.429-1.462,2.741,2.741,0,0,1,1.194-.952,4.328,4.328,0,0,1,1.73-.322,3.883,3.883,0,0,1,2.508.751,2.841,2.841,0,0,1,1.059,2.065H5.6a1.342,1.342,0,0,0-.335-.751,1.071,1.071,0,0,0-.751-.268.97.97,0,0,0-.657.215.8.8,0,0,0-.241.63.874.874,0,0,0,.215.577,1.881,1.881,0,0,0,.563.376c.228.094.55.228.966.376a10.592,10.592,0,0,1,1.489.6,2.824,2.824,0,0,1,.992.885A2.488,2.488,0,0,1,8.251-14.885Z" transform="translate(100.277 86.328)" fill="#6e78ff"/><path d="M4.536-1.592a1.559,1.559,0,0,1-.228.824,1.608,1.608,0,0,1-.672.6A2.368,2.368,0,0,1,2.56.056,2.534,2.534,0,0,1,.992-.408,1.681,1.681,0,0,1,.32-1.7H1.776A.768.768,0,0,0,2-1.2a.7.7,0,0,0,.5.184A.58.58,0,0,0,2.92-1.16a.5.5,0,0,0,.152-.384.5.5,0,0,0-.14-.36,1.1,1.1,0,0,0-.348-.236q-.208-.092-.576-.22a7.072,7.072,0,0,1-.876-.356,1.613,1.613,0,0,1-.584-.512A1.482,1.482,0,0,1,.3-4.112,1.488,1.488,0,0,1,.56-4.984a1.627,1.627,0,0,1,.708-.564,2.582,2.582,0,0,1,1.036-.2A2.323,2.323,0,0,1,3.8-5.3a1.709,1.709,0,0,1,.628,1.232H2.952a.759.759,0,0,0-.2-.444A.6.6,0,0,0,2.3-4.672a.572.572,0,0,0-.388.128.47.47,0,0,0-.148.376.477.477,0,0,0,.132.34,1.006,1.006,0,0,0,.332.228q.2.088.576.224a6.331,6.331,0,0,1,.888.364,1.7,1.7,0,0,1,.592.524A1.5,1.5,0,0,1,4.536-1.592Zm3.592-2.92A1.545,1.545,0,0,1,9.348-4,2.054,2.054,0,0,1,9.8-2.592V0H8.432V-2.432a.984.984,0,0,0-.236-.7.82.82,0,0,0-.628-.252.855.855,0,0,0-.66.264,1.068,1.068,0,0,0-.244.752V0H5.3V-5.92H6.664v2.272a1.472,1.472,0,0,1,.572-.632A1.678,1.678,0,0,1,8.128-4.512Zm4.664-.008a2.51,2.51,0,0,1,1.188.276,2.023,2.023,0,0,1,.824.8,2.39,2.39,0,0,1,.3,1.216,2.39,2.39,0,0,1-.3,1.216,2.023,2.023,0,0,1-.824.8,2.51,2.51,0,0,1-1.188.276A2.534,2.534,0,0,1,11.6-.22a2.017,2.017,0,0,1-.828-.8,2.39,2.39,0,0,1-.3-1.216,2.39,2.39,0,0,1,.3-1.216,2.017,2.017,0,0,1,.828-.8A2.534,2.534,0,0,1,12.792-4.52Zm0,1.184a.872.872,0,0,0-.66.284,1.15,1.15,0,0,0-.268.82,1.136,1.136,0,0,0,.268.816.878.878,0,0,0,.66.28.865.865,0,0,0,.656-.28,1.147,1.147,0,0,0,.264-.816,1.162,1.162,0,0,0-.264-.82A.859.859,0,0,0,12.792-3.336ZM18.6-4.52a1.808,1.808,0,0,1,.988.276,1.893,1.893,0,0,1,.688.792,2.752,2.752,0,0,1,.252,1.22,2.759,2.759,0,0,1-.252,1.216,1.888,1.888,0,0,1-.688.8A1.808,1.808,0,0,1,18.6.056a1.616,1.616,0,0,1-.88-.232,1.347,1.347,0,0,1-.536-.632V2.128H15.816V-4.464h1.368v.808a1.347,1.347,0,0,1,.536-.632A1.616,1.616,0,0,1,18.6-4.52Zm-.44,1.2a.931.931,0,0,0-.708.292,1.112,1.112,0,0,0-.276.8,1.115,1.115,0,0,0,.276.792.925.925,0,0,0,.708.3.921.921,0,0,0,.708-.288,1.129,1.129,0,0,0,.268-.8,1.129,1.129,0,0,0-.268-.8A.922.922,0,0,0,18.16-3.32Zm2.952-2.4a.668.668,0,0,1,.224-.516.845.845,0,0,1,.592-.2.845.845,0,0,1,.592.2.668.668,0,0,1,.224.516.659.659,0,0,1-.224.508.845.845,0,0,1-.592.2.845.845,0,0,1-.592-.2A.659.659,0,0,1,21.112-5.72Zm1.5,1.256V0H21.24V-4.464Zm3.136-.608a.693.693,0,0,0-.488.144.663.663,0,0,0-.168.464H25.9v1.152h-.808V0H23.72V-3.312h-.536V-4.464h.536v-.048A1.671,1.671,0,0,1,24.2-5.8a1.984,1.984,0,0,1,1.4-.452q.192,0,.288.008v1.176Zm1.784.608L28.6-1.728l1-2.736h1.512L28.328,2.128h-1.5l1.048-2.3L26-4.464ZM4.536,2.344V3.432H3V8H1.624V3.432H.1V2.344ZM7.944,3.488A1.545,1.545,0,0,1,9.164,4a2.054,2.054,0,0,1,.452,1.408V8H8.248V5.568a.984.984,0,0,0-.236-.7.82.82,0,0,0-.628-.252.855.855,0,0,0-.66.264,1.068,1.068,0,0,0-.244.752V8H5.112V2.08H6.48V4.352a1.472,1.472,0,0,1,.572-.632A1.678,1.678,0,0,1,7.944,3.488Zm6.816,2.16a1.887,1.887,0,0,1-.04.368h-3.1a1.035,1.035,0,0,0,.256.724.826.826,0,0,0,.592.22.809.809,0,0,0,.5-.152.71.71,0,0,0,.264-.392h1.448a1.892,1.892,0,0,1-.384.844,2.047,2.047,0,0,1-.752.584,2.568,2.568,0,0,1-2.18-.064,1.972,1.972,0,0,1-.8-.8,2.47,2.47,0,0,1-.288-1.216,2.492,2.492,0,0,1,.284-1.22,1.946,1.946,0,0,1,.8-.792,2.626,2.626,0,0,1,2.336,0,1.922,1.922,0,0,1,.78.764A2.274,2.274,0,0,1,14.76,5.648ZM13.376,5.44a.822.822,0,0,0-.236-.66.869.869,0,0,0-.6-.22.9.9,0,0,0-.624.224.938.938,0,0,0-.28.656Zm7.88-1.952a1.682,1.682,0,0,1,1.3.508,2,2,0,0,1,.472,1.412V8h-1.36V5.568a.911.911,0,0,0-.228-.66.822.822,0,0,0-.62-.236.84.84,0,0,0-.644.252,1,1,0,0,0-.236.708V8H18.568V5.568a.92.92,0,0,0-.224-.66.809.809,0,0,0-.616-.236.86.86,0,0,0-.648.248.983.983,0,0,0-.24.712V8H15.472V3.536H16.84V4.3a1.332,1.332,0,0,1,.54-.592,1.638,1.638,0,0,1,.852-.216,1.718,1.718,0,0,1,.9.236,1.482,1.482,0,0,1,.592.676,1.788,1.788,0,0,1,.636-.664A1.672,1.672,0,0,1,21.256,3.488ZM23.808,2.28a.668.668,0,0,1,.224-.516.961.961,0,0,1,1.184,0,.668.668,0,0,1,.224.516.659.659,0,0,1-.224.508.961.961,0,0,1-1.184,0A.659.659,0,0,1,23.808,2.28Zm1.5,1.256V8H23.936V3.536Zm3.776-.048A1.545,1.545,0,0,1,30.3,4a2.054,2.054,0,0,1,.452,1.408V8H29.384V5.568a.984.984,0,0,0-.236-.7.82.82,0,0,0-.628-.252.855.855,0,0,0-.66.264,1.068,1.068,0,0,0-.244.752V8H26.248V3.536h1.368v.816a1.472,1.472,0,0,1,.572-.632A1.678,1.678,0,0,1,29.08,3.488Zm4.272-.008a1.616,1.616,0,0,1,.88.232,1.4,1.4,0,0,1,.544.632V3.536h1.36v4.44A2.565,2.565,0,0,1,35.9,9.1a1.841,1.841,0,0,1-.736.8,2.368,2.368,0,0,1-1.232.3,2.532,2.532,0,0,1-1.612-.476,1.937,1.937,0,0,1-.724-1.292h1.352a.678.678,0,0,0,.292.424,1.056,1.056,0,0,0,.6.152.959.959,0,0,0,.684-.244,1.027,1.027,0,0,0,.26-.78V7.192a1.4,1.4,0,0,1-.544.632,1.616,1.616,0,0,1-.88.232,1.808,1.808,0,0,1-.988-.276,1.888,1.888,0,0,1-.688-.8,2.759,2.759,0,0,1-.252-1.216,2.752,2.752,0,0,1,.252-1.22,1.893,1.893,0,0,1,.688-.792A1.808,1.808,0,0,1,33.352,3.48Zm.44,1.2a.921.921,0,0,0-.708.288,1.129,1.129,0,0,0-.268.8,1.129,1.129,0,0,0,.268.8A1,1,0,0,0,34.5,6.56a1.115,1.115,0,0,0,.276-.792,1.112,1.112,0,0,0-.276-.8A.931.931,0,0,0,33.792,4.68Zm7.552.432L43.624,8H41.968l-1.92-2.536V8H38.68V2.344h1.368V4.832l1.936-2.488h1.64ZM44.072,2.28a.668.668,0,0,1,.224-.516.961.961,0,0,1,1.184,0,.668.668,0,0,1,.224.516.659.659,0,0,1-.224.508.961.961,0,0,1-1.184,0A.659.659,0,0,1,44.072,2.28Zm1.5,1.256V8H44.2V3.536ZM49.04,6.824V8h-.616a1.773,1.773,0,0,1-1.22-.388,1.645,1.645,0,0,1-.436-1.284V4.688h-.6V3.536h.6V2.44h1.368v1.1h.9V4.688h-.9V6.352a.5.5,0,0,0,.108.368.516.516,0,0,0,.364.1Z" transform="translate(121 68)" fill="#6e78ff"/></g></svg>