<svg width="650" height="239" viewBox="0 0 650 239" fill="none" xmlns="http://www.w3.org/2000/svg">
<g clip-path="url(#clip0)">
<rect y="85" width="159" height="141" rx="16" fill="#2D3171"/>
<path d="M79.3568 132.655C101.897 132.655 120.169 114.421 120.169 91.9274C120.169 69.434 101.897 51.1995 79.3568 51.1995C56.8169 51.1995 38.5447 69.434 38.5447 91.9274C38.5447 114.421 56.8169 132.655 79.3568 132.655Z" stroke="#2D3171" stroke-width="14"/>
<g filter="url(#filter0_d)">
<rect x="46" y="158" width="178" height="28" rx="14" fill="#6E78FF"/>
</g>
<path d="M44.2267 193.48C41.8426 193.478 39.5008 192.851 37.4359 191.662C35.3711 190.473 33.6557 188.763 32.4616 186.704C31.2675 184.644 30.6366 182.308 30.6322 179.929C30.6278 177.55 31.25 175.211 32.4365 173.148L102.991 50.3622V17.5899H95.7723C94.5696 17.5899 93.4162 17.1131 92.5658 16.2645C91.7154 15.4158 91.2376 14.2648 91.2376 13.0646V4.52532C91.2376 3.32513 91.7154 2.1741 92.5658 1.32543C93.4162 0.476773 94.5696 0 95.7723 0L174.83 0C176.032 0 177.186 0.476773 178.036 1.32543C178.887 2.1741 179.364 3.32513 179.364 4.52532V13.0646C179.364 14.2648 178.887 15.4158 178.036 16.2645C177.186 17.1131 176.032 17.5899 174.83 17.5899H167.615V50.3622L238.206 173.152C239.393 175.216 240.015 177.554 240.011 179.933C240.006 182.313 239.375 184.649 238.181 186.708C236.987 188.767 235.272 190.477 233.207 191.667C231.142 192.856 228.8 193.483 226.416 193.484L44.2267 193.48Z" fill="#6E78FF"/>
<path d="M112.86 165.595C108.497 165.595 104.587 164.887 101.13 163.47C97.6733 162.053 94.8967 159.957 92.8 157.18C90.76 154.403 89.6833 151.06 89.57 147.15H105.04C105.267 149.36 106.032 151.06 107.335 152.25C108.638 153.383 110.338 153.95 112.435 153.95C114.588 153.95 116.288 153.468 117.535 152.505C118.782 151.485 119.405 150.097 119.405 148.34C119.405 146.867 118.895 145.648 117.875 144.685C116.912 143.722 115.693 142.928 114.22 142.305C112.803 141.682 110.763 140.973 108.1 140.18C104.247 138.99 101.102 137.8 98.665 136.61C96.2283 135.42 94.1317 133.663 92.375 131.34C90.6183 129.017 89.74 125.985 89.74 122.245C89.74 116.692 91.7517 112.357 95.775 109.24C99.7983 106.067 105.04 104.48 111.5 104.48C118.073 104.48 123.372 106.067 127.395 109.24C131.418 112.357 133.572 116.72 133.855 122.33H118.13C118.017 120.403 117.308 118.902 116.005 117.825C114.702 116.692 113.03 116.125 110.99 116.125C109.233 116.125 107.817 116.607 106.74 117.57C105.663 118.477 105.125 119.808 105.125 121.565C105.125 123.492 106.032 124.993 107.845 126.07C109.658 127.147 112.492 128.308 116.345 129.555C120.198 130.858 123.315 132.105 125.695 133.295C128.132 134.485 130.228 136.213 131.985 138.48C133.742 140.747 134.62 143.665 134.62 147.235C134.62 150.635 133.742 153.723 131.985 156.5C130.285 159.277 127.792 161.487 124.505 163.13C121.218 164.773 117.337 165.595 112.86 165.595Z" fill="white"/>
<circle cx="167" cy="154" r="12" fill="white"/>
<circle cx="174.5" cy="123.5" r="8.5" fill="white"/>
<circle cx="153.5" cy="116.5" r="5.5" fill="white"/>
<circle cx="155.5" cy="91.5" r="6.5" fill="white"/>
<path d="M293.488 99.476C289.997 99.476 286.869 98.9093 284.104 97.776C281.339 96.6427 279.117 94.9653 277.44 92.744C275.808 90.5227 274.947 87.848 274.856 84.72H287.232C287.413 86.488 288.025 87.848 289.068 88.8C290.111 89.7067 291.471 90.16 293.148 90.16C294.871 90.16 296.231 89.7747 297.228 89.004C298.225 88.188 298.724 87.0773 298.724 85.672C298.724 84.4933 298.316 83.5187 297.5 82.748C296.729 81.9773 295.755 81.3427 294.576 80.844C293.443 80.3453 291.811 79.7787 289.68 79.144C286.597 78.192 284.081 77.24 282.132 76.288C280.183 75.336 278.505 73.9307 277.1 72.072C275.695 70.2133 274.992 67.788 274.992 64.796C274.992 60.3533 276.601 56.8853 279.82 54.392C283.039 51.8533 287.232 50.584 292.4 50.584C297.659 50.584 301.897 51.8533 305.116 54.392C308.335 56.8853 310.057 60.376 310.284 64.864H297.704C297.613 63.3227 297.047 62.1213 296.004 61.26C294.961 60.3533 293.624 59.9 291.992 59.9C290.587 59.9 289.453 60.2853 288.592 61.056C287.731 61.7813 287.3 62.8467 287.3 64.252C287.3 65.7933 288.025 66.9947 289.476 67.856C290.927 68.7173 293.193 69.6467 296.276 70.644C299.359 71.6867 301.852 72.684 303.756 73.636C305.705 74.588 307.383 75.9707 308.788 77.784C310.193 79.5973 310.896 81.932 310.896 84.788C310.896 87.508 310.193 89.9787 308.788 92.2C307.428 94.4213 305.433 96.1893 302.804 97.504C300.175 98.8187 297.069 99.476 293.488 99.476ZM341.376 60.648C345.728 60.648 349.219 62.0987 351.848 65C354.477 67.856 355.792 71.8 355.792 76.832V99H344.232V78.396C344.232 75.8573 343.575 73.8853 342.26 72.48C340.945 71.0747 339.177 70.372 336.956 70.372C334.735 70.372 332.967 71.0747 331.652 72.48C330.337 73.8853 329.68 75.8573 329.68 78.396V99H318.052V48.68H329.68V66.156C330.859 64.4787 332.468 63.1413 334.508 62.144C336.548 61.1467 338.837 60.648 341.376 60.648ZM381.144 99.544C377.427 99.544 374.072 98.7507 371.08 97.164C368.134 95.5773 365.799 93.3107 364.076 90.364C362.399 87.4173 361.56 83.972 361.56 80.028C361.56 76.1293 362.422 72.7067 364.144 69.76C365.867 66.768 368.224 64.4787 371.216 62.892C374.208 61.3053 377.563 60.512 381.28 60.512C384.998 60.512 388.352 61.3053 391.344 62.892C394.336 64.4787 396.694 66.768 398.416 69.76C400.139 72.7067 401 76.1293 401 80.028C401 83.9267 400.116 87.372 398.348 90.364C396.626 93.3107 394.246 95.5773 391.208 97.164C388.216 98.7507 384.862 99.544 381.144 99.544ZM381.144 89.48C383.366 89.48 385.247 88.664 386.788 87.032C388.375 85.4 389.168 83.0653 389.168 80.028C389.168 76.9907 388.398 74.656 386.856 73.024C385.36 71.392 383.502 70.576 381.28 70.576C379.014 70.576 377.132 71.392 375.636 73.024C374.14 74.6107 373.392 76.9453 373.392 80.028C373.392 83.0653 374.118 85.4 375.568 87.032C377.064 88.664 378.923 89.48 381.144 89.48ZM418.797 66.428C419.93 64.66 421.494 63.232 423.489 62.144C425.484 61.056 427.818 60.512 430.493 60.512C433.621 60.512 436.454 61.3053 438.993 62.892C441.532 64.4787 443.526 66.7453 444.977 69.692C446.473 72.6387 447.221 76.0613 447.221 79.96C447.221 83.8587 446.473 87.304 444.977 90.296C443.526 93.2427 441.532 95.532 438.993 97.164C436.454 98.7507 433.621 99.544 430.493 99.544C427.864 99.544 425.529 99 423.489 97.912C421.494 96.824 419.93 95.4187 418.797 93.696V117.088H407.169V61.056H418.797V66.428ZM435.389 79.96C435.389 77.0587 434.573 74.792 432.941 73.16C431.354 71.4827 429.382 70.644 427.025 70.644C424.713 70.644 422.741 71.4827 421.109 73.16C419.522 74.8373 418.729 77.1267 418.729 80.028C418.729 82.9293 419.522 85.2187 421.109 86.896C422.741 88.5733 424.713 89.412 427.025 89.412C429.337 89.412 431.309 88.5733 432.941 86.896C434.573 85.1733 435.389 82.8613 435.389 79.96ZM459.169 57.112C457.129 57.112 455.452 56.5227 454.137 55.344C452.868 54.12 452.233 52.624 452.233 50.856C452.233 49.0427 452.868 47.5467 454.137 46.368C455.452 45.144 457.129 44.532 459.169 44.532C461.164 44.532 462.796 45.144 464.065 46.368C465.38 47.5467 466.037 49.0427 466.037 50.856C466.037 52.624 465.38 54.12 464.065 55.344C462.796 56.5227 461.164 57.112 459.169 57.112ZM464.949 61.056V99H453.321V61.056H464.949ZM492.416 70.712H486.16V99H474.532V70.712H470.316V61.056H474.532V59.968C474.532 55.2987 475.869 51.7627 478.544 49.36C481.219 46.912 485.14 45.688 490.308 45.688C491.169 45.688 491.804 45.7107 492.212 45.756V55.616C489.991 55.48 488.427 55.7973 487.52 56.568C486.613 57.3387 486.16 58.7213 486.16 60.716V61.056H492.416V70.712ZM536.64 61.056L512.84 117.02H500.328L509.032 97.708L493.596 61.056H506.584L515.356 84.788L524.06 61.056H536.64ZM310.556 119.264V128.58H297.908V167H286.28V128.58H273.632V119.264H310.556ZM339.716 128.648C344.068 128.648 347.558 130.099 350.188 133C352.817 135.856 354.132 139.8 354.132 144.832V167H342.572V146.396C342.572 143.857 341.914 141.885 340.6 140.48C339.285 139.075 337.517 138.372 335.296 138.372C333.074 138.372 331.306 139.075 329.992 140.48C328.677 141.885 328.02 143.857 328.02 146.396V167H316.392V116.68H328.02V134.156C329.198 132.479 330.808 131.141 332.848 130.144C334.888 129.147 337.177 128.648 339.716 128.648ZM397.98 147.416C397.98 148.504 397.912 149.637 397.776 150.816H371.46C371.641 153.173 372.389 154.987 373.704 156.256C375.064 157.48 376.719 158.092 378.668 158.092C381.569 158.092 383.587 156.868 384.72 154.42H397.096C396.461 156.913 395.305 159.157 393.628 161.152C391.996 163.147 389.933 164.711 387.44 165.844C384.947 166.977 382.159 167.544 379.076 167.544C375.359 167.544 372.049 166.751 369.148 165.164C366.247 163.577 363.98 161.311 362.348 158.364C360.716 155.417 359.9 151.972 359.9 148.028C359.9 144.084 360.693 140.639 362.28 137.692C363.912 134.745 366.179 132.479 369.08 130.892C371.981 129.305 375.313 128.512 379.076 128.512C382.748 128.512 386.012 129.283 388.868 130.824C391.724 132.365 393.945 134.564 395.532 137.42C397.164 140.276 397.98 143.608 397.98 147.416ZM386.08 144.356C386.08 142.361 385.4 140.775 384.04 139.596C382.68 138.417 380.98 137.828 378.94 137.828C376.991 137.828 375.336 138.395 373.976 139.528C372.661 140.661 371.845 142.271 371.528 144.356H386.08ZM452.53 128.648C457.245 128.648 460.985 130.076 463.75 132.932C466.561 135.788 467.966 139.755 467.966 144.832V167H456.406V146.396C456.406 143.948 455.749 142.067 454.434 140.752C453.165 139.392 451.397 138.712 449.13 138.712C446.864 138.712 445.073 139.392 443.758 140.752C442.489 142.067 441.854 143.948 441.854 146.396V167H430.294V146.396C430.294 143.948 429.637 142.067 428.322 140.752C427.053 139.392 425.285 138.712 423.018 138.712C420.752 138.712 418.961 139.392 417.646 140.752C416.377 142.067 415.742 143.948 415.742 146.396V167H404.114V129.056H415.742V133.816C416.921 132.229 418.462 130.983 420.366 130.076C422.27 129.124 424.424 128.648 426.826 128.648C429.682 128.648 432.221 129.26 434.442 130.484C436.709 131.708 438.477 133.453 439.746 135.72C441.061 133.635 442.852 131.935 445.118 130.62C447.385 129.305 449.856 128.648 452.53 128.648ZM511.867 147.416C511.867 148.504 511.799 149.637 511.663 150.816H485.347C485.528 153.173 486.276 154.987 487.591 156.256C488.951 157.48 490.605 158.092 492.555 158.092C495.456 158.092 497.473 156.868 498.607 154.42H510.983C510.348 156.913 509.192 159.157 507.515 161.152C505.883 163.147 503.82 164.711 501.327 165.844C498.833 166.977 496.045 167.544 492.963 167.544C489.245 167.544 485.936 166.751 483.035 165.164C480.133 163.577 477.867 161.311 476.235 158.364C474.603 155.417 473.787 151.972 473.787 148.028C473.787 144.084 474.58 140.639 476.167 137.692C477.799 134.745 480.065 132.479 482.967 130.892C485.868 129.305 489.2 128.512 492.963 128.512C496.635 128.512 499.899 129.283 502.755 130.824C505.611 132.365 507.832 134.564 509.419 137.42C511.051 140.276 511.867 143.608 511.867 147.416ZM499.967 144.356C499.967 142.361 499.287 140.775 497.927 139.596C496.567 138.417 494.867 137.828 492.827 137.828C490.877 137.828 489.223 138.395 487.863 139.528C486.548 140.661 485.732 142.271 485.415 144.356H499.967ZM544.039 158.024H559.271V167H532.411V119.264H544.039V158.024ZM562.506 147.96C562.506 144.061 563.231 140.639 564.682 137.692C566.178 134.745 568.195 132.479 570.734 130.892C573.272 129.305 576.106 128.512 579.234 128.512C581.908 128.512 584.243 129.056 586.238 130.144C588.278 131.232 589.842 132.66 590.93 134.428V129.056H602.558V167H590.93V161.628C589.796 163.396 588.21 164.824 586.17 165.912C584.175 167 581.84 167.544 579.166 167.544C576.083 167.544 573.272 166.751 570.734 165.164C568.195 163.532 566.178 161.243 564.682 158.296C563.231 155.304 562.506 151.859 562.506 147.96ZM590.93 148.028C590.93 145.127 590.114 142.837 588.482 141.16C586.895 139.483 584.946 138.644 582.634 138.644C580.322 138.644 578.35 139.483 576.718 141.16C575.131 142.792 574.338 145.059 574.338 147.96C574.338 150.861 575.131 153.173 576.718 154.896C578.35 156.573 580.322 157.412 582.634 157.412C584.946 157.412 586.895 156.573 588.482 154.896C590.114 153.219 590.93 150.929 590.93 148.028ZM622.598 134.428C623.686 132.66 625.25 131.232 627.29 130.144C629.33 129.056 631.665 128.512 634.294 128.512C637.422 128.512 640.255 129.305 642.794 130.892C645.333 132.479 647.327 134.745 648.778 137.692C650.274 140.639 651.022 144.061 651.022 147.96C651.022 151.859 650.274 155.304 648.778 158.296C647.327 161.243 645.333 163.532 642.794 165.164C640.255 166.751 637.422 167.544 634.294 167.544C631.619 167.544 629.285 167.023 627.29 165.98C625.295 164.892 623.731 163.464 622.598 161.696V167H610.97V116.68H622.598V134.428ZM639.19 147.96C639.19 145.059 638.374 142.792 636.742 141.16C635.155 139.483 633.183 138.644 630.826 138.644C628.514 138.644 626.542 139.483 624.91 141.16C623.323 142.837 622.53 145.127 622.53 148.028C622.53 150.929 623.323 153.219 624.91 154.896C626.542 156.573 628.514 157.412 630.826 157.412C633.138 157.412 635.11 156.573 636.742 154.896C638.374 153.173 639.19 150.861 639.19 147.96Z" fill="#6E78FF"/>
</g>
<defs>
<filter id="filter0_d" x="16" y="143" width="238" height="88" filterUnits="userSpaceOnUse" color-interpolation-filters="sRGB">
<feFlood flood-opacity="0" result="BackgroundImageFix"/>
<feColorMatrix in="SourceAlpha" type="matrix" values="0 0 0 0 0 0 0 0 0 0 0 0 0 0 0 0 0 0 127 0"/>
<feOffset dy="15"/>
<feGaussianBlur stdDeviation="15"/>
<feColorMatrix type="matrix" values="0 0 0 0 0.27451 0 0 0 0 0.294271 0 0 0 0 0.509804 0 0 0 0.4 0"/>
<feBlend mode="normal" in2="BackgroundImageFix" result="effect1_dropShadow"/>
<feBlend mode="normal" in="SourceGraphic" in2="effect1_dropShadow" result="shape"/>
</filter>
<clipPath id="clip0">
<rect width="650" height="239" fill="white"/>
</clipPath>
</defs>
</svg>
