<svg xmlns="http://www.w3.org/2000/svg" xmlns:xlink="http://www.w3.org/1999/xlink" width="143.34" height="52.814" viewBox="0 0 143.34 52.814"><defs><filter id="a" x="3" y="31.814" width="53" height="21" filterUnits="userSpaceOnUse"><feOffset dy="3" input="SourceAlpha"/><feGaussianBlur stdDeviation="3" result="b"/><feFlood flood-color="#29308e"/><feComposite operator="in" in2="b"/><feComposite in="SourceGraphic"/></filter></defs><g transform="translate(-89 -65)"><path d="M8.505-2.985A2.924,2.924,0,0,1,8.078-1.44,3.015,3.015,0,0,1,6.818-.315,4.439,4.439,0,0,1,4.8.105a4.752,4.752,0,0,1-2.94-.87A3.152,3.152,0,0,1,.6-3.2H3.33a1.441,1.441,0,0,0,.428.945,1.315,1.315,0,0,0,.937.345,1.088,1.088,0,0,0,.78-.27.945.945,0,0,0,.285-.72A.93.93,0,0,0,5.5-3.57a2.058,2.058,0,0,0-.653-.443q-.39-.173-1.08-.412a13.26,13.26,0,0,1-1.643-.668,3.025,3.025,0,0,1-1.1-.96A2.778,2.778,0,0,1,.57-7.71a2.791,2.791,0,0,1,.48-1.635A3.051,3.051,0,0,1,2.378-10.4,4.842,4.842,0,0,1,4.32-10.77a4.355,4.355,0,0,1,2.813.84A3.205,3.205,0,0,1,8.31-7.62H5.535a1.423,1.423,0,0,0-.383-.832A1.125,1.125,0,0,0,4.32-8.76a1.073,1.073,0,0,0-.727.24.881.881,0,0,0-.277.7.9.9,0,0,0,.247.638,1.886,1.886,0,0,0,.623.427q.375.165,1.08.42a11.871,11.871,0,0,1,1.665.683,3.185,3.185,0,0,1,1.11.982A2.807,2.807,0,0,1,8.505-2.985ZM15.24-8.46a2.9,2.9,0,0,1,2.288.96,3.851,3.851,0,0,1,.847,2.64V0H15.81V-4.56a1.845,1.845,0,0,0-.443-1.312,1.537,1.537,0,0,0-1.177-.472,1.6,1.6,0,0,0-1.238.495,2,2,0,0,0-.458,1.41V0H9.93V-11.1h2.565v4.26a2.761,2.761,0,0,1,1.073-1.185A3.146,3.146,0,0,1,15.24-8.46Zm8.745-.015a4.707,4.707,0,0,1,2.227.517,3.794,3.794,0,0,1,1.545,1.493,4.482,4.482,0,0,1,.563,2.28,4.482,4.482,0,0,1-.562,2.28A3.794,3.794,0,0,1,26.212-.413a4.707,4.707,0,0,1-2.227.518A4.752,4.752,0,0,1,21.75-.413,3.782,3.782,0,0,1,20.2-1.905a4.482,4.482,0,0,1-.562-2.28,4.482,4.482,0,0,1,.563-2.28A3.782,3.782,0,0,1,21.75-7.958,4.752,4.752,0,0,1,23.985-8.475Zm0,2.22a1.634,1.634,0,0,0-1.238.533,2.157,2.157,0,0,0-.5,1.537,2.129,2.129,0,0,0,.5,1.53,1.646,1.646,0,0,0,1.238.525,1.622,1.622,0,0,0,1.23-.525,2.15,2.15,0,0,0,.495-1.53,2.178,2.178,0,0,0-.495-1.537A1.611,1.611,0,0,0,23.985-6.255Zm10.89-2.22a3.39,3.39,0,0,1,1.853.517,3.549,3.549,0,0,1,1.29,1.485,5.161,5.161,0,0,1,.472,2.287,5.173,5.173,0,0,1-.472,2.28,3.541,3.541,0,0,1-1.29,1.493,3.39,3.39,0,0,1-1.853.518,3.03,3.03,0,0,1-1.65-.435A2.526,2.526,0,0,1,32.22-1.515V3.99H29.655V-8.37H32.22v1.515A2.526,2.526,0,0,1,33.225-8.04,3.03,3.03,0,0,1,34.875-8.475Zm-.825,2.25a1.746,1.746,0,0,0-1.327.548,2.085,2.085,0,0,0-.517,1.492A2.09,2.09,0,0,0,32.722-2.7a1.734,1.734,0,0,0,1.327.555,1.728,1.728,0,0,0,1.328-.54,2.117,2.117,0,0,0,.5-1.5,2.117,2.117,0,0,0-.5-1.5A1.728,1.728,0,0,0,34.05-6.225Zm5.535-4.5a1.252,1.252,0,0,1,.42-.967,1.585,1.585,0,0,1,1.11-.383,1.585,1.585,0,0,1,1.11.383,1.252,1.252,0,0,1,.42.967,1.236,1.236,0,0,1-.42.952,1.585,1.585,0,0,1-1.11.383,1.585,1.585,0,0,1-1.11-.383A1.236,1.236,0,0,1,39.585-10.725ZM42.39-8.37V0H39.825V-8.37Zm5.88-1.14a1.3,1.3,0,0,0-.915.27,1.243,1.243,0,0,0-.315.87h1.515v2.16H47.04V0H44.475V-6.21H43.47V-8.37h1.005v-.09a3.133,3.133,0,0,1,.907-2.408,3.72,3.72,0,0,1,2.633-.847q.36,0,.54.015v2.205Zm3.345,1.14,2.01,5.13L55.5-8.37h2.835L53.115,3.99H50.3L52.26-.315,48.75-8.37ZM8.505,4.395v2.04H5.625V15H3.045V6.435H.2V4.395ZM14.9,6.54a2.9,2.9,0,0,1,2.287.96,3.851,3.851,0,0,1,.848,2.64V15H15.465V10.44a1.845,1.845,0,0,0-.443-1.312,1.537,1.537,0,0,0-1.177-.472,1.6,1.6,0,0,0-1.238.495,2,2,0,0,0-.458,1.41V15H9.585V3.9H12.15V8.16a2.761,2.761,0,0,1,1.073-1.185A3.146,3.146,0,0,1,14.9,6.54Zm12.78,4.05a3.539,3.539,0,0,1-.075.69H21.8a1.94,1.94,0,0,0,.48,1.358,1.548,1.548,0,0,0,1.11.413,1.517,1.517,0,0,0,.945-.285,1.331,1.331,0,0,0,.5-.735H27.54a3.547,3.547,0,0,1-.72,1.583,3.837,3.837,0,0,1-1.41,1.1,4.815,4.815,0,0,1-4.087-.12A3.7,3.7,0,0,1,19.83,13.1a4.631,4.631,0,0,1-.54-2.28,4.673,4.673,0,0,1,.532-2.287,3.649,3.649,0,0,1,1.493-1.485,4.925,4.925,0,0,1,4.38-.007,3.6,3.6,0,0,1,1.463,1.432A4.264,4.264,0,0,1,27.675,10.59Zm-2.6-.39a1.542,1.542,0,0,0-.442-1.238,1.629,1.629,0,0,0-1.132-.413,1.68,1.68,0,0,0-1.17.42,1.758,1.758,0,0,0-.525,1.23ZM39.855,6.54a3.154,3.154,0,0,1,2.43.952,3.74,3.74,0,0,1,.885,2.647V15H40.62V10.44A1.707,1.707,0,0,0,40.193,9.2,1.541,1.541,0,0,0,39.03,8.76a1.574,1.574,0,0,0-1.207.472,1.867,1.867,0,0,0-.443,1.327V15H34.815V10.44A1.726,1.726,0,0,0,34.4,9.2,1.516,1.516,0,0,0,33.24,8.76a1.612,1.612,0,0,0-1.215.465,1.843,1.843,0,0,0-.45,1.335V15H29.01V6.63h2.565V8.055a2.5,2.5,0,0,1,1.013-1.11,3.072,3.072,0,0,1,1.6-.4,3.222,3.222,0,0,1,1.695.443A2.779,2.779,0,0,1,36.99,8.25,3.353,3.353,0,0,1,38.183,7,3.135,3.135,0,0,1,39.855,6.54ZM52.83,10.59a3.539,3.539,0,0,1-.075.69H46.95a1.94,1.94,0,0,0,.48,1.358,1.548,1.548,0,0,0,1.11.413,1.517,1.517,0,0,0,.945-.285,1.331,1.331,0,0,0,.495-.735h2.715a3.547,3.547,0,0,1-.72,1.583,3.837,3.837,0,0,1-1.41,1.1,4.815,4.815,0,0,1-4.087-.12A3.7,3.7,0,0,1,44.985,13.1a4.631,4.631,0,0,1-.54-2.28,4.673,4.673,0,0,1,.533-2.287A3.649,3.649,0,0,1,46.47,7.042a4.925,4.925,0,0,1,4.38-.007,3.6,3.6,0,0,1,1.463,1.432A4.264,4.264,0,0,1,52.83,10.59Zm-2.6-.39a1.542,1.542,0,0,0-.443-1.238A1.629,1.629,0,0,0,48.66,8.55a1.68,1.68,0,0,0-1.17.42,1.758,1.758,0,0,0-.525,1.23Zm9.495,2.835h3.42V15H57.165V4.395H59.73Zm7.785-6.51a3.03,3.03,0,0,1,1.65.435,2.615,2.615,0,0,1,1.02,1.185V6.63h2.55V15h-2.55V13.485a2.615,2.615,0,0,1-1.02,1.185,3.03,3.03,0,0,1-1.65.435,3.39,3.39,0,0,1-1.853-.517,3.54,3.54,0,0,1-1.29-1.492,5.173,5.173,0,0,1-.472-2.28,5.161,5.161,0,0,1,.472-2.287,3.549,3.549,0,0,1,1.29-1.485A3.39,3.39,0,0,1,67.515,6.525Zm.825,2.25a1.728,1.728,0,0,0-1.327.54,2.117,2.117,0,0,0-.5,1.5,2.117,2.117,0,0,0,.5,1.5,1.883,1.883,0,0,0,2.655-.015,2.09,2.09,0,0,0,.518-1.485,2.085,2.085,0,0,0-.518-1.492A1.746,1.746,0,0,0,68.34,8.775Zm11.385-2.25a3.39,3.39,0,0,1,1.853.517,3.549,3.549,0,0,1,1.29,1.485,5.161,5.161,0,0,1,.473,2.287,5.173,5.173,0,0,1-.473,2.28,3.54,3.54,0,0,1-1.29,1.492,3.39,3.39,0,0,1-1.853.517,3.03,3.03,0,0,1-1.65-.435,2.526,2.526,0,0,1-1.005-1.185V15H74.5V3.9H77.07V8.145A2.526,2.526,0,0,1,78.075,6.96,3.03,3.03,0,0,1,79.725,6.525ZM78.9,8.775a1.746,1.746,0,0,0-1.327.548,2.085,2.085,0,0,0-.518,1.492,2.09,2.09,0,0,0,.518,1.485,1.883,1.883,0,0,0,2.655.015,2.117,2.117,0,0,0,.5-1.5,2.117,2.117,0,0,0-.5-1.5A1.728,1.728,0,0,0,78.9,8.775Z" transform="translate(149 87)" fill="#6e78ff"/><g transform="translate(0 -0.186)"><g transform="translate(0 2)"><rect width="35" height="31" rx="4" transform="translate(89 82)" fill="#2d3171"/><g transform="translate(96 73)" fill="none" stroke="#2d3171" stroke-width="3"><circle cx="10.5" cy="10.5" r="10.5" stroke="none"/><circle cx="10.5" cy="10.5" r="9" fill="none"/></g></g><g transform="translate(96.03 65.186)"><g transform="matrix(1, 0, 0, 1, -7.03, 0)" filter="url(#a)"><ellipse cx="17.5" cy="1.5" rx="17.5" ry="1.5" transform="translate(12 37.81)" fill="#6e78ff"/></g><path d="M2.723,42.755a3,3,0,0,1-2.6-4.493L15.682,11.129V3.887H14.09a1,1,0,0,1-1-1V1a1,1,0,0,1,1-1H31.524a1,1,0,0,1,1,1V2.887a1,1,0,0,1-1,1H29.933v7.242L45.5,38.263a3,3,0,0,1-2.6,4.493Z" transform="translate(0)" fill="#6e78ff"/><path d="M10.377,3.211a3.7,3.7,0,0,1-.54,1.952A3.811,3.811,0,0,1,8.245,6.584a5.612,5.612,0,0,1-2.553.531,6,6,0,0,1-3.711-1.1A3.985,3.985,0,0,1,.39,2.946H3.838a1.825,1.825,0,0,0,.54,1.194,1.664,1.664,0,0,0,1.184.436,1.375,1.375,0,0,0,.985-.342,1.2,1.2,0,0,0,.364-.909,1.174,1.174,0,0,0-.332-.853,2.6,2.6,0,0,0-.824-.559q-.493-.218-1.364-.523A16.8,16.8,0,0,1,2.316.547,3.823,3.823,0,0,1,.929-.664,3.509,3.509,0,0,1,.352-2.755a3.524,3.524,0,0,1,.61-2.066A3.857,3.857,0,0,1,2.639-6.158a6.108,6.108,0,0,1,2.454-.464A5.505,5.505,0,0,1,8.646-5.561a4.048,4.048,0,0,1,1.485,2.918H6.625a1.8,1.8,0,0,0-.484-1.052A1.421,1.421,0,0,0,5.09-4.083a1.355,1.355,0,0,0-.919.3,1.115,1.115,0,0,0-.348.89,1.133,1.133,0,0,0,.313.805,2.379,2.379,0,0,0,.784.54q.474.208,1.364.531a14.869,14.869,0,0,1,2.1.863,4.025,4.025,0,0,1,1.4,1.24A3.547,3.547,0,0,1,10.377,3.211Z" transform="translate(12.427 29.646)" fill="#fff"/><g transform="translate(25.711 18.717)"><ellipse cx="1.879" cy="1.879" rx="1.879" ry="1.879" transform="translate(3.759 6.766)" fill="#fff"/><ellipse cx="2.631" cy="2.631" rx="2.631" ry="2.631" transform="translate(1.504 12.78)" fill="#fff"/><ellipse cx="1.504" cy="1.504" rx="1.504" ry="1.504" fill="#fff"/><ellipse cx="1.128" cy="1.128" rx="1.128" ry="1.128" transform="translate(0 6.014)" fill="#fff"/></g></g></g></g></svg>