<svg width="628" height="239" viewBox="0 0 628 239" fill="none" xmlns="http://www.w3.org/2000/svg">
<g clip-path="url(#clip0)">
<g filter="url(#filter0_d)">
<rect x="15" y="158" width="178" height="28" rx="14" fill="#6E78FF"/>
</g>
<path d="M13.2267 193.48C10.8426 193.478 8.5008 192.851 6.43594 191.662C4.37108 190.473 2.65567 188.763 1.46157 186.704C0.267471 184.644 -0.36338 182.308 -0.367775 179.929C-0.37217 177.55 0.250044 175.211 1.43653 173.148L71.9915 50.3622V17.5899H64.7723C63.5696 17.5899 62.4162 17.1131 61.5658 16.2645C60.7154 15.4158 60.2376 14.2648 60.2376 13.0646V4.52532C60.2376 3.32513 60.7154 2.1741 61.5658 1.32543C62.4162 0.476773 63.5696 0 64.7723 0L143.83 0C145.032 0 146.186 0.476773 147.036 1.32543C147.887 2.1741 148.364 3.32513 148.364 4.52532V13.0646C148.364 14.2648 147.887 15.4158 147.036 16.2645C146.186 17.1131 145.032 17.5899 143.83 17.5899H136.615V50.3622L207.206 173.152C208.393 175.216 209.015 177.554 209.011 179.933C209.006 182.313 208.375 184.649 207.181 186.708C205.987 188.767 204.272 190.477 202.207 191.667C200.142 192.856 197.8 193.483 195.416 193.484L13.2267 193.48Z" fill="#6E78FF"/>
<path d="M81.8599 165.595C77.4966 165.595 73.5866 164.887 70.1299 163.47C66.6733 162.053 63.8966 159.957 61.7999 157.18C59.7599 154.403 58.6833 151.06 58.5699 147.15H74.0399C74.2666 149.36 75.0316 151.06 76.3349 152.25C77.6383 153.383 79.3383 153.95 81.4349 153.95C83.5883 153.95 85.2883 153.468 86.5349 152.505C87.7816 151.485 88.4049 150.097 88.4049 148.34C88.4049 146.867 87.8949 145.648 86.8749 144.685C85.9116 143.722 84.6933 142.928 83.2199 142.305C81.8033 141.682 79.7633 140.973 77.0999 140.18C73.2466 138.99 70.1016 137.8 67.6649 136.61C65.2283 135.42 63.1316 133.663 61.3749 131.34C59.6183 129.017 58.7399 125.985 58.7399 122.245C58.7399 116.692 60.7516 112.357 64.7749 109.24C68.7983 106.067 74.0399 104.48 80.4999 104.48C87.0733 104.48 92.3716 106.067 96.3949 109.24C100.418 112.357 102.572 116.72 102.855 122.33H87.1299C87.0166 120.403 86.3083 118.902 85.0049 117.825C83.7016 116.692 82.0299 116.125 79.9899 116.125C78.2333 116.125 76.8166 116.607 75.7399 117.57C74.6633 118.477 74.1249 119.808 74.1249 121.565C74.1249 123.492 75.0316 124.993 76.8449 126.07C78.6583 127.147 81.4916 128.308 85.3449 129.555C89.1983 130.858 92.3149 132.105 94.6949 133.295C97.1316 134.485 99.2283 136.213 100.985 138.48C102.742 140.747 103.62 143.665 103.62 147.235C103.62 150.635 102.742 153.723 100.985 156.5C99.2849 159.277 96.7916 161.487 93.5049 163.13C90.2183 164.773 86.3366 165.595 81.8599 165.595Z" fill="white"/>
<circle cx="136" cy="154" r="12" fill="white"/>
<circle cx="143.5" cy="123.5" r="8.5" fill="white"/>
<circle cx="122.5" cy="116.5" r="5.5" fill="white"/>
<circle cx="124.5" cy="91.5" r="6.5" fill="white"/>
<path d="M268.488 76.476C264.997 76.476 261.869 75.9093 259.104 74.776C256.339 73.6427 254.117 71.9653 252.44 69.744C250.808 67.5227 249.947 64.848 249.856 61.72H262.232C262.413 63.488 263.025 64.848 264.068 65.8C265.111 66.7067 266.471 67.16 268.148 67.16C269.871 67.16 271.231 66.7747 272.228 66.004C273.225 65.188 273.724 64.0773 273.724 62.672C273.724 61.4933 273.316 60.5187 272.5 59.748C271.729 58.9773 270.755 58.3427 269.576 57.844C268.443 57.3453 266.811 56.7787 264.68 56.144C261.597 55.192 259.081 54.24 257.132 53.288C255.183 52.336 253.505 50.9307 252.1 49.072C250.695 47.2133 249.992 44.788 249.992 41.796C249.992 37.3533 251.601 33.8853 254.82 31.392C258.039 28.8533 262.232 27.584 267.4 27.584C272.659 27.584 276.897 28.8533 280.116 31.392C283.335 33.8853 285.057 37.376 285.284 41.864H272.704C272.613 40.3227 272.047 39.1213 271.004 38.26C269.961 37.3533 268.624 36.9 266.992 36.9C265.587 36.9 264.453 37.2853 263.592 38.056C262.731 38.7813 262.3 39.8467 262.3 41.252C262.3 42.7933 263.025 43.9947 264.476 44.856C265.927 45.7173 268.193 46.6467 271.276 47.644C274.359 48.6867 276.852 49.684 278.756 50.636C280.705 51.588 282.383 52.9707 283.788 54.784C285.193 56.5973 285.896 58.932 285.896 61.788C285.896 64.508 285.193 66.9787 283.788 69.2C282.428 71.4213 280.433 73.1893 277.804 74.504C275.175 75.8187 272.069 76.476 268.488 76.476ZM316.376 37.648C320.728 37.648 324.219 39.0987 326.848 42C329.477 44.856 330.792 48.8 330.792 53.832V76H319.232V55.396C319.232 52.8573 318.575 50.8853 317.26 49.48C315.945 48.0747 314.177 47.372 311.956 47.372C309.735 47.372 307.967 48.0747 306.652 49.48C305.337 50.8853 304.68 52.8573 304.68 55.396V76H293.052V25.68H304.68V43.156C305.859 41.4787 307.468 40.1413 309.508 39.144C311.548 38.1467 313.837 37.648 316.376 37.648ZM356.144 76.544C352.427 76.544 349.072 75.7507 346.08 74.164C343.134 72.5773 340.799 70.3107 339.076 67.364C337.399 64.4173 336.56 60.972 336.56 57.028C336.56 53.1293 337.422 49.7067 339.144 46.76C340.867 43.768 343.224 41.4787 346.216 39.892C349.208 38.3053 352.563 37.512 356.28 37.512C359.998 37.512 363.352 38.3053 366.344 39.892C369.336 41.4787 371.694 43.768 373.416 46.76C375.139 49.7067 376 53.1293 376 57.028C376 60.9267 375.116 64.372 373.348 67.364C371.626 70.3107 369.246 72.5773 366.208 74.164C363.216 75.7507 359.862 76.544 356.144 76.544ZM356.144 66.48C358.366 66.48 360.247 65.664 361.788 64.032C363.375 62.4 364.168 60.0653 364.168 57.028C364.168 53.9907 363.398 51.656 361.856 50.024C360.36 48.392 358.502 47.576 356.28 47.576C354.014 47.576 352.132 48.392 350.636 50.024C349.14 51.6107 348.392 53.9453 348.392 57.028C348.392 60.0653 349.118 62.4 350.568 64.032C352.064 65.664 353.923 66.48 356.144 66.48ZM393.797 43.428C394.93 41.66 396.494 40.232 398.489 39.144C400.484 38.056 402.818 37.512 405.493 37.512C408.621 37.512 411.454 38.3053 413.993 39.892C416.532 41.4787 418.526 43.7453 419.977 46.692C421.473 49.6387 422.221 53.0613 422.221 56.96C422.221 60.8587 421.473 64.304 419.977 67.296C418.526 70.2427 416.532 72.532 413.993 74.164C411.454 75.7507 408.621 76.544 405.493 76.544C402.864 76.544 400.529 76 398.489 74.912C396.494 73.824 394.93 72.4187 393.797 70.696V94.088H382.169V38.056H393.797V43.428ZM410.389 56.96C410.389 54.0587 409.573 51.792 407.941 50.16C406.354 48.4827 404.382 47.644 402.025 47.644C399.713 47.644 397.741 48.4827 396.109 50.16C394.522 51.8373 393.729 54.1267 393.729 57.028C393.729 59.9293 394.522 62.2187 396.109 63.896C397.741 65.5733 399.713 66.412 402.025 66.412C404.337 66.412 406.309 65.5733 407.941 63.896C409.573 62.1733 410.389 59.8613 410.389 56.96ZM434.169 34.112C432.129 34.112 430.452 33.5227 429.137 32.344C427.868 31.12 427.233 29.624 427.233 27.856C427.233 26.0427 427.868 24.5467 429.137 23.368C430.452 22.144 432.129 21.532 434.169 21.532C436.164 21.532 437.796 22.144 439.065 23.368C440.38 24.5467 441.037 26.0427 441.037 27.856C441.037 29.624 440.38 31.12 439.065 32.344C437.796 33.5227 436.164 34.112 434.169 34.112ZM439.949 38.056V76H428.321V38.056H439.949ZM467.416 47.712H461.16V76H449.532V47.712H445.316V38.056H449.532V36.968C449.532 32.2987 450.869 28.7627 453.544 26.36C456.219 23.912 460.14 22.688 465.308 22.688C466.169 22.688 466.804 22.7107 467.212 22.756V32.616C464.991 32.48 463.427 32.7973 462.52 33.568C461.613 34.3387 461.16 35.7213 461.16 37.716V38.056H467.416V47.712ZM511.64 38.056L487.84 94.02H475.328L484.032 74.708L468.596 38.056H481.584L490.356 61.788L499.06 38.056H511.64ZM285.556 96.264V105.58H272.908V144H261.28V105.58H248.632V96.264H285.556ZM314.716 105.648C319.068 105.648 322.558 107.099 325.188 110C327.817 112.856 329.132 116.8 329.132 121.832V144H317.572V123.396C317.572 120.857 316.914 118.885 315.6 117.48C314.285 116.075 312.517 115.372 310.296 115.372C308.074 115.372 306.306 116.075 304.992 117.48C303.677 118.885 303.02 120.857 303.02 123.396V144H291.392V93.68H303.02V111.156C304.198 109.479 305.808 108.141 307.848 107.144C309.888 106.147 312.177 105.648 314.716 105.648ZM372.98 124.416C372.98 125.504 372.912 126.637 372.776 127.816H346.46C346.641 130.173 347.389 131.987 348.704 133.256C350.064 134.48 351.719 135.092 353.668 135.092C356.569 135.092 358.587 133.868 359.72 131.42H372.096C371.461 133.913 370.305 136.157 368.628 138.152C366.996 140.147 364.933 141.711 362.44 142.844C359.947 143.977 357.159 144.544 354.076 144.544C350.359 144.544 347.049 143.751 344.148 142.164C341.247 140.577 338.98 138.311 337.348 135.364C335.716 132.417 334.9 128.972 334.9 125.028C334.9 121.084 335.693 117.639 337.28 114.692C338.912 111.745 341.179 109.479 344.08 107.892C346.981 106.305 350.313 105.512 354.076 105.512C357.748 105.512 361.012 106.283 363.868 107.824C366.724 109.365 368.945 111.564 370.532 114.42C372.164 117.276 372.98 120.608 372.98 124.416ZM361.08 121.356C361.08 119.361 360.4 117.775 359.04 116.596C357.68 115.417 355.98 114.828 353.94 114.828C351.991 114.828 350.336 115.395 348.976 116.528C347.661 117.661 346.845 119.271 346.528 121.356H361.08ZM427.53 105.648C432.245 105.648 435.985 107.076 438.75 109.932C441.561 112.788 442.966 116.755 442.966 121.832V144H431.406V123.396C431.406 120.948 430.749 119.067 429.434 117.752C428.165 116.392 426.397 115.712 424.13 115.712C421.864 115.712 420.073 116.392 418.758 117.752C417.489 119.067 416.854 120.948 416.854 123.396V144H405.294V123.396C405.294 120.948 404.637 119.067 403.322 117.752C402.053 116.392 400.285 115.712 398.018 115.712C395.752 115.712 393.961 116.392 392.646 117.752C391.377 119.067 390.742 120.948 390.742 123.396V144H379.114V106.056H390.742V110.816C391.921 109.229 393.462 107.983 395.366 107.076C397.27 106.124 399.424 105.648 401.826 105.648C404.682 105.648 407.221 106.26 409.442 107.484C411.709 108.708 413.477 110.453 414.746 112.72C416.061 110.635 417.852 108.935 420.118 107.62C422.385 106.305 424.856 105.648 427.53 105.648ZM486.867 124.416C486.867 125.504 486.799 126.637 486.663 127.816H460.347C460.528 130.173 461.276 131.987 462.591 133.256C463.951 134.48 465.605 135.092 467.555 135.092C470.456 135.092 472.473 133.868 473.607 131.42H485.983C485.348 133.913 484.192 136.157 482.515 138.152C480.883 140.147 478.82 141.711 476.327 142.844C473.833 143.977 471.045 144.544 467.963 144.544C464.245 144.544 460.936 143.751 458.035 142.164C455.133 140.577 452.867 138.311 451.235 135.364C449.603 132.417 448.787 128.972 448.787 125.028C448.787 121.084 449.58 117.639 451.167 114.692C452.799 111.745 455.065 109.479 457.967 107.892C460.868 106.305 464.2 105.512 467.963 105.512C471.635 105.512 474.899 106.283 477.755 107.824C480.611 109.365 482.832 111.564 484.419 114.42C486.051 117.276 486.867 120.608 486.867 124.416ZM474.967 121.356C474.967 119.361 474.287 117.775 472.927 116.596C471.567 115.417 469.867 114.828 467.827 114.828C465.877 114.828 464.223 115.395 462.863 116.528C461.548 117.661 460.732 119.271 460.415 121.356H474.967ZM519.039 135.024H534.271V144H507.411V96.264H519.039V135.024ZM537.506 124.96C537.506 121.061 538.231 117.639 539.682 114.692C541.178 111.745 543.195 109.479 545.734 107.892C548.272 106.305 551.106 105.512 554.234 105.512C556.908 105.512 559.243 106.056 561.238 107.144C563.278 108.232 564.842 109.66 565.93 111.428V106.056H577.558V144H565.93V138.628C564.796 140.396 563.21 141.824 561.17 142.912C559.175 144 556.84 144.544 554.166 144.544C551.083 144.544 548.272 143.751 545.734 142.164C543.195 140.532 541.178 138.243 539.682 135.296C538.231 132.304 537.506 128.859 537.506 124.96ZM565.93 125.028C565.93 122.127 565.114 119.837 563.482 118.16C561.895 116.483 559.946 115.644 557.634 115.644C555.322 115.644 553.35 116.483 551.718 118.16C550.131 119.792 549.338 122.059 549.338 124.96C549.338 127.861 550.131 130.173 551.718 131.896C553.35 133.573 555.322 134.412 557.634 134.412C559.946 134.412 561.895 133.573 563.482 131.896C565.114 130.219 565.93 127.929 565.93 125.028ZM597.598 111.428C598.686 109.66 600.25 108.232 602.29 107.144C604.33 106.056 606.665 105.512 609.294 105.512C612.422 105.512 615.255 106.305 617.794 107.892C620.333 109.479 622.327 111.745 623.778 114.692C625.274 117.639 626.022 121.061 626.022 124.96C626.022 128.859 625.274 132.304 623.778 135.296C622.327 138.243 620.333 140.532 617.794 142.164C615.255 143.751 612.422 144.544 609.294 144.544C606.619 144.544 604.285 144.023 602.29 142.98C600.295 141.892 598.731 140.464 597.598 138.696V144H585.97V93.68H597.598V111.428ZM614.19 124.96C614.19 122.059 613.374 119.792 611.742 118.16C610.155 116.483 608.183 115.644 605.826 115.644C603.514 115.644 601.542 116.483 599.91 118.16C598.323 119.837 597.53 122.127 597.53 125.028C597.53 127.929 598.323 130.219 599.91 131.896C601.542 133.573 603.514 134.412 605.826 134.412C608.138 134.412 610.11 133.573 611.742 131.896C613.374 130.173 614.19 127.861 614.19 124.96Z" fill="#6E78FF"/>
</g>
<defs>
<filter id="filter0_d" x="-15" y="143" width="238" height="88" filterUnits="userSpaceOnUse" color-interpolation-filters="sRGB">
<feFlood flood-opacity="0" result="BackgroundImageFix"/>
<feColorMatrix in="SourceAlpha" type="matrix" values="0 0 0 0 0 0 0 0 0 0 0 0 0 0 0 0 0 0 127 0"/>
<feOffset dy="15"/>
<feGaussianBlur stdDeviation="15"/>
<feColorMatrix type="matrix" values="0 0 0 0 0 0 0 0 0 0.0839841 0 0 0 0 1 0 0 0 0.4 0"/>
<feBlend mode="normal" in2="BackgroundImageFix" result="effect1_dropShadow"/>
<feBlend mode="normal" in="SourceGraphic" in2="effect1_dropShadow" result="shape"/>
</filter>
<clipPath id="clip0">
<rect width="628" height="239" fill="white"/>
</clipPath>
</defs>
</svg>
